<svg id="Layer_1" enable-background="new 0 0 512.002 512.002" height="512" viewBox="0 0 512.002 512.002" width="512" xmlns="http://www.w3.org/2000/svg"><g><path d="m255.874 369.5c-74.733-1.358-146.626-12.177-197.459-54.24l-.018 58.289c89.21 61.011 306.21 61.027 395.207-.192l-.018-58.321c-50.811 42.261-122.866 53.095-197.712 54.464z"/><path d="m453.616 408.771c-103.475 54.039-291.443 54.13-395.229.137 0 0-.012 39.286-.012 39.286-.001 2.177.473 4.327 1.386 6.303 26.564 48.103 134.065 56.688 196.239 57.505 62.215-.824 169.625-9.386 196.243-57.503.912-1.977 1.386-4.128 1.385-6.305 0 0-.012-39.423-.012-39.423z"/><path d="m134.501 90c8.284 0 15-6.716 15-15v-60c0-8.284-6.716-15-15-15s-15 6.716-15 15v60c0 8.284 6.716 15 15 15z"/><path d="m209.5 90h30.001c16.542 0 30-13.458 30-30v-30c0-16.542-13.458-30-30-30h-30.001c-16.541 0-29.999 13.458-29.999 30v30c0 16.542 13.458 30 29.999 30zm30.001-60v30h-30l-.004-30z"/><path d="m314.502 90c8.284 0 15-6.716 15-15v-60c0-8.284-6.716-15-15-15s-15 6.716-15 15v60c0 8.284 6.716 15 15 15z"/><path d="m374.502 90c8.284 0 15-6.716 15-15v-60c0-8.284-6.716-15-15-15s-15 6.716-15 15v60c0 8.284 6.716 15 15 15z"/><path d="m377.501 120c-8.284 0-15 6.716-15 15v14.721c10.516 2.54 20.554 5.465 30 8.759v-23.48c0-8.284-6.716-15-15-15z"/><path d="m121.501 317.691c36.226 14.063 83.946 21.809 134.373 21.809s98.147-7.745 134.373-21.809c83.882-31.185 83.907-96.898-.001-128.084-36.224-14.064-83.945-21.809-134.372-21.809s-98.147 7.745-134.373 21.809c-83.882 31.186-83.907 96.898 0 128.084z"/><path d="m242.017 137.99c29.034-.823 59.436.981 86.682 5.145-3.114-13.243-15.019-23.135-29.198-23.135h-30.001c-12.273 0-22.842 7.411-27.483 17.99z"/><path d="m179.501 120h-30.001c-16.542 0-30 13.458-30 30v8.393c25.806-8.972 56.012-15.203 88.308-18.312-4.105-11.681-15.241-20.081-28.307-20.081z"/></g></svg>