<svg id="Capa_1" enable-background="new 0 0 512 512" height="512" viewBox="0 0 512 512" width="512" xmlns="http://www.w3.org/2000/svg"><path d="m463.348 280.218-44.536-118.765v-23.463c12.534-4.331 17.063-17.714 15.531-29.681h23.557c12.765 0 23.149-10.385 23.149-23.149 0-12.766-10.385-23.15-23.149-23.15h-108.71c-12.766 0-23.15 10.385-23.15 23.15 0 25.008-16.85 46.498-40.662 52.714-1.886-2.219-4.012-4.227-6.348-5.972v-108.872c-1.318-14.035-8.995-21.712-23.03-23.03-12.699 0-23.03 10.331-23.03 23.03v108.872c-2.336 1.745-4.462 3.754-6.348 5.972-23.812-6.216-40.661-27.706-40.661-52.714 0-12.766-10.385-23.15-23.15-23.15h-45.781c-4.143 0-7.5 3.357-7.5 7.5s3.357 7.5 7.5 7.5h45.779c4.494 0 8.15 3.656 8.15 8.15 0 30.604 19.787 57.081 48.222 66.175-1.679 5.465-2.146 10.981-1.401 16.547-31.62-8.732-56.323-35.391-61.906-68.326-.611-3.606-3.736-6.246-7.395-6.246h-94.379c-4.493 0-8.149-3.656-8.149-8.149 0-4.494 3.656-8.15 8.149-8.15h30.25c4.143 0 7.5-3.357 7.5-7.5s-3.357-7.5-7.5-7.5h-30.25c-12.765 0-23.149 10.385-23.149 23.15s10.385 23.149 23.149 23.149h23.558c-1.532 11.967 2.997 25.35 15.531 29.681v23.463l-44.537 118.764c-10.08 2.453-17.588 11.552-17.588 22.375 0 10.074 6.504 18.651 15.531 21.77-3.152 32.316 19.986 63.385 54.093 63.385s57.246-31.069 54.094-63.385c9.027-3.119 15.531-11.696 15.531-21.77 0-10.824-7.508-19.923-17.588-22.375l-44.537-118.765v-23.463c12.534-4.331 17.063-17.714 15.531-29.681h18.634c9.295 39.268 41.918 69.815 81.878 76.329 2.4 3.483 5.353 6.557 8.739 9.086v210.087h-8.032c-4.143 0-7.5 3.357-7.5 7.5v23.562h-23.562c-4.143 0-7.5 3.357-7.5 7.5v23.567h-54.626c-4.143 0-7.5 3.357-7.5 7.5v31.06c0 4.143 3.357 7.5 7.5 7.5h170.03c4.143 0 7.5-3.357 7.5-7.5s-3.357-7.5-7.5-7.5h-162.53v-16.06h233.5v16.06h-38.28c-4.143 0-7.5 3.357-7.5 7.5s3.357 7.5 7.5 7.5h45.78c4.143 0 7.5-3.357 7.5-7.5v-31.06c0-4.143-3.357-7.5-7.5-7.5h-54.626v-23.567c0-4.143-3.357-7.5-7.5-7.5h-23.562v-23.562c0-4.143-3.357-7.5-7.5-7.5h-8.032v-84.871c0-4.143-3.357-7.5-7.5-7.5s-7.5 3.357-7.5 7.5v84.869h-16.06v-203.28c5.137 1.093 10.683.871 16.061-.412v86.133c0 4.143 3.357 7.5 7.5 7.5s7.5-3.357 7.5-7.5v-92.905c3.448-2.448 6.45-5.386 8.739-8.707 39.96-6.514 72.583-37.061 81.878-76.329h18.634c-1.532 11.967 2.997 25.35 15.531 29.681v23.463l-44.537 118.765c-10.08 2.453-17.588 11.552-17.588 22.375 0 10.074 6.504 18.651 15.531 21.77-3.152 32.317 19.987 63.385 54.094 63.385s57.245-31.069 54.093-63.385c9.027-3.119 15.531-11.696 15.531-21.77-.001-10.823-7.509-19.922-17.589-22.375zm-362.66 92.531c-25.424-.001-40.912-23.638-39.093-47.125h78.187c.569 22.043-13.757 47.126-39.094 47.125zm46.595-78.185c.007 0 .013-.001.02-.001 4.419.012 8.01 3.609 8.01 8.03 0 4.428-3.603 8.03-8.031 8.03h-93.186c-4.429 0-8.031-3.603-8.031-8.03 0-4.429 3.603-8.031 8.031-8.031h93.162c.008.001.017.002.025.002zm-10.824-15.001h-71.541l35.77-95.389zm-27.739-163.343c0 4.429-3.603 8.031-8.031 8.031s-8.031-3.603-8.031-8.031v-7.91h16.063v7.91zm139.25-93.19c0-4.428 3.603-8.03 8.03-8.03 4.892.461 7.569 3.138 8.03 8.03v102.068c-5.354-1.129-10.707-1.129-16.061 0v-102.068zm62.654 426.843v16.067h-109.248v-16.067zm-31.061-31.061v16.062h-47.125v-16.062zm-23.563-232.436c-12.992 0-23.563-10.57-23.563-23.563s10.57-23.563 23.563-23.563 23.563 10.57 23.563 23.563-10.571 23.563-23.563 23.563zm107.52-93.066c-3.658 0-6.783 2.64-7.395 6.246-5.583 32.936-30.287 59.594-61.906 68.326.746-5.566.279-11.082-1.401-16.547 28.435-9.094 48.222-35.571 48.222-66.175 0-4.494 3.656-8.15 8.15-8.15h108.71c4.493 0 8.149 3.656 8.149 8.15 0 4.493-3.656 8.149-8.149 8.149h-94.38zm39.76 22.91v-7.91h16.063v7.91c0 4.429-3.603 8.031-8.031 8.031s-8.032-3.603-8.032-8.031zm8.032 67.954 35.77 95.389h-71.541zm0 188.575c-25.424-.154-39.238-22.082-39.094-47.125h78.187c-.001 28.043-13.984 47.277-39.093 47.125zm46.592-62.125h-93.187c-4.429 0-8.031-3.603-8.031-8.03 0-4.422 3.591-8.019 8.01-8.03.007 0 .013.001.02.001.009 0 .017-.002.026-.002h93.162c4.429 0 8.031 3.603 8.031 8.031.001 4.427-3.602 8.03-8.031 8.03z"/></svg>