<?xml version="1.0" encoding="iso-8859-1"?>
<!-- Generator: Adobe Illustrator 19.0.0, SVG Export Plug-In . SVG Version: 6.00 Build 0)  -->
<svg version="1.1" id="Capa_1" xmlns="http://www.w3.org/2000/svg" xmlns:xlink="http://www.w3.org/1999/xlink" x="0px" y="0px"
	 viewBox="0 0 512 512" style="enable-background:new 0 0 512 512;" xml:space="preserve">
<path style="fill:#A06E50;" d="M406.19,274.927c-13.917-23.45-13.917-53.163-13.917-66.523H119.725c0,13.36,0,43.073-13.917,66.523
	c-4.097,6.903-0.873,15.769,6.912,17.725c27.776,6.979,85.528,19.461,143.279,19.461s115.503-12.482,143.279-19.461
	C407.063,290.696,410.287,281.829,406.19,274.927z"/>
<path style="fill:#F7D291;" d="M405.098,370.149l-64.813-25.926c-12.173-4.869-20.156-16.66-20.156-29.771v-10.356H191.87v10.356
	c0,13.111-7.982,24.901-20.156,29.771l-64.813,25.926c-21.304,8.522-35.273,29.155-35.273,52.099V504.5H440.37v-82.252
	C440.37,399.303,426.401,378.67,405.098,370.149z"/>
<path style="fill:#FF8087;" d="M405.097,370.149l-44.438-17.776c-16.197,42.064-56.888,71.966-104.66,71.966
	s-88.463-29.901-104.66-71.966l-44.438,17.776c-21.304,8.522-35.273,29.155-35.273,52.1V504.5H440.37v-82.251
	C440.37,399.304,426.401,378.67,405.097,370.149z"/>
<path style="fill:#E6646E;" d="M106.711,370.242c23.296,59.771,81.275,102.193,149.288,102.193s125.993-42.423,149.289-102.193
	c-0.067-0.027-0.124-0.067-0.191-0.093l-44.438-17.776c-16.197,42.064-56.888,71.966-104.66,71.966s-88.463-29.901-104.66-71.966
	l-44.438,17.776C106.835,370.175,106.777,370.215,106.711,370.242z"/>
<path style="fill:#F0C382;" d="M191.87,304.097v10.356c0,4.253-0.916,16.348-2.467,20.133
	c19.767,11.169,42.487,17.608,66.596,17.608s46.829-6.439,66.596-17.608c-1.551-3.784-2.467-15.88-2.467-20.133v-10.356H191.87z"/>
<path style="fill:#FFE1A0;" d="M388.266,175.839h-12.024v-40.081H135.758v40.081h-12.024c-11.068,0-20.04,8.972-20.04,20.04
	c0,11.068,8.972,20.04,20.04,20.04h12.429c4.143,62.652,56.134,112.226,119.837,112.226s115.694-49.573,119.837-112.226h12.429
	c11.068,0,20.04-8.973,20.04-20.04C408.306,184.811,399.334,175.839,388.266,175.839z"/>
<path style="fill:#F7D291;" d="M135.758,135.758v40.081h-12.024c-11.068,0-20.04,8.972-20.04,20.04
	c0,11.068,8.972,20.04,20.04,20.04h12.429c4.143,62.652,56.134,112.226,119.837,112.226c6.869,0,13.566-0.684,20.119-1.791
	c-56.886-9.527-100.28-58.859-100.28-118.451v-8.016c0-22.136,17.944-40.081,40.081-40.081h96.194
	c8.854,0,16.032-7.178,16.032-16.032v-8.016L135.758,135.758L135.758,135.758z"/>
<polygon style="fill:#FFD164;" points="272.032,440.371 239.967,440.371 231.951,504.5 280.048,504.5 "/>
<path style="fill:#FFFFFF;" d="M215.919,236.405c0,19.676,17.945,35.627,40.08,35.627s40.081-15.951,40.08-35.627L215.919,236.405
	L215.919,236.405z"/>
<path style="fill:#FFE17D;" d="M255.999,448.387c57.896,0,107.232-36.165,126.977-87.087l-37.195-14.879
	c-13.83,36.16-48.759,61.885-89.781,61.885s-75.951-25.725-89.781-61.885L129.023,361.3
	C148.767,412.222,198.104,448.387,255.999,448.387z"/>
<path style="fill:#B67F5F;" d="M256,7.5L256,7.5c-75.262,0-136.274,61.012-136.274,136.274v35.947l17.92-2.17
	c8.723-1.056,16.175-6.785,19.438-14.943l10.739-26.85h176.355l10.74,26.851c3.263,8.158,10.715,13.886,19.437,14.943l17.919,2.17
	v-35.947C392.274,68.512,331.262,7.5,256,7.5z"/>
<path style="fill:#A06E50;" d="M288.064,11.452c-10.3-2.489-21-3.952-32.065-3.952c-75.262,0-136.274,61.012-136.274,136.274v35.948
	l17.92-2.17c8.723-1.056,16.175-6.786,19.438-14.944l10.739-26.85h16.437C187.794,75.154,230.822,25.283,288.064,11.452z"/>
<path d="M207.771,200.075c4.142,0,7.5-3.358,7.5-7.5v-8.016c0-4.142-3.358-7.5-7.5-7.5s-7.5,3.358-7.5,7.5v8.016
	C200.271,196.717,203.629,200.075,207.771,200.075z"/>
<path d="M303.969,200.075c4.142,0,7.5-3.358,7.5-7.5v-8.016c0-4.142-3.358-7.5-7.5-7.5s-7.5,3.358-7.5,7.5v8.016
	C296.469,196.717,299.827,200.075,303.969,200.075z"/>
<path d="M407.889,363.18l-64.815-25.926c-9.381-3.752-15.442-12.706-15.442-22.809v-0.832c0.98-0.666,1.949-1.349,2.909-2.041
	c32.998-0.354,62.102-7.913,76.706-12.465c4.8-1.496,8.449-5.08,10.012-9.832c1.586-4.822,0.713-10.181-2.336-14.334
	c-13.437-18.308-14.95-40.032-15.12-54.072c9.442-4.372,16.01-13.931,16.01-25.001c0-11.129-6.64-20.731-16.163-25.071V143.78
	C399.649,64.5,335.15,0,255.87,0S112.09,64.5,112.09,143.78v27.133c-9.384,4.395-15.903,13.925-15.903,24.953
	c0,11.07,6.569,20.629,16.01,25.001c-0.171,14.041-1.683,35.765-15.12,54.072c-3.049,4.154-3.922,9.513-2.336,14.334
	c1.563,4.752,5.212,8.336,10.012,9.832c14.603,4.552,43.708,12.111,76.706,12.465c0.961,0.693,1.929,1.375,2.909,2.041v0.832
	c0,10.104-6.062,19.057-15.442,22.809l-64.816,25.926c-24.292,9.717-39.989,32.901-39.989,59.065V504.5c0,4.142,3.358,7.5,7.5,7.5
	s7.5-3.358,7.5-7.5v-82.255c0-19.995,11.996-37.712,30.56-45.139l15.14-6.056c10.833,24.103,28.025,44.674,49.969,59.719
	c17.195,11.789,36.515,19.566,56.827,23.032l-7.091,49.637c-0.585,4.101,2.264,7.899,6.364,8.485c0.36,0.051,0.717,0.076,1.07,0.076
	c3.672,0,6.881-2.7,7.416-6.44l7.143-50.003c3.146,0.205,6.306,0.327,9.481,0.327c3.176,0,6.335-0.123,9.481-0.327l7.143,50.003
	c0.535,3.741,3.743,6.44,7.416,6.44c0.353,0,0.71-0.025,1.07-0.076c4.101-0.586,6.95-4.385,6.364-8.485l-7.091-49.637
	c20.489-3.496,39.961-11.376,57.269-23.337c21.751-15.032,38.761-35.489,49.514-59.42l15.152,6.061
	c18.564,7.426,30.56,25.144,30.56,45.139V504.5c0,4.142,3.358,7.5,7.5,7.5s7.5-3.358,7.5-7.5v-82.255
	C447.878,396.081,432.181,372.896,407.889,363.18z M403.009,284.588c-0.037,0.111-0.069,0.148-0.227,0.198
	c-11.008,3.431-30.719,8.671-54.003,10.825c18.31-19.356,30.644-44.417,34.023-72.204h2.036
	c0.335,15.876,2.602,39.441,17.991,60.408C403.1,284.184,403.045,284.479,403.009,284.588z M123.728,183.325h11.775
	c12.975,0,24.473-7.785,29.292-19.833l8.1-20.25H296.08c4.142,0,7.5-3.358,7.5-7.5s-3.358-7.5-7.5-7.5H151.786
	c-4.142,0-7.5,3.358-7.5,7.5s3.358,7.5,7.5,7.5h4.955l-5.872,14.679c-2.528,6.32-8.56,10.403-15.366,10.403h-8.414V143.78
	C127.089,72.771,184.86,15,255.869,15c71.01,0,128.78,57.771,128.78,128.78v24.545h-8.154c-6.806,0-12.837-4.083-15.366-10.403
	l-5.872-14.679h4.955c4.142,0,7.5-3.358,7.5-7.5s-3.358-7.5-7.5-7.5h-32.067c-4.142,0-7.5,3.358-7.5,7.5s3.358,7.5,7.5,7.5h10.957
	l8.1,20.25c4.819,12.047,16.317,19.832,29.292,19.832h11.775c6.916,0,12.542,5.626,12.542,12.541s-5.626,12.541-12.542,12.541
	h-4.531c0.001-0.172,0.007-0.344,0.007-0.516c0-4.142-3.358-7.5-7.5-7.5s-7.5,3.358-7.5,7.5
	c0,62.168-50.578,112.747-112.747,112.747S143.252,270.06,143.252,207.891c0-4.142-3.358-7.5-7.5-7.5s-7.5,3.358-7.5,7.5
	c0,0.173,0.006,0.344,0.007,0.516h-4.531c-6.916,0-12.542-5.626-12.542-12.541S116.812,183.325,123.728,183.325z M108.99,284.588
	c-0.036-0.11-0.091-0.405,0.18-0.773c15.389-20.967,17.656-44.532,17.991-60.408h2.036c3.38,27.787,15.713,52.848,34.023,72.204
	c-23.285-2.154-42.995-7.394-54.003-10.825C109.059,284.737,109.026,284.7,108.99,284.588z M329.124,418.125
	c-21.544,14.889-46.83,22.759-73.124,22.759c-26.123,0-51.271-7.776-72.728-22.487c-19.489-13.361-34.784-31.586-44.502-52.927
	l23.335-9.334c7.786,16.606,19.785,30.815,35.009,41.334c17.354,11.992,37.717,18.331,58.885,18.331
	c15.075,0,29.614-3.165,43.214-9.407c3.765-1.728,5.416-6.181,3.688-9.945s-6.181-5.416-9.945-3.688
	c-11.624,5.335-24.058,8.04-36.957,8.04c-34.498,0-65.245-19.542-79.965-50.276c11.893-5.336,20.205-15.981,22.613-28.509
	c17.256,8.707,36.74,13.621,57.352,13.621s40.096-4.913,57.352-13.621c2.408,12.524,10.717,23.167,22.606,28.505
	c-4.572,9.471-10.878,18.204-18.469,25.508c-2.985,2.872-3.076,7.62-0.204,10.604c1.472,1.53,3.437,2.3,5.405,2.3
	c1.871,0,3.745-0.696,5.199-2.096c9.106-8.761,16.632-19.285,22.008-30.701l23.324,9.33
	C363.575,386.655,348.44,404.776,329.124,418.125z"/>
<path d="M208.417,236.394c0,23.781,21.345,43.128,47.583,43.128s47.583-19.347,47.583-43.128c0-4.142-3.358-7.5-7.5-7.5h-80.165
	C211.775,228.894,208.417,232.252,208.417,236.394z M287.406,243.894c-3.812,11.88-16.449,20.628-31.407,20.628
	s-27.595-8.748-31.407-20.628H287.406z"/>
<g>
</g>
<g>
</g>
<g>
</g>
<g>
</g>
<g>
</g>
<g>
</g>
<g>
</g>
<g>
</g>
<g>
</g>
<g>
</g>
<g>
</g>
<g>
</g>
<g>
</g>
<g>
</g>
<g>
</g>
</svg>
