<?xml version="1.0" encoding="iso-8859-1"?>
<!-- Generator: Adobe Illustrator 19.0.0, SVG Export Plug-In . SVG Version: 6.00 Build 0)  -->
<svg version="1.1" id="Capa_1" xmlns="http://www.w3.org/2000/svg" xmlns:xlink="http://www.w3.org/1999/xlink" x="0px" y="0px"
	 viewBox="0 0 512 512" style="enable-background:new 0 0 512 512;" xml:space="preserve">
<path style="fill:#EDEBED;" d="M413.861,390.135l-101.748-29.926H199.887L98.139,390.135c-20.469,6.02-34.525,24.806-34.525,46.142
	v68.222h384.773v-68.222C448.387,414.941,434.33,396.155,413.861,390.135z"/>
<path style="fill:#DBD9DC;" d="M256,432.354c44.478,0,83.711-22.777,106.726-57.259l-50.613-14.886H199.887l-50.613,14.886
	C172.289,409.577,211.522,432.354,256,432.354z"/>
<g>
	<polygon style="fill:#FF8250;" points="127.742,381.428 127.742,504.499 183.855,504.499 183.855,364.924 	"/>
	<polygon style="fill:#FF8250;" points="384.258,381.428 384.258,504.499 328.145,504.499 328.145,364.924 	"/>
</g>
<path style="fill:#DC7346;" d="M328.145,409.998v-45.074l34.581,10.171C353.554,388.837,341.774,400.675,328.145,409.998z"/>
<rect x="151.79" y="111.71" style="fill:#EDEBED;" width="208.42" height="48.1"/>
<path style="fill:#CD916E;" d="M372.234,199.887H360.21v-40.081H151.791v40.081h-12.024c-11.068,0-20.04,8.972-20.04,20.04
	c0,11.068,8.972,20.04,20.04,20.04h12.024v24.048H360.21v-24.048h12.024c11.068,0,20.04-8.973,20.04-20.04
	C392.274,208.859,383.302,199.887,372.234,199.887z"/>
<path style="fill:#B67F5F;" d="M360.209,159.806H151.791v40.081h-10.777c-10.483,0-20.035,7.542-21.08,17.973
	c-1.201,11.996,8.186,22.108,19.936,22.108h11.92v24.048h32.064v-32.064c0-26.563,21.534-48.097,48.097-48.097h128.258
	L360.209,159.806L360.209,159.806z"/>
<path style="fill:#FF9664;" d="M360.085,199.887c-17.379-8.512-106.73-59.041-184.246-172.174
	C198.746,14.959,226.259,7.5,255.875,7.5c79.689,0,144.29,53.834,144.29,120.242c0,27.075-10.739,53.39-28.86,73.489
	C371.305,201.231,364.706,202.15,360.085,199.887z"/>
<path style="fill:#FF8250;" d="M151.791,199.887c17.379-8.512,106.73-59.041,184.246-172.174C313.129,14.959,285.617,7.5,256,7.5
	c-79.689,0-144.29,53.834-144.29,120.242c0,27.075,10.739,53.39,28.86,73.489C140.57,201.231,147.17,202.15,151.791,199.887z"/>
<g>
	<path style="fill:#DBD9DC;" d="M127.742,432.354L127.742,432.354v72.145h-24.048v-48.097
		C103.694,443.121,114.461,432.354,127.742,432.354z"/>
	<path style="fill:#DBD9DC;" d="M384.258,432.354L384.258,432.354v72.145h24.048v-48.097
		C408.306,443.121,397.539,432.354,384.258,432.354z"/>
</g>
<path style="fill:#DC7346;" d="M183.855,409.998v-45.074l-34.581,10.171C158.446,388.837,170.226,400.675,183.855,409.998z"/>
<path style="fill:#64505A;" d="M256,408.305L256,408.305c-57.553,0-104.21-46.656-104.21-104.209v-56.113h208.419v56.113
	C360.209,361.649,313.553,408.305,256,408.305z"/>
<path style="fill:#5A4650;" d="M183.855,304.096v-56.113h-32.064v56.113c0,57.553,46.656,104.209,104.209,104.209
	c5.467,0,10.793-0.547,16.032-1.359C222.111,399.217,183.855,356.183,183.855,304.096z"/>
<path d="M207.903,200.403c-4.142,0-7.5,3.358-7.5,7.5v8.016c0,4.142,3.358,7.5,7.5,7.5s7.5-3.358,7.5-7.5v-8.016
	C215.403,203.761,212.045,200.403,207.903,200.403z"/>
<path d="M304.097,200.403c-4.143,0-7.5,3.358-7.5,7.5v8.016c0,4.142,3.357,7.5,7.5,7.5s7.5-3.358,7.5-7.5v-8.016
	C311.597,203.761,308.239,200.403,304.097,200.403z"/>
<path d="M274.78,274.709c-2.737,2.701-9.299,5.855-18.78,5.855c-9.482,0-16.043-3.154-18.781-5.855
	c-2.949-2.91-7.698-2.876-10.606,0.071c-2.909,2.949-2.877,7.698,0.071,10.606c6.459,6.373,17.418,10.177,29.316,10.177
	c11.898,0,22.856-3.805,29.315-10.177c2.948-2.909,2.98-7.658,0.071-10.606S277.728,271.8,274.78,274.709z"/>
<path d="M415.978,382.939l-65.521-19.271c10.92-17.254,17.252-37.687,17.252-59.573v-56.629h4.629
	c7.768,0,15.212-3.305,20.426-9.067c5.21-5.758,7.751-13.518,6.973-21.288c-0.931-9.3-6.882-17.242-15.108-21.468
	c15.189-20.295,23.162-43.551,23.162-67.902C407.79,57.305,339.697,0,256,0S104.21,57.305,104.21,127.742
	c0,24.368,7.983,47.637,23.191,67.941c-8.187,4.236-14.104,12.158-15.033,21.429c-0.779,7.771,1.763,15.53,6.973,21.289
	c5.214,5.762,12.659,9.067,20.426,9.067h4.524v56.629c0,21.886,6.332,42.319,17.252,59.573l-65.52,19.271
	c-23.498,6.912-39.909,28.845-39.909,53.337V504.5c0,4.142,3.358,7.5,7.5,7.5s7.5-3.358,7.5-7.5v-68.222
	c0-17.885,11.983-33.9,29.142-38.947l19.987-5.877v113.045c0,4.142,3.358,7.5,7.5,7.5c4.142,0,7.5-3.358,7.5-7.5V387.043
	l35.781-10.521c1.709,2.002,3.487,3.943,5.331,5.819v25.964c0,4.142,3.358,7.5,7.5,7.5s7.5-3.358,7.5-7.5v-13.152
	c18.258,13,40.575,20.652,64.645,20.652c24.07,0,46.387-7.653,64.645-20.652V504.5c0,4.142,3.357,7.5,7.5,7.5s7.5-3.358,7.5-7.5
	V382.342c1.833-1.865,3.601-3.793,5.3-5.782l35.813,10.506V504.5c0,4.142,3.357,7.5,7.5,7.5s7.5-3.358,7.5-7.5V391.466l19.987,5.864
	c17.158,5.047,29.142,21.062,29.142,38.947v68.222c0,4.142,3.357,7.5,7.5,7.5s7.5-3.358,7.5-7.5v-68.222
	C455.887,411.784,439.476,389.851,415.978,382.939z M392.79,127.742c0,23.092-8.368,45.135-24.222,64.004
	c-12.233-5.787-53.71-27.11-101.516-70.358c23.581-22.692,48.054-50.448,70.834-83.9C371.198,58.07,392.79,90.866,392.79,127.742z
	 M256.065,131.664c8.247,7.496,16.327,14.372,24.124,20.643h-48.265C239.732,146.03,247.815,139.163,256.065,131.664z M256,15
	c25.006,0,48.463,5.563,68.655,15.261c-73.02,106.588-163.129,152.985-181.193,161.52c-15.873-18.877-24.251-40.931-24.251-64.039
	C119.21,65.576,180.574,15,256,15z M159.291,304.096v-48.613h152.822c4.143,0,7.5-3.358,7.5-7.5s-3.357-7.5-7.5-7.5H159.291v-8.532
	c0-4.142-3.358-7.5-7.5-7.5s-7.5,3.358-7.5,7.5v0.516h-4.524c-3.537,0-6.928-1.506-9.303-4.131c-2.407-2.66-3.533-6.115-3.171-9.729
	c0.63-6.292,6.612-11.221,13.618-11.22c3.067,0,6.016-0.657,8.767-1.952c8.293-3.907,32.083-15.913,62.639-38.128h87.479
	c30.334,22.065,53.994,34.059,62.632,38.129c2.75,1.294,5.699,1.951,8.766,1.951c7.006,0,12.987,4.928,13.617,11.221
	c0.362,3.614-0.764,7.069-3.17,9.729c-2.375,2.625-5.766,4.131-9.303,4.131h-4.629v-0.516c0-4.142-3.357-7.5-7.5-7.5
	s-7.5,3.358-7.5,7.5v8.532h-8.529c-4.143,0-7.5,3.358-7.5,7.5s3.357,7.5,7.5,7.5h8.529v48.613c0,53.326-43.384,96.709-96.709,96.709
	C202.674,400.806,159.291,357.422,159.291,304.096z"/>
<path d="M183.855,432.87c-4.142,0-7.5,3.358-7.5,7.5v64.128c0,4.142,3.358,7.5,7.5,7.5s7.5-3.358,7.5-7.5V440.37
	C191.355,436.228,187.997,432.87,183.855,432.87z"/>
<path d="M256.08,440.886H256c-4.142,0-7.46,3.358-7.46,7.5s3.398,7.5,7.54,7.5c4.143,0,7.5-3.358,7.5-7.5
	S260.223,440.886,256.08,440.886z"/>
<path d="M256.08,488.982H256c-4.142,0-7.46,3.358-7.46,7.5s3.398,7.5,7.54,7.5c4.143,0,7.5-3.358,7.5-7.5
	S260.223,488.982,256.08,488.982z"/>
<g>
</g>
<g>
</g>
<g>
</g>
<g>
</g>
<g>
</g>
<g>
</g>
<g>
</g>
<g>
</g>
<g>
</g>
<g>
</g>
<g>
</g>
<g>
</g>
<g>
</g>
<g>
</g>
<g>
</g>
</svg>
