<?xml version="1.0" encoding="iso-8859-1"?>
<!-- Generator: Adobe Illustrator 19.0.0, SVG Export Plug-In . SVG Version: 6.00 Build 0)  -->
<svg version="1.1" id="Capa_1" xmlns="http://www.w3.org/2000/svg" xmlns:xlink="http://www.w3.org/1999/xlink" x="0px" y="0px"
	 viewBox="0 0 512 512" style="enable-background:new 0 0 512 512;" xml:space="preserve">
<path style="fill:#FFE17D;" d="M402.704,354.968l-122.697-43.282h-48.029l-122.697,43.282
	c-22.408,7.904-37.394,29.082-37.394,52.843V504.5h368.21v-96.689C440.098,384.05,425.112,362.873,402.704,354.968z"/>
<path style="fill:#FFD164;" d="M390.019,350.493l-110.011-38.807h-48.029l-110.011,38.807
	c10.866,64.28,66.654,113.286,134.026,113.286S379.153,414.773,390.019,350.493z"/>
<path style="fill:#A5CDFF;" d="M255.993,311.686h-24.015l-122.696,43.282c-22.408,7.905-37.394,29.082-37.394,52.843V504.5h184.105
	V311.686z"/>
<path style="fill:#8CB4EB;" d="M231.978,311.686l-110.011,38.807c10.866,64.28,66.654,113.286,134.026,113.286V311.686H231.978z"/>
<path style="fill:#CDF5A0;" d="M255.993,439.765c58.517,0,106.44-44.88,111.499-102.081c0.32-3.622-2.023-7.029-5.475-8.172
	c-53.837-17.825-106.024-17.825-106.024-17.825s-52.187,0-106.024,17.825c-3.451,1.143-5.795,4.551-5.475,8.172
	C149.554,394.885,197.476,439.765,255.993,439.765z"/>
<path style="fill:#E3AA75;" d="M255.993,375.726L255.993,375.726c-26.526,0-48.03-21.504-48.03-48.029v-40.025h96.059v40.025
	C304.023,354.222,282.519,375.726,255.993,375.726z"/>
<path style="fill:#D29B6E;" d="M207.964,325.562c14.728,6.461,30.943,10.139,48.029,10.139s33.301-3.678,48.029-10.139v-37.89
	h-96.059L207.964,325.562L207.964,325.562z"/>
<g>
	<path style="fill:#E6646E;" d="M159.663,186.3c0.062-0.907,0.271-1.77,0.271-2.692c0-10.452-4.1-19.885-10.661-27.014
		c13.034-6.012,21.4-20.427,17.845-36.37c-2.596-11.642-11.999-21.138-23.626-23.802c-20.975-4.805-39.592,10.999-39.592,31.152
		c0,2.453,0.279,4.84,0.806,7.133c1.431,6.229-1.886,12.332-7.188,15.901c-10.625,7.153-17.633,19.217-17.633,33
		c0,11.249,4.662,21.383,12.143,28.641c3.634,3.526,4.784,8.754,4.194,13.783c-0.388,3.307-0.439,6.718-0.11,10.2
		c2.274,24.093,23.321,43.291,47.521,43.434c26.66,0.158,48.321-21.405,48.321-48.029
		C191.954,210.632,178.448,192.822,159.663,186.3z"/>
	<path style="fill:#E6646E;" d="M352.323,186.3c-0.062-0.907-0.271-1.77-0.271-2.692c0-10.452,4.1-19.885,10.661-27.014
		c-13.034-6.012-21.4-20.427-17.845-36.37c2.596-11.642,11.999-21.138,23.626-23.802c20.975-4.805,39.592,10.999,39.592,31.152
		c0,2.453-0.279,4.84-0.806,7.133c-1.431,6.229,1.886,12.332,7.188,15.901c10.625,7.153,17.633,19.217,17.633,33
		c0,11.249-4.662,21.383-12.143,28.641c-3.634,3.526-4.784,8.754-4.194,13.783c0.388,3.307,0.439,6.718,0.11,10.2
		c-2.274,24.093-23.321,43.291-47.521,43.434c-26.66,0.158-48.321-21.405-48.321-48.029
		C320.032,210.632,333.539,192.822,352.323,186.3z"/>
</g>
<path style="fill:#F5B97D;" d="M372.064,159.593h-12.007v-16.01c0-57.473-46.591-104.064-104.064-104.064
	S151.929,86.11,151.929,143.583v16.01h-12.007c-11.053,0-20.012,8.96-20.012,20.012c0,11.052,8.96,20.012,20.012,20.012h12.007
	v8.005c0,57.473,46.591,104.064,104.064,104.064s104.064-46.591,104.064-104.064v-8.005h12.007c11.053,0,20.012-8.96,20.012-20.012
	C392.077,168.553,383.117,159.593,372.064,159.593z"/>
<path style="fill:#E3AA75;" d="M183.949,207.623V68.599c-19.703,18.935-32.02,45.499-32.02,74.984v16.01h-12.007
	c-11.053,0-20.012,8.96-20.012,20.012c0,11.052,8.96,20.012,20.012,20.012h12.007v8.005c0,57.473,46.591,104.064,104.064,104.064
	c5.458,0,10.778-0.547,16.01-1.357C222.152,302.611,183.949,259.636,183.949,207.623z"/>
<path style="fill:#FFFFFF;" d="M215.969,223.632c0,22.105,17.92,40.025,40.024,40.025s40.025-17.92,40.024-40.025L215.969,223.632
	L215.969,223.632z"/>
<circle style="fill:#FF8087;" cx="255.991" cy="199.62" r="24.02"/>
<path style="fill:#E6646E;" d="M250.189,23.646c-64.583,3.041-114.27,58.673-114.27,123.327v16.606l19.04-2.371
	c7.414-0.923,12.979-7.224,12.979-14.696v-0.01c0-48.483,37.93-90.072,86.405-90.959c49.386-0.904,89.703,38.859,89.703,88.039v2.93
	c0,7.471,5.565,13.772,12.979,14.696l19.04,2.371v-19.997C376.067,75.344,319.143,20.4,250.189,23.646z"/>
<path style="fill:#FF8087;" d="M343.807,58.778c-2.389-24.292-22.869-43.273-47.789-43.273c-6.299,0-12.298,1.246-17.809,3.45
	C271.636,11.942,262.36,7.5,251.991,7.5c-19.895,0-36.022,16.128-36.022,36.022c0,18.941,14.668,34.297,33.239,35.742
	c-0.715,2.658-1.219,5.401-1.219,8.285c0,17.684,14.335,32.02,32.02,32.02c5.017,0,9.704-1.256,13.931-3.313
	c7.022,11.54,19.602,19.322,34.099,19.322c22.105,0,40.025-17.92,40.025-40.025C368.062,79.053,358.066,64.901,343.807,58.778z"/>
<path style="fill:#E6646E;" d="M268.001,211.625c-13.263,0-24.015-10.752-24.015-24.015c0-3.519,0.799-6.837,2.16-9.848
	c-8.339,3.765-14.167,12.112-14.167,21.856c0,13.263,10.752,24.015,24.015,24.015c9.744,0,18.09-5.828,21.855-14.166
	C274.837,210.826,271.52,211.625,268.001,211.625z"/>
<path d="M215.472,176.299v-8.005c0-4.142-3.358-7.5-7.5-7.5s-7.5,3.358-7.5,7.5v8.005c0,4.142,3.358,7.5,7.5,7.5
	S215.472,180.441,215.472,176.299z"/>
<path d="M304.03,183.799c4.142,0,7.5-3.358,7.5-7.5v-8.005c0-4.142-3.358-7.5-7.5-7.5s-7.5,3.358-7.5,7.5v8.005
	C296.53,180.441,299.888,183.799,304.03,183.799z"/>
<path d="M405.225,347.892l-30.209-10.662c0.126-6.622-4.043-12.635-10.445-14.852c-17.221-5.964-35.037-10.504-53.049-13.546v-4.473
	c11.317-6.521,21.383-14.976,29.757-24.902c8.188,4.523,17.324,6.882,26.769,6.881c0.721,0,1.445-0.014,2.169-0.041
	c27.142-1.031,50.469-22.995,53.106-50.005c0.389-3.983,0.353-8.001-0.107-11.942c-0.178-1.522-0.342-5.307,1.981-7.563
	c9.289-9.021,14.404-21.099,14.404-34.008c0-17.255-9.456-33.155-24.677-41.494c-0.97-0.532-1.433-1.807-1.076-2.965
	c2.194-7.12,2.304-14.808,0.318-22.234c-3.688-13.794-15.098-24.727-29.068-27.853c-3.447-0.771-6.886-1.087-10.291-0.979
	c-2.51-14.172-11.325-26.536-24.119-33.469c-4.631-26.382-27.424-45.781-54.671-45.781c-5.42,0-10.768,0.792-15.957,2.361
	C272.202,3.648,262.403,0,251.991,0c-16.7,0-31.224,9.459-38.519,23.297c-32.286,11.4-57.784,34.842-72.144,64.299
	c-4.747-0.656-9.587-0.447-14.441,0.639c-13.969,3.125-25.378,14.058-29.067,27.852c-1.985,7.426-1.875,15.114,0.318,22.233
	c0.357,1.159-0.105,2.434-1.076,2.966c-15.221,8.339-24.676,24.239-24.676,41.494c0,12.909,5.115,24.987,14.405,34.009
	c2.322,2.255,2.159,6.039,1.98,7.563c-0.46,3.94-0.497,7.958-0.107,11.941c2.637,27.009,25.964,48.974,53.105,50.004
	c0.725,0.027,1.448,0.041,2.169,0.041c9.445,0,18.582-2.358,26.769-6.881c8.374,9.926,18.44,18.381,29.756,24.902v4.473
	c-18.012,3.042-35.828,7.582-53.049,13.546c-6.404,2.217-10.573,8.233-10.445,14.857l-30.193,10.656
	c-25.354,8.948-42.389,33.025-42.389,59.912V504.5c0,4.142,3.358,7.5,7.5,7.5s7.5-3.358,7.5-7.5v-96.696
	c0-20.54,13.013-38.932,32.381-45.768l27.343-9.651c5.078,24.202,17.561,46.296,35.981,63.284
	c20.247,18.673,46.073,29.651,73.4,31.354v56.78c0,4.142,3.358,7.5,7.5,7.5s7.5-3.358,7.5-7.5v-56.78
	c27.327-1.704,53.153-12.681,73.4-31.354c18.422-16.99,30.904-39.085,35.982-63.29l27.358,9.656
	c19.368,6.835,32.381,25.228,32.381,45.768V504.5c0,4.142,3.358,7.5,7.5,7.5s7.5-3.358,7.5-7.5v-96.696
	C447.614,380.917,430.579,356.84,405.225,347.892z M399.675,119.962c1.274,4.766,1.22,9.457-0.163,13.943
	c-2.449,7.954,1.001,16.59,8.205,20.536c10.414,5.706,16.883,16.564,16.883,28.339c0,8.82-3.5,17.076-9.854,23.248
	c-5.009,4.864-7.353,12.178-6.43,20.065c0.336,2.88,0.362,5.822,0.077,8.743c-1.924,19.7-18.943,35.721-38.747,36.473
	c-6.791,0.258-13.404-1.148-19.388-4.083c10.948-17.254,17.297-37.7,17.297-59.603v-0.505h4.507
	c15.17,0,27.512-12.342,27.512-27.512c0-11.065-6.569-20.619-16.01-24.983v-11.039c0-14.18-2.309-28.068-6.856-41.341
	c1.691,0.043,3.397,0.246,5.114,0.63C390.406,104.793,397.413,111.501,399.675,119.962z M366.71,123.126
	c1.231,6.707,1.857,13.542,1.857,20.458v8.51h-8.51c-4.692,0-8.51-3.817-8.51-8.51c0-2.204-0.085-4.417-0.236-6.618
	C357.403,133.529,362.66,128.79,366.71,123.126z M251.991,15c7.888,0,15.255,3.226,20.746,9.083
	c2.112,2.253,5.388,2.982,8.256,1.835c4.836-1.933,9.891-2.914,15.025-2.914c20.942,0,38.278,15.695,40.325,36.507
	c0.268,2.72,1.993,5.079,4.504,6.158c11.977,5.143,19.715,16.873,19.715,29.885c0,17.934-14.59,32.524-32.524,32.524
	c-11.35,0-21.702-5.877-27.691-15.721c-1.403-2.306-3.868-3.603-6.412-3.603c-1.104,0-2.223,0.244-3.276,0.757
	c-3.488,1.696-7.071,2.557-10.65,2.557c-13.52,0-24.52-11-24.52-24.52c0-1.884,0.306-3.898,0.961-6.338
	c0.579-2.154,0.169-4.454-1.118-6.276s-3.319-2.976-5.543-3.149c-14.759-1.148-26.32-13.563-26.32-28.264
	C223.469,27.795,236.264,15,251.991,15z M142.338,271.309c-19.803-0.752-36.822-16.773-38.746-36.473
	c-0.285-2.922-0.259-5.864,0.077-8.742c0.923-7.888-1.42-15.202-6.429-20.065c-6.355-6.172-9.855-14.429-9.855-23.249
	c0-11.774,6.469-22.633,16.883-28.339c7.204-3.946,10.655-12.583,8.205-20.537c-1.382-4.485-1.437-9.176-0.162-13.942
	c2.262-8.461,9.269-15.169,17.851-17.089c1.719-0.385,3.428-0.588,5.121-0.631c-4.456,13.052-6.864,26.974-6.864,41.341v11.039
	c-9.44,4.364-16.01,13.918-16.01,24.983c0,15.17,12.342,27.512,27.512,27.512h4.507v0.505c0,21.903,6.349,42.349,17.297,59.603
	C155.743,270.158,149.133,271.561,142.338,271.309z M159.429,207.623v-16.01c0-4.142-3.358-7.5-7.5-7.5s-7.5,3.358-7.5,7.5v0.505
	h-4.507c-6.899,0-12.512-5.613-12.512-12.512s5.613-12.512,12.512-12.512h12.007c12.963,0,23.51-10.546,23.51-23.51
	c0-22.397,8.974-43.204,25.267-58.586c3.012-2.843,3.149-7.59,0.305-10.602c-2.844-3.012-7.59-3.149-10.602-0.305
	c-19.327,18.246-29.97,42.925-29.97,69.493c0,4.692-3.817,8.51-8.51,8.51h-8.51v-8.51c0-44.275,25.693-83.834,65.101-102.109
	c-0.032,0.679-0.052,1.361-0.052,2.047c0,19.718,13.566,36.745,32.093,41.816c-0.049,0.742-0.073,1.477-0.073,2.211
	c0,21.791,17.729,39.52,39.52,39.52c3.776,0,7.519-0.566,11.186-1.688c8.976,11.183,22.345,17.698,36.844,17.698
	c2.899,0,5.734-0.275,8.492-0.775c0.007,0.427,0.018,0.854,0.018,1.28c0,12.963,10.546,23.51,23.51,23.51h12.007
	c6.899,0,12.512,5.613,12.512,12.512s-5.613,12.512-12.512,12.512h-4.507v-0.505c0-4.142-3.358-7.5-7.5-7.5s-7.5,3.358-7.5,7.5
	v16.01c0,53.246-43.318,96.564-96.564,96.564S159.429,260.868,159.429,207.623z M326.724,404.644
	c-19.313,17.812-44.433,27.621-70.731,27.621s-51.417-9.81-70.731-27.621c-19.194-17.702-31.021-41.736-33.302-67.673
	c-0.007-0.084,0.126-0.336,0.364-0.418c15.641-5.417,31.798-9.6,48.14-12.496v3.382c0,30.619,24.91,55.529,55.529,55.529
	c9.762,0,19.366-2.571,27.773-7.435c3.585-2.074,4.81-6.662,2.736-10.248s-6.664-4.809-10.248-2.736
	c-6.127,3.545-13.133,5.418-20.261,5.418c-22.348,0-40.529-18.181-40.529-40.529v-15.875c12.569,4.918,26.239,7.622,40.529,7.622
	c14.29,0,27.96-2.704,40.529-7.622v15.875c0,4.717-0.801,9.335-2.38,13.724c-1.402,3.897,0.62,8.194,4.518,9.597
	c0.839,0.302,1.696,0.445,2.539,0.445c3.074,0,5.957-1.904,7.058-4.962c2.167-6.023,3.266-12.35,3.266-18.803v-3.382
	c16.342,2.896,32.499,7.079,48.141,12.496c0.237,0.083,0.371,0.334,0.363,0.418C357.745,362.908,345.918,386.942,326.724,404.644z"
	/>
<path d="M303.518,223.632c0-4.142-3.358-7.5-7.5-7.5H282.82c2.969-4.806,4.688-10.462,4.688-16.515
	c0-17.377-14.137-31.515-31.515-31.515s-31.515,14.137-31.515,31.515c0,6.052,1.719,11.709,4.688,16.515h-13.198
	c-4.142,0-7.5,3.358-7.5,7.5c0,26.205,21.319,47.525,47.524,47.525S303.518,249.837,303.518,223.632z M239.479,199.618
	c0-9.106,7.409-16.515,16.515-16.515s16.515,7.409,16.515,16.515s-7.409,16.515-16.515,16.515S239.479,208.724,239.479,199.618z
	 M224.341,231.132h63.304c-3.395,14.332-16.298,25.025-31.652,25.025S227.736,245.464,224.341,231.132z"/>
<path d="M219.323,142.286c3.705-1.853,5.206-6.357,3.354-10.063c-1.852-3.704-6.355-5.206-10.063-3.354l-16.01,8.005
	c-3.705,1.853-5.206,6.357-3.354,10.063c1.314,2.628,3.963,4.147,6.714,4.147c1.127,0,2.271-0.255,3.349-0.793L219.323,142.286z"/>
<g>
</g>
<g>
</g>
<g>
</g>
<g>
</g>
<g>
</g>
<g>
</g>
<g>
</g>
<g>
</g>
<g>
</g>
<g>
</g>
<g>
</g>
<g>
</g>
<g>
</g>
<g>
</g>
<g>
</g>
</svg>
