<?xml version="1.0" encoding="iso-8859-1"?>
<!-- Generator: Adobe Illustrator 19.0.0, SVG Export Plug-In . SVG Version: 6.00 Build 0)  -->
<svg version="1.1" id="Capa_1" xmlns="http://www.w3.org/2000/svg" xmlns:xlink="http://www.w3.org/1999/xlink" x="0px" y="0px"
	 viewBox="0 0 512 512" style="enable-background:new 0 0 512 512;" xml:space="preserve">
<path style="fill:#E6646E;" d="M407.987,380.494L256,336.161l-151.987,44.333c-23.941,6.983-40.4,28.93-40.4,53.868V504.5h384.774
	v-70.138C448.387,409.424,431.928,387.477,407.987,380.494z"/>
<rect x="199.89" y="288.06" style="fill:#E3AA75;" width="112.23" height="216.44"/>
<path style="fill:#D29B6E;" d="M199.887,322.133c16.773,8.898,35.838,14.028,56.113,14.028c20.275,0,39.339-5.13,56.113-14.028
	v-34.069H199.887V322.133z"/>
<g>
	<path style="fill:#DC4655;" d="M392.576,318.711l-80.463-46.679V504.5h32.065v-87.754c0-5.461,1.859-10.758,5.27-15.023l47.4-59.25
		C402.911,334.894,400.9,323.706,392.576,318.711z"/>
	<path style="fill:#DC4655;" d="M119.424,318.711l80.463-46.679V504.5h-32.065v-87.754c0-5.461-1.859-10.758-5.27-15.023
		l-47.4-59.25C109.089,334.894,111.1,323.706,119.424,318.711z"/>
</g>
<path style="fill:#FFD164;" d="M256,15.516L256,15.516c-70.835,0-128.258,57.423-128.258,128.258v48.097h256.516v-48.097
	C384.258,72.939,326.835,15.516,256,15.516z"/>
<g>
	<path style="fill:#FFC350;" d="M276.04,17.235c-6.546-1.03-13.205-1.719-20.04-1.719c-70.835,0-128.258,57.423-128.258,128.258
		v48.097h40.081v-48.097C167.823,79.774,214.75,26.877,276.04,17.235z"/>
	<path style="fill:#FFC350;" d="M368.226,264.016H143.774c-35.417,0-64.129-28.712-64.129-64.129l0,0
		c0-35.417,28.712-64.129,64.129-64.129h224.452c35.417,0,64.129,28.712,64.129,64.129l0,0
		C432.355,235.305,403.643,264.016,368.226,264.016z"/>
</g>
<path style="fill:#F5B97D;" d="M372.234,175.839H360.21v-40.081H151.79v40.081h-12.024c-11.068,0-20.04,8.972-20.04,20.04
	c0,11.068,8.972,20.04,20.04,20.04h12.429c4.106,53.795,48.958,96.194,103.805,96.194s99.699-42.398,103.805-96.194h12.429
	c11.068,0,20.04-8.973,20.04-20.04C392.274,184.811,383.302,175.839,372.234,175.839z"/>
<path style="fill:#E3AA75;" d="M151.79,135.758v40.081h-12.024c-11.068,0-20.04,8.972-20.04,20.04c0,11.068,8.972,20.04,20.04,20.04
	h12.429c4.106,53.795,48.958,96.194,103.805,96.194c5.466,0,10.793-0.547,16.032-1.359c-49.921-7.729-88.177-50.764-88.177-102.851
	l0,0c0-26.563,21.534-48.097,48.097-48.097h80.161c8.854,0,16.032-7.178,16.032-16.032v-8.016H151.79z"/>
<path style="fill:#FF8087;" d="M288.065,15.516v34.037c0,9.101-3.097,17.931-8.783,25.038L262.26,95.869
	c-3.209,4.011-9.31,4.011-12.519,0l-17.022-21.278c-5.685-7.107-8.783-15.937-8.783-25.038V15.516c0-4.427,3.589-8.016,8.016-8.016
	h48.097C284.476,7.5,288.065,11.089,288.065,15.516z"/>
<path style="fill:#E6646E;" d="M256,7.5h-24.048c-4.427,0-8.016,3.589-8.016,8.016v34.037c0,9.101,3.098,17.931,8.783,25.038
	l17.022,21.278c1.605,2.006,3.932,3.008,6.26,3.008V7.5H256z"/>
<path style="fill:#FFC350;" d="M256,392.274c-22.678,0-42.888-10.484-56.113-26.846V504.5h112.226V365.428
	C298.888,381.79,278.678,392.274,256,392.274z"/>
<path style="fill:#FFD164;" d="M256,392.274c-22.678,0-42.888-10.484-56.113-26.846v42.42c16.208,10.39,35.431,16.49,56.113,16.49
	s39.905-6.1,56.113-16.49v-42.42C298.888,381.79,278.678,392.274,256,392.274z"/>
<g>
	<path style="fill:#5A4650;" d="M152.915,176.887l-17.157,1.206v-42.335h32.065v25.136
		C167.823,169.312,161.312,176.296,152.915,176.887z"/>
	<path style="fill:#5A4650;" d="M359.085,176.887l17.157,1.206v-42.335h-32.065v25.136
		C344.177,169.312,350.688,176.296,359.085,176.887z"/>
</g>
<path d="M207.903,176.359c-4.142,0-7.5,3.358-7.5,7.5v8.016c0,4.142,3.358,7.5,7.5,7.5s7.5-3.358,7.5-7.5v-8.016
	C215.403,179.717,212.045,176.359,207.903,176.359z"/>
<path d="M304.097,176.359c-4.142,0-7.5,3.358-7.5,7.5v8.016c0,4.142,3.358,7.5,7.5,7.5s7.5-3.358,7.5-7.5v-8.016
	C311.597,179.717,308.239,176.359,304.097,176.359z"/>
<path d="M274.781,234.633c-2.737,2.701-9.298,5.855-18.781,5.855c-9.483,0-16.043-3.154-18.781-5.855
	c-2.95-2.91-7.698-2.877-10.606,0.071c-2.909,2.948-2.877,7.697,0.071,10.606c6.459,6.373,17.418,10.177,29.316,10.177
	c11.898,0,22.857-3.805,29.316-10.177c2.949-2.909,2.98-7.658,0.071-10.606S277.729,231.724,274.781,234.633z"/>
<path d="M199.887,448.906c-4.142,0-7.5,3.358-7.5,7.5V504.5c0,4.142,3.358,7.5,7.5,7.5s7.5-3.358,7.5-7.5v-48.094
	C207.387,452.264,204.029,448.906,199.887,448.906z"/>
<path d="M410.224,373.236l-22.976-6.758l15.455-19.319c4.243-5.303,5.987-12.178,4.786-18.863s-5.23-12.522-11.054-16.017
	l-54.718-32.831c2.131-2.549,4.15-5.195,6.051-7.928h20.459c39.496,0,71.629-32.133,71.629-71.629
	c0-31.448-20.381-58.208-48.62-67.816c-2.364-27.761-13.004-53.701-30.928-75.194c-17.15-20.565-39.475-35.353-64.834-43.026
	C294.64,6.078,288.043,0,280.048,0h-48.097c-7.994,0-14.592,6.078-15.424,13.855c-25.36,7.673-47.684,22.461-64.834,43.026
	c-17.924,21.493-28.564,47.434-30.928,75.194c-28.24,9.608-48.62,36.368-48.62,67.816c0,39.496,32.133,71.629,71.629,71.629h20.446
	c1.902,2.736,3.922,5.383,6.054,7.934l-54.709,32.826c-5.824,3.494-9.853,9.332-11.054,16.017s0.543,13.56,4.786,18.862
	l15.456,19.32l-22.976,6.758c-26.886,7.907-45.664,33.003-45.664,61.028V504.5c0,4.142,3.358,7.5,7.5,7.5s7.5-3.358,7.5-7.5v-70.236
	c0-21.417,14.35-40.595,34.896-46.637l28.869-8.491l21.818,27.273c2.338,2.923,3.626,6.595,3.626,10.338V504.5
	c0,4.142,3.358,7.5,7.5,7.5s7.5-3.358,7.5-7.5v-87.753c0-7.136-2.455-14.135-6.914-19.708l-47.399-59.25
	c-1.561-1.951-2.177-4.379-1.735-6.838s1.866-4.522,4.008-5.808l57.644-34.586c3.613,3.285,7.441,6.337,11.461,9.131v124.656
	c0,4.142,3.358,7.5,7.5,7.5s7.5-3.358,7.5-7.5v-3.714c15.135,7.357,31.71,11.214,48.613,11.214s33.478-3.857,48.613-11.214v83.87
	c0,4.142,3.358,7.5,7.5,7.5s7.5-3.358,7.5-7.5V299.677c4.016-2.793,7.841-5.844,11.451-9.126l57.653,34.592
	c2.143,1.286,3.566,3.348,4.008,5.808c0.442,2.459-0.174,4.888-1.735,6.839l-47.399,59.25c-4.458,5.573-6.914,12.572-6.914,19.708
	V504.5c0,4.142,3.358,7.5,7.5,7.5s7.5-3.358,7.5-7.5v-87.753c0-3.743,1.288-7.415,3.626-10.338l21.818-27.273l28.869,8.491
	c20.546,6.042,34.896,25.221,34.896,46.637V504.5c0,4.142,3.358,7.5,7.5,7.5s7.5-3.358,7.5-7.5v-70.236
	C455.887,406.239,437.11,381.144,410.224,373.236z M383.742,145.441c23.703,6.765,41.113,28.605,41.113,54.451
	c0,31.225-25.404,56.629-56.629,56.629h-11.672c4.982-10.26,8.443-21.39,10.078-33.097h4.459c14.617,0,27.154-10.861,28.542-24.727
	c0.778-7.771-1.765-15.531-6.975-21.288c-2.521-2.787-5.568-4.992-8.917-6.533L383.742,145.441L383.742,145.441z M231.436,15.516
	c0-0.285,0.231-0.516,0.516-0.516h48.097c0.285,0,0.516,0.231,0.516,0.516v34.037c0,7.371-2.535,14.599-7.139,20.353l-17.021,21.277
	c-0.047,0.058-0.155,0.194-0.404,0.194c-0.249,0-0.357-0.136-0.403-0.193l-17.022-21.278c-4.604-5.754-7.139-12.982-7.139-20.353
	V15.516H231.436z M143.774,256.521c-31.225,0-56.629-25.404-56.629-56.629c0-25.845,17.41-47.686,41.113-54.451v25.768
	c-8.631,4.115-14.93,12.266-15.891,21.859c-0.778,7.771,1.764,15.531,6.974,21.289c5.213,5.762,12.658,9.067,20.425,9.067h5.598
	c1.634,11.707,5.092,22.837,10.072,33.097H143.774z M304.613,403.643c-14.794,8.643-31.513,13.2-48.613,13.2
	s-33.818-4.557-48.613-13.2v-20.44c13.793,10.674,30.773,16.575,48.613,16.575c17.84,0,34.82-5.901,48.613-16.575V403.643z
	 M304.613,362.667c-12.309,14.075-29.874,22.111-48.613,22.111s-36.303-8.037-48.613-22.111v-54.196
	c14.705,7.137,31.199,11.146,48.613,11.146c17.412,0,33.906-4.012,48.613-11.153V362.667z M256,304.617
	c-53.326,0-96.709-43.384-96.709-96.709c0-4.142-3.358-7.5-7.5-7.5s-7.5,3.358-7.5,7.5v0.516h-4.524
	c-3.537,0-6.927-1.506-9.303-4.131c-2.407-2.66-3.533-6.115-3.17-9.73c0.63-6.292,6.611-11.22,13.617-11.22h10.881
	c12.976,0,23.532-10.557,23.532-23.533v-16.548h120.762c4.142,0,7.5-3.358,7.5-7.5s-3.358-7.5-7.5-7.5l-159.84,0.024
	c2.899-22.769,12.124-43.999,26.969-61.799c14.25-17.087,32.507-29.69,53.223-36.841v19.906c0,10.764,3.703,21.32,10.426,29.723
	l17.022,21.278c2.96,3.701,7.376,5.823,12.116,5.823c4.74,0,9.155-2.122,12.116-5.823l17.022-21.277
	c6.724-8.404,10.426-18.96,10.426-29.724V29.647c20.715,7.151,38.973,19.754,53.223,36.841c14.845,17.8,24.069,39.03,26.969,61.799
	l-47.609-0.024c-4.142,0-7.5,3.358-7.5,7.5s3.358,7.5,7.5,7.5h8.53v16.549c0,12.976,10.557,23.532,23.532,23.532h12.024
	c3.537,0,6.927,1.505,9.303,4.13c2.407,2.66,3.533,6.115,3.171,9.729c-0.63,6.292-6.611,11.221-13.617,11.221h-3.385v-0.439
	c0-4.141-3.356-7.499-7.497-7.5c0,0-0.002,0-0.003,0c-4.14,0-7.497,3.354-7.5,7.495C352.667,261.266,309.285,304.617,256,304.617z
	 M143.258,168.343v-25.081h17.064v16.548c0,4.705-3.828,8.533-8.532,8.533L143.258,168.343z M368.742,143.262v25.081h-8.532
	c-4.705,0-8.532-3.828-8.532-8.532v-16.549H368.742z"/>
<path d="M215.919,152.311h-16.032c-4.142,0-7.5,3.358-7.5,7.5s3.358,7.5,7.5,7.5h16.032c4.142,0,7.5-3.358,7.5-7.5
	S220.062,152.311,215.919,152.311z"/>
<path d="M288.581,159.811c0,4.142,3.358,7.5,7.5,7.5h16.032c4.142,0,7.5-3.358,7.5-7.5s-3.358-7.5-7.5-7.5h-16.032
	C291.938,152.311,288.581,155.669,288.581,159.811z"/>
<g>
</g>
<g>
</g>
<g>
</g>
<g>
</g>
<g>
</g>
<g>
</g>
<g>
</g>
<g>
</g>
<g>
</g>
<g>
</g>
<g>
</g>
<g>
</g>
<g>
</g>
<g>
</g>
<g>
</g>
</svg>
