<?xml version="1.0" encoding="iso-8859-1"?>
<!-- Generator: Adobe Illustrator 19.0.0, SVG Export Plug-In . SVG Version: 6.00 Build 0)  -->
<svg version="1.1" id="Capa_1" xmlns="http://www.w3.org/2000/svg" xmlns:xlink="http://www.w3.org/1999/xlink" x="0px" y="0px"
	 viewBox="0 0 512 512" style="enable-background:new 0 0 512 512;" xml:space="preserve">
<path style="fill:#6E5A64;" d="M344.659,22.789C320.205,13.222,289.462,7.5,256,7.5s-64.205,5.722-88.659,15.289
	c-9.328,3.649-15.55,12.513-15.55,22.529v42.343H360.21V45.318C360.21,35.303,353.987,26.438,344.659,22.789z"/>
<ellipse style="fill:#64505A;" cx="256" cy="127.74" rx="144.29" ry="72.14"/>
<path style="fill:#E3AA75;" d="M413.862,374.103l-84.486-24.849c-10.235-3.01-17.263-12.403-17.263-23.071v-38.119H199.887v38.119
	c0,10.668-7.028,20.061-17.263,23.071l-84.486,24.849c-20.469,6.02-34.526,24.806-34.526,46.142V504.5h384.774v-84.254
	C448.387,398.91,434.331,380.124,413.862,374.103z"/>
<path style="fill:#D29B6E;" d="M199.887,313.969c16.841,8.996,35.939,14.176,56.113,14.176s39.272-5.18,56.113-14.176v-25.905
	H199.887V313.969z"/>
<path style="fill:#F5B97D;" d="M372.234,167.823H360.21c-8.854,0-16.032-7.178-16.032-16.032v-32.065
	c0-17.709-39.478-32.065-88.177-32.065s-88.177,14.356-88.177,32.065v32.065c0,8.854-7.179,16.032-16.032,16.032h-12.024
	c-11.068,0-20.04,8.972-20.04,20.04c0,11.068,8.972,20.04,20.04,20.04h12.429c4.106,53.795,48.958,96.194,103.805,96.194
	s99.699-42.398,103.805-96.194h12.429c11.068,0,20.04-8.973,20.04-20.04C392.274,176.795,383.302,167.823,372.234,167.823z"/>
<path style="fill:#E3AA75;" d="M256,87.661c-46.721,0-84.853,13.223-87.882,29.934c-0.192,0.562-0.296,1.253-0.296,2.13v32.065
	c0,8.854-7.178,16.032-16.032,16.032h-10.88c-10.483,0-20.036,7.542-21.081,17.973c-1.202,11.996,8.186,22.108,19.936,22.108h12.43
	c4.106,53.795,48.957,96.194,103.805,96.194c5.483,0,10.83-0.534,16.083-1.351c-49.946-7.708-88.228-50.754-88.228-102.859v-38.501
	c0-24.153,17.878-44.525,41.819-47.724c9.452-1.263,19.665-1.953,30.326-1.953c48.699,0,88.177,14.356,88.177,32.065v-24.048
	C344.177,102.017,304.699,87.661,256,87.661z"/>
<path style="fill:#6E5A64;" d="M413.862,374.103l-29.825-8.772C368.985,383.183,315.65,443.237,256,472.435
	c-59.65-29.199-112.985-89.252-128.037-107.104l-29.825,8.772c-20.469,6.02-34.526,24.806-34.526,46.143V504.5h384.774v-84.254
	C448.387,398.91,434.331,380.124,413.862,374.103z"/>
<g>
	<circle style="fill:#FFD164;" cx="139.77" cy="219.93" r="12.02"/>
	<circle style="fill:#FFD164;" cx="372.23" cy="219.93" r="12.02"/>
</g>
<path style="fill:#64505A;" d="M215.919,296.081L256,280.048l40.081,16.032l-23.076,23.076c-9.391,9.391-24.618,9.391-34.01,0
	L215.919,296.081z"/>
<path d="M207.903,168.338c-4.143,0-7.5,3.358-7.5,7.5v8.016c0,4.142,3.357,7.5,7.5,7.5s7.5-3.358,7.5-7.5v-8.016
	C215.403,171.696,212.046,168.338,207.903,168.338z"/>
<path d="M304.097,168.338c-4.143,0-7.5,3.358-7.5,7.5v8.016c0,4.142,3.357,7.5,7.5,7.5s7.5-3.358,7.5-7.5v-8.016
	C311.597,171.696,308.239,168.338,304.097,168.338z"/>
<path d="M256,247.467c11.896,0,22.856-3.804,29.315-10.177c2.949-2.909,2.981-7.658,0.072-10.606
	c-2.908-2.95-7.658-2.981-10.605-0.072c-2.738,2.701-9.301,5.855-18.782,5.855c-9.481,0-16.044-3.154-18.782-5.855
	c-2.948-2.909-7.698-2.876-10.605,0.072c-2.909,2.949-2.877,7.697,0.072,10.606C233.144,243.663,244.104,247.467,256,247.467z"/>
<path d="M415.979,366.908l-84.486-24.849c-6.994-2.057-11.879-8.585-11.879-15.876v-34.435
	c19.671-13.594,34.341-33.054,42.03-55.442c3.054,1.982,6.687,3.146,10.591,3.146c10.766,0,19.524-8.759,19.524-19.524
	c0-3.828-1.124-7.391-3.035-10.408c6.003-4.501,10.146-11.216,10.91-18.844c0.777-7.771-1.765-15.53-6.976-21.288
	c-1.016-1.123-2.12-2.15-3.292-3.08c12.087-11.645,18.425-24.816,18.425-38.565c0-21.246-15.096-40.298-40.081-54.439V45.319
	c0-13.1-7.975-24.685-20.317-29.514C320.966,5.465,289.362,0,256,0s-64.966,5.465-91.393,15.805
	c-12.343,4.829-20.317,16.414-20.317,29.514v27.984c-24.985,14.142-40.081,33.194-40.081,54.439
	c0,13.837,6.416,27.082,18.649,38.779c-5.777,4.497-9.746,11.076-10.492,18.526c-0.778,7.771,1.764,15.531,6.975,21.289
	c1.154,1.275,2.422,2.423,3.774,3.448c-1.811,2.961-2.874,6.426-2.874,10.144c0,10.766,8.759,19.524,19.524,19.524
	c3.902,0,7.533-1.163,10.586-3.143c10.025,29.198,31.918,53.411,61.314,66.125l22.026,22.026c6.151,6.151,14.229,9.226,22.309,9.226
	c8.078,0,16.158-3.076,22.309-9.226l22.025-22.025c1.445-0.625,2.871-1.277,4.279-1.957v25.705c0,13.898,9.313,26.345,22.646,30.267
	l44.309,13.032c-17.091,19.313-63.87,68.804-115.568,94.608c-51.646-25.779-98.46-75.29-115.566-94.609l44.306-13.031
	c13.334-3.922,22.646-16.368,22.646-30.267v-6.053c0-4.142-3.357-7.5-7.5-7.5s-7.5,3.358-7.5,7.5v6.053
	c0,7.291-4.885,13.819-11.879,15.876l-84.486,24.849c-23.498,6.912-39.909,28.845-39.909,53.338V504.5c0,4.142,3.357,7.5,7.5,7.5
	c4.143,0,7.5-3.358,7.5-7.5v-84.254c0-17.885,11.983-33.9,29.142-38.947l24.33-7.156c12.516,14.752,66.39,75.538,128.183,105.061
	c1.022,0.489,2.128,0.733,3.233,0.733c1.105,0,2.211-0.244,3.233-0.733c61.793-29.523,115.667-90.309,128.183-105.061l24.33,7.156
	c17.158,5.047,29.142,21.063,29.142,38.947V504.5c0,4.142,3.357,7.5,7.5,7.5s7.5-3.358,7.5-7.5v-84.254
	C455.888,395.752,439.477,373.819,415.979,366.908z M372.234,224.452c-2.495,0-4.524-2.03-4.524-4.524s2.029-4.524,4.524-4.524
	s4.524,2.029,4.524,4.524S374.729,224.452,372.234,224.452z M159.29,45.319c0-6.88,4.232-12.982,10.782-15.545
	C194.775,20.109,224.488,15,256,15s61.225,5.109,85.928,14.774c6.55,2.563,10.782,8.665,10.782,15.545v20.589
	C326.623,54.731,293.061,48.097,256,48.097s-70.623,6.635-96.71,17.811L159.29,45.319L159.29,45.319z M139.766,224.452
	c-2.495,0-4.524-2.03-4.524-4.524s2.029-4.524,4.524-4.524s4.524,2.029,4.524,4.524S142.261,224.452,139.766,224.452z
	 M267.701,313.854c-6.451,6.452-16.951,6.452-23.402,0l-15.034-15.033L256,288.126l26.735,10.694L267.701,313.854z M295.979,287.963
	L263.5,274.971v-2.939c0-4.142-3.357-7.5-7.5-7.5s-7.5,3.358-7.5,7.5v2.939l-32.481,12.993
	c-34.562-15.687-56.729-49.922-56.729-88.078c0-4.142-3.357-7.5-7.5-7.5s-7.5,3.358-7.5,7.5v0.516h-4.524
	c-3.537,0-6.928-1.505-9.303-4.131c-2.407-2.66-3.533-6.115-3.171-9.729c0.63-6.292,6.611-11.22,13.617-11.22h10.881
	c12.976,0,23.532-10.557,23.532-23.532v-32.063c0-3.704,5.471-10.018,20.89-15.625c15.854-5.765,37.087-8.94,59.788-8.94
	c13.465,0,26.851,1.165,38.71,3.37c4.075,0.762,7.988-1.93,8.745-6.003c0.757-4.072-1.931-7.987-6.003-8.744
	c-12.932-2.404-26.878-3.623-41.452-3.623c-24.405,0-47.459,3.496-64.914,9.843c-25.427,9.246-30.764,21.266-30.764,29.722v32.063
	c0,4.705-3.827,8.532-8.532,8.532h-13.233c-9.243-7.327-19.348-18.546-19.348-32.58c0-35.042,62.643-64.646,136.791-64.646
	S392.791,92.7,392.791,127.742c0,14.055-10.146,25.285-19.348,32.58H360.21c-4.705,0-8.532-3.828-8.532-8.532v-32.063
	c0-6.721-3.487-16.533-20.099-25.108c-3.68-1.898-8.203-0.457-10.104,3.224c-1.9,3.681-0.457,8.205,3.224,10.105
	c7.501,3.872,11.979,8.276,11.979,11.779v32.063c0,12.976,10.557,23.532,23.532,23.532h12.024c3.536,0,6.927,1.505,9.302,4.13
	c2.407,2.66,3.533,6.115,3.172,9.729c-0.63,6.292-6.61,11.221-13.616,11.221h-3.386v-0.438c0-4.141-3.356-7.499-7.497-7.5
	c-0.001,0-0.002,0-0.003,0c-4.14,0-7.497,3.354-7.5,7.495C352.678,238.074,330.509,272.289,295.979,287.963z"/>
<path d="M223.419,151.79c0-4.142-3.357-7.5-7.5-7.5h-16.032c-4.143,0-7.5,3.358-7.5,7.5s3.357,7.5,7.5,7.5h16.032
	C220.062,159.29,223.419,155.932,223.419,151.79z"/>
<path d="M296.081,159.29h16.032c4.143,0,7.5-3.358,7.5-7.5s-3.357-7.5-7.5-7.5h-16.032c-4.143,0-7.5,3.358-7.5,7.5
	S291.938,159.29,296.081,159.29z"/>
<g>
</g>
<g>
</g>
<g>
</g>
<g>
</g>
<g>
</g>
<g>
</g>
<g>
</g>
<g>
</g>
<g>
</g>
<g>
</g>
<g>
</g>
<g>
</g>
<g>
</g>
<g>
</g>
<g>
</g>
</svg>
