<?xml version="1.0" encoding="iso-8859-1"?>
<!-- Generator: Adobe Illustrator 19.0.0, SVG Export Plug-In . SVG Version: 6.00 Build 0)  -->
<svg version="1.1" id="Capa_1" xmlns="http://www.w3.org/2000/svg" xmlns:xlink="http://www.w3.org/1999/xlink" x="0px" y="0px"
	 viewBox="0 0 512 512" style="enable-background:new 0 0 512 512;" xml:space="preserve">
<path style="fill:#FFE17D;" d="M256.001,7.5c-57.553,0-104.21,17.945-104.21,40.081v40.081h208.42V47.581
	C360.211,25.445,313.554,7.5,256.001,7.5z"/>
<ellipse style="fill:#FFD164;" cx="256.001" cy="159.81" rx="168.34" ry="104.21"/>
<path style="fill:#B67F5F;" d="M403.904,349.76c-4.746-12.614-11.628-35.433-11.628-61.695c0-36.072,0-128.258,0-128.258
	c0-39.845-61.012-72.145-136.274-72.145s-136.274,32.3-136.274,72.145c0,0,0,92.186,0,128.258c0,26.262-6.882,49.081-11.628,61.695
	c-2.542,6.754-0.358,14.289,5.426,18.605c9.317,6.953,25.35,17.286,48.491,26.68c60.08,24.389,127.892,24.389,187.972,0
	c23.141-9.394,39.174-19.727,48.491-26.68C404.261,364.049,406.445,356.514,403.904,349.76z"/>
<path style="fill:#F7D291;" d="M408.283,413.013l-82.792-29.221c-12.82-4.525-21.393-16.642-21.393-30.237v-49.459h-96.194v49.459
	c0,13.595-8.573,25.712-21.393,30.236l-82.793,29.221c-19.23,6.787-32.089,24.962-32.089,45.354V504.5h368.742v-46.132
	C440.372,437.976,427.513,419.8,408.283,413.013z"/>
<path style="fill:#F0C382;" d="M207.904,341.939c13.042,5.808,27.268,9.411,42.305,10.118c1.94,0.091,3.872,0.137,5.792,0.137
	c17.103,0,33.353-3.645,48.097-10.11v-37.987h-96.194L207.904,341.939L207.904,341.939z"/>
<path style="fill:#FFE1A0;" d="M328.146,159.806h-12.712c-2.126,0-4.165-0.845-5.668-2.348l-37.733-37.733v40.081h-88.177
	c-17.709,0-32.065,14.356-32.065,32.065v31.012c0,55.714,43.354,102.427,99.002,105.136c59.92,2.916,109.417-44.803,109.417-104.083
	v-32.065C360.211,174.162,345.855,159.806,328.146,159.806z"/>
<path style="fill:#F7D291;" d="M328.146,167.823v-8.016h-16.032l-40.081-40.081v40.081h-88.177
	c-17.709,0-32.065,14.356-32.065,32.065v28.852c0,47.061,29.921,90.101,75.102,103.267c15.682,4.57,30.874,5.097,45.157,2.888
	c-50.6-7.969-88.195-53.501-88.195-105.886v-5.072c0-17.709,14.356-32.065,32.065-32.065h96.194
	C320.968,183.855,328.146,176.677,328.146,167.823z"/>
<path style="fill:#C9C6CA;" d="M408.283,413.013l-46.24-16.32c-15.156,44.045-56.852,75.742-106.042,75.742
	s-90.886-31.697-106.042-75.742l-46.24,16.32c-19.23,6.787-32.089,24.962-32.089,45.354V504.5h368.742v-46.132
	C440.372,437.976,427.513,419.8,408.283,413.013z"/>
<path style="fill:#A06E50;" d="M256.001,111.71c75.262,0,136.274,32.3,136.274,72.145c0-11.528,0-24.048,0-24.048
	c0-39.845-61.012-72.145-136.274-72.145s-136.274,32.3-136.274,72.145c0,0,0,12.521,0,24.048
	C119.727,144.01,180.739,111.71,256.001,111.71z"/>
<path style="fill:#B7B2B8;" d="M127.302,404.69c18.456,53.389,69.035,91.794,128.699,91.794S366.243,458.079,384.7,404.69
	l-22.658-7.997c-15.155,44.045-56.851,75.742-106.041,75.742s-90.886-31.697-106.041-75.742L127.302,404.69z"/>
<path d="M207.904,200.403c-4.142,0-7.5,3.358-7.5,7.5v8.016c0,4.142,3.358,7.5,7.5,7.5s7.5-3.358,7.5-7.5v-8.016
	C215.404,203.761,212.046,200.403,207.904,200.403z"/>
<path d="M304.098,200.403c-4.142,0-7.5,3.358-7.5,7.5v8.016c0,4.142,3.358,7.5,7.5,7.5s7.5-3.358,7.5-7.5v-8.016
	C311.598,203.761,308.24,200.403,304.098,200.403z"/>
<path d="M256.001,279.532c11.897,0,22.857-3.805,29.316-10.177c2.948-2.909,2.98-7.658,0.071-10.606s-7.658-2.981-10.606-0.071
	c-2.737,2.701-9.299,5.855-18.781,5.855c-9.482,0-16.043-3.154-18.781-5.855c-2.95-2.91-7.698-2.877-10.606,0.071
	c-2.909,2.949-2.877,7.697,0.071,10.606C233.144,275.728,244.104,279.532,256.001,279.532z"/>
<path d="M410.779,405.941l-38.872-13.719c13.707-6.361,23.931-12.839,30.725-17.744c8.597-6.207,11.987-17.51,8.243-27.488
	c-4.146-11.046-11.1-33.389-11.1-58.925v-63.859c20.989-18.903,32.064-41.104,32.064-64.399c0-30.53-18.772-58.964-52.858-80.064
	c-3.629-2.246-7.394-4.375-11.271-6.396V47.581C367.71,16.676,310.155,0,256.001,0S144.292,16.676,144.292,47.581v25.766
	c-3.877,2.021-7.643,4.15-11.271,6.396c-34.086,21.101-52.858,49.535-52.858,80.064c0,23.295,11.076,45.496,32.064,64.399v63.859
	c0,25.536-6.954,47.879-11.1,58.925c-3.744,9.977-0.354,21.28,8.243,27.488c6.794,4.905,17.018,11.383,30.725,17.744l-38.872,13.719
	c-22.187,7.831-37.093,28.899-37.093,52.427V504.5c0,4.142,3.358,7.5,7.5,7.5s7.5-3.358,7.5-7.5v-46.132
	c0-17.18,10.885-32.564,27.085-38.282l39.248-13.852c18.467,44.323,62.123,73.702,110.538,73.702
	c24.865,0,48.711-7.553,68.959-21.843c18.604-13.129,32.914-30.993,41.594-51.854l39.232,13.847
	c16.201,5.718,27.085,21.102,27.085,38.282V504.5c0,4.142,3.358,7.5,7.5,7.5s7.5-3.358,7.5-7.5v-46.132
	C447.872,434.84,432.965,413.771,410.779,405.941z M159.292,47.581c0-13.605,36.791-32.581,96.709-32.581
	s96.709,18.976,96.709,32.581v18.75c-28.436-11.86-61.816-18.234-96.709-18.234s-68.273,6.374-96.709,18.234V47.581z
	 M118.15,362.315c-3.178-2.294-4.375-6.335-2.979-10.055c5.5-14.655,12.056-37.688,12.056-64.196V159.806
	c0-35.041,58.972-64.645,128.774-64.645c24.813,0,48.95,3.649,69.801,10.552c3.933,1.302,8.175-0.831,9.478-4.762
	c1.302-3.932-0.831-8.175-4.763-9.477c-22.353-7.401-48.12-11.313-74.516-11.313c-37.602,0-73.069,7.814-99.87,22.002
	c-28.313,14.989-43.905,35.46-43.905,57.643v42.912c-11.213-13.358-17.064-27.961-17.064-42.912
	c0-25.141,16.249-49.046,45.753-67.31c30.626-18.958,71.497-29.399,115.086-29.399s84.46,10.441,115.086,29.399
	c29.504,18.265,45.753,42.169,45.753,67.31c0,14.95-5.851,29.553-17.064,42.912v-42.912c0-20.544-13.637-39.921-38.4-54.563
	c-3.567-2.109-8.166-0.927-10.273,2.638c-2.108,3.566-0.927,8.165,2.639,10.273c20.013,11.833,31.035,26.625,31.035,41.651v128.258
	c0,26.507,6.556,49.541,12.056,64.196c1.396,3.72,0.199,7.761-2.979,10.055c-8.44,6.093-22.678,14.844-43.019,22.468l-22.847-8.063
	c-9.803-3.46-16.389-12.769-16.389-23.164v-32.754c33.507-19.306,56.113-55.496,56.113-96.866V191.87
	c0-21.816-17.749-39.564-39.564-39.564h-12.926l-37.884-37.884c-2.145-2.146-5.371-2.786-8.173-1.626
	c-2.803,1.161-4.63,3.896-4.63,6.929v32.581h-40.596c-4.142,0-7.5,3.358-7.5,7.5s3.358,7.5,7.5,7.5h48.096
	c4.142,0,7.5-3.358,7.5-7.5v-21.974l27.277,27.277c1.406,1.406,3.314,2.197,5.303,2.197h16.032c13.545,0,24.564,11.02,24.564,24.564
	v32.065c0,53.326-43.384,96.71-96.709,96.71s-96.709-43.384-96.709-96.71V191.87c0-13.545,11.02-24.564,24.564-24.564h8.02
	c4.142,0,7.5-3.358,7.5-7.5s-3.358-7.5-7.5-7.5h-8.02c-21.816,0-39.564,17.749-39.564,39.564v32.065
	c0,41.37,22.605,77.56,56.113,96.866v32.754c0,10.395-6.586,19.704-16.389,23.164l-22.847,8.063
	C140.827,377.16,126.59,368.409,118.15,362.315z M316.312,445.837c-17.705,12.494-38.56,19.098-60.311,19.098
	c-42.072,0-80.032-25.361-96.367-63.704l29.374-10.367c15.789-5.572,26.397-20.565,26.397-37.309v-25.548
	c12.589,4.928,26.282,7.638,40.597,7.638s28.007-2.71,40.597-7.638v25.548c0,16.743,10.608,31.737,26.397,37.309l29.384,10.371
	C344.755,419.153,332.364,434.509,316.312,445.837z"/>
<path d="M192.562,186.46c0.767,3.507,3.872,5.899,7.319,5.899c0.531,0,1.07-0.057,1.61-0.175l16.032-3.507
	c4.047-0.885,6.609-4.883,5.724-8.929s-4.883-6.609-8.929-5.724l-16.032,3.507C194.239,178.415,191.676,182.413,192.562,186.46z"/>
<path d="M294.479,188.677l16.032,3.507c0.54,0.118,1.079,0.175,1.61,0.175c3.448,0,6.552-2.392,7.319-5.899
	c0.885-4.046-1.677-8.044-5.724-8.929l-16.032-3.507c-4.046-0.885-8.044,1.677-8.929,5.724S290.432,187.792,294.479,188.677z"/>
<g>
</g>
<g>
</g>
<g>
</g>
<g>
</g>
<g>
</g>
<g>
</g>
<g>
</g>
<g>
</g>
<g>
</g>
<g>
</g>
<g>
</g>
<g>
</g>
<g>
</g>
<g>
</g>
<g>
</g>
</svg>
