<?xml version="1.0" encoding="iso-8859-1"?>
<!-- Generator: Adobe Illustrator 19.0.0, SVG Export Plug-In . SVG Version: 6.00 Build 0)  -->
<svg version="1.1" id="Capa_1" xmlns="http://www.w3.org/2000/svg" xmlns:xlink="http://www.w3.org/1999/xlink" x="0px" y="0px"
	 viewBox="0 0 512 512" style="enable-background:new 0 0 512 512;" xml:space="preserve">
<g>
	<circle style="fill:#5A4650;" cx="167.82" cy="223.94" r="88.18"/>
	<circle style="fill:#5A4650;" cx="344.18" cy="223.94" r="88.18"/>
</g>
<path style="fill:#64505A;" d="M256,7.5L256,7.5c-75.262,0-136.274,61.012-136.274,136.274v48.097h272.548v-48.097
	C392.274,68.512,331.262,7.5,256,7.5z"/>
<path style="fill:#E3AA75;" d="M408.282,396.616l-82.792-29.221c-12.82-4.525-21.393-16.642-21.393-30.237v-65.126h-96.194v65.127
	c0,13.595-8.573,25.712-21.393,30.236l-82.793,29.221c-19.229,6.787-32.089,24.962-32.089,45.354v46.497H440.37V441.97
	C440.371,421.579,427.512,403.403,408.282,396.616z"/>
<path style="fill:#FF8087;" d="M408.282,396.616l-72.266-25.506c-1.531,42.924-36.717,77.277-80.016,77.277
	s-78.484-34.353-80.015-77.277l-72.267,25.506c-19.23,6.787-32.089,24.962-32.089,45.355v46.497h368.742V441.97
	C440.371,421.578,427.512,403.403,408.282,396.616z"/>
<path style="fill:#D29B6E;" d="M207.903,326.241c14.753,6.391,31.02,9.92,48.097,9.92s33.344-3.529,48.097-9.92v-38.177h-96.194
	V326.241L207.903,326.241z"/>
<path style="fill:#F5B97D;" d="M372.234,175.839h-8.016c0,0-10.734-1.293-14.018-2.202c-18.212-5.043-57.641-20.789-87.51-66.825
	c-3.147-4.851-10.232-4.851-13.378,0c-29.869,46.036-69.298,61.782-87.51,66.825c-3.284,0.909-14.018,2.202-14.018,2.202h-8.016
	c-11.068,0-20.04,8.972-20.04,20.04s8.972,20.04,20.04,20.04h12.429c4.106,53.795,48.958,96.194,103.805,96.194
	s99.699-42.398,103.805-96.194h12.429c11.068,0,20.04-8.973,20.04-20.04C392.274,184.811,383.302,175.839,372.234,175.839z"/>
<path style="fill:#E3AA75;" d="M255.998,141.807c15.758,17.039,40.157,38.628,70.363,50.065
	c12.463,4.719,25.833-4.456,25.833-17.783v-0.013c-0.784-0.151-1.493-0.299-1.994-0.438c-18.208-5.042-57.621-20.781-87.487-66.789
	c-3.154-4.859-10.261-4.876-13.414-0.017c-21.107,32.522-46.924,49.863-66.7,59.042c-1.335,0.619-12.13,4.989-13.379,5.419
	c-2.712,0.936-5.255,1.746-7.418,2.345c-3.284,0.909-14.018,2.202-14.018,2.202h-6.873c-10.483,0-20.035,7.542-21.08,17.973
	c-1.201,11.996,8.187,22.108,19.937,22.108h12.429c4.106,53.795,48.958,96.194,103.805,96.194c5.466,0,10.793-0.547,16.032-1.359
	c-45.768-7.087-81.73-43.847-87.399-90.052c-0.163-1.33-0.324-3.266-0.47-5.575c-0.8-12.585,5.877-24.543,17.067-30.357
	C224.263,172.803,243.059,155.797,255.998,141.807z"/>
<g>
	<polygon style="fill:#FFD164;" points="304.089,328.145 304.097,328.148 304.097,327.887 	"/>
	<polygon style="fill:#FFD164;" points="207.903,327.887 207.903,328.148 207.911,328.145 	"/>
</g>
<path style="fill:#FFFFFF;" d="M219.927,231.952c0,17.709,16.15,32.065,36.073,32.065s36.073-14.356,36.073-32.065H219.927z"/>
<path style="fill:#6E5A64;" d="M283.395,10.258c-7.237,13.512-11.363,28.94-11.363,45.339c0,53.126,43.067,96.194,96.194,96.194
	c8.319,0,16.349-1.167,24.048-3.153v-4.864C392.274,77.896,345.527,22.939,283.395,10.258z"/>
<path d="M215.403,192.568v-8.016c0-4.142-3.357-7.5-7.5-7.5s-7.5,3.358-7.5,7.5v8.016c0,4.142,3.357,7.5,7.5,7.5
	S215.403,196.71,215.403,192.568z"/>
<path d="M304.097,177.052c-4.143,0-7.5,3.358-7.5,7.5v8.016c0,4.142,3.357,7.5,7.5,7.5s7.5-3.358,7.5-7.5v-8.016
	C311.597,180.41,308.239,177.052,304.097,177.052z"/>
<path d="M410.778,389.909l-82.793-29.221c-9.803-3.46-16.389-12.769-16.389-23.165v-23.599c10.384,3.775,21.298,5.689,32.584,5.689
	c52.757,0,95.677-42.92,95.677-95.677c0-31.087-14.912-59.889-40.083-77.865v-2.296C399.774,64.497,335.277,0,256,0
	S112.226,64.497,112.226,143.774v2.298c-25.169,17.977-40.08,46.778-40.08,77.864c0,52.757,42.921,95.677,95.677,95.677
	c11.285,0,22.198-1.913,32.581-5.688v23.598c0,10.396-6.586,19.705-16.389,23.165l-82.793,29.221
	c-22.187,7.83-37.093,28.899-37.093,52.427V504.5c0,4.142,3.357,7.5,7.5,7.5s7.5-3.358,7.5-7.5v-8.532h353.742v8.532
	c0,4.142,3.357,7.5,7.5,7.5s7.5-3.358,7.5-7.5v-62.165C447.871,418.808,432.965,397.739,410.778,389.909z M428.895,424.855H322.849
	c10.191-12.001,17.231-26.779,19.763-43.098l63.174,22.296C416.156,407.713,424.342,415.338,428.895,424.855z M424.857,223.936
	c0,44.486-36.191,80.677-80.677,80.677c-8.874,0-17.475-1.397-25.69-4.163c25.611-17.351,43.664-45.044,48.128-77.031h5.606
	c15.082,0,27.365-12.187,27.533-27.229c0.004-0.104,0.016-0.206,0.016-0.311V165.46
	C415.681,180.556,424.857,201.544,424.857,223.936z M256,15c71.007,0,128.774,57.768,128.774,128.774v27.602
	c-3.766-1.937-8.03-3.037-12.549-3.037c0.002,0-3.437,0-3.902-0.002c-0.035,0-0.07-0.001-0.105-0.001
	c-7.251,0-14.683-1.029-22.089-3.059c-3.997-1.092-8.121,1.256-9.216,5.251s1.256,8.121,5.251,9.216
	c8.697,2.384,17.463,3.592,26.054,3.592v-0.028c0.944,0.031,2.211,0.031,4.008,0.031c6.915,0,12.541,5.625,12.541,12.54
	s-5.626,12.541-12.541,12.541h-4.53c0.001-0.172,0.007-0.344,0.007-0.516c0-4.142-3.357-7.5-7.5-7.5s-7.5,3.358-7.5,7.5
	c0,53.326-43.384,96.709-96.71,96.709s-96.71-43.384-96.71-96.709c0-4.142-3.357-7.5-7.5-7.5s-7.5,3.358-7.5,7.5
	c0,0.173,0.006,0.344,0.007,0.516h-4.531c-6.889,0-12.494-5.584-12.536-12.463c0-0.026,0.004-0.051,0.004-0.077v-0.154
	c0.084-6.843,5.669-12.386,12.532-12.386c1.797,0,3.064,0,4.009-0.031v0.028c53.637,0,96.062-46.498,111.813-66.49
	c0.051-0.064,0.169-0.215,0.413-0.215s0.362,0.151,0.413,0.215c9.598,12.181,29.663,34.914,56.227,50.302
	c3.585,2.076,8.173,0.855,10.249-2.73c2.077-3.584,0.854-8.173-2.729-10.249c-24.4-14.135-43.03-35.267-51.963-46.605
	c-2.971-3.77-7.416-5.933-12.196-5.933c-4.78,0-9.226,2.163-12.196,5.932c-43.214,54.851-84.35,60.772-100.029,60.772
	c-0.035,0-0.069,0-0.104,0.001c-0.46,0.002-3.906,0.003-3.905,0.002c-4.512,0-8.77,1.098-12.532,3.029v-27.594
	C127.226,72.768,184.993,15,256,15z M87.146,223.936c0-22.39,9.176-43.377,25.08-58.472v30.108
	c-0.001,0.103-0.008,0.205-0.008,0.308c0,15.186,12.354,27.541,27.54,27.541h5.607c4.465,31.989,22.521,59.684,48.135,77.035
	c-8.212,2.763-16.808,4.158-25.677,4.158C123.337,304.613,87.146,268.421,87.146,223.936z M189.007,374.833
	c15.789-5.573,26.396-20.566,26.396-37.309v-25.545c12.587,4.926,26.277,7.635,40.589,7.635c14.317,0,28.013-2.711,40.604-7.641
	v25.551c0,16.743,10.607,31.736,26.396,37.309l5.177,1.827c-4.198,36.318-35.169,64.227-72.171,64.227
	c-36.902,0-67.971-27.949-72.173-64.227L189.007,374.833z M79.129,480.968v-38.632c0-0.832,0.033-1.658,0.084-2.48h24.481
	c4.143,0,7.5-3.358,7.5-7.5s-3.357-7.5-7.5-7.5H83.105c4.553-9.517,12.739-17.142,23.109-20.802l63.184-22.3
	c2.538,16.311,9.594,31.096,19.808,43.102h-53.448c-4.143,0-7.5,3.358-7.5,7.5s3.357,7.5,7.5,7.5h69.837
	c14.32,10.106,31.745,16.032,50.405,16.032c18.719,0,36.158-5.924,50.475-16.032h126.313c0.051,0.823,0.084,1.649,0.084,2.48v38.632
	H79.129z"/>
<path d="M292.072,224.452h-72.145c-4.143,0-7.5,3.358-7.5,7.5c0,21.816,19.547,39.564,43.572,39.564s43.572-17.749,43.572-39.564
	C299.572,227.81,296.215,224.452,292.072,224.452z M256,256.516c-12.714,0-23.515-7.176-27.211-17.064h54.422
	C279.515,249.34,268.714,256.516,256,256.516z"/>
<g>
</g>
<g>
</g>
<g>
</g>
<g>
</g>
<g>
</g>
<g>
</g>
<g>
</g>
<g>
</g>
<g>
</g>
<g>
</g>
<g>
</g>
<g>
</g>
<g>
</g>
<g>
</g>
<g>
</g>
</svg>
