<?xml version="1.0" encoding="iso-8859-1"?>
<!-- Generator: Adobe Illustrator 19.0.0, SVG Export Plug-In . SVG Version: 6.00 Build 0)  -->
<svg version="1.1" id="Capa_1" xmlns="http://www.w3.org/2000/svg" xmlns:xlink="http://www.w3.org/1999/xlink" x="0px" y="0px"
	 viewBox="0 0 512.003 512.003" style="enable-background:new 0 0 512.003 512.003;" xml:space="preserve">
<path style="fill:#F7D291;" d="M413.859,358.071l-84.486-24.849c-10.235-3.01-17.263-12.403-17.263-23.071v-38.119H199.885v38.119
	c0,10.668-7.028,20.061-17.263,23.071l-84.486,24.849c-20.469,6.02-34.526,24.806-34.526,46.142V504.5h384.774V404.214
	C448.385,382.877,434.328,364.091,413.859,358.071z"/>
<path style="fill:#6E5A64;" d="M413.859,358.071l-84.486-24.849c-1.429-0.42,8.079,3.594,6.786,2.939l-80.165,24.048l-80.157-24.048
	c-1.293,0.655,8.214-3.359,6.786-2.939l-84.486,24.849c-20.469,6.02-34.526,24.806-34.526,46.142V504.5h384.774V404.214
	C448.385,382.877,434.328,364.091,413.859,358.071z"/>
<path style="fill:#EDEBED;" d="M333.408,349.443l-9.558-9.558l-67.852,20.325l-67.852-20.325l-9.558,9.558
	c-12.027,12.026-18.783,28.338-18.783,45.346V504.5h192.387V394.789C352.191,377.781,345.435,361.469,333.408,349.443z"/>
<rect x="235.957" y="360.21" style="fill:#FFFFFF;" width="40.08" height="144.29"/>
<path style="fill:#F0C382;" d="M199.885,297.937c16.841,8.996,35.939,14.176,56.113,14.176s39.272-5.18,56.113-14.176v-25.905
	H199.885V297.937z"/>
<path style="fill:#FFE1A0;" d="M372.232,151.79h-4.008V71.629l-144.29-24.048l-80.161,24.048v80.161h-4.008
	c-11.068,0-20.04,8.972-20.04,20.04c0,11.068,8.972,20.04,20.04,20.04h12.429c4.106,53.795,48.958,96.194,103.805,96.194
	s99.699-42.398,103.805-96.194h12.429c11.068,0,20.04-8.973,20.04-20.04C392.272,160.762,383.3,151.79,372.232,151.79z"/>
<path style="fill:#F7D291;" d="M198.471,106.07c9.609-4.192,19.755-9.713,29.799-17.459c27.039,13.368,80.67,35.575,139.953,39.13
	V71.629l-144.29-24.048l-80.161,24.048v80.161h-2.865c-10.483,0-20.035,7.542-21.08,17.973
	c-1.201,11.996,8.186,22.108,19.936,22.108h12.429c4.106,53.795,48.958,96.194,103.805,96.194c5.484,0,10.83-0.534,16.083-1.351
	c-49.946-7.708-88.228-50.754-88.228-102.859v-55.683C183.852,118.53,189.634,109.925,198.471,106.07z"/>
<path style="fill:#64505A;" d="M119.724,504.5l-14.123-63.554c-1.189-5.351,0.438-10.938,4.314-14.814l25.841-25.841l-11.889-17.833
	c-2.799-4.198-3.398-9.47-1.805-14.257c19.114-57.442,77.823-72.119,77.823-72.119v15.463c0,10.63-4.223,20.825-11.739,28.341
	l-9.558,9.558c-12.027,12.027-18.783,28.338-18.783,45.346V504.5"/>
<path style="fill:#A06E50;" d="M384.256,87.661c0-44.272-35.889-80.161-80.161-80.161h-96.194
	c-35.417,0-64.129,28.712-64.129,64.129v24.048c0,0,38.076-0.067,74.707-28.319c4.752-3.665,11.157-4.289,16.551-1.658
	c27.638,13.48,81.994,35.906,141.033,37.857c4.491,0.148,8.192-3.557,8.192-8.05v-7.846H384.256z"/>
<path style="fill:#B67F5F;" d="M384.185,86.266C383.433,42.645,347.895,7.5,304.095,7.5h-92.05
	C233.704,32.27,286.25,77.853,384.185,86.266z"/>
<path style="fill:#64505A;" d="M392.272,504.5l14.123-63.554c1.189-5.351-0.438-10.938-4.314-14.814l-25.841-25.841l11.889-17.833
	c2.799-4.198,3.398-9.47,1.805-14.257c-19.114-57.442-77.823-72.119-77.823-72.119v15.463c0,10.63,4.223,20.825,11.739,28.341
	l9.558,9.558c12.027,12.027,18.783,28.338,18.783,45.346V504.5"/>
<g>
	<path style="fill:#E6646E;" d="M308.526,386.474l-52.528-26.264l52.528-26.264c5.33-2.665,11.601,1.211,11.601,7.17v38.188
		C320.127,385.263,313.856,389.139,308.526,386.474z"/>
	<path style="fill:#E6646E;" d="M203.47,386.474l52.528-26.264l-52.528-26.264c-5.33-2.665-11.601,1.211-11.601,7.17v38.188
		C191.869,385.263,198.14,389.139,203.47,386.474z"/>
</g>
<path d="M207.901,152.307c-4.142,0-7.5,3.358-7.5,7.5v8.016c0,4.142,3.358,7.5,7.5,7.5s7.5-3.358,7.5-7.5v-8.016
	C215.401,155.665,212.043,152.307,207.901,152.307z"/>
<path d="M304.094,152.307c-4.142,0-7.5,3.358-7.5,7.5v8.016c0,4.142,3.358,7.5,7.5,7.5s7.5-3.358,7.5-7.5v-8.016
	C311.594,155.665,308.237,152.307,304.094,152.307z"/>
<path d="M285.314,221.258c2.949-2.909,2.98-7.658,0.071-10.606c-2.91-2.949-7.659-2.98-10.606-0.071
	c-2.737,2.701-9.298,5.855-18.781,5.855s-16.043-3.154-18.781-5.855c-2.95-2.91-7.698-2.877-10.606,0.071
	c-2.909,2.948-2.877,7.697,0.071,10.606c6.459,6.373,17.418,10.177,29.316,10.177S278.855,227.631,285.314,221.258z"/>
<path d="M256.078,400.807h-0.08c-4.142,0-7.46,3.358-7.46,7.5s3.398,7.5,7.54,7.5s7.5-3.358,7.5-7.5S260.22,400.807,256.078,400.807
	z"/>
<path d="M256.078,464.936h-0.08c-4.142,0-7.46,3.358-7.46,7.5s3.398,7.5,7.54,7.5s7.5-3.358,7.5-7.5S260.22,464.936,256.078,464.936
	z"/>
<path d="M215.917,128.258h-16.032c-4.142,0-7.5,3.358-7.5,7.5s3.358,7.5,7.5,7.5h16.032c4.142,0,7.5-3.358,7.5-7.5
	S220.059,128.258,215.917,128.258z"/>
<path d="M296.078,143.258h16.032c4.142,0,7.5-3.358,7.5-7.5s-3.358-7.5-7.5-7.5h-16.032c-4.142,0-7.5,3.358-7.5,7.5
	S291.936,143.258,296.078,143.258z"/>
<path d="M352.191,416.841c-4.142,0-7.5,3.358-7.5,7.5V504.5c0,4.142,3.358,7.5,7.5,7.5s7.5-3.358,7.5-7.5v-80.159
	C359.691,420.199,356.333,416.841,352.191,416.841z"/>
<path d="M415.976,350.876l-30.042-8.836c-20.488-33.077-53.169-47.028-66.323-51.506v-14.91
	c25.013-17.396,42.617-44.741,47.019-76.253h4.459c14.617,0,27.154-10.861,28.543-24.727c0.778-7.771-1.765-15.531-6.975-21.288
	c-4.426-4.891-10.459-8.011-16.933-8.843V111.05c2.833,0.094,5.678,0.143,8.533,0.143c4.142,0,7.5-3.358,7.5-7.5V87.661
	C391.756,39.325,352.431,0,304.094,0h-96.193c-39.496,0-71.629,32.133-71.629,71.629v73.029
	c-12.55,2.006-22.667,11.986-23.907,24.358c-0.778,7.771,1.764,15.531,6.974,21.289c5.213,5.762,12.658,9.067,20.425,9.067h5.598
	c4.399,31.522,22.003,58.87,47.023,76.264v14.899c-13.154,4.478-45.835,18.429-66.323,51.506l-30.042,8.836
	c-23.498,6.912-39.909,28.845-39.909,53.338V504.5c0,4.142,3.358,7.5,7.5,7.5s7.5-3.358,7.5-7.5V404.214
	c0-17.885,11.983-33.9,29.142-38.947l16.667-4.902c-0.694,1.781-1.353,3.602-1.973,5.466c-2.365,7.107-1.388,14.684,2.681,20.786
	l8.479,12.718l-21.494,21.494c-5.72,5.719-8.086,13.848-6.332,21.745l14.123,63.554c0.777,3.496,3.876,5.875,7.314,5.875
	c0.539,0,1.086-0.058,1.634-0.18c4.043-0.898,6.593-4.905,5.694-8.948l-14.123-63.554c-0.636-2.863,0.222-5.811,2.296-7.884
	l25.842-25.841c2.528-2.528,2.92-6.489,0.937-9.463l-11.889-17.834c-1.484-2.226-1.823-5.043-0.929-7.729
	c13.087-39.329,46.752-57.316,63.207-63.967v4.943c0,8.703-3.389,16.884-9.542,23.038l-9.559,9.559
	c-13.529,13.529-20.979,31.517-20.979,50.649V504.5c0,4.142,3.358,7.5,7.5,7.5s7.5-3.358,7.5-7.5V394.789
	c0-15.126,5.89-29.347,16.586-40.043l0.479-0.479v25.036c0,5.417,2.751,10.351,7.359,13.199c2.508,1.55,5.322,2.332,8.148,2.332
	c2.366,0,4.74-0.548,6.948-1.652l49.174-24.587l49.174,24.587c2.208,1.104,4.582,1.652,6.948,1.652c2.826,0,5.641-0.782,8.148-2.332
	c4.608-2.848,7.359-7.782,7.359-13.199v-25.036l0.479,0.479c10.696,10.696,16.586,24.917,16.586,40.043c0,4.142,3.358,7.5,7.5,7.5
	s7.5-3.358,7.5-7.5c0-19.133-7.451-37.121-20.979-50.649l-9.559-9.559c-6.154-6.153-9.542-14.335-9.542-23.038v-4.976
	c16.433,6.594,50.061,24.493,63.207,64c0.894,2.686,0.555,5.503-0.929,7.729l-11.889,17.833c-1.983,2.975-1.591,6.936,0.937,9.463
	l25.842,25.841c2.074,2.074,2.932,5.021,2.296,7.884l-14.123,63.554c-0.898,4.043,1.651,8.05,5.694,8.948
	c0.548,0.122,1.095,0.18,1.634,0.18c3.438,0,6.538-2.379,7.314-5.875l14.123-63.554c1.754-7.896-0.612-16.025-6.332-21.745
	l-21.494-21.494l8.479-12.717c4.069-6.103,5.046-13.68,2.681-20.787c-0.62-1.865-1.28-3.686-1.973-5.466l16.667,4.902
	c17.158,5.047,29.142,21.063,29.142,38.947V504.5c0,4.142,3.358,7.5,7.5,7.5s7.5-3.358,7.5-7.5V404.214
	C455.885,379.721,439.474,357.788,415.976,350.876z M159.288,183.855c0-4.142-3.358-7.5-7.5-7.5s-7.5,3.358-7.5,7.5v0.516h-4.524
	c-3.537,0-6.927-1.506-9.303-4.131c-2.407-2.66-3.533-6.115-3.17-9.729c0.63-6.292,6.612-11.221,13.617-11.221h2.863h0.001
	c1.989,0,3.896-0.79,5.303-2.196c1.407-1.407,2.197-3.314,2.197-5.304v-49.002c11.525-0.986,34.145-4.485,52.773-16.903
	c3.447-2.297,4.378-6.954,2.08-10.4c-2.297-3.446-6.955-4.377-10.4-2.08c-15.124,10.082-34.135,13.285-44.453,14.301V71.629
	c0-31.225,25.404-56.629,56.629-56.629h96.193c40.066,0,72.662,32.596,72.662,72.661v8.413
	c-81.97-2.583-156.071-46.366-156.98-46.909c-3.554-2.132-8.159-0.979-10.29,2.572c-2.131,3.552-0.979,8.159,2.572,10.29
	c3.049,1.829,69.41,41.127,148.665,48.105v41.658c0,4.142,3.358,7.5,7.5,7.5h4.008c3.537,0,6.927,1.505,9.303,4.13
	c2.407,2.66,3.533,6.115,3.171,9.729c-0.63,6.292-6.611,11.221-13.617,11.221h-3.385v-0.439c0-4.141-3.356-7.499-7.497-7.5
	c0,0-0.002,0-0.003,0c-4.14,0-7.497,3.354-7.5,7.495c-0.039,53.286-43.421,96.638-96.706,96.638
	C202.672,280.564,159.288,237.181,159.288,183.855z M255.998,295.564c17.412,0,33.906-4.012,48.613-11.153v27.132
	c0,5.148,0.826,10.167,2.389,14.919c-0.619,0.218-1.23,0.476-1.828,0.775l-49.174,24.587l-49.174-24.587
	c-0.598-0.299-1.209-0.557-1.828-0.775c1.564-4.752,2.389-9.771,2.389-14.92v-27.125
	C222.09,291.555,238.584,295.564,255.998,295.564z M200.116,379.766c-0.096,0.048-0.256,0.129-0.502-0.023
	c-0.245-0.151-0.245-0.332-0.245-0.439v-38.188c0-0.108,0-0.288,0.245-0.439c0.106-0.065,0.196-0.087,0.272-0.087
	c0.1,0,0.175,0.038,0.23,0.065l39.111,19.556L200.116,379.766z M312.627,379.304c0,0.107,0,0.288-0.245,0.439
	c-0.246,0.152-0.406,0.07-0.502,0.023l-39.111-19.556l39.111-19.556c0.097-0.048,0.258-0.128,0.502,0.022
	c0.245,0.151,0.245,0.332,0.245,0.439V379.304z"/>
<g>
</g>
<g>
</g>
<g>
</g>
<g>
</g>
<g>
</g>
<g>
</g>
<g>
</g>
<g>
</g>
<g>
</g>
<g>
</g>
<g>
</g>
<g>
</g>
<g>
</g>
<g>
</g>
<g>
</g>
</svg>
