<?xml version="1.0" encoding="iso-8859-1"?>
<!-- Generator: Adobe Illustrator 19.0.0, SVG Export Plug-In . SVG Version: 6.00 Build 0)  -->
<svg version="1.1" id="Capa_1" xmlns="http://www.w3.org/2000/svg" xmlns:xlink="http://www.w3.org/1999/xlink" x="0px" y="0px"
	 viewBox="0 0 512 512" style="enable-background:new 0 0 512 512;" xml:space="preserve">
<path style="fill:#5A4650;" d="M394.764,283.46c-13.622-16.711-35.842-39.488-50.585-51.508H167.824
	c-14.743,12.02-36.963,34.797-50.585,51.508c-8.937,10.963-6.134,26.436,6.067,34.374c19.056,12.398,49.686,30.184,84.599,42.292
	h96.194c34.913-12.107,65.543-29.893,84.599-42.292C400.898,309.896,403.701,294.423,394.764,283.46z"/>
<path style="fill:#B67F5F;" d="M408.283,396.981l-82.792-29.221c-12.82-4.525-21.393-16.642-21.393-30.237v-49.459h-96.194v49.459
	c0,13.595-8.573,25.712-21.393,30.236l-82.793,29.221c-19.229,6.787-32.089,24.962-32.089,45.354V504.5h368.742v-62.165
	C440.372,421.943,427.513,403.768,408.283,396.981z"/>
<path style="fill:#FFE17D;" d="M408.283,396.981l-64.105-22.625v33.951c0,13.282-10.767,24.048-24.048,24.048H191.872
	c-13.282,0-24.048-10.767-24.048-24.048v-33.951l-64.105,22.625c-19.23,6.787-32.089,24.962-32.089,45.354V504.5h368.742v-62.165
	C440.372,421.943,427.513,403.768,408.283,396.981z"/>
<path style="fill:#A06E50;" d="M207.904,326.052c14.744,6.465,30.994,10.11,48.097,10.11s33.353-3.645,48.097-10.11v-37.987h-96.194
	L207.904,326.052L207.904,326.052z"/>
<circle style="fill:#5A4650;" cx="256.001" cy="143.77" r="136.27"/>
<path style="fill:#CD916E;" d="M256.001,312.113L256.001,312.113c-57.554,0-104.21-46.656-104.21-104.21v-40.081
	c0-57.553,46.656-104.21,104.21-104.21h104.21v144.29C360.211,265.457,313.554,312.113,256.001,312.113z"/>
<path style="fill:#B67F5F;" d="M360.211,167.823V63.613h-104.21c-28.084,0-53.414,11.265-72.145,29.337v-0.216
	c-0.826,0.794-3.377,3.436-3.85,3.941l0.068,0.064c-17.461,18.625-28.283,43.54-28.283,71.085v40.081
	c0,57.553,46.656,104.21,104.21,104.21c5.466,0,10.793-0.547,16.032-1.359c-49.921-7.729-88.177-50.764-88.177-102.851v-74.746
	c0-13.016,14.61-20.482,25.276-13.022C253.361,151.068,305.827,167.823,360.211,167.823z"/>
<path style="fill:#64505A;" d="M392.165,141.596C390.989,67.35,330.528,7.5,256.001,7.5c-35.26,0-67.286,13.506-91.482,35.48
	c43.62,60.997,114.985,100.794,195.692,100.794C371.052,143.774,381.704,142.986,392.165,141.596z"/>
<g>
	<path style="fill:#B67F5F;" d="M207.904,183.855c13.45,0,24.925,8.299,29.687,20.04c1.508-3.718,2.378-7.765,2.378-12.024
		c0-17.709-14.355-32.065-32.065-32.065s-32.065,14.356-32.065,32.065c0,4.259,0.87,8.306,2.378,12.024
		C182.979,192.154,194.454,183.855,207.904,183.855z"/>
	<path style="fill:#B67F5F;" d="M304.098,183.855c13.45,0,24.925,8.299,29.687,20.04c1.508-3.718,2.378-7.765,2.378-12.024
		c0-17.709-14.355-32.065-32.065-32.065s-32.065,14.356-32.065,32.065c0,4.259,0.87,8.306,2.378,12.024
		C279.173,192.154,290.648,183.855,304.098,183.855z"/>
</g>
<path d="M207.904,200.068c4.142,0,7.5-3.358,7.5-7.5v-8.016c0-4.142-3.358-7.5-7.5-7.5s-7.5,3.358-7.5,7.5v8.016
	C200.404,196.71,203.762,200.068,207.904,200.068z"/>
<path d="M304.098,200.068c4.142,0,7.5-3.358,7.5-7.5v-8.016c0-4.142-3.358-7.5-7.5-7.5s-7.5,3.358-7.5,7.5v8.016
	C296.598,196.71,299.956,200.068,304.098,200.068z"/>
<path d="M410.779,389.909l-80.678-28.475c26.184-11.604,48.826-26.148,64.079-37.048c7.009-5.009,11.604-12.442,12.938-20.931
	c1.323-8.417-0.741-16.815-5.812-23.648c-10.232-13.788-22.814-27.561-37.433-40.993c23.166-26.273,35.902-59.924,35.902-95.04
	C399.775,64.497,335.278,0,256.001,0S112.227,64.497,112.227,143.774c0,35.066,12.747,68.778,35.901,95.041
	c-14.618,13.432-27.2,27.205-37.432,40.992c-5.071,6.833-7.135,15.231-5.812,23.648c1.334,8.489,5.929,15.922,12.938,20.931
	c15.253,10.9,37.895,25.444,64.078,37.048l-80.678,28.474c-22.187,7.83-37.093,28.899-37.093,52.427V504.5
	c0,4.142,3.358,7.5,7.5,7.5s7.5-3.358,7.5-7.5v-62.165c0-17.18,10.885-32.564,27.085-38.282l54.108-19.097v23.351
	c0,17.396,14.152,31.548,31.548,31.548h0.516V504.5c0,4.142,3.358,7.5,7.5,7.5s7.5-3.358,7.5-7.5v-64.645h8.533
	c4.142,0,7.5-3.358,7.5-7.5s-3.358-7.5-7.5-7.5H191.87c-9.125,0-16.548-7.423-16.548-16.548v-28.645l13.684-4.83
	c15.789-5.573,26.397-20.566,26.397-37.309v-25.548c12.589,4.928,26.282,7.638,40.597,7.638c14.315,0,28.007-2.71,40.597-7.638
	v25.548c0,16.743,10.608,31.736,26.397,37.309l13.684,4.83v28.645c0,9.125-7.423,16.548-16.548,16.548h-72.146
	c-4.142,0-7.5,3.358-7.5,7.5s3.358,7.5,7.5,7.5h72.146c17.396,0,31.548-14.152,31.548-31.548v-23.351l54.108,19.097
	c16.201,5.718,27.085,21.102,27.085,38.282V504.5c0,4.142,3.358,7.5,7.5,7.5s7.5-3.358,7.5-7.5v-62.165
	C447.872,418.808,432.965,397.739,410.779,389.909z M256.001,15c71.006,0,128.774,57.768,128.774,128.774
	c0,22.71-5.951,44.734-17.065,64.083v-57.256c0.173,0,0.343,0.005,0.516,0.005c4.142,0,7.5-3.358,7.5-7.5s-3.358-7.5-7.5-7.5
	c-62.788,0-108.183-20.323-135.208-37.372c-29.375-18.531-44.076-37.338-44.221-37.526c-2.523-3.278-7.226-3.895-10.508-1.376
	c-3.287,2.521-3.907,7.229-1.386,10.516c0.642,0.837,16.093,20.739,47.487,40.678c26.506,16.834,69.583,36.63,128.32,39.667v10.13
	h-24.564c-0.065,0-0.129,0.008-0.193,0.01c-6.637-5.033-14.902-8.026-23.855-8.026c-16.311,0-30.346,9.923-36.391,24.048h-23.411
	c-6.046-14.125-20.08-24.048-36.391-24.048c-8.953,0-17.218,2.993-23.855,8.026c-0.065-0.002-0.128-0.01-0.193-0.01h-24.293
	c1.419-20.757,8.779-39.033,21.968-54.399c2.698-3.143,2.336-7.878-0.807-10.576s-7.879-2.336-10.576,0.807
	c-17.157,19.99-25.856,44.103-25.856,71.669v40.034c-11.114-19.358-17.065-41.404-17.065-64.082
	C127.227,72.768,184.995,15,256.001,15z M304.098,167.307c13.545,0,24.564,11.02,24.564,24.564s-11.02,24.564-24.564,24.564
	s-24.564-11.02-24.564-24.564S290.553,167.307,304.098,167.307z M207.904,167.307c13.545,0,24.564,11.02,24.564,24.564
	s-11.02,24.564-24.564,24.564s-24.564-11.02-24.564-24.564S194.359,167.307,207.904,167.307z M200.404,337.523
	c0,4.991-1.531,9.723-4.195,13.687c-28.484-11.517-53.421-27.419-69.666-39.027c-3.708-2.649-6.137-6.576-6.842-11.056
	c-0.693-4.409,0.386-8.805,3.039-12.379c8.696-11.717,19.234-23.463,31.391-35.012c9.697,21.469,25.986,39.346,46.272,51.034v32.753
	H200.404z M159.292,207.903v-32.581h12.689c-2.33,5.039-3.641,10.642-3.641,16.548c0,21.816,17.749,39.564,39.564,39.564
	s39.564-17.749,39.564-39.564c0-0.173-0.011-0.344-0.013-0.516h17.091c-0.002,0.173-0.013,0.343-0.013,0.516
	c0,21.816,17.749,39.564,39.564,39.564s39.564-17.749,39.564-39.564c0-5.906-1.31-11.51-3.641-16.548h12.689v32.581
	c0,53.326-43.384,96.709-96.709,96.709S159.292,261.229,159.292,207.903z M357.87,253.735
	c12.157,11.549,22.695,23.295,31.391,35.012c2.653,3.574,3.732,7.971,3.039,12.379c-0.705,4.48-3.134,8.407-6.841,11.056
	c-16.245,11.609-41.183,27.51-69.667,39.027c-2.664-3.963-4.195-8.695-4.195-13.687V304.77
	C331.884,293.081,348.173,275.204,357.87,253.735z"/>
<path d="M274.782,242.645c-2.737,2.701-9.298,5.855-18.781,5.855s-16.043-3.154-18.781-5.855c-2.95-2.91-7.698-2.877-10.606,0.071
	c-2.909,2.948-2.877,7.697,0.071,10.606c6.459,6.373,17.418,10.177,29.316,10.177c11.898,0,22.857-3.805,29.316-10.177
	c2.949-2.909,2.98-7.658,0.071-10.606C282.479,239.768,277.73,239.736,274.782,242.645z"/>
<path d="M232.033,456.919h-0.08c-4.142,0-7.46,3.358-7.46,7.5s3.398,7.5,7.54,7.5s7.5-3.358,7.5-7.5
	S236.175,456.919,232.033,456.919z"/>
<g>
</g>
<g>
</g>
<g>
</g>
<g>
</g>
<g>
</g>
<g>
</g>
<g>
</g>
<g>
</g>
<g>
</g>
<g>
</g>
<g>
</g>
<g>
</g>
<g>
</g>
<g>
</g>
<g>
</g>
</svg>
