<?xml version="1.0" encoding="iso-8859-1"?>
<!-- Generator: Adobe Illustrator 19.0.0, SVG Export Plug-In . SVG Version: 6.00 Build 0)  -->
<svg version="1.1" id="Capa_1" xmlns="http://www.w3.org/2000/svg" xmlns:xlink="http://www.w3.org/1999/xlink" x="0px" y="0px"
	 viewBox="0 0 512 512" style="enable-background:new 0 0 512 512;" xml:space="preserve">
<path style="fill:#FF8250;" d="M400.29,312.113c-24.048-48.097-24.048-96.194-24.048-96.194v-80.161L256,119.73l-120.242,16.028
	v80.161c0,0,0,48.097-24.048,96.194l32.065,16.032l-32.065,40.081c87.375,58.25,201.206,58.25,288.581,0l-32.065-40.081
	L400.29,312.113z"/>
<path style="fill:#F7D291;" d="M408.282,396.981L325.49,367.76c-12.82-4.525-21.393-16.642-21.393-30.237V296.08h-96.194v41.443
	c0,13.595-8.573,25.712-21.393,30.236l-82.793,29.221c-19.229,6.787-32.089,24.962-32.089,45.354V504.5H440.37v-62.165
	C440.371,421.943,427.512,403.768,408.282,396.981z"/>
<path style="fill:#EDEBED;" d="M408.282,396.981l-81.944-28.922c-7.236,32.202-35.952,56.279-70.338,56.279
	s-63.102-24.078-70.338-56.279l-81.944,28.921c-19.23,6.787-32.089,24.962-32.089,45.355V504.5h368.742v-62.165
	C440.371,421.943,427.512,403.768,408.282,396.981z"/>
<path style="fill:#A5CDFF;" d="M256,456.403c48.354,0,88.898-32.981,100.661-77.642l-30.323-10.702
	c-7.236,32.202-35.952,56.279-70.338,56.279s-63.102-24.078-70.338-56.279l-30.323,10.702
	C167.102,423.422,207.646,456.403,256,456.403z"/>
<path style="fill:#F0C382;" d="M207.903,325.904c14.8,6.545,31.063,10.257,48.097,10.257c17.103,0,33.353-3.645,48.097-10.11V296.08
	h-96.194L207.903,325.904L207.903,325.904z"/>
<path style="fill:#FFE1A0;" d="M151.79,119.726v56.113h-12.024c-11.068,0-20.04,8.972-20.04,20.04c0,11.068,8.972,20.04,20.04,20.04
	h12.429c4.106,53.795,48.958,96.194,103.805,96.194c57.553,0,104.21-46.656,104.21-104.21v-88.177L151.79,119.726L151.79,119.726z"
	/>
<path style="fill:#F7D291;" d="M151.79,119.726v56.113h-10.881c-10.483,0-20.035,7.542-21.08,17.973
	c-1.201,11.996,8.187,22.108,19.937,22.108h12.429c4.106,53.795,48.958,96.194,103.805,96.194c5.466,0,10.793-0.547,16.032-1.359
	c-49.921-7.729-88.177-50.764-88.177-102.851v-22.69c0-12.007,5.306-22.771,13.761-30.105c9.265-8.037,22.698-9.449,33.778-4.188
	c63.745,30.268,107.764,63.329,127.685,81.032c0.667-4.764,1.131-19.1,1.131-24.048v-88.177H151.79V119.726z"/>
<path style="fill:#FFFFFF;" d="M224.308,227.915c-2.524,0-4.399,2.306-3.98,4.795c2.604,15.434,17.583,27.269,35.672,27.269
	s33.068-11.835,35.672-27.269c0.42-2.489-1.456-4.795-3.98-4.795L224.308,227.915L224.308,227.915z"/>
<path style="fill:#FF8250;" d="M146.746,178.463l-10.987,1.368v-44.073l32.065-8.016v26.857
	C167.823,166.731,158.785,176.964,146.746,178.463z"/>
<path style="fill:#FF9664;" d="M199.887,111.71c79.029,19.757,152.602,82.762,176.359,104.631c-0.003-0.236-0.004-0.422-0.004-0.422
	v-80.161L199.887,111.71z"/>
<path style="fill:#A5CDFF;" d="M256,119.73c74.877,0,120.242,16.028,120.242,16.028c0-66.408-53.834-120.242-120.242-120.242
	S135.758,69.35,135.758,135.758C135.758,135.758,181.123,119.73,256,119.73z"/>
<path style="fill:#8CB4EB;" d="M376.242,135.758c0-8.354-0.859-16.506-2.481-24.38C340.376,101.24,299.516,95.677,256,95.677
	c-13.479,0-26.666,0.568-39.459,1.636c-13.131,1.096-21.606-13.385-14.697-24.605c17.106-27.777,45.155-48.069,78.204-54.778
	c-7.772-1.578-15.812-2.415-24.048-2.415c-66.408,0-120.242,53.834-120.242,120.242c0,0,17.301-6.086,48.07-10.759
	c19.134-2.907,43.453-5.269,72.172-5.269C330.877,119.73,376.242,135.758,376.242,135.758z"/>
<path d="M215.403,192.568v-8.016c0-4.142-3.357-7.5-7.5-7.5s-7.5,3.358-7.5,7.5v8.016c0,4.142,3.357,7.5,7.5,7.5
	S215.403,196.71,215.403,192.568z"/>
<path d="M304.097,200.068c4.143,0,7.5-3.358,7.5-7.5v-8.016c0-4.142-3.357-7.5-7.5-7.5s-7.5,3.358-7.5,7.5v8.016
	C296.597,196.71,299.954,200.068,304.097,200.068z"/>
<path d="M410.778,389.909l-19.283-6.806l12.955-8.637c1.749-1.166,2.929-3.013,3.251-5.09s-0.241-4.194-1.555-5.835l-26.269-32.836
	l23.767-11.883c3.704-1.852,5.206-6.357,3.354-10.062c-22.914-45.83-23.255-92.381-23.256-92.846v-67.67
	c1.846,0.766,3.656,1.547,5.409,2.35c1.012,0.463,2.073,0.683,3.118,0.683c2.843,0,5.563-1.625,6.823-4.379
	c1.726-3.766,0.07-8.217-3.695-9.942c-3.712-1.7-7.629-3.317-11.711-4.858C381.888,68.515,333.402,16.419,271.375,8.944
	c0.091-0.468,0.142-0.95,0.142-1.444c0-4.142-3.357-7.5-7.5-7.5h-16.033c-4.143,0-7.5,3.358-7.5,7.5
	c0,0.494,0.051,0.977,0.142,1.444c-62.028,7.474-110.514,59.571-112.312,123.153c-4.082,1.541-7.999,3.157-11.711,4.858
	c-3.766,1.725-5.421,6.176-3.695,9.942c1.724,3.766,6.177,5.421,9.941,3.696c1.754-0.803,3.563-1.584,5.409-2.35v22.963
	c-8.63,4.115-14.928,12.266-15.89,21.857c-0.778,7.771,1.763,15.531,6.973,21.289c2.476,2.736,5.458,4.91,8.736,6.448
	c-0.733,13.12-4.433,50.674-23.075,87.959c-1.853,3.705-0.351,8.21,3.354,10.062l23.767,11.883l-26.269,32.836
	c-1.313,1.641-1.877,3.758-1.555,5.835s1.502,3.924,3.251,5.09l12.955,8.637l-19.283,6.806
	c-22.187,7.83-37.093,28.899-37.093,52.427V504.5c0,4.142,3.357,7.5,7.5,7.5s7.5-3.358,7.5-7.5v-62.165
	c0-17.18,10.885-32.564,27.085-38.282l44.129-15.575c15.351,44.747,57.799,75.425,105.657,75.425
	c47.899,0,90.309-30.664,105.66-75.424l44.126,15.574c16.2,5.718,27.085,21.102,27.085,38.282V504.5c0,4.142,3.357,7.5,7.5,7.5
	s7.5-3.358,7.5-7.5v-62.165C447.871,418.808,432.965,397.739,410.778,389.909z M364.871,321.437
	c-2.025,1.013-3.485,2.887-3.971,5.099c-0.486,2.212,0.054,4.525,1.469,6.294l26.954,33.693l-15.509,10.34l-45.829-16.175
	c-9.803-3.46-16.389-12.769-16.389-23.165v-32.761c30.813-17.761,52.403-49.803,55.67-87.017c0.591,0.545,1.1,1.02,1.551,1.444
	c0.423,11.264,3.212,49.441,21.528,89.51L364.871,321.437z M256,23.016c59.203,0,107.892,45.869,112.4,103.935
	c-31.591-9.471-70.981-14.726-112.4-14.726s-80.809,5.254-112.4,14.726C148.108,68.885,196.797,23.016,256,23.016z M160.323,137.906
	l0.001,13.884c0,4.42-1.722,8.576-4.847,11.702c-3.126,3.125-7.281,4.847-11.702,4.847h-0.517v-25.592
	C148.68,140.994,154.382,139.379,160.323,137.906z M127.294,194.559c0.63-6.292,6.612-11.221,13.619-11.221h2.861c0,0,0,0,0.001,0
	c8.427,0,16.349-3.282,22.308-9.24s9.24-13.881,9.24-22.309l-0.001-17.201c13.839-2.712,28.694-4.714,44.197-5.939
	c35.405,13.06,69.838,31.003,102.356,53.358c1.299,0.892,2.777,1.32,4.242,1.32c2.387,0,4.733-1.137,6.188-3.252
	c2.347-3.413,1.481-8.083-1.932-10.429c-24.056-16.537-49.143-30.729-74.897-42.418c0.175,0,0.349-0.003,0.524-0.003
	c42.159,0,81.922,5.559,112.742,15.521V199c-3.393-2.906-7.436-6.264-12.104-9.968c-3.246-2.575-7.964-2.029-10.537,1.215
	c-2.574,3.245-2.03,7.963,1.215,10.537c1.905,1.511,3.702,2.964,5.391,4.349v2.841c-0.039,53.286-43.421,96.638-96.705,96.638
	c-53.326,0-96.71-43.384-96.71-96.709c0-4.142-3.357-7.5-7.5-7.5s-7.5,3.358-7.5,7.5v0.516h-4.524c-3.537,0-6.928-1.506-9.303-4.131
	C128.058,201.629,126.932,198.174,127.294,194.559z M122.677,366.523l26.954-33.693c1.415-1.769,1.955-4.082,1.469-6.294
	c-0.485-2.212-1.945-4.086-3.971-5.099L121.654,308.7c16.46-36.01,20.38-70.487,21.313-85.28h2.398
	c4.855,34.791,25.794,64.5,55.038,81.35v32.754c0,10.396-6.586,19.705-16.389,23.165l-45.829,16.175L122.677,366.523z M256,448.903
	c-41.48,0-78.263-26.614-91.515-65.416l16.078-5.675c10.848,32.134,40.941,54.026,75.437,54.026c11.6,0,22.786-2.44,33.249-7.253
	c3.764-1.731,5.411-6.185,3.68-9.948c-1.73-3.764-6.187-5.411-9.947-3.679c-8.483,3.902-17.562,5.88-26.981,5.88
	c-28.223,0-52.808-18.052-61.431-44.469c12.667-6.815,20.834-20.157,20.834-34.847v-25.55c12.59,4.928,26.282,7.64,40.598,7.64
	c14.313,0,28.006-2.711,40.596-7.641v25.552c0,14.685,8.162,28.023,20.822,34.841c-2.41,7.369-6.092,14.192-11.022,20.32
	c-2.597,3.227-2.085,7.948,1.142,10.545c1.387,1.115,3.047,1.657,4.697,1.657c2.192,0,4.366-0.958,5.849-2.799
	c5.903-7.337,10.353-15.489,13.327-24.283l16.105,5.684C334.266,422.301,297.515,448.903,256,448.903z"/>
<path d="M199.887,167.307h16.032c4.143,0,7.5-3.358,7.5-7.5s-3.357-7.5-7.5-7.5h-16.032c-4.143,0-7.5,3.358-7.5,7.5
	S195.744,167.307,199.887,167.307z"/>
<path d="M212.428,227.915c0,21.816,19.547,39.564,43.572,39.564s43.572-17.749,43.572-39.564c0-4.142-3.357-7.5-7.5-7.5h-72.145
	C215.785,220.415,212.428,223.773,212.428,227.915z M283.211,235.415c-3.696,9.889-14.497,17.064-27.211,17.064
	s-23.515-7.176-27.211-17.064H283.211z"/>
<g>
</g>
<g>
</g>
<g>
</g>
<g>
</g>
<g>
</g>
<g>
</g>
<g>
</g>
<g>
</g>
<g>
</g>
<g>
</g>
<g>
</g>
<g>
</g>
<g>
</g>
<g>
</g>
<g>
</g>
</svg>
