<?xml version="1.0" encoding="iso-8859-1"?>
<!-- Generator: Adobe Illustrator 19.0.0, SVG Export Plug-In . SVG Version: 6.00 Build 0)  -->
<svg version="1.1" id="Capa_1" xmlns="http://www.w3.org/2000/svg" xmlns:xlink="http://www.w3.org/1999/xlink" x="0px" y="0px"
	 viewBox="0 0 512 512" style="enable-background:new 0 0 512 512;" xml:space="preserve">
<path style="fill:#FFE17D;" d="M272.031,7.5h-32.065c-53.126,0-96.193,43.067-96.193,96.193l0,0h224.451l0,0
	C368.225,50.567,325.158,7.5,272.031,7.5z"/>
<path style="fill:#B67F5F;" d="M413.861,358.071l-84.486-24.849c-10.235-3.01-17.263-12.403-17.263-23.071v-46.135H199.885v46.135
	c0,10.668-7.028,20.061-17.263,23.071l-84.486,24.849c-20.469,6.02-34.526,24.806-34.526,46.143V504.5h384.774V404.214
	C448.385,382.877,434.329,364.091,413.861,358.071z"/>
<path style="fill:#E6646E;" d="M413.861,358.071l-71.352-20.986c-7.91,40.58-43.615,71.221-86.51,71.221s-78.6-30.641-86.51-71.221
	l-71.352,20.986c-20.469,6.02-34.526,24.806-34.526,46.142V504.5h384.774V404.213C448.385,382.877,434.329,364.091,413.861,358.071z
	"/>
<path style="fill:#A06E50;" d="M199.885,297.932c16.842,8.996,35.938,14.181,56.113,14.181s39.271-5.185,56.113-14.181v-33.916
	H199.885V297.932z"/>
<path style="fill:#CD916E;" d="M372.233,151.79h-12.024v-48.097h-208.42v48.097h-12.024c-11.068,0-20.04,8.972-20.04,20.04
	s8.972,20.04,20.04,20.04h12.429c4.106,53.795,48.958,96.194,103.805,96.194s99.699-42.398,103.805-96.194h12.429
	c11.068,0,20.04-8.973,20.04-20.04C392.272,160.762,383.301,151.79,372.233,151.79z"/>
<path style="fill:#B67F5F;" d="M344.176,143.774v-24.048H151.788v32.065h-10.88c-10.483,0-20.035,7.542-21.08,17.973
	c-1.201,11.996,8.186,22.108,19.936,22.108h12.429c4.106,53.795,48.957,96.194,103.805,96.194c5.483,0,10.83-0.534,16.083-1.351
	c-49.946-7.708-88.228-50.754-88.228-102.859l0,0c0-13.282,10.767-24.048,24.048-24.048h120.242
	C336.999,159.806,344.176,152.629,344.176,143.774z"/>
<rect x="151.788" y="103.69" style="fill:#E6646E;" width="208.42" height="32.06"/>
<path style="fill:#FFD164;" d="M284.055,8.331c-3.947-0.493-7.943-0.831-12.024-0.831h-32.065
	c-53.126,0-96.194,43.067-96.194,96.193l0,0h56.113l0,0C199.885,54.649,236.618,14.26,284.055,8.331z"/>
<path style="fill:#DC4655;" d="M146.348,343.892c10.909,50.557,55.83,88.463,109.651,88.463s98.743-37.906,109.651-88.463
	l-23.141-6.806c-7.91,40.58-43.615,71.221-86.51,71.221s-78.6-30.641-86.51-71.221L146.348,343.892z"/>
<path d="M207.902,152.307c-4.143,0-7.5,3.358-7.5,7.5v8.016c0,4.142,3.357,7.5,7.5,7.5s7.5-3.358,7.5-7.5v-8.016
	C215.402,155.665,212.045,152.307,207.902,152.307z"/>
<path d="M304.095,152.307c-4.143,0-7.5,3.358-7.5,7.5v8.016c0,4.142,3.357,7.5,7.5,7.5s7.5-3.358,7.5-7.5v-8.016
	C311.595,155.665,308.238,152.307,304.095,152.307z"/>
<path d="M415.977,350.876l-84.485-24.849c-6.994-2.057-11.879-8.585-11.879-15.876v-34.528
	c25.013-17.396,42.617-44.741,47.019-76.253h4.457c14.618,0,27.156-10.861,28.544-24.727c0.778-7.771-1.764-15.53-6.974-21.288
	c-5.214-5.762-12.658-9.066-20.426-9.066h-4.523v-33.097h0.516c4.143,0,7.5-3.358,7.5-7.5C375.725,46.517,329.208,0,272.031,0
	h-32.064c-54.655,0-99.564,42.505-103.42,96.193H79.645c-4.143,0-7.5,3.358-7.5,7.5s3.357,7.5,7.5,7.5h64.129h0.516v33.097h-3.378
	c-14.617,0-27.155,10.861-28.545,24.725c-0.778,7.771,1.763,15.53,6.973,21.289c5.214,5.762,12.659,9.067,20.427,9.067h5.598
	c4.398,31.522,22.003,58.87,47.022,76.263v34.517c0,7.291-4.885,13.819-11.879,15.876l-84.485,24.849
	c-23.498,6.911-39.909,28.845-39.909,53.338V504.5c0,4.142,3.357,7.5,7.5,7.5c4.143,0,7.5-3.358,7.5-7.5V404.214
	c0-17.885,11.983-33.901,29.142-38.947l24.686-7.26c0.104,0.358,0.198,0.722,0.305,1.077c0.973,3.252,3.954,5.353,7.183,5.353
	c0.711,0,1.436-0.102,2.151-0.316c3.969-1.187,6.224-5.366,5.037-9.334c-0.1-0.334-0.189-0.676-0.286-1.012l24.698-7.264
	c11.622,40.556,49.187,69.297,91.972,69.297c15.313,0,29.946-3.511,43.495-10.437c3.688-1.885,5.149-6.404,3.264-10.092
	c-1.885-3.688-6.4-5.149-10.092-3.265c-11.414,5.834-23.75,8.793-36.667,8.793c-36.117,0-67.822-24.282-77.584-58.529l6.324-1.86
	c13.334-3.921,22.646-16.368,22.646-30.267v-25.733c14.705,7.137,31.199,11.146,48.613,11.146c17.412,0,33.906-4.012,48.613-11.153
	v25.74c0,13.899,9.313,26.345,22.646,30.267l6.328,1.861c-3.233,11.33-8.947,21.889-16.755,30.844
	c-2.722,3.122-2.397,7.86,0.725,10.582c1.421,1.239,3.177,1.847,4.926,1.847c2.092,0,4.173-0.871,5.656-2.571
	c9.231-10.588,15.994-23.07,19.837-36.47l23.452,6.898c-0.858,2.998-1.819,5.969-2.901,8.874c-1.447,3.881,0.526,8.2,4.408,9.647
	c0.863,0.322,1.748,0.474,2.618,0.474c3.042,0,5.904-1.865,7.028-4.883c1.206-3.235,2.277-6.543,3.236-9.88l25.927,7.625
	c17.158,5.046,29.142,21.062,29.142,38.947V504.5c0,4.142,3.357,7.5,7.5,7.5s7.5-3.358,7.5-7.5V404.214
	C455.885,379.721,439.475,357.787,415.977,350.876z M239.967,15h32.064c34.697,0,64.799,20.029,79.365,49.129H336.16
	c-4.143,0-7.5,3.358-7.5,7.5s3.357,7.5,7.5,7.5h21.093c1.585,5.491,2.664,11.195,3.157,17.064H151.588
	C155.407,50.784,193.586,15,239.967,15z M159.288,183.855c0-4.142-3.357-7.5-7.5-7.5s-7.5,3.358-7.5,7.5v0.516h-4.523
	c-3.537,0-6.928-1.506-9.304-4.131c-2.406-2.66-3.532-6.115-3.17-9.729c0.63-6.292,6.612-11.221,13.619-11.221h10.878
	c1.989,0,3.896-0.79,5.303-2.197c1.407-1.406,2.197-3.314,2.197-5.303v-8.532h152.823c4.143,0,7.5-3.358,7.5-7.5s-3.357-7.5-7.5-7.5
	H159.288v-17.065h193.42v17.065h-8.53c-4.143,0-7.5,3.358-7.5,7.5s3.357,7.5,7.5,7.5h8.53v8.532c0,4.142,3.357,7.5,7.5,7.5h12.023
	c3.537,0,6.928,1.505,9.304,4.131c2.406,2.659,3.532,6.114,3.17,9.729c-0.63,6.292-6.611,11.221-13.618,11.221h-3.383v-0.439
	c0-4.141-3.356-7.499-7.497-7.5c-0.001,0-0.002,0-0.003,0c-4.14,0-7.497,3.354-7.5,7.495c-0.039,53.286-43.421,96.638-96.706,96.638
	C202.673,280.564,159.288,237.181,159.288,183.855z"/>
<path d="M236.382,439.41c-4.945-0.779-9.887-1.878-14.687-3.267c-3.979-1.151-8.138,1.14-9.289,5.12
	c-1.151,3.979,1.141,8.138,5.119,9.29c5.401,1.563,10.96,2.799,16.522,3.675c0.396,0.063,0.788,0.092,1.176,0.092
	c3.628,0,6.817-2.638,7.4-6.334C243.268,443.894,240.474,440.055,236.382,439.41z"/>
<path d="M281.298,438.089c-4.879,1.069-9.883,1.841-14.873,2.295c-4.125,0.375-7.165,4.024-6.789,8.149
	c0.354,3.894,3.625,6.82,7.46,6.82c0.228,0,0.458-0.01,0.688-0.031c5.61-0.511,11.237-1.379,16.725-2.582
	c4.046-0.886,6.607-4.885,5.721-8.931C289.345,439.764,285.352,437.202,281.298,438.089z"/>
<path d="M194.116,424.247c-4.309-2.539-8.505-5.377-12.472-8.437c-3.28-2.53-7.989-1.92-10.519,1.358
	c-2.53,3.28-1.922,7.99,1.358,10.52c4.458,3.438,9.174,6.628,14.017,9.482c1.195,0.704,2.507,1.039,3.801,1.039
	c2.568,0,5.07-1.32,6.469-3.693C198.872,430.948,197.685,426.35,194.116,424.247z"/>
<path d="M322.586,420.44c-4.156,2.792-8.525,5.348-12.986,7.596c-3.699,1.864-5.187,6.374-3.323,10.073
	c1.319,2.617,3.961,4.126,6.704,4.126c1.135,0,2.287-0.258,3.369-0.804c5.017-2.528,9.929-5.401,14.602-8.541
	c3.438-2.31,4.353-6.97,2.043-10.408C330.684,419.044,326.022,418.13,322.586,420.44z"/>
<path d="M151.757,382.257c-2.135-3.549-6.743-4.697-10.293-2.563c-3.55,2.135-4.696,6.743-2.563,10.292
	c2.896,4.817,6.127,9.502,9.601,13.926c1.479,1.884,3.681,2.868,5.903,2.868c1.621,0,3.254-0.523,4.627-1.602
	c3.258-2.558,3.825-7.273,1.267-10.531C157.208,390.712,154.334,386.542,151.757,382.257z"/>
<path d="M365.04,387.019c-3.401-2.362-8.074-1.518-10.438,1.885c-2.854,4.112-5.996,8.086-9.338,11.812
	c-2.766,3.083-2.509,7.825,0.575,10.591c1.433,1.285,3.222,1.917,5.005,1.917c2.057,0,4.104-0.841,5.586-2.492
	c3.756-4.187,7.286-8.653,10.494-13.275C369.288,394.054,368.444,389.38,365.04,387.019z"/>
<path d="M272.031,208.419h-16.032c-4.143,0-7.5,3.358-7.5,7.5s3.357,7.5,7.5,7.5h16.032c4.143,0,7.5-3.358,7.5-7.5
	S276.173,208.419,272.031,208.419z"/>
<g>
</g>
<g>
</g>
<g>
</g>
<g>
</g>
<g>
</g>
<g>
</g>
<g>
</g>
<g>
</g>
<g>
</g>
<g>
</g>
<g>
</g>
<g>
</g>
<g>
</g>
<g>
</g>
<g>
</g>
</svg>
