<?xml version="1.0" encoding="iso-8859-1"?>
<!-- Generator: Adobe Illustrator 19.0.0, SVG Export Plug-In . SVG Version: 6.00 Build 0)  -->
<svg version="1.1" id="Capa_1" xmlns="http://www.w3.org/2000/svg" xmlns:xlink="http://www.w3.org/1999/xlink" x="0px" y="0px"
	 viewBox="0 0 512 512" style="enable-background:new 0 0 512 512;" xml:space="preserve">
<g>
	<circle style="fill:#E6646E;" cx="135.76" cy="63.61" r="56.11"/>
	<circle style="fill:#E6646E;" cx="376.24" cy="63.61" r="56.11"/>
</g>
<path style="fill:#DC4655;" d="M380.087,207.903c7.759-17.128,12.187-36.086,12.187-56.113c0-75.262-61.012-136.274-136.274-136.274
	S119.726,76.528,119.726,151.79c0,20.027,4.428,38.985,12.187,56.113L380.087,207.903L380.087,207.903z"/>
<path style="fill:#E3AA75;" d="M408.282,404.997l-82.792-29.221c-12.82-4.525-21.393-16.642-21.393-30.237v-41.443h-96.194v41.443
	c0,13.595-8.573,25.712-21.393,30.237l-82.792,29.221c-19.229,6.787-32.089,24.962-32.089,45.354V504.5h368.742v-54.148
	C440.371,429.959,427.512,411.784,408.282,404.997z"/>
<path style="fill:#E6646E;" d="M408.282,404.997l-31.92-11.266C346.98,427.172,304.014,448.387,256,448.387
	s-90.98-21.215-120.362-54.656l-31.92,11.266c-19.229,6.787-32.089,24.962-32.089,45.354V504.5h368.742v-54.148
	C440.371,429.96,427.512,411.784,408.282,404.997z"/>
<path style="fill:#D29B6E;" d="M207.903,333.92c14.8,6.545,31.063,10.257,48.097,10.257s33.296-3.712,48.097-10.257v-29.824h-96.194
	L207.903,333.92L207.903,333.92z"/>
<path style="fill:#F5B97D;" d="M372.234,183.855H360.21v-8.016c0-57.554-46.656-104.21-104.21-104.21s-104.21,46.656-104.21,104.21
	v8.016h-12.024c-11.068,0-20.04,8.972-20.04,20.04s8.972,20.04,20.04,20.04h12.429c4.106,53.795,48.958,96.194,103.805,96.194
	s99.699-42.398,103.805-96.194h12.429c11.068,0,20.04-8.973,20.04-20.04C392.273,192.827,383.302,183.855,372.234,183.855z"/>
<path style="fill:#E3AA75;" d="M183.855,215.919v-40.081c0-9.013,1.173-17.735,3.36-26.046
	c4.063-15.438,21.898-22.819,35.537-14.523c40.952,24.907,88.007,38.961,137.445,40.341C360.073,118.163,313.476,71.629,256,71.629
	c-24.358,0-46.816,7.891-64.544,21.908c-0.049-0.198,0.046,0.198,0,0c-24.268,18.956-39.666,48.79-39.666,84.139v6.179h-10.88
	c-10.483,0-20.036,7.542-21.081,17.973c-1.202,11.996,8.186,22.108,19.937,22.108h12.429c4.106,53.795,48.958,96.194,103.805,96.194
	c5.484,0,10.83-0.534,16.083-1.351C222.137,311.07,183.855,268.024,183.855,215.919z"/>
<path style="fill:#E6646E;" d="M256,15.516c-35.284,0-67.329,13.524-91.531,35.525c46.879,61.229,120.686,100.75,203.757,100.75
	c8.094,0,16.088-0.421,23.99-1.154C391.589,75.912,330.872,15.516,256,15.516z"/>
<path style="fill:#DC4655;" d="M256,472.435c57.996,0,109.444-28.001,141.586-71.214l-21.223-7.491
	C346.98,427.172,304.015,448.387,256,448.387s-90.98-21.215-120.362-54.656l-21.223,7.491
	C146.556,444.435,198.004,472.435,256,472.435z"/>
<g>
	<path style="fill:#FFE17D;" d="M184.827,409.279l-24.324-24.324l-56.786,20.042c-19.229,6.787-32.089,24.962-32.089,45.354V504.5
		H191.87v-78.217C191.871,419.905,189.337,413.788,184.827,409.279z"/>
	<path style="fill:#FFE17D;" d="M327.173,409.279l24.324-24.324l56.786,20.042c19.229,6.787,32.089,24.962,32.089,45.354V504.5
		H320.129v-78.217C320.129,419.905,322.663,413.788,327.173,409.279z"/>
</g>
<path d="M410.778,397.925l-82.793-29.221c-9.803-3.46-16.389-12.77-16.389-23.165v-32.754c29.243-16.85,50.175-46.561,55.031-81.35
	h5.607c15.186,0,27.54-12.354,27.54-27.541c0-5.715-1.751-11.028-4.743-15.433c3.135-11.917,4.743-24.235,4.743-36.671
	c0-9.592-0.952-18.966-2.753-28.037c25.482-8.759,42.833-32.732,42.833-60.141C439.854,28.537,411.318,0,376.242,0
	c-20.422,0-39.149,9.533-51.125,25.754C304.595,14.455,281.036,8.016,256,8.016s-48.595,6.439-69.117,17.738
	C174.906,9.534,156.179,0,135.758,0c-35.077,0-63.613,28.537-63.613,63.613c0,27.408,17.351,51.381,42.834,60.14
	c-1.801,9.072-2.753,18.445-2.753,28.037c0,12.433,1.608,24.753,4.743,36.671c-2.992,4.405-4.743,9.719-4.743,15.434
	c0,15.186,12.354,27.541,27.541,27.541h5.607c4.856,34.789,25.787,64.501,55.03,81.35v32.754c0,10.396-6.586,19.705-16.389,23.165
	l-82.792,29.221c-22.187,7.83-37.093,28.899-37.093,52.427V504.5c0,4.142,3.358,7.5,7.5,7.5s7.5-3.358,7.5-7.5v-54.148
	c0-17.18,10.885-32.564,27.085-38.282l52.328-18.469l20.981,20.982c3.125,3.126,4.847,7.282,4.847,11.702V504.5
	c0,4.142,3.358,7.5,7.5,7.5s7.5-3.358,7.5-7.5v-59.323c17.519,7.024,36.865,10.71,56.629,10.71c19.765,0,39.111-3.685,56.629-10.71
	v3.206c0,4.142,3.357,7.5,7.5,7.5s7.5-3.358,7.5-7.5v-22.1c0-4.42,1.722-8.576,4.848-11.702l20.981-20.981l52.328,18.469
	c16.2,5.718,27.085,21.102,27.085,38.282V504.5c0,4.142,3.357,7.5,7.5,7.5s7.5-3.358,7.5-7.5v-54.148
	C447.871,426.824,432.965,405.755,410.778,397.925z M376.242,15c26.805,0,48.612,21.808,48.612,48.613
	c0,20.518-12.72,38.51-31.537,45.529c-9.614-30.888-29.39-57.335-55.392-75.431C347.102,21.912,361.053,15,376.242,15z
	 M87.145,63.613C87.145,36.808,108.953,15,135.758,15c15.187,0,29.14,6.912,38.317,18.711
	c-26.003,18.096-45.779,44.543-55.392,75.431C99.866,102.123,87.145,84.131,87.145,63.613z M159.291,215.919
	c0-4.142-3.358-7.5-7.5-7.5s-7.5,3.358-7.5,7.5c0,0.173,0.006,0.344,0.007,0.516h-4.531c-6.915,0-12.541-5.625-12.541-12.541
	c0-6.915,5.625-12.54,12.539-12.54l6.011,0.001c7.902-0.007,7.924,0.001,9.606-0.917c2.508-1.368,3.923-3.96,3.909-6.63v-7.97
	c0-23.88,7.482-44.707,22.239-61.899c2.698-3.143,2.336-7.878-0.807-10.576c-3.144-2.698-7.878-2.336-10.576,0.807
	c-17.157,19.99-25.856,44.103-25.856,71.669v0.517c-2.434,0-4.524-0.001-4.524-0.001c-3.464,0-6.778,0.649-9.835,1.822
	c-1.797-8.639-2.706-17.48-2.706-26.386c0-71.006,57.768-128.774,128.774-128.774c71.007,0,128.774,57.768,128.774,128.774
	c0,8.908-0.913,17.747-2.71,26.385c-3.056-1.172-6.369-1.82-9.832-1.82c0,0-2.089,0-4.522,0v-17.739
	c0.173,0,0.342,0.005,0.516,0.005c4.143,0,7.5-3.358,7.5-7.5s-3.357-7.5-7.5-7.5c-62.787,0-108.183-20.323-135.208-37.372
	c-29.375-18.531-44.076-37.338-44.221-37.526c-2.523-3.278-7.225-3.895-10.508-1.376c-3.287,2.521-3.907,7.229-1.386,10.516
	c0.642,0.837,16.093,20.739,47.487,40.678c26.506,16.834,69.584,36.631,128.32,39.667v25.646h0.007
	c0.003,2.545,1.293,5.026,3.634,6.431c1.784,1.071,1.805,1.065,9.873,1.07l6.01-0.001c6.915,0,12.54,5.625,12.54,12.54
	s-5.625,12.541-12.54,12.541h-4.531c0.001-0.172,0.007-0.344,0.007-0.516c0-4.142-3.357-7.5-7.5-7.5s-7.5,3.358-7.5,7.5
	c0,53.326-43.384,96.709-96.71,96.709C202.674,312.629,159.291,269.245,159.291,215.919z M321.868,403.976
	c-5.959,5.959-9.24,13.882-9.24,22.308v2.575C295.471,436.734,276,440.887,256,440.887c-19.998,0-39.471-4.153-56.629-12.028v-2.575
	c0-8.427-3.282-16.349-9.241-22.308l-15.909-15.909l14.785-5.218c15.789-5.573,26.397-20.566,26.397-37.309v-25.548
	c12.589,4.928,26.282,7.638,40.597,7.638c14.315,0,28.007-2.71,40.597-7.638v25.548c0,16.743,10.607,31.736,26.396,37.309
	l14.785,5.218L321.868,403.976z"/>
<path d="M285.316,261.339c2.948-2.909,2.98-7.658,0.071-10.606c-2.91-2.949-7.656-2.981-10.606-0.071
	c-2.737,2.701-9.299,5.855-18.781,5.855s-16.043-3.154-18.781-5.855c-2.949-2.91-7.698-2.877-10.606,0.071
	c-2.909,2.949-2.877,7.697,0.071,10.606c6.459,6.373,17.418,10.177,29.316,10.177C267.897,271.516,278.855,267.711,285.316,261.339z
	"/>
<path d="M320.129,472.952c-4.143,0-7.5,3.358-7.5,7.5V504.5c0,4.142,3.357,7.5,7.5,7.5s7.5-3.358,7.5-7.5v-24.048
	C327.629,476.31,324.271,472.952,320.129,472.952z"/>
<path d="M207.903,184.371c-4.142,0-7.5,3.358-7.5,7.5v8.016c0,4.142,3.358,7.5,7.5,7.5s7.5-3.358,7.5-7.5v-8.016
	C215.403,187.729,212.045,184.371,207.903,184.371z"/>
<path d="M304.096,207.387c4.143,0,7.5-3.358,7.5-7.5v-8.016c0-4.142-3.357-7.5-7.5-7.5s-7.5,3.358-7.5,7.5v8.016
	C296.596,204.029,299.954,207.387,304.096,207.387z"/>
<path d="M207.907,175.323c4.057,0,7.395-3.238,7.494-7.317c0.102-4.141-3.173-7.58-7.314-7.681l-8.016-0.196
	c-4.15-0.125-7.58,3.174-7.681,7.314c-0.102,4.141,3.173,7.58,7.314,7.681l8.016,0.196
	C207.783,175.322,207.845,175.323,207.907,175.323z"/>
<path d="M304.092,175.323c0.063,0,0.125,0,0.188-0.002l8.017-0.196c4.141-0.101,7.415-3.54,7.314-7.681
	c-0.101-4.142-3.554-7.425-7.682-7.314l-8.017,0.196c-4.141,0.101-7.415,3.54-7.314,7.681
	C296.698,172.084,300.036,175.323,304.092,175.323z"/>
<g>
</g>
<g>
</g>
<g>
</g>
<g>
</g>
<g>
</g>
<g>
</g>
<g>
</g>
<g>
</g>
<g>
</g>
<g>
</g>
<g>
</g>
<g>
</g>
<g>
</g>
<g>
</g>
<g>
</g>
</svg>
