<?xml version="1.0" encoding="iso-8859-1"?>
<!-- Generator: Adobe Illustrator 19.0.0, SVG Export Plug-In . SVG Version: 6.00 Build 0)  -->
<svg version="1.1" id="Capa_1" xmlns="http://www.w3.org/2000/svg" xmlns:xlink="http://www.w3.org/1999/xlink" x="0px" y="0px"
	 viewBox="0 0 512 512" style="enable-background:new 0 0 512 512;" xml:space="preserve">
<path style="fill:#F7D291;" d="M413.86,358.071l-84.486-24.849c-10.235-3.01-17.263-12.403-17.263-23.071v-46.135H199.886v46.135
	c0,10.668-7.028,20.061-17.263,23.071l-84.486,24.849c-20.469,6.02-34.526,24.806-34.526,46.143V504.5h384.774V404.214
	C448.386,382.877,434.33,364.091,413.86,358.071z"/>
<path style="fill:#F0C382;" d="M199.886,297.932c16.842,8.996,35.938,14.181,56.113,14.181c20.175,0,39.271-5.185,56.113-14.181
	v-33.916H199.886V297.932z"/>
<path style="fill:#FFE1A0;" d="M372.233,151.79h-4.008v-32.065c0-61.98-50.246-112.225-112.226-112.225
	S143.773,57.745,143.773,119.726v32.065h-4.008c-11.068,0-20.04,8.972-20.04,20.04s8.972,20.04,20.04,20.04h12.429
	c4.106,53.795,48.958,96.194,103.805,96.194s99.699-42.398,103.805-96.194h12.429c11.068,0,20.04-8.973,20.04-20.04
	C392.273,160.762,383.301,151.79,372.233,151.79z"/>
<path style="fill:#F0C382;" d="M272.031,240.532h-32.065c-8.854,0-16.032-7.178-16.032-16.032v-16.597h64.129V224.5
	C288.064,233.354,280.886,240.532,272.031,240.532z"/>
<g>
	<path style="fill:#A06E50;" d="M207.902,223.935h24.048c13.282,0,24.048-10.767,24.048-24.048H231.95
		C218.669,199.887,207.902,210.654,207.902,223.935z"/>
	<path style="fill:#A06E50;" d="M280.047,199.887h-24.048c0,13.282,10.767,24.048,24.048,24.048h24.048
		C304.096,210.654,293.329,199.887,280.047,199.887z"/>
</g>
<path style="fill:#EDEBED;" d="M167.822,360.21v-22.634l-40.081,11.788V504.5h256.516V349.364l-40.081-11.788v22.634
	c0,48.699-39.478,88.177-88.177,88.177S167.822,408.909,167.822,360.21z"/>
<path style="fill:#FFFFFF;" d="M344.176,337.576v22.634c0,48.699-39.478,88.177-88.177,88.177s-88.177-39.478-88.177-88.177v-22.634
	l-24.048,7.073v15.561c0,61.981,50.246,112.226,112.226,112.226S368.225,422.19,368.225,360.21v-15.561L344.176,337.576z"/>
<path style="fill:#F7D291;" d="M191.87,183.855V66.721c0-15.825-20.612-22.163-29.382-8.99
	c-11.82,17.753-18.714,39.061-18.714,61.995v32.065h-4.008c-11.068,0-20.04,8.972-20.04,20.04s8.972,20.04,20.04,20.04h12.429
	c4.106,53.795,48.958,96.194,103.805,96.194c6.895,0,13.631-0.675,20.149-1.954C228.136,276.804,191.87,234.586,191.87,183.855z"/>
<g>
	<path style="fill:#A06E50;" d="M143.773,151.79h-16.032v-40.08c0-8.854,7.178-16.032,16.032-16.032l0,0
		c8.854,0,16.032,7.178,16.032,16.032v24.048C159.805,144.612,152.628,151.79,143.773,151.79z"/>
	<path style="fill:#A06E50;" d="M368.225,151.79h16.032v-40.08c0-8.854-7.178-16.032-16.032-16.032l0,0
		c-8.854,0-16.032,7.178-16.032,16.032v24.048C352.193,144.612,359.37,151.79,368.225,151.79z"/>
</g>
<path d="M204.41,159.807v8.016c0,4.142,3.357,7.5,7.5,7.5s7.5-3.358,7.5-7.5v-8.016c0-4.142-3.357-7.5-7.5-7.5
	S204.41,155.665,204.41,159.807z"/>
<path d="M231.211,125.922c-1.005-4.018-5.078-6.459-9.096-5.457l-32.064,8.017c-4.019,1.004-6.461,5.077-5.457,9.095
	c0.853,3.408,3.91,5.683,7.271,5.683c0.603,0,1.215-0.073,1.825-0.226l32.064-8.017
	C229.772,134.013,232.215,129.941,231.211,125.922z"/>
<path d="M292.588,159.807v8.016c0,4.142,3.357,7.5,7.5,7.5s7.5-3.358,7.5-7.5v-8.016c0-4.142-3.357-7.5-7.5-7.5
	S292.588,155.665,292.588,159.807z"/>
<path d="M280.787,125.922c-1.004,4.019,1.438,8.091,5.457,9.095l32.064,8.017c0.611,0.153,1.223,0.226,1.825,0.226
	c3.36,0,6.418-2.275,7.271-5.683c1.004-4.019-1.438-8.091-5.457-9.095l-32.064-8.017
	C285.865,119.463,281.793,121.904,280.787,125.922z"/>
<path d="M415.977,350.876l-84.485-24.849c-6.994-2.057-11.879-8.585-11.879-15.876v-34.523
	c25.017-17.394,42.615-44.739,47.014-76.258h5.607c7.768,0,15.212-3.305,20.426-9.067c5.21-5.758,7.751-13.518,6.973-21.289
	c-0.628-6.263-3.531-11.909-7.872-16.222v-41.084c0-9.426-5.573-17.571-13.595-21.324C361.863,37.012,312.103,0,255.999,0
	c-56.103,0-105.863,37.013-122.164,90.386c-8.021,3.754-13.594,11.898-13.594,21.324v41.083c-4.341,4.313-7.245,9.96-7.872,16.222
	c-0.778,7.771,1.763,15.531,6.973,21.289c5.214,5.762,12.658,9.067,20.426,9.067h5.604c4.399,31.519,21.997,58.864,47.014,76.258
	v34.523c0,7.291-4.885,13.819-11.879,15.876l-84.485,24.849c-23.498,6.911-39.909,28.845-39.909,53.338V504.5
	c0,4.142,3.357,7.5,7.5,7.5c4.143,0,7.5-3.358,7.5-7.5V404.214c0-17.885,11.983-33.901,29.142-38.947l19.987-5.879V504.5
	c0,4.142,3.357,7.5,7.5,7.5s7.5-3.358,7.5-7.5V354.976l25.08-7.376v12.61c0,52.757,42.921,95.677,95.678,95.677
	s95.678-42.92,95.678-95.677V347.6l25.08,7.376v21.266c0,4.142,3.357,7.5,7.5,7.5s7.5-3.358,7.5-7.5v-16.855l19.987,5.879
	c17.158,5.046,29.142,21.062,29.142,38.947V504.5c0,4.142,3.357,7.5,7.5,7.5s7.5-3.358,7.5-7.5V404.214
	C455.886,379.721,439.475,357.787,415.977,350.876z M120.296,152.734c0.001-0.012,0.003-0.014,0.004-0.004
	C120.298,152.731,120.297,152.733,120.296,152.734z M368.228,103.177c4.705,0,8.532,3.828,8.532,8.532v33.133
	c-1.84-0.362-3.736-0.552-5.671-0.552h-2.861c-2.279,0-4.422-0.887-6.033-2.499s-2.499-3.754-2.499-6.034v-24.048
	C359.695,107.005,363.522,103.177,368.228,103.177z M135.241,111.709c0-4.705,3.827-8.532,8.532-8.532s8.532,3.828,8.532,8.532
	v24.048c0,2.279-0.888,4.422-2.499,6.034c-1.611,1.611-3.754,2.499-6.033,2.499h-2.861c-1.934,0-3.831,0.19-5.671,0.552
	L135.241,111.709L135.241,111.709z M159.289,183.855c0-4.142-3.357-7.5-7.5-7.5s-7.5,3.358-7.5,7.5c0,0.173,0.006,0.344,0.007,0.516
	h-4.528c-3.537,0-6.928-1.506-9.303-4.131c-2.406-2.66-3.532-6.115-3.17-9.73c0.63-6.292,6.611-11.22,13.617-11.22h2.861
	c0,0,0,0,0.001,0c6.285,0,12.194-2.448,16.639-6.892c4.445-4.445,6.893-10.354,6.893-16.64V111.71
	c0-10.79-7.303-19.901-17.224-22.667C166.161,45.036,208.511,15,256.002,15c47.488,0,89.837,30.036,105.917,74.043
	c-9.921,2.765-17.224,11.876-17.224,22.666v24.048c0,6.286,2.447,12.195,6.893,16.64c4.444,4.445,10.354,6.893,16.64,6.892h2.861
	c7.006,0,12.987,4.929,13.617,11.221c0.362,3.614-0.764,7.069-3.17,9.729c-2.375,2.625-5.766,4.131-9.303,4.131h-4.531
	c0.001-0.172,0.007-0.344,0.007-0.516c0-4.142-3.357-7.5-7.5-7.5s-7.5,3.358-7.5,7.5c0,53.326-43.384,96.709-96.71,96.709
	S159.289,237.181,159.289,183.855z M336.677,360.21c0,30.114-16.597,56.411-41.113,70.269v-14.156c0-4.142-3.357-7.5-7.5-7.5
	s-7.5,3.358-7.5,7.5v20.728c-5.46,1.75-11.171,2.93-17.064,3.476v-32.219c0-4.142-3.357-7.5-7.5-7.5c-4.143,0-7.5,3.358-7.5,7.5
	v32.219c-5.894-0.546-11.604-1.726-17.064-3.476v-20.728c0-4.142-3.357-7.5-7.5-7.5s-7.5,3.358-7.5,7.5v14.156
	c-24.516-13.859-41.113-40.155-41.113-70.269v-17.022l9.418-2.77c13.334-3.921,22.646-16.368,22.646-30.267V284.42
	c14.705,7.137,31.2,11.145,48.613,11.145s33.908-4.007,48.613-11.145v25.732c0,13.899,9.313,26.345,22.646,30.267l9.418,2.77V360.21
	z"/>
<path d="M384.257,400.808c-4.143,0-7.5,3.358-7.5,7.5V504.5c0,4.142,3.357,7.5,7.5,7.5s7.5-3.358,7.5-7.5v-96.192
	C391.757,404.166,388.399,400.808,384.257,400.808z"/>
<path d="M233.994,50.187c7.313-2.072,14.718-3.122,22.005-3.122c7.287,0,14.691,1.05,22.005,3.122
	c0.684,0.193,1.371,0.286,2.048,0.286c3.271,0,6.277-2.156,7.212-5.458c1.129-3.985-1.187-8.131-5.172-9.26
	c-8.644-2.448-17.423-3.689-26.093-3.689c-8.67,0-17.449,1.241-26.093,3.689c-3.985,1.129-6.301,5.275-5.172,9.26
	C225.862,49,230.008,51.315,233.994,50.187z"/>
<path d="M280.048,231.436h24.048c4.143,0,7.5-3.358,7.5-7.5c0-17.396-14.152-31.548-31.548-31.548H231.95
	c-17.396,0-31.548,14.152-31.548,31.548c0,4.142,3.357,7.5,7.5,7.5h24.048c9.628,0,18.257-4.34,24.049-11.161
	C261.791,227.095,270.419,231.436,280.048,231.436z M280.048,207.387c6.427,0,12.01,3.682,14.749,9.048h-14.749
	c-6.427,0-12.01-3.682-14.75-9.048H280.048z M231.95,216.436h-14.749c2.739-5.366,8.322-9.048,14.749-9.048h14.75
	C243.96,212.753,238.377,216.436,231.95,216.436z"/>
<g>
</g>
<g>
</g>
<g>
</g>
<g>
</g>
<g>
</g>
<g>
</g>
<g>
</g>
<g>
</g>
<g>
</g>
<g>
</g>
<g>
</g>
<g>
</g>
<g>
</g>
<g>
</g>
<g>
</g>
</svg>
