<?xml version="1.0" encoding="iso-8859-1"?>
<!-- Generator: Adobe Illustrator 19.0.0, SVG Export Plug-In . SVG Version: 6.00 Build 0)  -->
<svg version="1.1" id="Capa_1" xmlns="http://www.w3.org/2000/svg" xmlns:xlink="http://www.w3.org/1999/xlink" x="0px" y="0px"
	 viewBox="0 0 512 512" style="enable-background:new 0 0 512 512;" xml:space="preserve">
<path style="fill:#F0C382;" d="M413.863,382.119l-84.486-24.849c-10.235-3.01-17.263-12.403-17.263-23.071v-62.167H199.888v62.167
	c0,10.668-7.028,20.061-17.263,23.071l-84.486,24.849c-20.469,6.02-34.526,24.806-34.526,46.142V504.5h384.774v-76.238
	C448.388,406.926,434.332,388.14,413.863,382.119z"/>
<path style="fill:#B67F5F;" d="M413.863,382.119l-84.486-24.849c-0.802-0.236-1.547-0.577-2.308-0.889l-71.068,11.845
	l-71.067-11.845c-0.761,0.312-1.506,0.654-2.308,0.889L98.14,382.119c-20.469,6.02-34.526,24.806-34.526,46.142V504.5h384.774
	v-76.238C448.388,406.926,434.332,388.14,413.863,382.119z"/>
<path style="fill:#FFE1A0;" d="M372.235,159.806h-12.024V71.629H151.792v88.177h-12.024c-11.068,0-20.04,8.972-20.04,20.04
	c0,11.068,8.972,20.04,20.04,20.04h12.429c4.106,53.795,48.957,96.194,103.805,96.194s99.699-42.398,103.805-96.194h12.429
	c11.068,0,20.04-8.973,20.04-20.04C392.275,168.779,383.303,159.806,372.235,159.806z"/>
<path style="fill:#F7D291;" d="M151.792,71.629v88.177h-10.881c-10.483,0-20.035,7.542-21.08,17.973
	c-1.202,11.996,8.186,22.108,19.936,22.108h12.43c2.006,26.285,13.785,49.803,31.659,67.029V143.774
	c0-17.709,14.356-32.065,32.065-32.065h96.194c8.854,0,16.032-7.178,16.032-16.032V71.629H151.792z"/>
<g>
	<path style="fill:#FF8250;" d="M320.13,207.903H191.872c-13.282,0-24.048,10.767-24.048,24.048v8.016
		c0,48.699,39.478,88.177,88.177,88.177l0,0c48.699,0,88.177-39.478,88.177-88.177v-8.016
		C344.179,218.67,333.412,207.903,320.13,207.903z"/>
	<path style="fill:#FF8250;" d="M295.217,7.5h-78.431c-47.592,0-84.703,41.223-79.721,88.553l6.711,64.178l8.299-0.146
		c8.743-0.154,15.749-7.286,15.749-16.03v-40.361c0-8.854,7.178-16.032,16.032-16.032h104.21h32.065h8.015
		c8.854,0,16.032,7.178,16.032,16.032v40.361c0,8.744,7.007,15.875,15.749,16.03l8.299,0.146l6.711-64.178
		C379.92,48.722,342.809,7.5,295.217,7.5z"/>
</g>
<path style="fill:#DC7346;" d="M288.066,312.113c-48.699,0-88.177-39.478-88.177-88.177v-16.032h-8.016
	c-13.282,0-24.048,10.767-24.048,24.048v8.016c0,48.699,39.478,88.177,88.177,88.177c20.663,0,39.624-7.16,54.655-19.063
	C303.435,310.994,295.889,312.113,288.066,312.113z"/>
<path style="fill:#FF9664;" d="M295.217,7.5h-78.431c-5.81,0-11.457,0.634-16.897,1.799v14.234
	c0,26.563,21.534,48.097,48.097,48.097H373.73C366.351,35.399,334.357,7.5,295.217,7.5z"/>
<path style="fill:#A06E50;" d="M202.048,435.99c7.64,0,15.048-2.742,20.855-7.721l33.098-28.37l33.099,28.369
	c5.808,4.979,13.214,7.721,20.855,7.721c11.484,0,22.156-6.191,27.851-16.157l25.125-43.967c1.343-2.35,2.348-4.92,3.101-7.814
	l-36.655-10.781c-0.802-0.236-1.548-0.577-2.309-0.889l-71.067,11.845l-71.067-11.845c-0.761,0.312-1.507,0.654-2.309,0.889
	l-36.655,10.781c0.752,2.892,1.758,5.462,3.101,7.811l25.125,43.97C179.893,429.798,190.565,435.99,202.048,435.99z"/>
<g>
	<path style="fill:#B67F5F;" d="M207.253,410.01l48.748-41.784l-64.827-36.015c-3.99-2.216-9.022-0.66-11.063,3.422l-10.369,20.739
		c-1.199,2.397-1.12,5.235,0.21,7.562l25.124,43.966C197.573,412.271,203.432,413.285,207.253,410.01z"/>
	<path style="fill:#B67F5F;" d="M304.75,410.01l-48.749-41.784l64.827-36.015c3.99-2.216,9.022-0.66,11.063,3.422l10.369,20.739
		c1.199,2.397,1.12,5.235-0.21,7.562L316.926,407.9C314.43,412.271,308.571,413.285,304.75,410.01z"/>
</g>
<path d="M207.905,160.323c-4.142,0-7.5,3.358-7.5,7.5v8.016c0,4.142,3.358,7.5,7.5,7.5s7.5-3.358,7.5-7.5v-8.016
	C215.405,163.68,212.047,160.323,207.905,160.323z"/>
<path d="M304.098,160.323c-4.143,0-7.5,3.358-7.5,7.5v8.016c0,4.142,3.357,7.5,7.5,7.5s7.5-3.358,7.5-7.5v-8.016
	C311.598,163.68,308.241,160.323,304.098,160.323z"/>
<path d="M415.979,374.924l-65.723-19.33l-11.657-23.315c-1.883-3.766-5.27-6.64-9.292-7.884c-3.171-0.981-6.583-0.887-9.692,0.192
	v-13.219c17.195-15.336,28.833-36.772,31.483-60.877c8.136-13.176,13.406-27.838,15.535-43.104h4.46
	c14.617,0,27.154-10.861,28.542-24.727c0.778-7.771-1.764-15.53-6.974-21.288c-4.244-4.69-9.967-7.751-16.138-8.728l5.875-55.807
	c2.597-24.67-5.433-49.392-22.029-67.828C343.77,10.574,320.024,0,295.217,0h-78.432c-24.806,0-48.552,10.573-65.149,29.009
	s-24.627,43.158-22.03,67.829l5.892,55.972c-12.188,2.285-21.916,12.106-23.13,24.222c-0.778,7.771,1.764,15.531,6.974,21.289
	c5.214,5.762,12.659,9.066,20.425,9.066h5.598c2.128,15.271,7.398,29.927,15.541,43.109c2.651,24.103,14.289,45.537,31.482,60.872
	v13.219c-3.108-1.08-6.52-1.173-9.692-0.193c-4.022,1.244-7.41,4.118-9.292,7.884l-11.657,23.314l-65.724,19.331
	c-23.498,6.911-39.909,28.844-39.909,53.338V504.5c0,4.142,3.358,7.5,7.5,7.5s7.5-3.358,7.5-7.5v-76.238
	c0-7.386,2.048-14.451,5.657-20.559l42.911,36.781c5.452,4.673,8.578,11.47,8.578,18.651V504.5c0,4.142,3.358,7.5,7.5,7.5
	s7.5-3.358,7.5-7.5v-41.365c0-11.565-5.036-22.514-13.816-30.04l-42.815-36.699c3.98-3.154,8.577-5.596,13.628-7.082l64.69-19.026
	l23.619,41.334c2.304,4.031,6.249,6.798,10.824,7.59c0.889,0.154,1.78,0.23,2.666,0.23c3.672,0,7.24-1.303,10.08-3.738l43.865-37.6
	l43.867,37.601c2.841,2.435,6.408,3.738,10.08,3.737c0.886,0,1.778-0.076,2.667-0.23c4.575-0.793,8.52-3.56,10.822-7.59
	l23.62-41.333l64.689,19.026c5.051,1.485,9.648,3.927,13.628,7.082l-42.815,36.698c-8.78,7.526-13.816,18.475-13.816,30.04V504.5
	c0,4.142,3.357,7.5,7.5,7.5s7.5-3.358,7.5-7.5v-41.365c0-7.18,3.127-13.978,8.578-18.651l42.91-36.781
	c3.608,6.108,5.656,13.172,5.656,20.559V504.5c0,4.142,3.357,7.5,7.5,7.5s7.5-3.358,7.5-7.5v-76.238
	C455.888,403.769,439.477,381.835,415.979,374.924z M151.792,184.371c-4.142,0-7.5,3.358-7.5,7.5v0.516h-4.524
	c-3.537,0-6.927-1.506-9.303-4.131c-2.407-2.66-3.533-6.115-3.171-9.729c0.63-6.292,6.611-11.22,13.617-11.22
	c0.488,0,10.881,0,10.881,0c12.976,0,23.532-10.557,23.532-23.532v-40.081c0-4.705,3.828-8.532,8.532-8.532h104.209
	c4.143,0,7.5-3.358,7.5-7.5s-3.357-7.5-7.5-7.5H183.856c-12.976,0-23.532,10.556-23.532,23.532v40.081
	c0,4.705-3.828,8.532-8.532,8.532h-1.264l-6.004-57.039c-2.153-20.449,4.503-40.941,18.26-56.222S196.224,15,216.785,15h78.432
	c20.562,0,40.245,8.764,54.002,24.046c13.757,15.281,20.412,35.773,18.26,56.222l-6.004,57.039h-1.264
	c-4.705,0-8.532-3.828-8.532-8.532v-40.081c0-12.976-10.557-23.532-23.532-23.532h-8.016c-4.143,0-7.5,3.358-7.5,7.5
	s3.357,7.5,7.5,7.5h8.016c4.705,0,8.532,3.828,8.532,8.532v40.081c0,12.976,10.557,23.532,23.532,23.532c0,0,11.331,0,12.023,0
	c3.537,0,6.928,1.506,9.303,4.131c2.407,2.66,3.533,6.115,3.171,9.729c-0.63,6.292-6.61,11.221-13.616,11.221h-3.385v-0.439
	c0-4.141-3.356-7.499-7.497-7.5c-0.001,0-0.002,0-0.003,0c-4.14,0-7.497,3.354-7.5,7.494c-0.007,9.205-1.315,18.285-3.849,26.997
	c-4.966-10.92-15.971-18.536-28.729-18.536H191.872c-12.761,0-23.769,7.62-28.733,18.545c-2.541-8.734-3.848-17.84-3.848-27.078
	C159.292,187.729,155.934,184.371,151.792,184.371z M175.324,239.968v-8.016c0-9.125,7.423-16.548,16.548-16.548H320.13
	c9.125,0,16.549,7.424,16.549,16.548v8.016c0,44.486-36.192,80.677-80.678,80.677S175.324,284.454,175.324,239.968z
	 M202.372,404.316c-0.055,0.047-0.181,0.159-0.424,0.116c-0.24-0.042-0.328-0.195-0.36-0.252l-25.26-44.207l10.493-20.986
	c0.024-0.049,0.099-0.197,0.309-0.262c0.211-0.066,0.355,0.015,0.403,0.042l55.403,30.78L202.372,404.316z M310.413,404.181
	c-0.035,0.063-0.119,0.21-0.358,0.251c-0.241,0.041-0.374-0.073-0.425-0.116l-40.563-34.769l6.612-3.673
	c3.62-2.011,4.925-6.577,2.914-10.198c-2.013-3.621-6.578-4.925-10.199-2.914l-12.393,6.884l-48.613-27.007v-10.296
	c14.256,8.445,30.876,13.302,48.613,13.302s34.357-4.857,48.613-13.302v10.295l-8.926,4.959c-3.621,2.012-4.925,6.578-2.913,10.198
	c2.011,3.621,6.575,4.926,10.198,2.914l21.495-11.942c0.048-0.027,0.192-0.108,0.404-0.042c0.211,0.065,0.285,0.214,0.31,0.262
	l10.493,20.986L310.413,404.181z"/>
<path d="M256.081,432.871h-0.08c-4.142,0-7.46,3.358-7.46,7.5s3.398,7.5,7.54,7.5c4.143,0,7.5-3.358,7.5-7.5
	S260.224,432.871,256.081,432.871z"/>
<path d="M256.081,488.984h-0.08c-4.142,0-7.46,3.358-7.46,7.5s3.398,7.5,7.54,7.5c4.143,0,7.5-3.358,7.5-7.5
	S260.224,488.984,256.081,488.984z"/>
<path d="M256.001,255.484c11.897,0,22.856-3.804,29.316-10.177c2.948-2.909,2.98-7.657,0.071-10.606
	c-2.908-2.949-7.656-2.981-10.606-0.072c-2.737,2.701-9.299,5.855-18.781,5.855c-9.482,0-16.043-3.154-18.781-5.855
	c-2.949-2.91-7.698-2.877-10.606,0.071c-2.909,2.949-2.877,7.697,0.071,10.606C233.144,251.679,244.104,255.484,256.001,255.484z"/>
<path d="M199.888,151.274h16.032c4.142,0,7.5-3.358,7.5-7.5s-3.358-7.5-7.5-7.5h-16.032c-4.142,0-7.5,3.358-7.5,7.5
	S195.746,151.274,199.888,151.274z"/>
<path d="M296.082,151.274h16.032c4.143,0,7.5-3.358,7.5-7.5s-3.357-7.5-7.5-7.5h-16.032c-4.143,0-7.5,3.358-7.5,7.5
	S291.94,151.274,296.082,151.274z"/>
<g>
</g>
<g>
</g>
<g>
</g>
<g>
</g>
<g>
</g>
<g>
</g>
<g>
</g>
<g>
</g>
<g>
</g>
<g>
</g>
<g>
</g>
<g>
</g>
<g>
</g>
<g>
</g>
<g>
</g>
</svg>
