<?xml version="1.0" encoding="iso-8859-1"?>
<!-- Generator: Adobe Illustrator 19.0.0, SVG Export Plug-In . SVG Version: 6.00 Build 0)  -->
<svg version="1.1" id="Capa_1" xmlns="http://www.w3.org/2000/svg" xmlns:xlink="http://www.w3.org/1999/xlink" x="0px" y="0px"
	 viewBox="0 0 512 512" style="enable-background:new 0 0 512 512;" xml:space="preserve">
<path style="fill:#5A4650;" d="M258.604,7.524c-76.37-1.431-138.877,63.437-138.877,139.821v0.013c0,20.812,0,40.761,0,40.761
	l272.548-4.265v-40.081C392.275,69.382,332.665,8.912,258.604,7.524z"/>
<path style="fill:#F7D291;" d="M413.863,374.104l-84.486-24.849c-10.235-3.01-17.263-12.403-17.263-23.071v-38.119H199.888v38.119
	c0,10.668-7.028,20.061-17.263,23.071l-84.486,24.849c-20.469,6.02-34.525,24.806-34.525,46.142V504.5h384.774v-84.254
	C448.388,398.91,434.332,380.124,413.863,374.104z"/>
<path style="fill:#E6646E;" d="M413.863,374.104l-79.104-23.266c-6.903,37.253-39.506,65.485-78.758,65.485
	s-71.856-28.232-78.758-65.485l-79.104,23.266c-20.469,6.02-34.525,24.806-34.525,46.142V504.5h384.774v-84.254
	C448.388,398.91,434.332,380.124,413.863,374.104z"/>
<path style="fill:#F0C382;" d="M199.888,313.969c16.841,8.996,35.939,14.176,56.113,14.176s39.272-5.18,56.113-14.176v-25.904
	H199.888V313.969z"/>
<path style="fill:#FFE1A0;" d="M191.872,87.661c-6.883,6.652-24.048,26.638-24.048,56.113v8.016c0,8.854-7.179,16.032-16.032,16.032
	h-12.024c-11.068,0-20.04,8.972-20.04,20.04s8.972,20.04,20.04,20.04h12.429c4.106,53.795,48.958,96.194,103.805,96.194
	c57.553,0,104.21-46.656,104.21-104.21V87.661H191.872z"/>
<path style="fill:#F7D291;" d="M191.872,87.661c-2.018,1.95-24.048,22.671-24.048,56.113v8.016c0,8.854-7.178,16.032-16.032,16.032
	h-10.88c-10.483,0-20.035,7.542-21.08,17.973c-1.201,11.996,8.186,22.108,19.936,22.108h12.429
	c4.106,53.795,48.958,96.194,103.805,96.194c5.484,0,10.83-0.534,16.083-1.351c-49.946-7.708-88.228-50.754-88.228-102.859v-26.064
	c0-20.577,24.018-31.522,39.713-18.215c35.028,29.701,79.852,58.777,133.984,76.343c1.688-7.442,2.659-24.112,2.659-32.065V87.661
	H191.872z"/>
<path style="fill:#64505A;" d="M392.275,143.774c0-74.392-59.61-134.862-133.671-136.249
	c-39.885-0.748-75.882,16.688-101.276,44.304c30.048,41.755,109.791,135.92,234.413,164.028L392.275,143.774z"/>
<g>
	<path style="fill:#6E5A64;" d="M391.942,188.847l0.333-45.073c0-74.392-59.61-134.862-133.671-136.249
		c-26.132-0.49-50.523,6.936-71.428,19.806C220.544,72.084,294.854,158.124,391.942,188.847z"/>
	<path style="fill:#6E5A64;" d="M256.001,456.403c-26.563,0-48.097,21.534-48.097,48.097h96.194
		C304.098,477.937,282.564,456.403,256.001,456.403z"/>
</g>
<path style="fill:#DC4655;" d="M154.037,357.663c9.913,47.233,51.785,82.708,101.964,82.708s92.051-35.475,101.964-82.708
	l-23.206-6.825c-6.903,37.253-39.506,65.485-78.758,65.485s-71.856-28.232-78.758-65.485L154.037,357.663z"/>
<path d="M207.904,168.339c-4.142,0-7.5,3.358-7.5,7.5v8.016c0,4.142,3.358,7.5,7.5,7.5s7.5-3.358,7.5-7.5v-8.016
	C215.404,171.697,212.046,168.339,207.904,168.339z"/>
<path d="M285.317,237.291c2.949-2.909,2.98-7.658,0.071-10.606c-2.91-2.949-7.659-2.98-10.606-0.071
	c-2.737,2.701-9.298,5.855-18.781,5.855c-9.483,0-16.043-3.154-18.781-5.855c-2.95-2.91-7.698-2.877-10.606,0.071
	c-2.909,2.948-2.877,7.697,0.071,10.606c6.459,6.373,17.418,10.177,29.316,10.177C267.899,247.468,278.858,243.663,285.317,237.291z
	"/>
<path d="M415.979,366.908l-84.486-24.849c-6.994-2.057-11.879-8.585-11.879-15.876v-34.455c4.297-2.982,8.406-6.281,12.294-9.885
	c18.482-17.127,30.507-39.721,34.409-64.334c8.308,2.422,16.531,4.361,24.655,5.795c0.434,0.077,0.87,0.114,1.303,0.114
	c1.701,0,3.366-0.579,4.709-1.663c1.687-1.361,2.702-3.384,2.786-5.549l2.49-64.746c1.538-39.993-12.898-77.901-40.65-106.74
	C333.859,15.882,296.534,0,256.511,0c-40.22,0-77.671,16.015-105.456,45.094s-42.079,67.221-40.249,107.398l1.513,33.218
	c-0.573,7.548,1.96,15.032,7.022,20.626c5.213,5.762,12.658,9.067,20.425,9.067h5.598c4.399,31.522,22.003,58.87,47.023,76.264
	v34.517c0,7.291-4.885,13.819-11.879,15.876l-84.486,24.849c-23.498,6.912-39.909,28.845-39.909,53.338V504.5
	c0,4.142,3.358,7.5,7.5,7.5s7.5-3.358,7.5-7.5v-84.254c0-5.486,1.132-10.794,3.191-15.666l45.566,39.871
	c5.331,4.665,8.389,11.402,8.389,18.486V504.5c0,4.142,3.358,7.5,7.5,7.5s7.5-3.358,7.5-7.5v-41.563
	c0-11.41-4.925-22.262-13.511-29.775l-47.083-41.198c4.76-4.908,10.763-8.657,17.59-10.665l71.468-21.02
	c10.634,37.156,45.139,63.544,84.277,63.544c39.225,0,73.651-26.355,84.281-63.543l71.464,21.019
	c6.827,2.008,12.83,5.757,17.59,10.665l-47.082,41.198c-8.587,7.513-13.512,18.366-13.512,29.775V504.5c0,4.142,3.358,7.5,7.5,7.5
	s7.5-3.358,7.5-7.5v-41.563c0-7.084,3.058-13.822,8.389-18.487l45.566-39.87c2.059,4.872,3.191,10.18,3.191,15.666V504.5
	c0,4.142,3.358,7.5,7.5,7.5s7.5-3.358,7.5-7.5v-84.254C455.888,395.753,439.477,373.82,415.979,366.908z M161.9,55.457
	c6.348-6.644,13.262-12.524,20.633-17.604c51.26,60.142,102.353,104.723,151.932,132.544c1.161,0.651,2.42,0.961,3.663,0.961
	c2.625,0,5.172-1.38,6.547-3.832c2.027-3.612,0.742-8.184-2.871-10.21c-47.523-26.668-96.703-69.491-146.27-127.338
	C214.072,20.188,234.843,15,256.512,15c35.907,0,69.393,14.249,94.29,40.122c24.897,25.874,37.849,59.883,36.469,95.763
	l-1.026,26.677c-4.974-1.728-9.987-3.635-14.994-5.748c-3.816-1.611-8.216,0.178-9.826,3.993c-1.611,3.816,0.177,8.216,3.993,9.826
	c6.754,2.851,13.534,5.373,20.226,7.559l-0.525,13.664c-36.068-7.924-74.292-26.146-113.768-54.25
	c-30.474-21.695-62.187-49.837-91.71-81.384c-2.831-3.023-7.576-3.181-10.601-0.351c-3.024,2.831-3.181,7.577-0.351,10.601
	c3.005,3.211,6.022,6.363,9.045,9.482c-7.959,9.63-17.409,26.585-17.409,52.819v8.016c0,4.705-3.828,8.532-8.532,8.532h-10.88
	c-5.264,0-10.255,1.415-14.556,3.865l-0.564-12.378C124.149,115.764,136.973,81.545,161.9,55.457z M159.292,199.887
	c0-4.142-3.358-7.5-7.5-7.5s-7.5,3.358-7.5,7.5v0.516h-4.524c-3.537,0-6.927-1.505-9.303-4.131c-2.407-2.66-3.533-6.115-3.17-9.73
	c0.63-6.292,6.611-11.22,13.617-11.22h10.88c12.976,0,23.532-10.557,23.532-23.532v-8.016c0-20.765,6.889-34.221,13.023-42.089
	c24.416,24.174,49.326,45.357,74.304,63.14c30.437,21.669,60.295,37.728,89.187,48.003c-2.969,22.2-13.542,42.646-30.125,58.013
	c-17.923,16.608-41.26,25.755-65.712,25.755C202.675,296.597,159.292,253.213,159.292,199.887z M256.001,408.823
	c-32.504,0-61.151-21.95-69.906-52.833c12.6-4.346,21.293-16.388,21.293-29.806V300.45c14.705,7.137,31.199,11.146,48.613,11.146
	c17.037,0,33.602-3.85,48.613-11.112v25.698c0,13.42,8.694,25.462,21.295,29.807C317.157,386.899,288.577,408.823,256.001,408.823z"
	/>
<path d="M215.92,144.291h-16.032c-4.142,0-7.5,3.358-7.5,7.5s3.358,7.5,7.5,7.5h16.032c4.142,0,7.5-3.358,7.5-7.5
	S220.063,144.291,215.92,144.291z"/>
<path d="M256.001,448.903c-30.656,0-55.597,24.94-55.597,55.597c0,4.142,3.358,7.5,7.5,7.5s7.5-3.358,7.5-7.5
	c0-22.385,18.211-40.597,40.597-40.597c22.386,0,40.597,18.211,40.597,40.597c0,4.142,3.358,7.5,7.5,7.5s7.5-3.358,7.5-7.5
	C311.598,473.844,286.657,448.903,256.001,448.903z"/>
<g>
</g>
<g>
</g>
<g>
</g>
<g>
</g>
<g>
</g>
<g>
</g>
<g>
</g>
<g>
</g>
<g>
</g>
<g>
</g>
<g>
</g>
<g>
</g>
<g>
</g>
<g>
</g>
<g>
</g>
</svg>
