<?xml version="1.0" encoding="iso-8859-1"?>
<!-- Generator: Adobe Illustrator 19.0.0, SVG Export Plug-In . SVG Version: 6.00 Build 0)  -->
<svg version="1.1" id="Capa_1" xmlns="http://www.w3.org/2000/svg" xmlns:xlink="http://www.w3.org/1999/xlink" x="0px" y="0px"
	 viewBox="0 0 512 512" style="enable-background:new 0 0 512 512;" xml:space="preserve">
<path style="fill:#B4F09B;" d="M408.281,396.284l-82.792-29.221c-12.82-4.525-21.393-16.642-21.393-30.237v-49.459h-96.194v49.459
	c0,13.595-8.573,25.712-21.393,30.236l-82.793,29.221c-19.23,6.787-32.089,24.962-32.089,45.354v62.165h368.742v-62.165
	C440.37,421.247,427.51,403.071,408.281,396.284z"/>
<path style="fill:#739BD7;" d="M255.999,343.481c48.097,0,124.635-24.847,144.57-32.783c8.243-3.281,12.297-12.693,8.878-20.879
	c-7.107-17.016-17.174-48.44-17.174-89.931v-56.113C392.272,68.512,331.26,7.5,255.999,7.5l0,0l0,0l0,0l0,0l0,0l0,0l0,0l0,0
	c-75.262,0-136.274,61.012-136.274,136.274v56.113c0,41.491-10.067,72.916-17.174,89.931c-3.419,8.186,0.635,17.598,8.878,20.879
	C131.364,318.634,207.902,343.481,255.999,343.481z"/>
<path style="fill:#9C969E;" d="M344.176,295.384H167.822c-26.563,0-48.097,21.534-48.097,48.097
	c0,53.126,43.067,96.194,96.194,96.194h80.161c53.126,0,96.194-43.068,96.194-96.194
	C392.272,316.917,370.74,295.384,344.176,295.384z"/>
<path style="fill:#6F6571;" d="M342.043,319.432c17.449,0,24.301,22.63,9.782,32.309l-82.487,54.991
	c-8.078,5.385-18.601,5.385-26.679,0l-82.487-54.991c-14.518-9.679-7.666-32.309,9.782-32.309H342.043z"/>
<path style="fill:#8CB4EB;" d="M255.999,7.5c-23.193,0-45.011,5.83-64.129,16.049v7.303c0,53.126,43.067,96.194,96.194,96.194
	h103.079C382.88,59.692,325.586,7.5,255.999,7.5z"/>
<path style="fill:#E3AA75;" d="M242.659,406.732c8.078,5.385,18.601,5.385,26.68,0l58.343-38.895l-2.193-0.774
	c-12.82-4.525-21.393-16.642-21.393-30.237v-49.459h-96.194v49.459c0,13.595-8.573,25.712-21.393,30.237l-2.193,0.774
	L242.659,406.732z"/>
<path style="fill:#D29B6E;" d="M207.902,325.21c13.042,5.808,27.268,9.411,42.305,10.118c1.94,0.091,3.872,0.137,5.792,0.137
	c17.103,0,33.353-3.645,48.097-10.11v-37.987h-96.194L207.902,325.21L207.902,325.21z"/>
<path style="fill:#F5B97D;" d="M328.143,143.077h-12.712c-2.126,0-4.165-0.845-5.668-2.348l-29.522-29.522
	c-3.03-3.03-8.211-0.884-8.211,3.401v20.453c0,4.427-3.589,8.016-8.016,8.016h-80.161c-17.709,0-32.065,14.356-32.065,32.065v29.121
	c0,56.112,43.122,104.395,99.172,107.034c59.844,2.818,109.248-44.867,109.248-104.091v-32.065
	C360.208,157.433,345.853,143.077,328.143,143.077z"/>
<path style="fill:#E3AA75;" d="M328.143,151.094v-8.016h-16.032l-40.081-40.081v40.081h-88.177
	c-17.709,0-32.065,14.356-32.065,32.065v28.852c0,47.061,29.921,90.101,75.102,103.267c15.682,4.57,30.874,5.097,45.157,2.888
	c-50.6-7.969-88.195-53.501-88.195-105.886v-5.072c0-17.709,14.356-32.065,32.065-32.065h96.194
	C320.966,167.126,328.143,159.948,328.143,151.094z"/>
<path style="fill:#FFFFFF;" d="M224.404,235.931c-2.574,0-4.497,2.354-4.061,4.891c2.65,15.387,17.604,27.173,35.656,27.173
	s33.006-11.786,35.656-27.173c0.437-2.537-1.486-4.891-4.061-4.891L224.404,235.931L224.404,235.931z"/>
<path d="M215.402,199.887v-8.016c0-4.142-3.358-7.5-7.5-7.5s-7.5,3.358-7.5,7.5v8.016c0,4.142,3.358,7.5,7.5,7.5
	S215.402,204.029,215.402,199.887z"/>
<path d="M304.095,184.371c-4.142,0-7.5,3.358-7.5,7.5v8.016c0,4.142,3.358,7.5,7.5,7.5s7.5-3.358,7.5-7.5v-8.016
	C311.595,187.729,308.238,184.371,304.095,184.371z"/>
<path d="M410.777,389.909l-18.929-6.681c5.102-12.248,7.926-25.673,7.926-39.747c0-8.029-1.725-15.659-4.801-22.559
	c2.826-1.075,5.625-2.162,8.371-3.256c5.907-2.352,10.519-6.876,12.985-12.739c2.445-5.813,2.459-12.205,0.04-17.999
	c-6.198-14.838-16.595-45.875-16.595-87.041v-56.113C399.772,64.497,335.276,0,255.999,0S112.225,64.497,112.225,143.774v56.113
	c0,41.166-10.397,72.203-16.594,87.041c-2.42,5.793-2.406,12.185,0.039,17.998c2.466,5.864,7.078,10.389,12.985,12.74
	c2.748,1.094,5.546,2.182,8.371,3.257c-3.076,6.9-4.801,14.53-4.801,22.559c0,14.074,2.824,27.499,7.926,39.747l-18.929,6.681
	c-22.187,7.83-37.093,28.899-37.093,52.427V504.5c0,4.142,3.358,7.5,7.5,7.5s7.5-3.358,7.5-7.5v-62.165
	c0-4.992,0.925-9.83,2.626-14.326l37.925,32.507c5.452,4.673,8.578,11.471,8.578,18.651V504.5c0,4.142,3.358,7.5,7.5,7.5
	s7.5-3.358,7.5-7.5v-25.333c0-11.564-5.036-22.513-13.816-30.04l-39.755-34.075c4.423-4.876,10.048-8.712,16.528-10.999
	l20.759-7.327c16.932,28.179,46.868,47.691,81.446,50.175v56.902c0,4.142,3.358,7.5,7.5,7.5s7.5-3.358,7.5-7.5v-56.629h65.161
	v56.629c0,4.142,3.358,7.5,7.5,7.5s7.5-3.358,7.5-7.5v-56.902c34.578-2.484,64.514-21.996,81.446-50.175l20.759,7.327
	c6.479,2.287,12.105,6.123,16.528,10.999l-39.755,34.075c-8.781,7.526-13.816,18.475-13.816,30.04V504.5c0,4.142,3.358,7.5,7.5,7.5
	s7.5-3.358,7.5-7.5v-25.333c0-7.18,3.126-13.978,8.578-18.651l37.925-32.507c1.702,4.496,2.626,9.334,2.626,14.326V504.5
	c0,4.142,3.358,7.5,7.5,7.5s7.5-3.358,7.5-7.5v-62.165C447.87,418.808,432.962,397.739,410.777,389.909z M114.203,303.729
	c-2.141-0.852-3.812-2.493-4.707-4.619c-0.873-2.076-0.882-4.349-0.025-6.401c8.099-19.389,17.753-51.232,17.753-92.822v-56.113
	C127.225,72.768,184.993,15,255.999,15s128.774,57.768,128.774,128.774v56.113c0,41.588,9.655,73.432,17.753,92.821
	c0.857,2.052,0.849,4.326-0.025,6.402c-0.895,2.126-2.566,3.767-4.707,4.619c-3.562,1.418-7.215,2.828-10.904,4.21
	c-10.207-12.246-25.564-20.056-42.715-20.056H333.9c20.841-20.305,33.807-48.654,33.807-79.98v-32.064
	c0-21.816-17.749-39.564-39.564-39.564h-12.926L277.333,98.39c-2.145-2.145-5.371-2.786-8.173-1.626
	c-2.803,1.161-4.63,3.896-4.63,6.929v32.581h-40.596c-4.142,0-7.5,3.358-7.5,7.5s3.358,7.5,7.5,7.5h48.096
	c4.142,0,7.5-3.358,7.5-7.5V121.8l27.277,27.277c1.406,1.407,3.314,2.197,5.303,2.197h16.032c13.545,0,24.564,11.02,24.564,24.564
	v32.064c0,53.326-43.384,96.709-96.709,96.709s-96.709-43.384-96.709-96.709v-32.064c0-13.545,11.02-24.564,24.564-24.564h8.02
	c4.142,0,7.5-3.358,7.5-7.5s-3.358-7.5-7.5-7.5h-8.02c-21.816,0-39.564,17.749-39.564,39.564v32.064
	c0,31.326,12.966,59.676,33.807,79.98h-10.275c-17.15,0-32.507,7.809-42.714,20.055C121.42,306.556,117.767,305.148,114.203,303.729
	z M326.055,359.908c-8.726-3.941-14.46-12.688-14.46-22.384v-10.591h30.448c5.545,0,8.647,3.718,9.7,7.198
	c1.054,3.48,0.536,8.294-4.078,11.371L326.055,359.908z M185.943,359.908l-21.61-14.407c-4.614-3.076-5.132-7.891-4.078-11.371
	c1.053-3.48,4.155-7.198,9.7-7.198h30.448v10.591C200.402,347.22,194.669,355.967,185.943,359.908z M303.579,431.854v-8.212
	c0-4.142-3.358-7.5-7.5-7.5s-7.5,3.358-7.5,7.5v8.532h-65.161v-8.532c0-4.142-3.358-7.5-7.5-7.5s-7.5,3.358-7.5,7.5v8.212
	c-45.409-3.821-81.194-41.994-81.194-88.374c0-22.385,18.212-40.597,40.597-40.597h29.441c1.037,0.643,2.081,1.276,3.139,1.886
	v7.163h-30.448c-11.331,0-20.773,7.007-24.057,17.852c-3.284,10.844,0.687,21.913,10.114,28.198l82.487,54.992
	c5.315,3.544,11.408,5.315,17.5,5.315s12.185-1.772,17.5-5.315l18.725-12.483c3.447-2.297,4.378-6.954,2.08-10.4
	c-2.297-3.446-6.955-4.377-10.4-2.08l-18.725,12.483c-5.577,3.717-12.783,3.717-18.359,0l-47.124-31.416
	c9.7-7.349,15.707-18.955,15.707-31.553v-25.548c12.589,4.928,26.282,7.638,40.597,7.638c14.315,0,28.007-2.71,40.597-7.638v25.548
	c0,12.598,6.007,24.204,15.707,31.553l-0.341,0.227c-3.447,2.297-4.378,6.954-2.08,10.4c1.445,2.168,3.823,3.341,6.247,3.341
	c1.43,0,2.875-0.408,4.153-1.261l35.704-23.803c9.428-6.285,13.398-17.354,10.114-28.198c-3.283-10.844-12.726-17.852-24.057-17.852
	h-30.448v-7.163c1.059-0.61,2.103-1.243,3.139-1.886h29.441c22.385,0,40.597,18.212,40.597,40.597
	C384.772,389.86,348.988,428.033,303.579,431.854z"/>
<path d="M192.385,167.126c0,4.142,3.358,7.5,7.5,7.5h16.032c4.142,0,7.5-3.358,7.5-7.5s-3.358-7.5-7.5-7.5h-16.032
	C195.743,159.626,192.385,162.984,192.385,167.126z"/>
<path d="M296.079,174.626h16.032c4.142,0,7.5-3.358,7.5-7.5s-3.358-7.5-7.5-7.5h-16.032c-4.142,0-7.5,3.358-7.5,7.5
	S291.936,174.626,296.079,174.626z"/>
<path d="M212.426,235.931c0,21.816,19.547,39.564,43.573,39.564s43.573-17.749,43.573-39.564c0-4.142-3.358-7.5-7.5-7.5h-72.146
	C215.784,228.431,212.426,231.789,212.426,235.931z M283.21,243.431c-3.695,9.889-14.497,17.064-27.211,17.064
	s-23.516-7.176-27.211-17.064H283.21z"/>
<g>
</g>
<g>
</g>
<g>
</g>
<g>
</g>
<g>
</g>
<g>
</g>
<g>
</g>
<g>
</g>
<g>
</g>
<g>
</g>
<g>
</g>
<g>
</g>
<g>
</g>
<g>
</g>
<g>
</g>
</svg>
