<?xml version="1.0" encoding="iso-8859-1"?>
<!-- Generator: Adobe Illustrator 19.0.0, SVG Export Plug-In . SVG Version: 6.00 Build 0)  -->
<svg version="1.1" id="Capa_1" xmlns="http://www.w3.org/2000/svg" xmlns:xlink="http://www.w3.org/1999/xlink" x="0px" y="0px"
	 viewBox="0 0 512.002 512.002" style="enable-background:new 0 0 512.002 512.002;" xml:space="preserve">
<path style="fill:#5A4650;" d="M140.074,191.871h231.851l9.894-64.315C391.531,64.429,342.69,7.5,278.822,7.5h-45.645
	c-63.869,0-112.71,56.929-102.998,120.056L140.074,191.871z"/>
<path style="fill:#B67F5F;" d="M413.861,366.087l-84.486-24.849c-10.235-3.01-17.263-12.403-17.263-23.071v-38.119H199.886v38.119
	c0,10.668-7.028,20.061-17.263,23.071l-84.485,24.849c-20.469,6.02-34.526,24.806-34.526,46.142v92.27h384.774v-92.27
	C448.386,390.894,434.33,372.108,413.861,366.087z"/>
<path style="fill:#5A4650;" d="M413.861,366.087l-84.486-24.849c-1.429-0.42,8.079,3.594,6.786,2.939l-80.165,24.048l-80.157-24.048
	c-1.293,0.655,8.214-3.359,6.786-2.939l-84.486,24.849c-20.469,6.02-34.525,24.806-34.525,46.142V504.5h384.774v-92.271
	C448.386,390.893,434.33,372.108,413.861,366.087z"/>
<path style="fill:#A5CDFF;" d="M333.41,357.459l-9.558-9.558L256,360.21l-67.852-12.309l-9.558,9.558
	c-12.027,12.026-18.783,28.338-18.783,45.346V504.5h192.387V402.805C352.193,385.797,345.437,369.485,333.41,357.459z"/>
<path style="fill:#8CB4EB;" d="M333.41,357.459l-9.558-9.558L256,360.21l-67.852-12.309l-9.558,9.558
	c-6.013,6.012-10.708,13.096-13.9,20.802l27.49,31.417c6.087,6.958,14.883,10.95,24.133,10.95c8.564,0,16.616-3.336,22.673-9.392
	l17.016-17.016l17.019,17.017c6.053,6.056,14.105,9.391,22.67,9.391c9.248,0,18.045-3.991,24.134-10.95l27.489-31.417
	C344.118,370.555,339.423,363.472,333.41,357.459z"/>
<polygon style="fill:#5A4650;" points="244.42,400.29 231.951,504.5 280.048,504.5 267.578,400.29 "/>
<path style="fill:#64505A;" d="M266.254,408.306h-20.509c-3.45,0-6.514-2.208-7.605-5.481l-14.205-42.616h64.129l-14.205,42.616
	C272.767,406.099,269.704,408.306,266.254,408.306z"/>
<path style="fill:#A06E50;" d="M199.886,305.953c16.841,8.996,35.939,14.176,56.113,14.176s39.272-5.18,56.113-14.176v-25.905
	H199.886V305.953z"/>
<g>
	<path style="fill:#A5CDFF;" d="M194.531,326.061l-21.122,25.647l36.867,42.134c3.054,3.49,8.422,3.668,11.701,0.39l34.022-34.022
		L194.531,326.061z"/>
	<path style="fill:#A5CDFF;" d="M317.467,326.061l21.122,25.647l-36.867,42.134c-3.054,3.49-8.422,3.668-11.701,0.39l-34.022-34.022
		L317.467,326.061z"/>
</g>
<g>
	<path style="fill:#64505A;" d="M119.725,504.5l-14.123-55.538c-1.189-5.351,0.438-10.938,4.314-14.814l25.841-25.841
		l-11.889-17.833c-2.799-4.198-3.398-9.47-1.805-14.257c19.114-57.442,77.823-72.119,77.823-72.119v15.463
		c0,10.63-4.223,20.825-11.739,28.341l-9.558,9.558c-12.027,12.027-18.783,28.338-18.783,45.346V504.5"/>
	<path style="fill:#64505A;" d="M392.273,504.5l14.123-55.538c1.189-5.351-0.438-10.938-4.314-14.814l-25.841-25.841l11.889-17.833
		c2.799-4.198,3.398-9.47,1.805-14.257c-19.114-57.442-77.823-72.119-77.823-72.119v15.463c0,10.63,4.223,20.825,11.739,28.341
		l9.558,9.558c12.027,12.027,18.783,28.338,18.783,45.346V504.5"/>
</g>
<path style="fill:#CD916E;" d="M372.233,159.806h-8.719h-0.346c-9.746,0-16.985-9.025-14.872-18.54
	c6.114-27.51-14.82-53.605-43.001-53.605h-98.593c-28.181,0-49.114,26.095-43.001,53.605c2.114,9.514-5.126,18.54-14.872,18.54
	h-0.346h-8.719c-11.068,0-20.04,8.972-20.04,20.04c0,11.068,8.972,20.04,20.04,20.04h12.429
	c4.106,53.795,48.958,96.194,103.805,96.194s99.699-42.398,103.805-96.194h12.429c11.068,0,20.04-8.973,20.04-20.04
	C392.273,168.779,383.301,159.806,372.233,159.806z"/>
<path style="fill:#B67F5F;" d="M206.703,87.661c-28.204,0-49.147,26.137-42.987,53.671c2.123,9.488-5.163,18.474-14.886,18.474
	h-0.345h-7.577c-10.483,0-20.035,7.542-21.08,17.973c-1.201,11.996,8.187,22.108,19.937,22.108h12.429
	c4.106,53.795,48.958,96.194,103.805,96.194c5.484,0,10.83-0.534,16.083-1.351c-49.946-7.708-88.228-50.754-88.228-102.859V151.79
	c0-22.136,17.945-40.081,40.081-40.081h56.11c13.281,0,24.048-10.767,24.048-24.048l0,0
	C304.093,87.661,206.703,87.661,206.703,87.661z"/>
<path style="fill:#64505A;" d="M278.822,7.5h-45.645c-8.268,0-16.268,0.993-23.938,2.791c1.464,29.685,25.924,53.322,55.972,53.322
	h105.985C353.937,30.587,319.459,7.5,278.822,7.5z"/>
<path d="M159.806,432.869c-4.142,0-7.5,3.358-7.5,7.5V504.5c0,4.142,3.358,7.5,7.5,7.5s7.5-3.358,7.5-7.5v-64.131
	C167.306,436.227,163.948,432.869,159.806,432.869z"/>
<path d="M352.193,432.871c-4.143,0-7.5,3.358-7.5,7.5V504.5c0,4.142,3.357,7.5,7.5,7.5s7.5-3.358,7.5-7.5v-64.129
	C359.693,436.229,356.335,432.871,352.193,432.871z"/>
<path d="M415.977,357.5l-30.043-8.836c-20.488-33.077-53.168-47.028-66.321-51.506V283.64
	c25.013-17.396,42.617-44.741,47.019-76.253h4.458c14.617,0,27.154-10.861,28.544-24.728c0.777-7.771-1.765-15.53-6.975-21.287
	c-3.2-3.536-7.242-6.141-11.681-7.63l4.014-21.794c6.027-32.719-2.725-66.148-24.013-91.716S308.401,0,275.13,0h-41.466
	c-32.718,0-63.673,14.266-84.927,39.14s-30.518,57.675-25.416,89.993l4.172,26.423c-8.236,4.224-14.194,12.171-15.126,21.477
	c-0.778,7.771,1.764,15.53,6.974,21.288c5.213,5.762,12.658,9.066,20.425,9.066h5.598c4.399,31.522,22.003,58.869,47.022,76.263
	v13.508c-13.153,4.478-45.833,18.429-66.321,51.506L96.021,357.5c-23.498,6.912-39.909,28.845-39.909,53.338V504.5
	c0,4.142,3.358,7.5,7.5,7.5s7.5-3.358,7.5-7.5v-93.662c0-17.885,11.983-33.9,29.142-38.947l16.668-4.902
	c-0.694,1.783-1.354,3.606-1.976,5.473c-2.363,7.105-1.386,14.679,2.681,20.78l8.479,12.718l-21.336,21.335
	c-5.777,5.777-8.16,14.296-6.218,22.233l13.887,56.755c0.838,3.425,3.904,5.719,7.279,5.719c0.59,0,1.19-0.07,1.789-0.217
	c4.023-0.984,6.487-5.044,5.502-9.068l-13.887-56.755c-0.704-2.878,0.16-5.967,2.254-8.062l25.684-25.683
	c2.528-2.528,2.92-6.489,0.937-9.464l-11.89-17.833c-1.483-2.225-1.821-5.041-0.928-7.725
	c13.085-39.333,46.751-57.321,63.207-63.972v4.943c0,8.703-3.389,16.884-9.542,23.038l-9.559,9.558
	c-13.529,13.529-20.979,31.517-20.979,50.649v6.892c0,4.142,3.358,7.5,7.5,7.5s7.5-3.358,7.5-7.5v-6.892
	c0-12.461,4.006-24.302,11.394-34.069l20.218,24.262c4.222,5.066,10.423,8.144,17.012,8.442c0.354,0.016,0.707,0.024,1.059,0.024
	c3.991,0,7.898-1.026,11.352-2.926l0.857,2.57c1.348,4.045,3.724,7.522,6.768,10.206l-11.459,93.668
	c-0.503,4.111,2.422,7.852,6.534,8.355c0.31,0.038,0.616,0.057,0.92,0.057c3.735,0,6.97-2.788,7.435-6.59l10.967-89.65
	c0.386,0.019,0.77,0.046,1.16,0.046h8.954c0.387,0,0.768-0.027,1.151-0.046l10.977,89.651c0.466,3.802,3.699,6.589,7.435,6.589
	c0.305,0,0.612-0.019,0.921-0.057c4.112-0.503,7.037-4.245,6.533-8.356l-11.468-93.659c3.048-2.685,5.427-6.164,6.777-10.213
	l0.857-2.57c3.455,1.899,7.361,2.926,11.352,2.926c0.353,0,0.705-0.008,1.059-0.024c6.589-0.299,12.789-3.376,17.012-8.443
	l20.218-24.262c7.388,9.768,11.394,21.609,11.394,34.07v6.894c0,4.142,3.357,7.5,7.5,7.5s7.5-3.358,7.5-7.5v-6.894
	c0-19.133-7.451-37.121-20.979-50.649l-9.558-9.558c-6.154-6.154-9.543-14.335-9.543-23.038v-4.975
	c16.433,6.594,50.062,24.494,63.206,64.003c0.894,2.685,0.555,5.5-0.929,7.726l-11.889,17.833c-1.983,2.975-1.591,6.936,0.937,9.463
	l25.683,25.683c2.096,2.095,2.959,5.184,2.255,8.061l-13.887,56.755c-0.984,4.023,1.479,8.083,5.503,9.068
	c0.599,0.146,1.198,0.217,1.788,0.217c3.375,0,6.441-2.295,7.279-5.719l13.887-56.755c1.942-7.937-0.44-16.456-6.218-22.233
	l-21.336-21.335l8.478-12.717c4.068-6.1,5.047-13.674,2.683-20.781c-0.621-1.867-1.281-3.69-1.975-5.472l16.668,4.902
	c17.158,5.046,29.142,21.062,29.142,38.947V504.5c0,4.142,3.357,7.5,7.5,7.5s7.5-3.358,7.5-7.5v-93.662
	C455.886,386.345,439.475,364.411,415.977,357.5z M159.29,191.871c0-4.142-3.358-7.5-7.5-7.5s-7.5,3.358-7.5,7.5v0.516h-4.524
	c-3.537,0-6.927-1.505-9.303-4.13c-2.406-2.66-3.533-6.115-3.17-9.73c0.63-6.292,6.612-11.22,13.618-11.22h8.999
	c6.685,0,13.076-2.857,17.535-7.838c4.458-4.981,6.592-11.648,5.854-18.293l-1.093-9.835c-1.022-9.199,1.932-18.43,8.105-25.327
	c6.173-6.896,15.021-10.852,24.276-10.852h67.445c4.143,0,7.5-3.358,7.5-7.5s-3.357-7.5-7.5-7.5h-67.445
	c-13.516,0-26.438,5.776-35.453,15.848s-13.329,23.553-11.836,36.988l1.093,9.835c0.271,2.444-0.482,4.8-2.123,6.632
	c-1.641,1.833-3.898,2.842-6.358,2.842h-7.743l-4.029-25.514c-4.417-27.978,3.602-56.375,22.003-77.909
	C178.541,27.35,205.339,15,233.664,15h41.466c28.803,0,55.892,12.695,74.321,34.83c18.43,22.134,26.006,51.074,20.788,79.4
	l-4.251,23.077h-3.9c-2.459,0-4.717-1.009-6.357-2.842s-2.395-4.188-2.123-6.633l1.093-9.835
	c1.493-13.434-2.82-26.915-11.835-36.987c-9.015-10.072-21.938-15.849-35.454-15.849h-3.319c-4.143,0-7.5,3.358-7.5,7.5
	s3.357,7.5,7.5,7.5h3.319c9.256,0,18.104,3.956,24.277,10.852c6.172,6.896,9.126,16.127,8.104,25.327l-1.093,9.836
	c-0.738,6.644,1.396,13.312,5.854,18.292c4.458,4.981,10.85,7.838,17.534,7.838h10.121c0.011,0,0.021,0.001,0.032,0.001
	c0.003,0,0.007,0,0.01,0c3.53,0.005,6.913,1.509,9.284,4.129c2.406,2.659,3.532,6.114,3.171,9.728
	c-0.63,6.293-6.612,11.222-13.618,11.222h-3.384v-0.439c0-4.141-3.356-7.499-7.497-7.5c-0.001,0-0.002,0-0.003,0
	c-4.14,0-7.497,3.354-7.5,7.495c-0.039,53.286-43.421,96.638-96.706,96.638C202.674,288.581,159.29,245.197,159.29,191.871z
	 M256,303.581c17.412,0,33.906-4.012,48.613-11.153v25.74c0,1.833,0.115,3.648,0.318,5.443l-48.932,27.961l-48.931-27.961
	c0.203-1.795,0.318-3.61,0.318-5.443v-25.734C222.092,299.571,238.586,303.581,256,303.581z M216.609,385.063
	c-2.424-0.11-4.615-1.197-6.168-3.061l-21.446-25.735l4.455-4.455c3.937-3.937,7.098-8.442,9.409-13.33l40.894,23.368
	l-20.724,20.724C221.313,384.29,219.037,385.171,216.609,385.063z M251.522,400.807c-3.678,0-6.931-2.345-8.094-5.834l-2.896-8.689
	L256,370.817l15.467,15.468l-2.896,8.688c-1.163,3.49-4.416,5.834-8.095,5.834L251.522,400.807L251.522,400.807z M323.003,356.267
	l-21.446,25.736c-1.554,1.864-3.743,2.951-6.168,3.061c-2.413,0.104-4.704-0.774-6.419-2.49l-20.724-20.724l40.893-23.368
	c2.31,4.888,5.472,9.394,9.408,13.33L323.003,356.267z"/>
<path d="M207.903,160.323c-4.142,0-7.5,3.358-7.5,7.5v8.016c0,4.142,3.358,7.5,7.5,7.5s7.5-3.358,7.5-7.5v-8.016
	C215.403,163.681,212.045,160.323,207.903,160.323z"/>
<path d="M304.096,160.323c-4.143,0-7.5,3.358-7.5,7.5v8.016c0,4.142,3.357,7.5,7.5,7.5s7.5-3.358,7.5-7.5v-8.016
	C311.596,163.681,308.238,160.323,304.096,160.323z"/>
<path d="M285.316,229.274c2.948-2.909,2.98-7.658,0.071-10.606c-2.91-2.949-7.659-2.981-10.606-0.071
	c-2.737,2.701-9.299,5.855-18.781,5.855s-16.043-3.154-18.781-5.855c-2.95-2.91-7.699-2.878-10.606,0.071
	c-2.909,2.949-2.877,7.697,0.071,10.606c6.459,6.373,17.418,10.177,29.316,10.177C267.897,239.452,278.856,235.647,285.316,229.274z
	"/>
<path d="M215.919,136.274h-16.032c-4.142,0-7.5,3.358-7.5,7.5s3.358,7.5,7.5,7.5h16.032c4.142,0,7.5-3.358,7.5-7.5
	S220.061,136.274,215.919,136.274z"/>
<path d="M296.08,151.274h16.032c4.143,0,7.5-3.358,7.5-7.5s-3.357-7.5-7.5-7.5H296.08c-4.143,0-7.5,3.358-7.5,7.5
	S291.938,151.274,296.08,151.274z"/>
<g>
</g>
<g>
</g>
<g>
</g>
<g>
</g>
<g>
</g>
<g>
</g>
<g>
</g>
<g>
</g>
<g>
</g>
<g>
</g>
<g>
</g>
<g>
</g>
<g>
</g>
<g>
</g>
<g>
</g>
</svg>
