<?xml version="1.0" encoding="iso-8859-1"?>
<!-- Generator: Adobe Illustrator 19.0.0, SVG Export Plug-In . SVG Version: 6.00 Build 0)  -->
<svg version="1.1" id="Capa_1" xmlns="http://www.w3.org/2000/svg" xmlns:xlink="http://www.w3.org/1999/xlink" x="0px" y="0px"
	 viewBox="0 0 512.001 512.001" style="enable-background:new 0 0 512.001 512.001;" xml:space="preserve">
<path style="fill:#A06E50;" d="M256,296.081c72.145,0,125.704-26.969,141.309-38.809c6.043-4.585,8.088-12.643,4.902-19.527
	c-4.533-9.796-9.937-27.093-9.937-53.89v-40.081C392.274,68.512,331.262,7.5,256,7.5l0,0l0,0l0,0l0,0
	c-75.262,0-136.274,61.012-136.274,136.274v40.081c0,26.796-5.404,44.093-9.937,53.89c-3.186,6.884-1.141,14.942,4.902,19.527
	C130.296,269.112,183.855,296.081,256,296.081z"/>
<rect x="199.89" y="264.02" style="fill:#F7D291;" width="112.23" height="96.19"/>
<path style="fill:#F0C382;" d="M199.887,305.948c16.842,8.996,35.938,14.181,56.113,14.181c20.175,0,39.271-5.185,56.113-14.181
	v-41.932H199.887V305.948z"/>
<path style="fill:#FFE1A0;" d="M372.626,159.806h-8.51c-6.919,0-12.209-5.822-11.978-12.737
	c1.128-33.706-15.116-63.644-40.447-81.654c-7.18-5.105-17.369-3.208-22.206,4.155C282.328,80.465,270.011,87.661,256,87.661
	c-14.011,0-26.328-7.196-33.484-18.091c-4.837-7.363-15.027-9.26-22.206-4.155c-25.331,18.01-41.575,47.948-40.447,81.654
	c0.231,6.915-5.059,12.737-11.978,12.737h-8.219c-11.068,0-20.04,8.972-20.04,20.04c0,11.068,8.972,20.04,20.04,20.04h12.53
	c4.106,53.795,48.957,96.194,103.805,96.194s99.699-42.398,103.805-96.194h12.822c11.068,0,20.04-8.973,20.04-20.04
	C392.667,168.779,383.695,159.806,372.626,159.806z"/>
<path style="fill:#F7D291;" d="M183.855,191.871V80.303c-15.61,17.689-24.851,41.117-23.993,66.767
	c0.231,6.915-5.059,12.737-11.978,12.737h-8.218c-11.068,0-20.04,8.972-20.04,20.04c0,11.068,8.972,20.04,20.04,20.04h12.529
	c4.106,53.795,48.957,96.194,103.805,96.194c5.483,0,10.83-0.534,16.083-1.351C222.136,287.022,183.855,243.975,183.855,191.871z"/>
<path style="fill:#B67F5F;" d="M403.117,362.313l-58.945-18.136L256,352.194l-88.181-8.013l-58.936,18.133
	c-26.908,8.279-45.271,33.14-45.271,61.293V504.5h384.774v-80.893C448.387,395.453,430.025,370.592,403.117,362.313z"/>
<path style="fill:#A06E50;" d="M256,312.113L256,312.113c-4.841,0-9.195-2.948-10.993-7.443l-13.055-32.638h48.097l-13.055,32.638
	C265.195,309.165,260.841,312.113,256,312.113z"/>
<path style="fill:#F0C382;" d="M272.032,256h-32.065c-8.854,0-16.032-7.178-16.032-16.032v-16.032h64.129v16.032
	C288.065,248.822,280.887,256,272.032,256z"/>
<g>
	<path style="fill:#A06E50;" d="M202.047,419.957c7.64,0,15.047-2.742,20.854-7.72L256,383.867l33.099,28.37
		c5.807,4.978,13.214,7.72,20.855,7.72c11.484,0,22.156-6.191,27.85-16.156l27.253-47.692l1.783-3.121l0.892-1.562l-23.561-7.249
		L256,352.194l-88.181-8.014l-23.551,7.247l0.891,1.561l1.784,3.121l27.252,47.691C179.892,413.766,190.564,419.957,202.047,419.957
		z"/>
	<path style="fill:#A06E50;" d="M256,215.919h-24.048c-13.282,0-24.048,10.767-24.048,24.048l0,0h24.048
		C245.233,239.968,256,229.201,256,215.919L256,215.919"/>
	<path style="fill:#A06E50;" d="M256,215.919h24.048c13.282,0,24.048,10.767,24.048,24.048l0,0h-24.048
		C266.767,239.968,256,229.201,256,215.919L256,215.919"/>
</g>
<g>
	<path style="fill:#CD916E;" d="M191.173,316.179c-3.989-2.216-9.022-0.66-11.063,3.422l-12.288,24.576l27.252,47.691
		c2.497,4.37,8.356,5.384,12.177,2.109L256,352.194L191.173,316.179z"/>
	<path style="fill:#CD916E;" d="M320.827,316.179c3.989-2.216,9.022-0.66,11.063,3.422l12.288,24.576l-27.252,47.691
		c-2.497,4.37-8.356,5.384-12.177,2.109L256,352.194L320.827,316.179z"/>
</g>
<path d="M215.403,175.839v-8.016c0-4.142-3.357-7.5-7.5-7.5s-7.5,3.358-7.5,7.5v8.016c0,4.142,3.357,7.5,7.5,7.5
	S215.403,179.981,215.403,175.839z"/>
<path d="M304.097,160.323c-4.143,0-7.5,3.358-7.5,7.5v8.016c0,4.142,3.357,7.5,7.5,7.5s7.5-3.358,7.5-7.5v-8.016
	C311.597,163.681,308.239,160.323,304.097,160.323z"/>
<path d="M199.887,151.274h16.032c4.143,0,7.5-3.358,7.5-7.5s-3.357-7.5-7.5-7.5h-16.032c-4.143,0-7.5,3.358-7.5,7.5
	S195.744,151.274,199.887,151.274z"/>
<path d="M296.081,151.274h16.032c4.143,0,7.5-3.358,7.5-7.5s-3.357-7.5-7.5-7.5h-16.032c-4.143,0-7.5,3.358-7.5,7.5
	S291.938,151.274,296.081,151.274z"/>
<path d="M415.978,358.892l-65.722-19.33l-11.657-23.315c-1.883-3.766-5.27-6.639-9.291-7.884c-3.173-0.981-6.585-0.888-9.693,0.191
	v-13.216c37.497-2.244,67.302-20.767,82.229-32.092c8.904-6.756,11.855-18.539,7.176-28.652c-4.217-9.112-9.243-25.311-9.243-50.739
	v-40.081C399.774,64.497,335.277,0,256,0S112.226,64.497,112.226,143.774v40.081c0,25.428-5.026,41.627-9.243,50.74
	c-4.68,10.113-1.729,21.896,7.176,28.652c14.926,11.324,44.732,29.847,82.229,32.091v13.217c-3.109-1.079-6.521-1.173-9.693-0.192
	c-4.021,1.245-7.408,4.118-9.291,7.884l-11.657,23.315l-65.723,19.331c-23.498,6.911-39.909,28.845-39.909,53.338v92.27
	c0,4.142,3.357,7.5,7.5,7.5s7.5-3.358,7.5-7.5v-92.27c0-7.386,2.048-14.451,5.656-20.559l42.91,36.78
	c5.451,4.673,8.578,11.471,8.578,18.651V504.5c0,4.142,3.357,7.5,7.5,7.5s7.5-3.358,7.5-7.5v-57.397
	c0-11.565-5.036-22.514-13.816-30.04l-42.815-36.699c3.98-3.154,8.577-5.596,13.628-7.082l64.689-19.026l23.619,41.333
	c2.303,4.031,6.248,6.798,10.822,7.591c0.89,0.154,1.782,0.23,2.668,0.23c3.672,0,7.239-1.303,10.08-3.737l0,0L256,362.071
	l43.867,37.602c2.841,2.434,6.408,3.737,10.08,3.737c0.886,0,1.778-0.076,2.668-0.23c4.574-0.793,8.52-3.56,10.821-7.59
	l23.62-41.333l64.689,19.026c5.051,1.485,9.648,3.927,13.628,7.082l-42.815,36.699c-8.78,7.526-13.816,18.475-13.816,30.04V504.5
	c0,4.142,3.357,7.5,7.5,7.5s7.5-3.358,7.5-7.5v-57.397c0-7.18,3.127-13.978,8.578-18.651l42.91-36.78
	c3.608,6.108,5.656,13.172,5.656,20.559v92.27c0,4.142,3.357,7.5,7.5,7.5s7.5-3.358,7.5-7.5v-92.27
	C455.887,387.737,439.476,365.803,415.978,358.892z M392.775,251.297c-12.699,9.635-37.236,25.018-67.955,28.53
	c5.729-4.485,11.06-9.524,15.866-15.106c14.023-16.289,22.977-36.23,25.937-57.334h4.468c5.32,0,10.361-1.444,14.693-3.943
	c1.867,17.4,6.002,29.632,9.62,37.45C397.1,244.558,396.019,248.836,392.775,251.297z M256,15
	c71.007,0,128.774,57.768,128.774,128.774v11.562c-3.846-1.967-8.141-3.029-12.541-3.029h-4.008c-2.281,0-4.429-0.884-6.045-2.489
	c-1.605-1.594-2.489-3.71-2.487-5.958c0.027-33.492-16.294-65.103-43.658-84.558c-5.079-3.612-11.544-5.015-17.729-3.853
	c-6.177,1.161-11.677,4.806-15.09,10.002c-6.05,9.21-16.224,14.709-27.217,14.709c-10.993,0-21.167-5.499-27.217-14.71
	c-3.413-5.196-8.913-8.841-15.09-10.002c-6.185-1.162-12.648,0.241-17.729,3.853c-5.258,3.738-10.195,7.99-14.673,12.638
	c-2.874,2.983-2.786,7.731,0.196,10.605s7.731,2.786,10.604-0.197c3.835-3.979,8.062-7.62,12.563-10.821
	c1.803-1.281,4.029-1.757,6.267-1.335c2.228,0.418,4.117,1.66,5.323,3.495c8.831,13.447,23.692,21.475,39.754,21.475
	s30.923-8.028,39.754-21.475c1.206-1.835,3.096-3.077,5.323-3.495c2.232-0.422,4.462,0.053,6.267,1.336
	c23.41,16.644,37.373,43.679,37.35,72.321c-0.005,6.279,2.452,12.18,6.919,16.614c4.445,4.414,10.346,6.844,16.613,6.844h4.008
	c3.537,0,6.928,1.505,9.304,4.131c2.406,2.659,3.532,6.114,3.17,9.728c-0.63,6.292-6.61,11.222-13.616,11.222h-3.385v-0.439
	c0-4.141-3.356-7.499-7.497-7.5c-0.001,0-0.002,0-0.003,0c-4.14,0-7.497,3.354-7.5,7.495c-0.017,23.123-8.322,45.494-23.387,62.992
	c-12.289,14.274-28.422,24.592-46.271,29.794l3.965-9.911c0.924-2.311,0.642-4.93-0.753-6.99c-1.396-2.061-3.723-3.295-6.211-3.295
	h-48.098c-2.488,0-4.815,1.234-6.211,3.295c-1.395,2.061-1.677,4.68-0.753,6.99l3.969,9.921
	c-17.674-5.147-33.659-15.311-45.919-29.39c-15.313-17.585-23.747-40.129-23.747-63.479c0-4.142-3.357-7.5-7.5-7.5
	s-7.5,3.358-7.5,7.5v0.516h-4.523c-3.537,0-6.928-1.505-9.303-4.13c-2.407-2.66-3.533-6.116-3.171-9.73
	c0.63-6.292,6.612-11.22,13.618-11.22h2.863c6.269,0,12.168-2.431,16.613-6.844c4.468-4.435,6.925-10.336,6.919-16.615
	c-0.011-12.923,2.699-25.377,8.055-37.018c1.731-3.763,0.084-8.217-3.679-9.948c-3.766-1.731-8.218-0.084-9.948,3.679
	c-6.269,13.624-9.44,28.192-9.428,43.3c0.002,2.247-0.881,4.363-2.487,5.958c-1.616,1.605-3.763,2.489-6.045,2.489h-2.863
	c-4.912,0-9.587,1.231-13.686,3.386v-11.919C127.226,72.768,184.993,15,256,15z M243.029,279.532h25.941l-8.941,22.353
	c-0.662,1.657-2.244,2.728-4.029,2.728c-1.785,0-3.367-1.071-4.029-2.729L243.029,279.532z M116.596,240.894
	c3.594-7.766,7.697-19.888,9.581-37.102c4.106,2.328,8.786,3.595,13.59,3.595h5.604c2.987,21.318,12.085,41.428,26.354,57.813
	c4.697,5.394,9.88,10.272,15.439,14.626c-30.712-3.516-55.243-18.895-67.94-28.528C115.981,248.836,114.9,244.558,116.596,240.894z
	 M202.371,388.283c-0.051,0.044-0.182,0.16-0.425,0.117c-0.238-0.042-0.323-0.188-0.359-0.252l-25.262-44.207l10.493-20.986
	c0.024-0.049,0.099-0.197,0.31-0.262c0.213-0.064,0.356,0.016,0.403,0.042l55.403,30.78L202.371,388.283z M310.412,388.148
	c-0.035,0.063-0.12,0.21-0.358,0.251c-0.241,0.043-0.374-0.073-0.425-0.116l-40.563-34.769l6.612-3.673
	c3.62-2.012,4.925-6.578,2.914-10.198c-2.012-3.622-6.578-4.925-10.199-2.914L256,343.614l-48.613-27.007V292.45
	c8.953,4.334,18.489,7.468,28.366,9.28l2.291,5.726c2.954,7.385,10.002,12.158,17.957,12.158c7.955,0,15.003-4.772,17.957-12.157
	l2.294-5.736c9.875-1.812,19.408-4.951,28.362-9.287v24.174l-8.926,4.959c-3.621,2.012-4.925,6.578-2.913,10.199
	s6.579,4.926,10.198,2.914l21.495-11.942c0.049-0.027,0.195-0.107,0.404-0.042c0.211,0.065,0.285,0.213,0.31,0.262l10.493,20.986
	L310.412,388.148z"/>
<path d="M256.08,416.839H256c-4.143,0-7.46,3.358-7.46,7.5s3.397,7.5,7.54,7.5c4.143,0,7.5-3.358,7.5-7.5
	S260.223,416.839,256.08,416.839z"/>
<path d="M256.08,472.952H256c-4.143,0-7.46,3.358-7.46,7.5s3.397,7.5,7.54,7.5c4.143,0,7.5-3.358,7.5-7.5
	S260.223,472.952,256.08,472.952z"/>
<path d="M200.403,239.968v8.016c0,4.142,3.357,7.5,7.5,7.5s7.5-3.358,7.5-7.5v-0.516h16.548c9.628,0,18.257-4.34,24.049-11.161
	c5.792,6.821,14.42,11.161,24.049,11.161h16.548v0.516c0,4.142,3.357,7.5,7.5,7.5s7.5-3.358,7.5-7.5v-8.016
	c0-17.396-14.152-31.548-31.548-31.548h-48.098C214.556,208.419,200.403,222.572,200.403,239.968z M280.049,223.419
	c6.427,0,12.01,3.682,14.749,9.048h-14.749c-6.427,0-12.01-3.682-14.75-9.048H280.049z M231.951,223.419h14.75
	c-2.74,5.366-8.323,9.048-14.75,9.048h-14.749C219.941,227.102,225.524,223.419,231.951,223.419z"/>
<g>
</g>
<g>
</g>
<g>
</g>
<g>
</g>
<g>
</g>
<g>
</g>
<g>
</g>
<g>
</g>
<g>
</g>
<g>
</g>
<g>
</g>
<g>
</g>
<g>
</g>
<g>
</g>
<g>
</g>
</svg>
