<?xml version="1.0" encoding="iso-8859-1"?>
<!-- Generator: Adobe Illustrator 19.0.0, SVG Export Plug-In . SVG Version: 6.00 Build 0)  -->
<svg version="1.1" id="Capa_1" xmlns="http://www.w3.org/2000/svg" xmlns:xlink="http://www.w3.org/1999/xlink" x="0px" y="0px"
	 viewBox="0 0 512.003 512.003" style="enable-background:new 0 0 512.003 512.003;" xml:space="preserve">
<polygon style="fill:#8CB4EB;" points="376.242,39.565 256,7.501 135.759,39.565 87.662,119.727 135.759,167.824 376.242,167.824 
	424.339,119.727 "/>
<path style="fill:#5A4650;" d="M103.719,416.323c0,0,0-8.016,0-33.267c0-75.752,32.04-92.586,32.04-143.088h80.161v176.355H103.719z
	"/>
<path style="fill:#E3AA75;" d="M408.282,412.978l-82.792-29.221c-12.82-4.525-21.393-16.642-21.393-30.237v-25.375h-96.194v25.375
	c0,13.595-8.573,25.712-21.393,30.236l-82.793,29.221c-19.229,6.787-32.089,24.962-32.089,45.354V504.5H440.37v-46.167
	C440.371,437.941,427.512,419.766,408.282,412.978z"/>
<path style="fill:#8CB4EB;" d="M408.282,412.978l-82.792-29.221c-1.174-0.414-2.27-0.958-3.37-1.495L256,424.339l-66.12-42.076
	c-1.099,0.537-2.196,1.08-3.37,1.495l-82.793,29.221c-19.23,6.787-32.089,24.962-32.089,45.354V504.5H440.37v-46.167
	C440.371,437.941,427.512,419.766,408.282,412.978z"/>
<path style="fill:#D29B6E;" d="M256,368.227c17.034,0,33.296-3.712,48.097-10.257v-29.824h-96.194v29.824
	C222.704,364.514,238.967,368.227,256,368.227z"/>
<path style="fill:#F5B97D;" d="M372.234,207.904H360.21v-32.065c0-26.563-21.534-48.097-48.097-48.097H199.888
	c-26.563,0-48.097,21.534-48.097,48.097v32.065h-12.024c-11.068,0-20.04,8.972-20.04,20.04s8.972,20.04,20.04,20.04h12.429
	c4.106,53.795,48.958,96.194,103.805,96.194s99.699-42.398,103.805-96.194h12.429c11.068,0,20.04-8.973,20.04-20.04
	C392.275,216.876,383.303,207.904,372.234,207.904z"/>
<path style="fill:#E3AA75;" d="M256,218.23c37.973,0,77.535-5.922,104.21-18.343v-24.048c0-16.739-8.56-31.466-21.532-40.081
	H173.322c-12.972,8.614-21.532,23.342-21.532,40.081v32.065h-10.881c-10.483,0-20.035,7.542-21.08,17.973
	c-1.201,11.996,8.186,22.108,19.936,22.108h12.429c4.106,53.795,48.957,96.194,103.805,96.194c5.483,0,10.83-0.534,16.083-1.351
	c-49.946-7.708-88.228-50.754-88.228-102.859l0,0c0-15.012,13.227-26.377,28.118-24.477C226.32,217.322,241.268,218.23,256,218.23z"
	/>
<g>
	<path style="fill:#5A4650;" d="M358.303,209.596l17.939,2.149V151.79h-32.065v41.887
		C344.178,201.795,350.244,208.631,358.303,209.596z"/>
	<path style="fill:#5A4650;" d="M153.698,209.596l-17.939,2.149V151.79h32.065v41.887
		C167.823,201.795,161.757,208.631,153.698,209.596z"/>
</g>
<path style="fill:#6E5A64;" d="M256,191.872c-66.408,0-120.242-17.945-120.242-40.081h240.484
	C376.242,173.926,322.408,191.872,256,191.872z"/>
<polygon style="fill:#64505A;" points="268.034,456.404 243.84,457.036 236.417,504.5 275.584,504.5 "/>
<path style="fill:#739BD7;" d="M368.226,103.695H143.775c-4.427,0-8.016,3.589-8.016,8.016v40.081h240.484v-40.081
	C376.242,107.283,372.653,103.695,368.226,103.695z"/>
<path style="fill:#FFE17D;" d="M256.001,111.711L256.001,111.711c-13.282,0-24.048-10.767-24.048-24.048V55.597h48.097v32.065
	C280.049,100.944,269.282,111.711,256.001,111.711z"/>
<path style="fill:#739BD7;" d="M156.098,399.053l25.522,57.423c5.142,11.569,16.65,19.045,29.318,19.045
	c7.473,0,14.757-2.64,20.51-7.434L256,447.628l24.553,20.461c5.754,4.794,13.037,7.434,20.51,7.434
	c12.667,0,24.175-7.475,29.318-19.043l25.52-57.422c0.579-1.303,1.036-2.675,1.437-4.058l-31.849-11.241
	c-1.174-0.414-2.27-0.958-3.37-1.495L256,424.339l-66.119-42.076c-1.1,0.537-2.196,1.08-3.37,1.495l-31.848,11.24
	C155.064,396.379,155.52,397.75,156.098,399.053z"/>
<path style="fill:#5A4650;" d="M260.138,460.745h-8.276c-7.01,0-13.207-4.554-15.3-11.243l-10.385-33.179h59.646l-10.385,33.179
	C273.345,456.192,267.148,460.745,260.138,460.745z"/>
<g>
	<path style="fill:#8CB4EB;" d="M205.556,365.878L256,416.323l-39.948,33.29c-4.087,3.406-10.296,1.959-12.457-2.902l-25.52-57.421
		c-1.347-3.031-0.688-6.579,1.657-8.924l14.487-14.487C197.35,362.747,202.425,362.747,205.556,365.878z"/>
	<path style="fill:#8CB4EB;" d="M306.445,365.878L256,416.323l39.948,33.29c4.087,3.406,10.296,1.959,12.457-2.902l25.52-57.421
		c1.347-3.031,0.688-6.579-1.657-8.924l-14.487-14.487C314.651,362.747,309.576,362.747,306.445,365.878z"/>
</g>
<path style="fill:#FFD164;" d="M256,111.711L256,111.711c-13.282,0-24.048-10.767-24.048-24.048V55.597H256V111.711z"/>
<path d="M256,295.564c11.898,0,22.857-3.805,29.316-10.177c2.949-2.909,2.98-7.658,0.071-10.606
	c-2.91-2.949-7.659-2.98-10.606-0.071c-2.737,2.701-9.298,5.855-18.781,5.855s-16.043-3.154-18.781-5.855
	c-2.95-2.91-7.698-2.877-10.606,0.071c-2.909,2.948-2.877,7.697,0.071,10.606C233.144,291.76,244.103,295.564,256,295.564z"/>
<path d="M207.904,231.437c4.142,0,7.5-3.358,7.5-7.5v-8.016c0-4.142-3.358-7.5-7.5-7.5s-7.5,3.358-7.5,7.5v8.016
	C200.404,228.079,203.762,231.437,207.904,231.437z"/>
<path d="M304.097,231.437c4.142,0,7.5-3.358,7.5-7.5v-8.016c0-4.142-3.358-7.5-7.5-7.5s-7.5,3.358-7.5,7.5v8.016
	C296.597,228.079,299.955,231.437,304.097,231.437z"/>
<path d="M410.778,405.941l-67.441-23.803c-0.347-1.176-0.967-2.277-1.873-3.183l-18.38-18.38c-3.156-3.156-7.344-4.65-11.488-4.513
	v-19.228c29.243-16.849,50.174-46.561,55.03-81.35h5.607c15.186,0,27.541-12.354,27.541-27.541c0-11.079-6.579-20.644-16.033-25.011
	v-32.003l45.9-45.9c2.434-2.434,2.898-6.211,1.128-9.162l-48.097-80.161c-1.002-1.671-2.616-2.886-4.499-3.388L257.933,0.253
	c-1.267-0.338-2.599-0.338-3.865,0L133.826,32.319c-1.883,0.502-3.496,1.717-4.499,3.388L81.23,115.868
	c-1.771,2.951-1.306,6.729,1.128,9.162l45.9,45.9v32.003c-9.454,4.367-16.033,13.932-16.033,25.011
	c0,11.025,6.515,20.553,15.894,24.949c-0.891,17.535-6.469,30.627-12.859,45.573c-8.926,20.877-19.043,44.54-19.043,85.793v23.739
	c-19.392,9.054-32.089,28.661-32.089,50.37V504.5c0,4.142,3.358,7.5,7.5,7.5s7.5-3.358,7.5-7.5v-46.132
	c0-4.992,0.925-9.83,2.626-14.326l37.925,32.507c5.452,4.673,8.578,11.471,8.578,18.651v9.301c0,4.142,3.358,7.5,7.5,7.5
	s7.5-3.358,7.5-7.5V495.2c0-11.564-5.036-22.513-13.816-30.04l-39.755-34.075c4.423-4.876,10.048-8.712,16.528-10.999l66.854-23.596
	l23.674,53.266c1.993,4.485,5.878,7.696,10.658,8.81c1.188,0.277,2.384,0.413,3.568,0.413c3.58,0,7.053-1.244,9.886-3.604
	l7.284-6.07l1.061,3.184c1.32,3.96,3.626,7.372,6.578,10.032l-6.758,40.753c-0.678,4.086,2.085,7.948,6.172,8.626
	c0.416,0.069,0.828,0.102,1.236,0.102c3.602,0,6.781-2.603,7.39-6.274l6.171-37.209c0.51,0.033,1.021,0.061,1.537,0.061h8.954
	c0.508,0,1.011-0.028,1.513-0.06l6.195,37.212c0.61,3.669,3.788,6.27,7.389,6.27c0.409,0,0.824-0.033,1.24-0.103
	c4.086-0.68,6.847-4.544,6.167-8.63l-6.779-40.728c2.962-2.663,5.277-6.083,6.6-10.052l1.061-3.184l7.284,6.07
	c2.833,2.361,6.306,3.604,9.886,3.604c1.184,0,2.38-0.136,3.568-0.413c4.78-1.113,8.665-4.324,10.658-8.81l11.366-25.573
	c1.682-3.785-0.022-8.217-3.808-9.899c-3.782-1.682-8.217,0.022-9.899,3.808l-11.366,25.573c-0.031,0.07-0.104,0.234-0.354,0.293
	c-0.248,0.058-0.388-0.057-0.448-0.106l-33.638-28.032l44.637-44.638c0.201-0.201,0.528-0.202,0.73,0l14.738,14.738l-1.473,3.313
	c-1.682,3.785,0.022,8.217,3.808,9.899c3.382,1.505,7.279,0.296,9.27-2.682l66.965,23.635c6.479,2.287,12.105,6.123,16.528,10.999
	l-39.755,34.075c-8.781,7.526-13.816,18.475-13.816,30.04v9.301c0,4.142,3.358,7.5,7.5,7.5s7.5-3.358,7.5-7.5V495.2
	c0-7.18,3.126-13.978,8.578-18.651l37.925-32.507c1.702,4.496,2.626,9.334,2.626,14.326V504.5c0,4.142,3.358,7.5,7.5,7.5
	s7.5-3.358,7.5-7.5v-46.132C447.872,434.84,432.965,413.771,410.778,405.941z M160.323,184.208v7.664
	c0,4.705-3.829,8.533-8.535,8.533l-8.53-0.001v-25.112C147.652,178.342,153.242,181.352,160.323,184.208z M173.349,173.018
	c-9.632-3.21-20.385-8.207-26.066-13.726h217.436c-5.681,5.519-16.434,10.516-26.066,13.726
	c-21.966,7.322-51.319,11.354-82.652,11.354S195.314,180.34,173.349,173.018z M351.678,184.208
	c7.081-2.857,12.671-5.865,17.064-8.916v25.112l-8.529,0.001c-2.28,0-4.423-0.888-6.035-2.5s-2.5-3.754-2.5-6.033V184.208z
	 M140.627,46.028L256,15.262l115.374,30.766l43.521,72.535l-31.153,31.153V111.71c0-8.556-6.96-15.516-15.516-15.516h-8.012
	c-4.142,0-7.5,3.358-7.5,7.5s3.358,7.5,7.5,7.5h8.012c0.285,0,0.516,0.231,0.516,0.516v32.581H143.259V111.71
	c0-0.285,0.231-0.516,0.516-0.516h91.243c5.58,4.981,12.932,8.016,20.983,8.016s15.403-3.035,20.983-8.016h51.162
	c4.142,0,7.5-3.358,7.5-7.5s-3.358-7.5-7.5-7.5h-41.779c0.764-2.716,1.182-5.575,1.182-8.532V55.597c0-4.142-3.358-7.5-7.5-7.5
	h-48.097c-4.142,0-7.5,3.358-7.5,7.5v32.064c0,2.957,0.418,5.816,1.182,8.532h-81.859c-8.556,0-15.516,6.96-15.516,15.516v38.007
	l-31.153-31.153L140.627,46.028z M272.549,87.662c0,9.125-7.423,16.548-16.548,16.548s-16.548-7.423-16.548-16.548V63.097h33.097
	L272.549,87.662L272.549,87.662z M139.766,215.404l12.022,0.001c12.978,0,23.535-10.557,23.535-23.533v-2.557
	c22.514,6.5,50.818,10.056,80.677,10.056s58.163-3.557,80.677-10.056v2.557c0,6.286,2.449,12.196,6.895,16.641
	c4.446,4.444,10.355,6.892,16.642,6.892l12.021-0.001c6.915,0,12.541,5.625,12.541,12.54s-5.625,12.541-12.541,12.541h-4.531
	c0.001-0.172,0.007-0.344,0.007-0.516c0-4.142-3.358-7.5-7.5-7.5s-7.5,3.358-7.5,7.5c0,53.326-43.384,96.709-96.709,96.709
	s-96.709-43.384-96.709-96.709c0-4.142-3.358-7.5-7.5-7.5s-7.5,3.358-7.5,7.5c0,0.173,0.006,0.344,0.007,0.516h-4.531
	c-6.915,0-12.541-5.625-12.541-12.541C127.226,221.03,132.852,215.404,139.766,215.404z M129.054,304.362
	c6.488-15.175,12.645-29.616,13.943-48.878h2.377c4.856,34.789,25.787,64.501,55.03,81.35v19.228
	c-4.144-0.137-8.332,1.357-11.488,4.512l-18.38,18.38c-0.906,0.906-1.526,2.007-1.873,3.183l-57.445,20.275v-18.155
	C111.219,346.078,120.286,324.871,129.054,304.362z M211.251,443.852c-0.06,0.049-0.201,0.162-0.448,0.106
	c-0.25-0.059-0.323-0.223-0.354-0.293l-25.664-57.745l14.737-14.738c0.201-0.201,0.528-0.202,0.73,0l44.637,44.638L211.251,443.852z
	 M271.489,438.993l-2.917,8.753c-1.163,3.489-4.416,5.834-8.094,5.834h-8.954c-3.678,0-6.931-2.345-8.094-5.834l-2.917-8.753
	L256,426.086L271.489,438.993z M256,405.716l-40.597-40.597v-21.08c12.589,4.928,26.282,7.638,40.597,7.638
	s28.007-2.71,40.597-7.638v21.08L256,405.716z"/>
<g>
</g>
<g>
</g>
<g>
</g>
<g>
</g>
<g>
</g>
<g>
</g>
<g>
</g>
<g>
</g>
<g>
</g>
<g>
</g>
<g>
</g>
<g>
</g>
<g>
</g>
<g>
</g>
<g>
</g>
</svg>
