<?xml version="1.0" encoding="iso-8859-1"?>
<!-- Generator: Adobe Illustrator 19.0.0, SVG Export Plug-In . SVG Version: 6.00 Build 0)  -->
<svg version="1.1" id="Capa_1" xmlns="http://www.w3.org/2000/svg" xmlns:xlink="http://www.w3.org/1999/xlink" x="0px" y="0px"
	 viewBox="0 0 512.001 512.001" style="enable-background:new 0 0 512.001 512.001;" xml:space="preserve">
<path style="fill:#E3AA75;" d="M408.283,396.981L325.49,367.76c-12.82-4.525-21.393-16.642-21.393-30.237V296.08h-96.194v41.443
	c0,13.595-8.573,25.712-21.393,30.237l-82.792,29.221c-19.229,6.787-32.089,24.962-32.089,45.354V504.5h368.742v-62.165
	C440.371,421.943,427.512,403.768,408.283,396.981z"/>
<path style="fill:#9BDC9B;" d="M408.283,396.981l-80.16-28.292c-0.252,39.629-32.433,71.682-72.122,71.682
	s-71.87-32.053-72.122-71.682l-80.16,28.292c-19.23,6.787-32.089,24.962-32.089,45.354V504.5h368.742v-62.165
	C440.371,421.943,427.512,403.768,408.283,396.981z"/>
<path style="fill:#B4E6A0;" d="M160.251,377.028c4.451,48.995,45.595,87.391,95.749,87.391s91.298-38.397,95.749-87.391
	l-23.628-8.339c-0.252,39.629-32.433,71.682-72.122,71.682s-71.869-32.053-72.122-71.682L160.251,377.028z"/>
<path style="fill:#D29B6E;" d="M207.903,325.904c14.8,6.545,31.063,10.257,48.097,10.257s33.296-3.712,48.097-10.257V296.08h-96.194
	L207.903,325.904L207.903,325.904z"/>
<path style="fill:#64505A;" d="M368.227,207.903l-20.489,95.618c-2.366,11.041-3.559,22.301-3.559,33.592v5.971
	c0,6.068,0.319,12.133,0.954,18.168L360.21,504.5h-56.113V207.903H368.227z"/>
<path style="fill:#9BDC9B;" d="M344.178,337.113v5.971c0,3.039,0.08,6.076,0.24,9.11h-40.32v-32.065h40.988
	C344.484,325.767,344.178,331.436,344.178,337.113z"/>
<path style="fill:#64505A;" d="M143.774,207.903l20.489,95.618c2.366,11.041,3.559,22.301,3.559,33.592v5.971
	c0,6.068-0.319,12.133-0.954,18.168L151.791,504.5h56.113V207.903H143.774z"/>
<path style="fill:#5A4650;" d="M380.087,199.887c7.759-17.128,12.187-36.086,12.187-56.113C392.274,68.512,331.263,7.5,256,7.5
	S119.726,68.512,119.726,143.774c0,20.027,4.428,38.985,12.187,56.113H380.087z"/>
<path style="fill:#F5B97D;" d="M372.234,175.839H360.21v-8.016c0-57.554-46.656-104.21-104.21-104.21s-104.21,46.656-104.21,104.21
	v8.016h-12.024c-11.068,0-20.04,8.972-20.04,20.04s8.972,20.04,20.04,20.04h12.429c4.106,53.795,48.958,96.194,103.805,96.194
	s99.699-42.398,103.805-96.194h12.429c11.068,0,20.04-8.973,20.04-20.04C392.274,184.811,383.302,175.839,372.234,175.839z"/>
<path style="fill:#E3AA75;" d="M183.855,207.903v-40.081c0-10.301,2.06-19.184,4.869-26.509
	c5.346-13.939,22.292-18.757,35.069-11.036c40.325,24.368,87.162,36.07,136,37.545c-4.347-55.296-51.756-106.741-108.758-104.094
	c-56.123,2.605-99.245,46.634-99.245,105.931v6.179H140.91c-10.483,0-20.035,7.542-21.08,17.973
	c-1.201,11.996,8.186,22.108,19.936,22.108h12.429c4.106,53.795,48.958,96.194,103.805,96.194c5.484,0,10.83-0.534,16.083-1.351
	C222.137,303.054,183.855,260.008,183.855,207.903z"/>
<path style="fill:#FFFFFF;" d="M219.928,227.915c0,17.709,16.15,32.065,36.073,32.065s36.073-14.356,36.073-32.065L219.928,227.915
	L219.928,227.915z"/>
<path style="fill:#64505A;" d="M256,7.5c-35.284,0-67.329,13.524-91.531,35.525c46.879,61.229,120.686,100.75,203.757,100.75
	c8.094,0,16.088-0.421,23.99-1.154C391.589,67.895,330.873,7.5,256,7.5z"/>
<path style="fill:#9BDC9B;" d="M167.823,337.113v5.971c0,3.039-0.08,6.076-0.24,9.11h40.32v-32.065h-40.988
	C167.517,325.767,167.823,331.436,167.823,337.113z"/>
<path d="M215.404,191.871v-8.016c0-4.142-3.358-7.5-7.5-7.5s-7.5,3.358-7.5,7.5v8.016c0,4.142,3.358,7.5,7.5,7.5
	S215.404,196.013,215.404,191.871z"/>
<path d="M304.097,176.355c-4.143,0-7.5,3.358-7.5,7.5v8.016c0,4.142,3.357,7.5,7.5,7.5s7.5-3.358,7.5-7.5v-8.016
	C311.597,179.713,308.24,176.355,304.097,176.355z"/>
<path d="M216.76,165.255c4.116-0.464,7.076-4.177,6.612-8.293s-4.172-7.076-8.293-6.612l-16.032,1.809
	c-4.116,0.464-7.076,4.177-6.612,8.293c0.432,3.831,3.677,6.66,7.443,6.66c0.281,0,0.564-0.016,0.85-0.048L216.76,165.255z"/>
<path d="M312.954,152.158l-16.032-1.809c-4.115-0.467-7.829,2.495-8.294,6.612c-0.464,4.116,2.496,7.829,6.612,8.293l16.032,1.809
	c0.286,0.032,0.569,0.048,0.851,0.048c3.765,0,7.011-2.83,7.443-6.66C320.031,156.335,317.072,152.623,312.954,152.158z"/>
<path d="M410.779,389.909l-57.215-20.193l-0.974-9.248c-0.605-5.753-0.912-11.603-0.912-17.384c0-14.574,1.921-29.098,5.709-43.169
	l20.77-77.143c12.348-2.718,21.618-13.74,21.618-26.892c0-5.715-1.751-11.028-4.743-15.433c3.135-11.917,4.743-24.235,4.743-36.671
	C399.775,64.497,335.279,0,256,0S112.226,64.497,112.226,143.774c0,12.433,1.608,24.753,4.743,36.671
	c-2.992,4.405-4.743,9.719-4.743,15.434c0,13.153,9.27,24.175,21.618,26.892l20.769,77.143c3.789,14.071,5.71,28.595,5.71,43.169
	c0,5.783-0.307,11.631-0.913,17.383l-0.974,9.248l-57.214,20.194c-22.187,7.83-37.093,28.899-37.093,52.427V504.5
	c0,4.142,3.358,7.5,7.5,7.5s7.5-3.358,7.5-7.5v-62.165c0-17.18,10.885-32.564,27.085-38.282l50.483-17.818l-12.366,117.48
	c-0.434,4.12,2.555,7.811,6.674,8.244c0.267,0.028,0.532,0.042,0.794,0.042c3.789,0,7.044-2.863,7.45-6.715l15.079-143.248
	c0.082-0.778,0.144-1.562,0.215-2.344h25.86V504.5c0,4.142,3.358,7.5,7.5,7.5s7.5-3.358,7.5-7.5v-67.838
	c12.228,7.287,26.214,11.209,40.597,11.209c14.383,0,28.369-3.922,40.597-11.209V504.5c0,4.142,3.357,7.5,7.5,7.5s7.5-3.358,7.5-7.5
	V400.291c0-4.142-3.357-7.5-7.5-7.5s-7.5,3.358-7.5,7.5v18.136c-11.514,9.334-25.804,14.444-40.597,14.444
	c-14.793,0-29.083-5.11-40.597-14.444V311.975c12.589,4.928,26.282,7.638,40.597,7.638c14.315,0,28.007-2.71,40.597-7.638v56.254
	c0,4.142,3.357,7.5,7.5,7.5s7.5-3.358,7.5-7.5v-8.535h25.86c0.072,0.781,0.133,1.565,0.215,2.343l15.079,143.248
	c0.405,3.853,3.66,6.715,7.45,6.715c0.262,0,0.527-0.014,0.794-0.042c4.119-0.434,7.107-4.125,6.674-8.244l-12.367-117.479
	l50.484,17.818c16.2,5.718,27.085,21.102,27.085,38.282V504.5c0,4.142,3.357,7.5,7.5,7.5s7.5-3.358,7.5-7.5v-62.165
	C447.871,418.808,432.965,397.739,410.779,389.909z M175.302,344.693c0.005-0.536,0.021-1.075,0.021-1.61
	c0-5.163-0.245-10.318-0.685-15.454h25.765v17.064H175.302z M200.404,312.629h-27.673c-0.953-5.587-2.158-11.133-3.633-16.614
	l-7.781-28.901c9.74,15.52,23.183,28.492,39.087,37.656V312.629z M159.291,207.903c0-4.142-3.358-7.5-7.5-7.5s-7.5,3.358-7.5,7.5
	c0,0.173,0.006,0.344,0.007,0.516h-4.531c-6.915,0-12.541-5.625-12.541-12.541c0-6.915,5.625-12.54,12.539-12.54l6.011,0.001
	c7.902,0,7.924,0.001,9.606-0.917c2.508-1.368,3.923-3.96,3.909-6.63v-7.97c0-23.88,7.482-44.707,22.239-61.899
	c2.698-3.143,2.336-7.878-0.807-10.576c-3.144-2.697-7.878-2.337-10.576,0.807c-17.157,19.99-25.856,44.103-25.856,71.669v0.517
	c-2.434,0-4.523,0-4.524,0c-3.464,0-6.778,0.649-9.835,1.822c-1.797-8.639-2.706-17.48-2.706-26.386
	C127.226,72.768,184.994,15,256,15c71.007,0,128.774,57.768,128.774,128.774c0,8.908-0.913,17.747-2.71,26.385
	c-3.056-1.172-6.369-1.82-9.832-1.82c0,0-2.089,0-4.522,0V150.6c0.173,0,0.342,0.005,0.516,0.005c4.143,0,7.5-3.358,7.5-7.5
	s-3.357-7.5-7.5-7.5c-62.787,0-108.183-20.323-135.208-37.372c-29.375-18.531-44.076-37.338-44.221-37.526
	c-2.523-3.278-7.225-3.895-10.508-1.376c-3.287,2.521-3.907,7.229-1.386,10.516c0.642,0.837,16.093,20.739,47.487,40.678
	c26.506,16.834,69.584,36.631,128.32,39.667v25.646h0.007c0.003,2.545,1.293,5.026,3.634,6.431c1.784,1.071,1.795,1.064,9.873,1.07
	l6.01-0.001c6.915,0,12.54,5.625,12.54,12.54s-5.625,12.541-12.54,12.541h-4.531c0.001-0.172,0.007-0.344,0.007-0.516
	c0-4.142-3.357-7.5-7.5-7.5s-7.5,3.358-7.5,7.5c0,53.326-43.384,96.709-96.71,96.709
	C202.675,304.613,159.291,261.229,159.291,207.903z M350.684,267.115l-7.781,28.9c-1.475,5.481-2.679,11.027-3.633,16.614h-27.673
	v-7.859C327.501,295.606,340.943,282.634,350.684,267.115z M311.597,344.694v-17.065h25.766c-0.44,5.137-0.685,10.292-0.685,15.455
	c0,0.535,0.016,1.074,0.021,1.61L311.597,344.694L311.597,344.694z"/>
<path d="M292.073,220.415h-72.145c-4.142,0-7.5,3.358-7.5,7.5c0,21.816,19.547,39.564,43.573,39.564
	c24.025,0,43.572-17.749,43.572-39.564C299.573,223.773,296.215,220.415,292.073,220.415z M256,252.479
	c-12.714,0-23.516-7.176-27.211-17.064h54.422C279.516,245.304,268.714,252.479,256,252.479z"/>
<g>
</g>
<g>
</g>
<g>
</g>
<g>
</g>
<g>
</g>
<g>
</g>
<g>
</g>
<g>
</g>
<g>
</g>
<g>
</g>
<g>
</g>
<g>
</g>
<g>
</g>
<g>
</g>
<g>
</g>
</svg>
