<?xml version="1.0" encoding="iso-8859-1"?>
<!-- Generator: Adobe Illustrator 19.0.0, SVG Export Plug-In . SVG Version: 6.00 Build 0)  -->
<svg version="1.1" id="Capa_1" xmlns="http://www.w3.org/2000/svg" xmlns:xlink="http://www.w3.org/1999/xlink" x="0px" y="0px"
	 viewBox="0 0 512 512" style="enable-background:new 0 0 512 512;" xml:space="preserve">
<path style="fill:#FF8087;" d="M413.861,358.071l-84.486-24.849c-10.235-3.01-17.263-12.403-17.263-23.071v-38.119H199.886v38.119
	c0,10.668-7.028,20.061-17.263,23.071l-84.486,24.849c-20.469,6.02-34.525,24.806-34.525,46.142V504.5h384.774V404.213
	C448.386,382.877,434.33,364.091,413.861,358.071z"/>
<path style="fill:#FFE17D;" d="M413.861,358.071l-20.994-6.175l-136.868,68.435l-136.868-68.434l-20.994,6.175
	c-20.469,6.02-34.525,24.806-34.525,46.141V504.5h384.774V404.213C448.386,382.877,434.33,364.091,413.861,358.071z"/>
<path style="fill:#E6646E;" d="M199.886,297.937c16.841,8.996,35.939,14.176,56.113,14.176s39.272-5.18,56.113-14.176v-25.905
	H199.886V297.937z"/>
<path style="fill:#FFE1A0;" d="M372.233,151.79h-12.024V71.629h-208.42v80.161h-12.024c-11.068,0-20.04,8.972-20.04,20.04
	c0,11.068,8.972,20.04,20.04,20.04h12.429c4.106,53.795,48.958,96.194,103.805,96.194s99.699-42.398,103.805-96.194h12.429
	c11.068,0,20.04-8.973,20.04-20.04C392.273,160.762,383.301,151.79,372.233,151.79z"/>
<path style="fill:#F7D291;" d="M183.854,183.855V71.629h-32.065v80.161h-12.024c-11.022,0-20.04,9.018-20.04,20.04
	s9.018,20.04,20.04,20.04h12.429c4.106,53.795,48.957,96.194,103.805,96.194c5.483,0,10.83-0.534,16.083-1.351
	C222.135,279.006,183.854,235.959,183.854,183.855z"/>
<path style="fill:#FF8087;" d="M255.999,7.5c-66.408,0-120.242,53.834-120.242,120.242v8.016h240.484v-8.016
	C376.241,61.334,322.407,7.5,255.999,7.5z"/>
<path style="fill:#FFE17D;" d="M255.999,7.5c-23.606,0-45.554,6.901-64.129,18.652v109.606h128.258V26.152
	C301.553,14.402,279.604,7.5,255.999,7.5z"/>
<rect x="231.949" y="127.74" style="fill:#6E5A64;" width="48.1" height="48.1"/>
<g>
	<path style="fill:#64505A;" d="M135.757,127.742h104.21v40.069c0,23.721-26.642,37.681-46.146,24.178l-51.157-35.417
		c-4.325-2.995-6.907-7.921-6.907-13.182V127.742z"/>
	<path style="fill:#64505A;" d="M376.241,127.742h-104.21v40.069c0,23.721,26.642,37.681,46.146,24.178l51.157-35.417
		c4.325-2.995,6.907-7.921,6.907-13.182L376.241,127.742L376.241,127.742z"/>
</g>
<circle style="fill:#FF8087;" cx="255.999" cy="424.34" r="32.06"/>
<path style="fill:#E6646E;" d="M272.031,440.371c-17.709,0-32.065-14.356-32.065-32.065c0-4.699,1.067-9.128,2.883-13.15
	c-11.134,5.028-18.915,16.172-18.915,29.182c0,17.709,14.356,32.065,32.065,32.065c13.01,0,24.154-7.781,29.182-18.915
	C281.16,439.304,276.73,440.371,272.031,440.371z"/>
<path d="M211.91,175.323c4.143,0,7.5-3.358,7.5-7.5v-8.016c0-4.142-3.357-7.5-7.5-7.5s-7.5,3.358-7.5,7.5v8.016
	C204.41,171.965,207.768,175.323,211.91,175.323z"/>
<path d="M300.088,152.307c-4.143,0-7.5,3.358-7.5,7.5v8.016c0,4.142,3.357,7.5,7.5,7.5s7.5-3.358,7.5-7.5v-8.016
	C307.588,155.665,304.23,152.307,300.088,152.307z"/>
<path d="M415.977,350.876l-84.485-24.849c-6.994-2.057-11.879-8.585-11.879-15.876v-34.523
	c25.017-17.394,42.615-44.739,47.014-76.258h5.607c7.768,0,15.212-3.305,20.426-9.067c5.21-5.758,7.751-13.518,6.973-21.289
	c-0.952-9.5-7.1-17.715-15.891-21.867V127.74C383.741,57.305,326.437,0,255.999,0S128.257,57.305,128.257,127.742v19.408
	c-8.79,4.152-14.936,12.366-15.888,21.865c-0.778,7.771,1.763,15.531,6.973,21.289c5.214,5.762,12.658,9.067,20.426,9.067h5.604
	c4.399,31.519,21.997,58.864,47.014,76.258v34.523c0,7.291-4.885,13.819-11.879,15.876l-84.485,24.849
	c-23.498,6.911-39.909,28.845-39.909,53.338V504.5c0,4.142,3.357,7.5,7.5,7.5c4.143,0,7.5-3.358,7.5-7.5V404.214
	c0-7.386,2.048-14.451,5.657-20.559l42.91,36.781c5.451,4.673,8.578,11.471,8.578,18.651V504.5c0,4.142,3.357,7.5,7.5,7.5
	s7.5-3.358,7.5-7.5v-65.414c0-11.565-5.036-22.514-13.816-30.04l-42.814-36.699c3.98-3.154,8.577-5.596,13.628-7.081l18.163-5.342
	l66.501,33.251c1.077,0.539,2.222,0.793,3.349,0.793c2.751,0,5.4-1.52,6.714-4.147c1.853-3.705,0.351-8.21-3.354-10.062
	l-52.092-26.046l45.204-13.295c13.334-3.921,22.646-16.368,22.646-30.267V284.42c14.705,7.137,31.2,11.145,48.613,11.145
	s33.908-4.007,48.613-11.145v25.732c0,13.899,9.313,26.345,22.646,30.267l45.204,13.295l-87.475,43.738
	c-7.23-7.79-17.547-12.677-28.989-12.677c-11.442,0-21.758,4.887-28.989,12.677l-7.726-3.863c-3.707-1.854-8.211-0.351-10.063,3.354
	c-1.853,3.705-0.351,8.21,3.354,10.062l6.466,3.233c-1.678,4.384-2.607,9.135-2.607,14.102c0,19.251,13.823,35.327,32.064,38.842
	V504.5c0,4.142,3.357,7.5,7.5,7.5s7.5-3.358,7.5-7.5v-41.319c18.241-3.516,32.064-19.591,32.064-38.842
	c0-4.967-0.929-9.718-2.607-14.102l100.625-50.312l18.163,5.342c5.051,1.485,9.648,3.927,13.628,7.081l-42.814,36.699
	c-8.78,7.526-13.816,18.475-13.816,30.04V504.5c0,4.142,3.357,7.5,7.5,7.5s7.5-3.358,7.5-7.5v-65.414
	c0-7.18,3.127-13.978,8.578-18.651l42.91-36.781c3.608,6.108,5.657,13.172,5.657,20.559V504.5c0,4.142,3.357,7.5,7.5,7.5
	s7.5-3.358,7.5-7.5V404.214C455.886,379.721,439.475,357.787,415.977,350.876z M313.907,185.822
	c-6.823,4.723-15.284,5.245-22.636,1.394s-11.74-11.106-11.74-19.405v-32.569h89.21v12.619L313.907,185.822z M312.628,30.287v49.358
	c0,4.142,3.357,7.5,7.5,7.5s7.5-3.358,7.5-7.5V40.741c23.284,19.204,38.749,47.557,40.858,79.5h-40.858v-8.532
	c0-4.142-3.357-7.5-7.5-7.5s-7.5,3.358-7.5,7.5v8.532H199.37V30.287C216.022,20.574,235.371,15,255.999,15
	C276.627,15,295.976,20.574,312.628,30.287z M264.549,168.339h-17.1c0.002-0.177,0.018-0.351,0.018-0.528v-32.569h17.064v32.569
	C264.531,167.988,264.547,168.162,264.549,168.339z M143.257,135.242h89.21v32.569c0,8.299-4.389,15.553-11.74,19.405
	c-7.351,3.851-15.813,3.331-22.637-1.394l-54.833-37.961V135.242z M184.37,40.741v79.5h-40.858
	C145.621,88.298,161.087,59.945,184.37,40.741z M255.999,280.564c-53.326,0-96.71-43.384-96.71-96.709c0-4.142-3.357-7.5-7.5-7.5
	s-7.5,3.358-7.5,7.5c0,0.173,0.006,0.344,0.007,0.516h-4.528c-3.537,0-6.928-1.506-9.303-4.131c-2.406-2.66-3.532-6.115-3.17-9.73
	c0.437-4.366,3.49-8.161,7.849-10.023l54.408,37.667c6.308,4.367,13.633,6.58,20.996,6.58c5.855,0,11.735-1.401,17.141-4.232
	c7.346-3.849,13-9.932,16.349-17.163h23.923c3.349,7.231,9.003,13.314,16.349,17.163c5.405,2.832,11.284,4.232,17.141,4.232
	c7.362,0,14.689-2.213,20.995-6.58l54.41-37.668c4.359,1.861,7.413,5.658,7.85,10.025c0.362,3.614-0.764,7.069-3.17,9.729
	c-2.375,2.625-5.766,4.131-9.303,4.131h-4.531c0.001-0.172,0.007-0.344,0.007-0.516c0-4.142-3.357-7.5-7.5-7.5s-7.5,3.358-7.5,7.5
	C352.709,237.181,309.325,280.564,255.999,280.564z M255.999,448.903c-13.545,0-24.564-11.02-24.564-24.564
	s11.02-24.564,24.564-24.564s24.564,11.02,24.564,24.564S269.544,448.903,255.999,448.903z"/>
<path d="M274.78,210.581c-2.737,2.701-9.299,5.855-18.781,5.855c-9.482,0-16.044-3.154-18.781-5.855
	c-2.948-2.908-7.697-2.877-10.606,0.071s-2.877,7.698,0.071,10.606c6.46,6.373,17.419,10.177,29.316,10.177
	c11.897,0,22.856-3.805,29.316-10.177c2.948-2.909,2.98-7.658,0.071-10.606C282.477,207.703,277.729,207.67,274.78,210.581z"/>
<path d="M227.79,85.885l24.049,16.032c1.26,0.84,2.71,1.26,4.16,1.26s2.9-0.42,4.16-1.26l24.049-16.032
	c3.446-2.297,4.378-6.954,2.08-10.4s-6.954-4.377-10.4-2.08l-19.889,13.259L236.11,73.405c-3.445-2.298-8.104-1.367-10.4,2.08
	C223.412,78.931,224.344,83.588,227.79,85.885z"/>
<path d="M255.999,71.113c4.143,0,7.5-3.358,7.5-7.5v-8.016c0-4.142-3.357-7.5-7.5-7.5c-4.143,0-7.5,3.358-7.5,7.5v8.016
	C248.499,67.755,251.856,71.113,255.999,71.113z"/>
<g>
</g>
<g>
</g>
<g>
</g>
<g>
</g>
<g>
</g>
<g>
</g>
<g>
</g>
<g>
</g>
<g>
</g>
<g>
</g>
<g>
</g>
<g>
</g>
<g>
</g>
<g>
</g>
<g>
</g>
</svg>
