<?xml version="1.0" encoding="iso-8859-1"?>
<!-- Generator: Adobe Illustrator 19.0.0, SVG Export Plug-In . SVG Version: 6.00 Build 0)  -->
<svg version="1.1" id="Capa_1" xmlns="http://www.w3.org/2000/svg" xmlns:xlink="http://www.w3.org/1999/xlink" x="0px" y="0px"
	 viewBox="0 0 512 512" style="enable-background:new 0 0 512 512;" xml:space="preserve">
<rect x="151.79" y="175.84" style="fill:#C9C6CA;" width="208.42" height="208.42"/>
<path style="fill:#A5CDFF;" d="M408.282,388.965l-82.792-29.221c-12.82-4.525-21.393-16.642-21.393-30.237v-41.443h-96.194v41.443
	c0,13.595-8.573,25.712-21.393,30.237l-82.792,29.221c-19.229,6.787-32.089,24.962-32.089,45.354V504.5h368.742v-70.181
	C440.371,413.927,427.512,395.752,408.282,388.965z"/>
<path style="fill:#8CB4EB;" d="M256,496.484c66.354,0,120.4-52.054,123.911-117.532l-54.422-19.208
	c-12.82-4.525-21.393-16.642-21.393-30.237v-41.443h-96.194v41.443c0,13.595-8.573,25.712-21.393,30.237l-54.422,19.208
	C135.6,444.43,189.646,496.484,256,496.484z"/>
<path style="fill:#E3AA75;" d="M256,472.435c55.34,0,100.202-44.862,100.202-100.202c0-0.568-0.075-1.116-0.084-1.681
	l-30.628-10.809c-12.82-4.525-21.393-16.642-21.393-30.237v-41.443h-96.194v41.443c0,13.595-8.573,25.712-21.393,30.237
	l-30.627,10.809c-0.009,0.565-0.085,1.113-0.085,1.681C155.798,427.574,200.66,472.435,256,472.435z"/>
<path style="fill:#D29B6E;" d="M304.097,326.052v-37.988h-96.194v37.988c14.744,6.465,30.994,10.109,48.097,10.109
	S289.353,332.517,304.097,326.052z"/>
<path style="fill:#F5B97D;" d="M256,312.113L256,312.113c-57.554,0-104.21-46.656-104.21-104.21v-104.21h208.42v104.21
	C360.21,265.457,313.553,312.113,256,312.113z"/>
<path style="fill:#E3AA75;" d="M256,146.206c23.271,32.459,61.223,53.681,104.21,53.681v-96.194H151.79v104.21
	c0,57.553,46.656,104.21,104.21,104.21c5.466,0,10.793-0.547,16.032-1.359c-49.921-7.729-88.177-50.764-88.177-102.851v-0.315
	c0-6.779,4.284-12.784,10.673-15.051C219.465,183.691,240.848,167.34,256,146.206z"/>
<path style="fill:#DBD9DC;" d="M151.79,371.998V191.067c0-7.932,5.564-15.042,13.399-16.282
	c41.882-6.626,71.734-42.767,84.264-60.82c1.596-2.3,4.074-3.45,6.553-3.454c2.479,0.004,4.956,1.155,6.552,3.454
	c12.53,18.053,42.383,54.194,84.264,60.82c7.835,1.24,13.399,8.35,13.399,16.282v180.935l32.053,11.313V143.774
	C392.274,68.512,331.262,7.5,256,7.5S119.726,68.512,119.726,143.774v239.541L151.79,371.998z"/>
<path style="fill:#EDEBED;" d="M356.117,370.553l-30.628-10.809c-4.119-1.454-7.735-3.756-10.833-6.574L256,392.274l-58.657-39.105
	c-3.099,2.818-6.715,5.121-10.833,6.574l-30.627,10.809c-0.009,0.565-0.085,1.113-0.085,1.681
	c0,55.34,44.862,100.202,100.202,100.202s100.202-44.862,100.202-100.202C356.202,371.666,356.126,371.118,356.117,370.553z"/>
<path style="fill:#DBD9DC;" d="M325.489,359.744c-4.118-1.454-7.734-3.756-10.832-6.574L256,392.274l-58.657-39.105
	c-3.098,2.818-6.715,5.121-10.832,6.574l-30.628,10.809c-0.009,0.565-0.084,1.113-0.084,1.681c0,0.798,0.101,1.572,0.119,2.366
	l25.702,57.829c5.142,11.569,16.65,19.044,29.318,19.044c7.473,0,14.756-2.64,20.51-7.434L256,423.578l24.553,20.461
	c5.752,4.794,13.036,7.434,20.51,7.434c12.667,0,24.175-7.475,29.318-19.043l25.701-57.829c0.019-0.795,0.119-1.568,0.119-2.367
	c0-0.568-0.075-1.116-0.084-1.681L325.489,359.744z"/>
<g>
	<path style="fill:#FFFFFF;" d="M205.555,341.83L256,392.274l-39.948,33.29c-4.087,3.406-10.296,1.959-12.457-2.903l-26.168-58.878
		c-0.957-2.153-0.489-4.673,1.177-6.339l15.615-15.615C197.349,338.699,202.425,338.699,205.555,341.83z"/>
	<path style="fill:#FFFFFF;" d="M306.445,341.83L256,392.274l39.948,33.29c4.087,3.406,10.296,1.959,12.457-2.903l26.168-58.878
		c0.957-2.153,0.489-4.673-1.177-6.339l-15.615-15.615C314.651,338.699,309.575,338.699,306.445,341.83z"/>
</g>
<path d="M207.903,177.052c-4.143,0-7.5,3.358-7.5,7.5v8.016c0,4.142,3.357,7.5,7.5,7.5s7.5-3.358,7.5-7.5v-8.016
	C215.403,180.41,212.046,177.052,207.903,177.052z"/>
<path d="M304.097,200.068c4.143,0,7.5-3.358,7.5-7.5v-8.016c0-4.142-3.357-7.5-7.5-7.5s-7.5,3.358-7.5,7.5v8.016
	C296.597,196.71,299.954,200.068,304.097,200.068z"/>
<path d="M256,256.181c11.896,0,22.856-3.804,29.315-10.177c2.949-2.909,2.981-7.658,0.072-10.606
	c-2.908-2.95-7.657-2.981-10.605-0.072c-2.738,2.701-9.301,5.855-18.782,5.855s-16.044-3.154-18.782-5.855
	c-2.949-2.909-7.698-2.876-10.605,0.072c-2.909,2.949-2.877,7.697,0.072,10.606C233.144,252.376,244.104,256.181,256,256.181z"/>
<path d="M352.702,207.903C352.702,207.779,352.696,208.026,352.702,207.903L352.702,207.903z"/>
<path d="M410.778,381.893l-11.004-3.884V143.774C399.774,64.497,335.277,0,256,0S112.226,64.497,112.226,143.774v234.235
	l-11.004,3.884c-22.187,7.83-37.093,28.899-37.093,52.427v70.18c0,4.142,3.357,7.5,7.5,7.5s7.5-3.358,7.5-7.5v-70.181
	c0-4.992,0.925-9.83,2.626-14.326L119.68,452.5c5.451,4.673,8.578,11.471,8.578,18.651V504.5c0,4.142,3.357,7.5,7.5,7.5
	s7.5-3.358,7.5-7.5v-33.349c0-11.565-5.036-22.514-13.816-30.04l-39.755-34.076c4.422-4.876,10.048-8.712,16.527-10.999
	l41.885-14.783l0.636,4.769c3.467,26.001,16.245,49.837,35.981,67.117c19.736,17.279,45.053,26.795,71.284,26.795
	s51.548-9.516,71.284-26.795c19.736-17.28,32.515-41.116,35.981-67.117l0.636-4.769l41.885,14.783
	c6.479,2.287,12.104,6.123,16.527,10.999l-39.754,34.076c-8.78,7.526-13.816,18.475-13.816,30.04V504.5c0,4.142,3.357,7.5,7.5,7.5
	s7.5-3.358,7.5-7.5v-33.349c0-7.18,3.127-13.978,8.578-18.651l37.924-32.507c1.702,4.496,2.626,9.334,2.626,14.326V504.5
	c0,4.142,3.357,7.5,7.5,7.5s7.5-3.358,7.5-7.5v-70.181C447.871,410.792,432.965,389.723,410.778,381.893z M348.396,384.041
	c-6.148,46.118-45.87,80.895-92.396,80.895s-86.248-34.777-92.396-80.896l-1.052-7.887l10.516-3.712l23.673,53.267
	c1.994,4.485,5.879,7.696,10.66,8.809c1.188,0.277,2.383,0.413,3.566,0.413c3.58,0,7.053-1.244,9.886-3.604L256,402.037
	l35.146,29.288c2.833,2.361,6.306,3.605,9.886,3.605c1.184,0,2.379-0.136,3.566-0.413c4.781-1.113,8.666-4.324,10.66-8.81
	l11.365-25.573c1.683-3.785-0.022-8.217-3.808-9.899c-3.786-1.681-8.218,0.022-9.899,3.808l-11.365,25.572
	c-0.031,0.071-0.104,0.235-0.355,0.294c-0.247,0.057-0.387-0.057-0.446-0.106l-33.64-28.032l44.637-44.637
	c0.2-0.201,0.528-0.202,0.73,0l14.738,14.738l-1.473,3.314c-1.683,3.785,0.022,8.217,3.808,9.899c3.384,1.504,7.28,0.295,9.27-2.682
	l10.627,3.751L348.396,384.041z M244.89,391.771l-33.64,28.032c-0.06,0.049-0.199,0.163-0.446,0.106
	c-0.251-0.059-0.324-0.223-0.355-0.293l-25.664-57.745l14.737-14.737c0.202-0.202,0.532-0.199,0.73,0L244.89,391.771z
	 M215.403,341.07v-29.092c12.587,4.926,26.277,7.635,40.589,7.635c14.317,0,28.013-2.711,40.604-7.641v29.098L256,381.667
	L215.403,341.07z M384.774,372.715l-41.437-14.625c-0.347-1.176-0.967-2.278-1.873-3.184l-18.381-18.38
	c-3.156-3.156-7.344-4.649-11.487-4.512v-27.249c17.043-9.822,31.263-24.013,41.124-41.032v72.428c0,4.142,3.357,7.5,7.5,7.5
	s7.5-3.358,7.5-7.5V191.066c0-11.726-8.48-21.91-19.727-23.689c-13.251-2.097-47.503-11.915-79.274-57.688
	c-2.903-4.183-7.661-6.68-12.728-6.679c-5.067,0-9.824,2.499-12.727,6.681c-5.039,7.262-10.844,14.455-16.787,20.801
	c-2.832,3.023-2.677,7.77,0.347,10.601c3.024,2.832,7.771,2.675,10.601-0.347c6.526-6.969,12.638-14.54,18.164-22.504
	c0.084-0.121,0.19-0.232,0.403-0.232c0.214,0,0.32,0.111,0.404,0.232c6.621,9.54,17.622,23.552,32.43,36.134
	c18.067,15.352,37.186,24.71,56.823,27.817c4.03,0.638,7.07,4.453,7.07,8.874l-0.019,16.837c0,53.326-43.384,96.709-96.71,96.709
	c-53.121,0-96.37-43.051-96.702-96.095v-17.454c0-4.421,3.04-8.236,7.07-8.874c15.651-2.477,31.077-8.98,45.849-19.33
	c3.393-2.377,4.216-7.054,1.839-10.446c-2.376-3.392-7.054-4.215-10.446-1.839c-12.888,9.03-26.206,14.682-39.585,16.799
	c-11.246,1.779-19.727,11.964-19.727,23.689V336.16c0,4.142,3.357,7.5,7.5,7.5s7.5-3.358,7.5-7.5v-72.383
	c9.863,17.004,24.078,31.183,41.113,40.996v27.24c-4.144-0.137-8.332,1.357-11.488,4.512l-18.38,18.38
	c-0.906,0.906-1.526,2.008-1.873,3.184l-41.437,14.625v-228.94C127.226,72.768,184.993,15,256,15s128.774,57.768,128.774,128.774
	V372.715z"/>
<g>
</g>
<g>
</g>
<g>
</g>
<g>
</g>
<g>
</g>
<g>
</g>
<g>
</g>
<g>
</g>
<g>
</g>
<g>
</g>
<g>
</g>
<g>
</g>
<g>
</g>
<g>
</g>
<g>
</g>
</svg>
