<?xml version="1.0" encoding="iso-8859-1"?>
<!-- Generator: Adobe Illustrator 19.0.0, SVG Export Plug-In . SVG Version: 6.00 Build 0)  -->
<svg version="1.1" id="Capa_1" xmlns="http://www.w3.org/2000/svg" xmlns:xlink="http://www.w3.org/1999/xlink" x="0px" y="0px"
	 viewBox="0 0 512 512" style="enable-background:new 0 0 512 512;" xml:space="preserve">
<path style="fill:#5A4650;" d="M408.102,380.913l-82.792-29.221H186.331l-82.793,29.221C84.309,387.7,71.45,405.876,71.45,426.268
	V504.5h368.742v-78.231C440.192,405.876,427.332,387.7,408.102,380.913z"/>
<path style="fill:#6E5A64;" d="M371.432,334.267c-12.142-9.132-19.418-23.358-19.418-38.55v-31.701
	c0-88.177-48.097-200.403-96.194-200.403s-96.194,112.226-96.194,200.403v31.701c0,15.192-7.276,29.418-19.418,38.55
	c-13.093,9.847-20.663,21.486-20.663,33.959c0,35.417,34.449,104.21,136.274,104.21s136.274-68.792,136.274-104.21
	C392.095,355.753,384.525,344.114,371.432,334.267z"/>
<path style="fill:#5A4650;" d="M255.821,352.194c-57.459,0-104.21-39.556-104.21-88.177s46.75-88.177,104.21-88.177
	s104.21,39.556,104.21,88.177S313.28,352.194,255.821,352.194z"/>
<path style="fill:#F5B97D;" d="M255.821,312.113L255.821,312.113c-57.554,0-104.21-46.656-104.21-104.21V111.71H360.03v96.194
	C360.03,265.457,313.374,312.113,255.821,312.113z"/>
<path style="fill:#E3AA75;" d="M183.676,207.903v-8.016c0-35.417,28.712-64.129,64.129-64.129H360.03V111.71H151.611v96.194
	c0,57.553,46.656,104.21,104.21,104.21c5.467,0,10.793-0.547,16.032-1.359C221.932,303.025,183.676,259.99,183.676,207.903z"/>
<path style="fill:#84737B;" d="M399.005,256.273l-7.022-117.036C387.81,69.692,333.416,11.744,263.862,7.732
	c-75.604-4.361-139.506,53.221-143.981,127.795l-7.245,120.746c-4.744,79.067,55.375,146.121,133.155,151.507
	c-48.411-5.017-86.164-45.929-86.164-95.667c0-35.417,0-40.081,0-48.097c0-88.177,48.097-200.403,96.194-200.403
	s96.194,112.226,96.194,200.403v77.686c0,10.772,13.893,15.499,20.204,6.77C390.827,322.734,401.068,290.66,399.005,256.273z"/>
<path d="M410.957,374.107l-11.385-4.018c0.008-0.482,0.023-0.963,0.023-1.446c0-10.335-3.105-19.095-9.468-26.654
	c12.557-33.883,17.515-73.772,14.466-118.476l-4.988-88.436C395.061,59.333,332.061,0,256.179,0
	c-76.068,0-139.228,59.479-143.788,135.411l-7.232,120.414c-1.776,29.572,4.904,58.147,19.086,83.158
	c-8.092,8.354-12.199,18.321-12.199,29.661c0,0.525,0.016,1.048,0.025,1.572l-11.028,3.892
	c-22.228,7.845-37.093,28.855-37.093,52.427v77.651c0,4.106,3.164,7.688,7.269,7.811c4.247,0.127,7.731-3.277,7.731-7.497v-77.966
	c0-17.212,10.854-32.554,27.085-38.282l7.649-2.7c1.77,9.042,4.968,17.852,9.576,26.334c1.359,2.502,3.936,3.92,6.597,3.92
	c1.554,0,3.139-0.484,4.523-1.521c3.002-2.248,3.741-6.448,1.959-9.748c-6.166-11.417-9.292-23.492-9.292-35.894
	c0-6.2,1.844-11.633,5.599-16.491c4.022,5.639,8.451,11.054,13.296,16.198c29.117,30.918,68.647,47.802,111.178,47.451
	c56.759-0.468,102.394-46.927,102.394-103.688v-48.097c0-43.697-11.496-94.691-30.75-136.411
	c-9.581-20.759-20.708-38.131-32.177-50.237c-13.361-14.104-27.077-21.255-40.766-21.255c-13.689,0-27.404,7.151-40.766,21.255
	c-11.47,12.106-22.596,29.479-32.177,50.237c-19.255,41.72-30.751,92.714-30.751,136.411v48.097
	c0,21.605,6.645,41.686,17.995,58.312c-4.64-3.791-9.071-7.911-13.26-12.359c-25.956-27.561-39-63.552-36.73-101.343l7.232-120.414
	C131.45,68.286,188.032,15,256.179,15c67.959,0,124.383,53.14,128.452,120.949l4.992,88.496
	c5.193,76.165-13.732,137.082-54.73,176.165c-36.71,34.995-89.702,51.108-149.819,45.724c-4.449-0.398-8.74-1.879-12.507-4.28
	c-6.482-4.13-12.478-8.775-17.885-13.902c-2.961-2.808-7.701-2.985-10.619-0.131c-3.05,2.984-2.997,7.876,0.065,10.795
	c27.416,26.133,68.126,41.12,111.693,41.12c38.032,0,73.868-11.341,100.905-31.934c22.433-17.086,36.686-38.866,41.263-62.565
	l7.976,2.815c16.231,5.728,27.085,21.069,27.085,38.281v77.653c0,4.106,3.164,7.688,7.269,7.811
	c4.247,0.127,7.731-3.277,7.731-7.497v-77.967C448.05,402.962,433.185,381.952,410.957,374.107z M255.821,71.113
	c14.178,0,29.263,12.752,42.897,33.097h-85.795C226.557,83.865,241.643,71.113,255.821,71.113z M203.875,119.21h103.892
	c18.887,34.595,33.471,83.08,36.259,129.164c-16.596,35.996-52.786,57.982-92.531,56.128c-18.325-0.863-35.921-7.094-50.887-18.018
	c-14.319-10.452-25.636-24.697-32.784-41.224C171.063,200.115,185.412,153.026,203.875,119.21z M167.304,317.642
	c18.233,25.199,51.089,42.052,88.516,42.052c14.907,0,29.295-2.612,42.763-7.765c3.869-1.479,5.805-5.816,4.325-9.685
	c-1.479-3.868-5.814-5.804-9.685-4.325c-11.75,4.495-24.335,6.774-37.403,6.774c-48.074,0-87.336-31.497-88.657-70.625
	c6.904,9.377,15.189,17.661,24.6,24.531c17.346,12.662,37.757,19.884,59.025,20.885c1.804,0.085,3.602,0.128,5.397,0.128
	c21.127,0,41.567-5.866,59.418-17.101c11.113-6.994,20.786-15.785,28.721-25.972c-1.29,17.202-9.92,33.357-24.666,45.891
	c-3.156,2.684-3.54,7.416-0.857,10.572c1.483,1.745,3.594,2.643,5.718,2.643c1.717,0,3.443-0.587,4.854-1.785
	c5.773-4.908,10.773-10.296,14.953-16.057c-2.944,46.263-41.512,83.003-88.506,83.003
	C208.772,400.807,170.169,363.981,167.304,317.642z M255.821,464.936c-11.112,0-22.003-1.055-32.468-3.086
	c48.134-3.089,90.386-20.35,121.89-50.382c15.548-14.822,28.154-32.454,37.749-52.569c1.09,2.913,1.603,6.095,1.603,9.745
	C384.595,421.739,326.827,464.936,255.821,464.936z"/>
<path d="M256.179,263.5c11.898,0,22.857-3.805,29.316-10.178c2.948-2.91,2.98-7.658,0.07-10.606
	c-2.909-2.949-7.658-2.98-10.606-0.071c-2.737,2.701-9.298,5.855-18.78,5.855c-9.482,0-16.043-3.154-18.78-5.855
	c-2.949-2.909-7.697-2.878-10.606,0.071c-2.91,2.948-2.878,7.696,0.07,10.606C233.322,259.695,244.281,263.5,256.179,263.5z"/>
<path d="M208.083,184.252c-4.142,0-7.5,3.357-7.5,7.5v8.017c0,4.143,3.358,7.5,7.5,7.5s7.5-3.357,7.5-7.5v-8.017
	C215.583,187.609,212.225,184.252,208.083,184.252z"/>
<path d="M304.276,184.252c-4.142,0-7.5,3.357-7.5,7.5v8.017c0,4.143,3.358,7.5,7.5,7.5s7.5-3.357,7.5-7.5v-8.017
	C311.776,187.609,308.418,184.252,304.276,184.252z"/>
<path d="M200.066,175.204h16.032c4.142,0,7.5-3.357,7.5-7.5s-3.358-7.5-7.5-7.5h-16.032c-4.142,0-7.5,3.357-7.5,7.5
	S195.924,175.204,200.066,175.204z"/>
<path d="M296.26,175.204h16.032c4.142,0,7.5-3.357,7.5-7.5s-3.358-7.5-7.5-7.5H296.26c-4.142,0-7.5,3.357-7.5,7.5
	S292.118,175.204,296.26,175.204z"/>
<g>
</g>
<g>
</g>
<g>
</g>
<g>
</g>
<g>
</g>
<g>
</g>
<g>
</g>
<g>
</g>
<g>
</g>
<g>
</g>
<g>
</g>
<g>
</g>
<g>
</g>
<g>
</g>
<g>
</g>
</svg>
