<?xml version="1.0" encoding="iso-8859-1"?>
<!-- Generator: Adobe Illustrator 19.0.0, SVG Export Plug-In . SVG Version: 6.00 Build 0)  -->
<svg version="1.1" id="Capa_1" xmlns="http://www.w3.org/2000/svg" xmlns:xlink="http://www.w3.org/1999/xlink" x="0px" y="0px"
	 viewBox="0 0 512 512" style="enable-background:new 0 0 512 512;" xml:space="preserve">
<path style="fill:#C9C6CA;" d="M413.861,362.798l-57.632-16.951h-200.46l-57.632,16.951c-20.469,6.02-34.525,24.806-34.525,46.142
	v94.641h384.774V408.94C448.386,387.604,434.33,368.818,413.861,362.798z"/>
<path style="fill:#B7B2B8;" d="M215.919,437.448h80.161c50.819,0,94.275-31.74,111.846-76.396l-78.551-23.103
	c-10.235-3.01-17.263-12.403-17.263-23.071v-59.797H199.886v59.797c0,10.668-7.028,20.061-17.263,23.071l-78.551,23.103
	C121.644,405.708,165.1,437.448,215.919,437.448z"/>
<path style="fill:#9C969E;" d="M344.177,269.109H167.822c-26.563,0-48.097,21.534-48.097,48.097
	c0,53.126,43.067,96.193,96.193,96.193h80.161c53.126,0,96.193-43.068,96.193-96.193
	C392.273,290.643,370.74,269.109,344.177,269.109z"/>
<path style="fill:#867E88;" d="M342.043,293.158c17.449,0,24.301,22.63,9.782,32.309l-82.487,54.991
	c-8.078,5.385-18.601,5.385-26.679,0l-82.487-54.991c-14.518-9.679-7.666-32.309,9.782-32.309H342.043z"/>
<path style="fill:#B67F5F;" d="M180.419,338.964l62.241,41.494c8.078,5.385,18.601,5.385,26.68,0l62.241-41.494l0,0l-2.206-0.649
	c-10.234-3.01-17.263-12.403-17.263-23.071v-52.147H199.886v52.147c0,10.668-7.028,20.061-17.263,23.071L180.419,338.964
	L180.419,338.964z"/>
<path style="fill:#A06E50;" d="M199.886,297.018c16.841,8.996,35.939,14.176,56.113,14.176s39.272-5.18,56.113-14.176v-33.921
	H199.886V297.018z"/>
<path style="fill:#CD916E;" d="M376.241,153.113V128.66c0-62.533-47.746-113.879-108.766-119.662
	c-3.773-0.383-7.601-0.58-11.476-0.58s-7.703,0.197-11.476,0.58c-61.019,5.783-108.766,57.129-108.766,119.662v24.453
	c-9.147,1.857-16.032,9.941-16.032,19.636c0,11.068,8.972,20.04,20.04,20.04h12.429c4.106,53.795,48.958,96.193,103.805,96.193
	s99.699-42.398,103.805-96.193h12.429c11.068,0,20.04-8.973,20.04-20.04C392.273,163.054,385.388,154.97,376.241,153.113z"/>
<path style="fill:#B67F5F;" d="M191.87,184.773V77.197c0-21.092-27.762-28.855-38.717-10.831
	c-11.038,18.162-17.396,39.481-17.396,62.293v24.453c-10.245,2.08-17.653,11.971-15.727,23.189
	c1.669,9.724,10.702,16.487,20.568,16.487h11.596c4.106,53.795,48.958,96.193,103.805,96.193c6.895,0,13.631-0.675,20.149-1.954
	C228.137,277.722,191.87,235.504,191.87,184.773z"/>
<path style="fill:#DBD9DC;" d="M274.558,208.822h-37.113c-12.254,0-22.548,9.214-23.901,21.393l-3.787,34.086
	c-1.113,10.014,4.135,19.659,13.147,24.165l22.344,11.172c6.77,3.385,14.739,3.385,21.51,0l22.344-11.172
	c9.012-4.506,14.259-14.152,13.147-24.165l-3.787-34.086C297.106,218.035,286.811,208.822,274.558,208.822z"/>
<path style="fill:#C9C6CA;" d="M253.261,290.954c-9.012-5.554-14.259-17.442-13.147-29.785l3.787-42.013
	c0.334-3.709,1.223-7.189,2.543-10.335h-9.001c-12.254,0-22.548,9.214-23.901,21.393l-3.787,34.086
	c-1.113,10.014,4.135,19.66,13.147,24.165l22.344,11.172c6.77,3.385,14.739,3.385,21.51,0l0.328-0.164L253.261,290.954z"/>
<path d="M256.002,247.468c9.143,0,17.459-4.231,22.246-11.318c2.318-3.433,1.416-8.095-2.017-10.413
	c-3.433-2.317-8.094-1.416-10.413,2.017c-1.965,2.908-5.726,4.715-9.816,4.715s-7.853-1.807-9.817-4.715
	c-2.319-3.433-6.981-4.333-10.413-2.017c-3.433,2.319-4.335,6.981-2.017,10.413C238.543,243.236,246.86,247.468,256.002,247.468z"/>
<path d="M199.887,127.226h24.048c4.142,0,7.5-3.357,7.5-7.5s-3.358-7.5-7.5-7.5h-24.048c-4.142,0-7.5,3.357-7.5,7.5
	S195.745,127.226,199.887,127.226z"/>
<path d="M288.064,127.226h24.049c4.143,0,7.5-3.357,7.5-7.5s-3.357-7.5-7.5-7.5h-24.049c-4.143,0-7.5,3.357-7.5,7.5
	S283.921,127.226,288.064,127.226z"/>
<path d="M415.977,356.22l-21.414-6.298c3.376-10.217,5.211-21.13,5.211-32.464c0-30.656-24.94-55.597-55.597-55.597h-8.27
	c16.449-16.902,27.367-38.776,30.713-62.489h4.473c14.617,0,27.155-10.861,28.543-24.728c0.777-7.771-1.765-15.531-6.975-21.288
	c-2.522-2.787-5.569-4.993-8.919-6.534v-19.08C383.741,57.305,326.437,0,255.999,0c-70.437,0-127.742,57.305-127.742,127.742v19.416
	c-8.629,4.115-14.927,12.266-15.888,21.858c-0.778,7.771,1.764,15.53,6.974,21.288c5.213,5.762,12.658,9.066,20.425,9.066h5.598
	c2.219,15.929,7.847,31.189,16.598,44.806c4.106,6.389,8.831,12.303,14.077,17.684h-8.219c-30.656,0-55.597,24.94-55.597,55.597
	c0,11.334,1.834,22.247,5.211,32.464l-21.414,6.298c-23.498,6.911-39.91,28.845-39.91,53.338V504.5c0,4.143,3.358,7.5,7.5,7.5
	s7.5-3.357,7.5-7.5v-94.942c0-17.885,11.984-33.9,29.142-38.947l22.952-6.751c12.427,24.728,34.456,43.828,61.165,52.378V504.5
	c0,4.143,3.358,7.5,7.5,7.5s7.5-3.357,7.5-7.5v-84.676c5.39,0.868,10.916,1.326,16.548,1.326H248.5v83.35c0,4.143,3.358,7.5,7.5,7.5
	s7.5-3.357,7.5-7.5v-83.35h32.581c5.632,0,11.159-0.458,16.55-1.326V504.5c0,4.143,3.357,7.5,7.5,7.5s7.5-3.357,7.5-7.5v-88.263
	c26.708-8.55,48.736-27.65,61.163-52.377l22.952,6.751c17.158,5.047,29.142,21.063,29.142,38.947V504.5c0,4.143,3.357,7.5,7.5,7.5
	s7.5-3.357,7.5-7.5v-94.942C455.886,385.064,439.475,363.131,415.977,356.22z M143.258,127.742C143.258,65.576,193.834,15,256,15
	s112.742,50.576,112.742,112.742v16.574c-0.171-0.012-0.342-0.026-0.516-0.026h-32.581v-0.516c0-4.143-3.357-7.5-7.5-7.5h-56.113
	c-4.143,0-7.5,3.357-7.5,7.5v2.123c-2.647-1.034-5.523-1.608-8.532-1.608s-5.885,0.574-8.532,1.608v-2.123
	c0-4.143-3.358-7.5-7.5-7.5h-56.113c-4.142,0-7.5,3.357-7.5,7.5v0.516h-32.581c-0.174,0-0.345,0.014-0.516,0.026L143.258,127.742
	L143.258,127.742z M300.088,167.307c4.143,0,7.5-3.357,7.5-7.5v-8.532h13.057v16.548c0,4.705-3.827,8.532-8.532,8.532h-24.049
	c-4.705,0-8.532-3.827-8.532-8.532v-16.548h13.057v8.532C292.588,163.949,295.946,167.307,300.088,167.307z M211.911,167.307
	c4.142,0,7.5-3.357,7.5-7.5v-8.532h13.057v16.548c0,4.705-3.828,8.532-8.532,8.532h-24.048c-4.705,0-8.532-3.827-8.532-8.532
	v-16.548h13.056v8.532C204.411,163.949,207.769,167.307,211.911,167.307z M174.583,236.066
	c-10.003-15.563-15.29-33.618-15.29-52.212c0-4.143-3.358-7.5-7.5-7.5s-7.5,3.357-7.5,7.5v0.517h-4.524
	c-3.537,0-6.927-1.506-9.302-4.131c-2.407-2.659-3.533-6.115-3.171-9.729c0.63-6.293,6.612-11.222,13.618-11.222
	c0.49,0,35.441,0,35.441,0v8.532c0,12.976,10.557,23.532,23.532,23.532h24.048c12.976,0,23.532-10.557,23.532-23.532
	c0-4.705,3.828-8.532,8.532-8.532s8.532,3.827,8.532,8.532c0,12.976,10.557,23.532,23.532,23.532h24.049
	c12.976,0,23.532-10.557,23.532-23.532v-8.532c0,0,35.895,0,36.591,0c3.537,0,6.928,1.505,9.303,4.13
	c2.406,2.659,3.533,6.115,3.171,9.729c-0.63,6.293-6.611,11.222-13.617,11.222h-3.384v-0.439c0-4.141-3.356-7.498-7.497-7.5
	c-0.001,0-0.002,0-0.003,0c-4.14,0-7.497,3.354-7.5,7.494c-0.024,32.451-16.457,62.51-42.89,80.273
	c-0.032-0.548-0.057-1.095-0.118-1.645l-3.787-34.086c-1.778-15.999-15.258-28.064-31.355-28.064h-37.112
	c-16.098,0-29.578,12.065-31.355,28.064l-3.788,34.086c-0.062,0.555-0.087,1.108-0.119,1.661
	C191.205,256.853,181.801,247.297,174.583,236.066z M319.613,300.908h22.431c5.546,0,8.647,3.719,9.701,7.198
	c1.054,3.48,0.535,8.295-4.079,11.371l-17.277,11.518c-6.397-2.39-10.775-8.601-10.775-15.501L319.613,300.908L319.613,300.908z
	 M285.746,280.84l-22.345,11.171c-4.636,2.318-10.167,2.316-14.801,0l-22.344-11.171c-6.173-3.087-9.809-9.77-9.046-16.63
	l3.788-34.086c0.933-8.393,8.003-14.721,16.447-14.721h37.112c8.443,0,15.515,6.329,16.447,14.721l3.787,34.087
	C295.555,271.07,291.919,277.753,285.746,280.84z M248.5,406.15h-32.581c-5.654,0-11.185-0.538-16.548-1.555v-6.978
	c0-4.143-3.358-7.5-7.5-7.5s-7.5,3.357-7.5,7.5v2.729c-33.375-12.745-57.146-45.092-57.146-82.89
	c0-22.385,18.211-40.597,40.597-40.597h24.564v9.048h-22.432c-11.331,0-20.773,7.007-24.057,17.852s0.687,21.913,10.114,28.198
	l92.487,61.659v12.534H248.5z M192.386,300.908v14.587c0,6.9-4.378,13.111-10.776,15.501l-17.278-11.519
	c-4.614-3.076-5.132-7.891-4.078-11.371c1.054-3.479,4.155-7.198,9.7-7.198H192.386z M327.63,400.346v-2.728
	c0-4.143-3.357-7.5-7.5-7.5s-7.5,3.357-7.5,7.5v6.977c-5.364,1.017-10.895,1.555-16.55,1.555h-32.581v-12.534l28.725-19.15
	c3.446-2.298,4.378-6.954,2.08-10.4c-2.297-3.446-6.954-4.378-10.4-2.08l-27.905,18.603l-60.6-40.4
	c7.37-5.878,11.988-14.919,11.988-24.693V284.45c0.077,0.037,0.628,0.326,1.126,0.586c2.87,3.812,6.606,7.006,11.037,9.221
	l22.343,11.171c4.418,2.209,9.263,3.313,14.11,3.313c4.845,0,9.691-1.104,14.107-3.313l22.345-11.171
	c4.468-2.234,8.233-5.459,11.112-9.312c0.35-0.165,0.699-0.33,1.046-0.498v31.049c0,9.774,4.617,18.815,11.987,24.693l-4.638,3.092
	c-3.446,2.298-4.378,6.954-2.08,10.4c1.445,2.168,3.823,3.341,6.247,3.341c1.43,0,2.875-0.408,4.153-1.261l35.703-23.803
	c9.428-6.285,13.398-17.354,10.115-28.198c-3.284-10.845-12.727-17.852-24.058-17.852h-22.431v-9.048h24.564
	c22.385,0,40.597,18.212,40.597,40.597C384.774,355.255,361.004,387.6,327.63,400.346z"/>
<g>
</g>
<g>
</g>
<g>
</g>
<g>
</g>
<g>
</g>
<g>
</g>
<g>
</g>
<g>
</g>
<g>
</g>
<g>
</g>
<g>
</g>
<g>
</g>
<g>
</g>
<g>
</g>
<g>
</g>
</svg>
