<?xml version="1.0" encoding="iso-8859-1"?>
<!-- Generator: Adobe Illustrator 19.0.0, SVG Export Plug-In . SVG Version: 6.00 Build 0)  -->
<svg version="1.1" id="Capa_1" xmlns="http://www.w3.org/2000/svg" xmlns:xlink="http://www.w3.org/1999/xlink" x="0px" y="0px"
	 viewBox="0 0 512 512" style="enable-background:new 0 0 512 512;" xml:space="preserve">
<path style="fill:#A06E50;" d="M392.454,221.597V111.71c0-41.22-31.111-75.173-71.133-79.658c-4.802-0.538-9.437-2.822-12.124-6.838
	C301.366,13.509,283.658,7.5,256.178,7.5c-56.11,0-136.272,39.663-136.272,120.242c0,32.065,0,93.855,0,93.855
	c0,16.198-9.539,22.459-16.602,24.875c-4.335,1.483-6.794,6.085-5.181,10.373c3.739,9.944,13.406,24.534,37.815,23.203
	c0,0,16.367,24.551,49.102,19.946c14.556-2.048,29.137-3.914,43.836-3.914h54.609c14.699,0,29.28,1.866,43.836,3.914
	c32.734,4.605,49.102-19.946,49.102-19.946c24.409,1.331,34.076-13.259,37.815-23.203c1.613-4.288-0.846-8.89-5.181-10.373
	C401.994,244.056,392.454,237.795,392.454,221.597z"/>
<path style="fill:#B67F5F;" d="M392.454,221.597V111.71c0-41.22-31.111-75.173-71.133-79.658c-4.802-0.538-9.437-2.822-12.125-6.838
	C301.366,13.51,283.658,7.5,256.18,7.5v288.581h27.304c14.699,0,29.28,1.866,43.836,3.914c32.734,4.605,49.101-19.946,49.101-19.946
	c24.409,1.331,34.076-13.259,37.815-23.203c1.613-4.288-0.846-8.89-5.181-10.373C401.994,244.056,392.454,237.795,392.454,221.597z"
	/>
<path style="fill:#FF8087;" d="M408.462,380.949l-82.792-29.221c-5.311-1.874-9.831-5.102-13.377-9.148v11.101
	c0,32.919-25.367,61.626-58.272,62.613c-34.048,1.022-61.97-26.275-61.97-60.093v-7.006c-1.696,0.981-3.464,1.863-5.36,2.532
	l-82.793,29.221c-19.23,6.787-32.089,24.962-32.089,45.354V504.5h368.742v-78.197C440.551,405.911,427.692,387.736,408.462,380.949z
	"/>
<g>
	<polygon style="fill:#FFD164;" points="304.269,328.145 304.277,328.148 304.277,327.887 	"/>
	<polygon style="fill:#FFD164;" points="208.083,327.887 208.083,328.148 208.091,328.145 	"/>
</g>
<path style="fill:#F7D291;" d="M256.18,400.29L256.18,400.29c-26.563,0-48.097-21.534-48.097-48.097v-64.129h96.194v64.129
	C304.277,378.757,282.743,400.29,256.18,400.29z"/>
<path style="fill:#F0C382;" d="M208.083,325.904c14.8,6.545,31.063,10.257,48.097,10.257s33.296-3.712,48.097-10.257v-37.84h-96.194
	V325.904z"/>
<path style="fill:#FFE1A0;" d="M372.414,175.839H360.39v-16.032c0-29.708-40.081-48.097-64.129-88.177v-8.016h-144.29V175.84
	h-12.024c-11.068,0-20.04,8.972-20.04,20.04c0,11.068,8.972,20.04,20.04,20.04h12.429c4.106,53.795,48.958,96.194,103.805,96.194
	s99.699-42.398,103.805-96.194h12.429c11.068,0,20.04-8.973,20.04-20.04C392.454,184.811,383.482,175.839,372.414,175.839z"/>
<path style="fill:#F7D291;" d="M247.915,127.074c26.802-8.701,51.896-16.847,67.146-30.473
	c-6.641-7.476-13.174-15.595-18.799-24.971v-8.016H151.971V175.84H141.09c-10.483,0-20.035,7.542-21.08,17.973
	c-1.201,11.996,8.187,22.108,19.936,22.108h12.429c4.106,53.795,48.957,96.194,103.805,96.194c5.483,0,10.83-0.534,16.083-1.351
	c-49.946-7.708-88.228-50.754-88.228-102.859v-35.036c0-12.481,7.243-23.76,18.528-29.093
	C215.824,137.508,232.334,132.131,247.915,127.074z"/>
<path style="fill:#A06E50;" d="M309.197,25.213C301.365,13.509,283.657,7.5,256.178,7.5c-56.11,0-136.272,39.663-136.272,120.242
	c0,13.146,0,31.265,0,48.097h32.065c4.427,0,8.016-3.589,8.016-8.016v-8.016c0-48.38,101.3-55.047,139.497-81.654
	c8.278-5.766,12.809-15.558,12.809-25.647V28.419C311.122,27.501,310.04,26.473,309.197,25.213z"/>
<path style="fill:#E6646E;" d="M186.691,351.728l-43.783,15.453c0.611,21.997,5.1,43.853,13.236,63.361
	c8.77,21.025,29.114,34.61,51.831,34.61c4.581,0,9.168-0.566,13.632-1.682l34.574-8.644l34.573,8.644
	c4.465,1.116,9.051,1.682,13.633,1.682c22.718,0,43.063-13.586,51.831-34.611c8.135-19.507,12.625-41.362,13.236-63.36
	l-43.783-15.453c-5.31-1.874-9.83-5.102-13.376-9.148v11.101c0,32.919-25.367,61.626-58.272,62.613
	c-34.049,1.022-61.97-26.275-61.97-60.093v-7.006C190.354,350.177,188.587,351.058,186.691,351.728z"/>
<path style="fill:#EDEBED;" d="M304.269,328.145l30.316,10.309c6.141,2.141,10.393,7.813,10.776,14.305
	c1.71,29-4.617,52.407-11.339,68.525c-6.127,14.691-21.993,22.716-37.436,18.855l-40.406-10.102l-40.406,10.102
	c-15.442,3.86-31.309-4.165-37.436-18.855c-6.723-16.118-13.05-39.525-11.339-68.525c0.383-6.493,4.635-12.164,10.776-14.305
	l30.316-10.309l-0.008-0.258v24.048c0,26.563,21.534,48.097,48.097,48.097s48.097-21.534,48.097-48.097v-24.048"/>
<path d="M410.958,374.107l-58.06-20.492c-0.021-0.398-0.026-0.785-0.049-1.185c-0.564-9.575-6.765-17.797-15.85-20.965
	l-25.222-8.576V304.77c1.144-0.659,2.271-1.344,3.388-2.042c9.302,3.387,17.535,4.728,24.704,4.728
	c11.693,0,20.585-3.517,26.782-7.321c6.734-4.136,11.189-9.081,13.742-12.503c39.327-0.515,43.533-38.519,43.572-38.917
	c0.203-2.07-0.463-4.132-1.839-5.691c-1.375-1.561-3.337-2.479-5.417-2.537c-0.041-0.001-4.348-0.222-8.556-2.589
	c-5.519-3.104-8.201-8.436-8.201-16.3V111.71c0-44.691-33.445-82.141-77.795-87.111c-2.944-0.33-5.459-1.66-6.729-3.557
	C306.087,7.079,286.151,0,256.178,0c-32.042,0-67.046,11.728-93.634,31.372c-22.873,16.898-50.138,47.335-50.138,96.37v93.855
	c0,17.267-14.009,18.766-16.757,18.889c-2.08,0.058-4.042,0.977-5.417,2.537c-1.376,1.56-2.042,3.621-1.839,5.691
	c0.039,0.398,4.23,38.411,43.572,38.917c2.553,3.422,7.008,8.367,13.742,12.503c10,6.138,27.018,11.517,51.494,2.597
	c1.115,0.696,2.24,1.38,3.381,2.037v18.12l-25.277,8.595c-9.029,3.149-15.229,11.371-15.794,20.946
	c-0.021,0.357-0.025,0.701-0.044,1.057l-58.424,20.62c-22.187,7.831-37.093,28.899-37.093,52.428V504.5c0,4.143,3.357,7.5,7.5,7.5
	s7.5-3.357,7.5-7.5v-77.965c0-5.176,0.994-10.185,2.817-14.82l38.092,32.65c5.451,4.673,8.578,11.471,8.578,18.65v41.365
	c0,4.143,3.357,7.5,7.5,7.5s7.5-3.357,7.5-7.5v-41.365c0-11.563-5.036-22.513-13.816-30.039l-39.774-34.091
	c4.37-4.701,9.872-8.404,16.188-10.633l53.337-18.825c1.006,23.438,6.804,42.297,12.043,54.856
	c7.612,18.253,27.024,28.027,46.177,23.245l38.587-9.647l38.586,9.647c3.263,0.815,6.532,1.208,9.75,1.208
	c15.669-0.001,30.111-9.31,36.427-24.452c5.23-12.537,11.015-31.353,12.036-54.733l52.986,18.701
	c6.392,2.256,11.952,6.022,16.347,10.804l-39.574,33.92c-8.78,7.526-13.816,18.476-13.816,30.039v41.365c0,4.143,3.357,7.5,7.5,7.5
	s7.5-3.357,7.5-7.5v-41.365c0-7.18,3.127-13.978,8.578-18.65l37.823-32.419c1.766,4.57,2.728,9.499,2.728,14.589V504.5
	c0,4.143,3.357,7.5,7.5,7.5s7.5-3.357,7.5-7.5v-77.965C448.051,403.007,433.145,381.938,410.958,374.107z M407.424,253.926
	c-2.841,7.952-10.458,19.743-30.594,18.634c-2.889-0.134-5.631,1.339-7.003,3.917c-0.513,0.929-11.684,20.399-39.568,14.963
	c19.409-17.232,32.791-41.104,36.548-68.021h5.607c4.515,0,8.776-1.099,12.54-3.033v1.212
	C384.954,241.562,396.938,250.628,407.424,253.926z M171.457,43.437C195.558,25.63,227.229,15,256.178,15
	c24.311,0,40.489,4.974,46.787,14.385c3.749,5.603,10.136,9.291,17.522,10.12c36.752,4.119,64.467,35.16,64.467,72.205v59.662
	c-3.765-1.934-8.026-3.034-12.542-3.034c0,0-2.089,0-4.522,0v-8.532c0-24.932-13.229-35.543-27.233-46.777
	c-5.41-4.339-11.004-8.826-16.666-14.591c-2.901-2.956-7.651-2.997-10.605-0.096c-2.956,2.902-2.998,7.65-0.096,10.605
	c6.284,6.399,12.499,11.384,17.981,15.782c13.481,10.814,21.619,17.342,21.619,35.076v16.032h0.007
	c0.003,2.545,1.293,5.026,3.634,6.432c1.784,1.07,1.793,1.076,9.873,1.069l6.01-0.001c6.915,0,12.54,5.625,12.54,12.54
	s-5.625,12.54-12.54,12.54h-4.531c0.001-0.172,0.007-0.343,0.007-0.516c0-4.143-3.357-7.5-7.5-7.5s-7.5,3.357-7.5,7.5
	c0,53.326-43.384,96.71-96.71,96.71c-53.325,0-96.709-43.384-96.709-96.71c0-4.143-3.357-7.5-7.5-7.5s-7.5,3.357-7.5,7.5
	c0,0.172,0.006,0.343,0.007,0.516h-4.531c-6.915,0-12.54-5.625-12.54-12.54s5.625-12.54,12.54-12.54h4.008
	c12.976,0,23.532-10.557,23.532-23.532c0-8.419,4.173-15.456,11.115-21.548l0.537,0.583c1.479,1.605,3.495,2.418,5.518,2.418
	c1.816,0,3.639-0.656,5.08-1.984c2.712-2.499,3.157-6.53,1.243-9.535c14.784-8.283,34.712-14.754,54.302-21.113
	c33.737-10.952,65.604-21.297,73.977-42.229c1.538-3.846-0.332-8.21-4.179-9.749c-3.842-1.537-8.21,0.332-9.749,4.179
	c-5.762,14.405-35.714,24.128-64.68,33.531c-20.784,6.747-42.961,13.948-59.874,24.124l-21.386-23.206
	c-2.807-3.047-7.552-3.24-10.598-0.434c-3.047,2.808-3.24,7.552-0.434,10.598l20.144,21.86
	c-9.841,8.619-16.017,19.137-16.017,32.506c0,4.705-3.827,8.532-8.532,8.532h-4.008c-4.515,0-8.776,1.099-12.54,3.033v-43.63
	C127.406,84.962,151.361,58.283,171.457,43.437z M142.56,276.526c-1.371-2.577-4.121-4.109-7.029-3.967
	c-20.167,1.106-27.762-10.695-30.597-18.633c10.487-3.297,22.473-12.363,22.473-32.329v-1.212c3.764,1.934,8.025,3.033,12.54,3.033
	h5.607c3.757,26.917,17.139,50.789,36.548,68.021C154.218,296.876,143.049,277.412,142.56,276.526z M327.1,418.51
	c-4.736,11.354-16.808,17.437-28.694,14.466l-40.405-10.102c-1.195-0.299-2.443-0.299-3.639,0l-40.406,10.102
	c-11.889,2.973-23.959-3.11-28.694-14.467c-5.843-14.008-12.455-36.69-10.774-65.195c0.207-3.509,2.467-6.518,5.704-7.646
	l20.393-6.934v13.315c0,30.656,24.941,55.597,55.598,55.597c10.977,0,21.594-3.195,30.704-9.241
	c3.451-2.29,4.392-6.944,2.102-10.396c-2.29-3.451-6.944-4.392-10.396-2.102c-6.644,4.409-14.393,6.739-22.409,6.739
	c-22.386,0-40.598-18.212-40.598-40.597v-40.073c12.59,4.928,26.283,7.638,40.598,7.638c14.315,0,28.007-2.71,40.597-7.638v40.072
	c0,4.654-0.779,9.215-2.315,13.554c-1.383,3.904,0.661,8.19,4.565,9.573c0.828,0.294,1.673,0.433,2.504,0.433
	c3.088,0,5.98-1.922,7.069-4.998c2.108-5.951,3.177-12.196,3.177-18.562v-13.315l20.338,6.916c3.292,1.147,5.552,4.156,5.759,7.665
	C339.555,381.818,332.942,404.501,327.1,418.51z"/>
<path d="M274.96,242.646c-2.736,2.7-9.297,5.854-18.779,5.854c-9.482,0-16.044-3.154-18.781-5.855
	c-2.946-2.907-7.695-2.879-10.606,0.071c-2.909,2.948-2.877,7.697,0.071,10.606c6.459,6.373,17.419,10.178,29.316,10.178
	c11.898,0,22.857-3.805,29.316-10.179c2.948-2.909,2.979-7.658,0.069-10.606C282.657,239.767,277.908,239.736,274.96,242.646z"/>
<path d="M208.083,184.252c-4.143,0-7.5,3.357-7.5,7.5v8.017c0,4.143,3.357,7.5,7.5,7.5s7.5-3.357,7.5-7.5v-8.017
	C215.583,187.609,212.226,184.252,208.083,184.252z"/>
<path d="M304.277,184.252c-4.143,0-7.5,3.357-7.5,7.5v8.017c0,4.143,3.357,7.5,7.5,7.5s7.5-3.357,7.5-7.5v-8.017
	C311.777,187.609,308.42,184.252,304.277,184.252z"/>
<path d="M216.1,160.204h-16.032c-4.143,0-7.5,3.357-7.5,7.5s3.357,7.5,7.5,7.5H216.1c4.143,0,7.5-3.357,7.5-7.5
	S220.242,160.204,216.1,160.204z"/>
<path d="M288.761,167.704c0,4.143,3.357,7.5,7.5,7.5h16.032c4.143,0,7.5-3.357,7.5-7.5s-3.357-7.5-7.5-7.5h-16.032
	C292.118,160.204,288.761,163.562,288.761,167.704z"/>
<g>
</g>
<g>
</g>
<g>
</g>
<g>
</g>
<g>
</g>
<g>
</g>
<g>
</g>
<g>
</g>
<g>
</g>
<g>
</g>
<g>
</g>
<g>
</g>
<g>
</g>
<g>
</g>
<g>
</g>
</svg>
