<?xml version="1.0" encoding="iso-8859-1"?>
<!-- Generator: Adobe Illustrator 19.0.0, SVG Export Plug-In . SVG Version: 6.00 Build 0)  -->
<svg version="1.1" id="Capa_1" xmlns="http://www.w3.org/2000/svg" xmlns:xlink="http://www.w3.org/1999/xlink" x="0px" y="0px"
	 viewBox="0 0 512 512" style="enable-background:new 0 0 512 512;" xml:space="preserve">
<path style="fill:#5A4650;" d="M410.898,225.37c3.716-13.902,21.457-26.442,21.457-41.515c0-15.072-17.741-27.612-21.457-41.513
	c-3.844-14.382,5.137-34.09-2.148-46.682c-7.39-12.773-29.017-14.802-39.382-25.168c-10.367-10.367-12.396-31.994-25.168-39.385
	c-12.593-7.286-32.302,1.695-46.685-2.15C283.613,25.241,271.073,7.5,256,7.5c-15.072,0-27.612,17.741-41.513,21.457
	c-14.382,3.844-34.09-5.138-46.682,2.148c-12.773,7.39-14.802,29.017-25.168,39.382c-10.367,10.366-31.994,12.395-39.385,25.168
	c-7.286,12.593,1.695,32.301-2.15,46.684c-3.716,13.902-21.457,26.442-21.457,41.515c0,15.072,17.741,27.612,21.457,41.512
	c3.844,14.382-5.137,34.091,2.148,46.683c7.39,12.772,29.017,14.802,39.382,25.167c10.367,10.367,12.396,31.995,25.168,39.385
	c10.76,6.226,26.717,0.575,40.106,1.197h96.19c13.388-0.62,29.34,5.03,40.099-1.195c12.773-7.39,14.802-29.016,25.168-39.382
	c10.367-10.367,31.994-12.396,39.385-25.169C416.034,259.461,407.053,239.752,410.898,225.37z"/>
<path style="fill:#6E5A64;" d="M432.355,183.855c0-15.072-17.741-27.612-21.457-41.513c-3.844-14.382,5.137-34.09-2.148-46.682
	c-7.39-12.773-29.017-14.802-39.382-25.168c-10.367-10.367-12.396-31.994-25.168-39.385c-12.593-7.286-32.302,1.695-46.685-2.15
	C283.613,25.241,271.073,7.5,256,7.5c-15.072,0-27.612,17.741-41.513,21.457c-8.89,2.376-19.811-0.138-29.833-0.692
	c-0.476,6.384-0.799,12.81-0.799,19.316c0,106.894,65.406,188.259,158.367,226.79c18.301,7.585,39.425,16.981,56.509,6.951
	c4.178-2.453,7.757-5.362,10.017-9.267c7.286-12.593-1.695-32.301,2.15-46.684C414.614,211.468,432.355,198.928,432.355,183.855z"/>
<path style="fill:#DBD9DC;" d="M408.281,412.978l-82.792-29.221c-12.82-4.525-21.393-16.642-21.393-30.237v-25.375h-96.194v25.375
	c0,13.595-8.573,25.712-21.393,30.236l-82.793,29.221c-19.229,6.787-32.089,24.962-32.089,45.354V504.5h368.742v-46.167
	C440.371,437.941,427.511,419.765,408.281,412.978z"/>
<path style="fill:#C9C6CA;" d="M383.528,404.242l-58.039-20.485c-3.214-1.135-6.161-2.749-8.774-4.741L256,407.47l-60.716-28.454
	c-2.613,1.993-5.559,3.607-8.774,4.741l-58.039,20.484c3.949,42.316,28.963,79.937,65.72,100.259h123.616
	C354.566,484.178,379.58,446.557,383.528,404.242z"/>
<path style="fill:#B67F5F;" d="M304.097,353.52v-25.375h-96.194v25.375c0,13.595-8.573,25.712-21.393,30.237L256,416.323
	l69.489-32.566C312.67,379.232,304.097,367.115,304.097,353.52z"/>
<path style="fill:#FFE17D;" d="M325.489,383.757L256,416.323l-69.489-32.566l-34.535,12.189
	c1.95,55.839,47.71,100.538,104.024,100.538s102.074-44.7,104.024-100.538L325.489,383.757z"/>
<path style="fill:#A06E50;" d="M256,368.226c17.034,0,33.296-3.712,48.097-10.257v-29.824h-96.194v29.824
	C222.704,364.514,238.966,368.226,256,368.226z"/>
<path style="fill:#CD916E;" d="M372.234,207.903H360.21v-40.081c0-22.136-46.656-40.081-104.21-40.081s-104.21,17.945-104.21,40.081
	v40.081h-12.024c-11.068,0-20.04,8.972-20.04,20.04c0,11.068,8.972,20.04,20.04,20.04h12.429
	c4.106,53.795,48.958,96.194,103.805,96.194s99.699-42.398,103.805-96.194h12.429c11.068,0,20.04-8.973,20.04-20.04
	C392.274,216.875,383.302,207.903,372.234,207.903z"/>
<path style="fill:#B67F5F;" d="M183.855,239.968v-21.056c0-7.608,5.312-14.121,12.758-15.68
	c37.184-7.789,99.468-27.393,139.548-67.473l-10.922,2.168c-18.418-6.314-42.625-10.184-69.239-10.184
	c-28.027,0-53.416,4.278-72.145,11.2c-19.731,7.293-32.065,17.524-32.065,28.88v40.081h-12.024c-11.068,0-20.04,8.972-20.04,20.04
	c0,11.068,8.972,20.04,20.04,20.04h12.429c4.106,53.795,48.958,96.194,103.805,96.194c5.484,0,10.83-0.534,16.083-1.351
	C222.137,335.119,183.855,292.072,183.855,239.968z"/>
<path style="fill:#5A4650;" d="M143.774,183.855c0,0,104.236-7.817,168.339-56.113H143.774V183.855z"/>
<g>
	<path style="fill:#FFD164;" d="M256,95.677c-57.554,0-104.21,17.945-104.21,40.081v32.065c0-22.136,46.656-40.081,104.21-40.081
		s104.21,17.945,104.21,40.081v-32.065C360.21,113.622,313.554,95.677,256,95.677z"/>
	<path style="fill:#FFD164;" d="M356.796,397.044c0.289-0.649,0.469-1.326,0.706-1.989l-32.012-11.298L256,416.323l-69.489-32.566
		l-32.012,11.298c0.238,0.663,0.417,1.339,0.706,1.989l26.414,59.433c5.142,11.569,16.65,19.045,29.318,19.045
		c7.473,0,14.756-2.64,20.509-7.432L256,447.626l24.553,20.461c5.752,4.793,13.036,7.434,20.51,7.434
		c12.668,0,24.176-7.475,29.318-19.043L356.796,397.044z"/>
</g>
<g>
	<path style="fill:#FFE17D;" d="M205.555,365.878L256,416.323l-39.948,33.29c-4.087,3.406-10.296,1.959-12.457-2.902l-26.415-59.433
		c-0.808-1.819-0.413-3.947,0.994-5.354l16.044-16.044C197.349,362.747,202.425,362.747,205.555,365.878z"/>
	<path style="fill:#FFE17D;" d="M317.781,365.878c-3.13-3.13-8.206-3.13-11.336,0L256,416.323l39.948,33.29
		c4.087,3.406,10.296,1.959,12.457-2.902l26.415-59.433c0.808-1.819,0.413-3.947-0.994-5.354L317.781,365.878z"/>
	<path style="fill:#FFE17D;" d="M151.79,272.032c0,8.854-7.178,16.032-16.032,16.032s-16.032-7.178-16.032-16.032
		c0-16.032,16.032-24.048,16.032-24.048S151.79,256,151.79,272.032z"/>
	<path style="fill:#FFE17D;" d="M392.274,272.032c0,8.854-7.178,16.032-16.032,16.032s-16.032-7.178-16.032-16.032
		c0-16.032,16.032-24.048,16.032-24.048S392.274,256,392.274,272.032z"/>
</g>
<path d="M410.778,405.94l-67.441-23.802c-0.347-1.176-0.967-2.278-1.873-3.184l-18.379-18.379
	c-2.931-2.932-6.827-4.546-10.972-4.546c-0.173,0-0.344,0.02-0.516,0.025v-10.557c2.003,0.163,4.072,0.385,6.198,0.615
	c4.351,0.473,8.763,0.952,13.099,0.952c5.952,0,11.759-0.903,17.058-3.969c9.296-5.379,13.836-15.735,17.841-24.873
	c2.739-6.248,5.325-12.149,8.874-15.697c3.549-3.549,9.45-6.136,15.698-8.874c9.139-4.006,19.496-8.546,24.875-17.843
	c5.299-9.158,4.14-19.833,3.018-30.157c-0.746-6.865-1.45-13.35-0.114-18.346c1.247-4.663,4.992-9.75,8.958-15.136
	c5.978-8.118,12.754-17.32,12.754-28.316s-6.776-20.197-12.754-28.315c-3.965-5.385-7.711-10.472-8.958-15.134
	c-1.335-4.996-0.631-11.479,0.115-18.345c1.122-10.323,2.282-20.998-3.017-30.156c-5.378-9.296-15.735-13.836-24.873-17.841
	c-6.248-2.739-12.149-5.326-15.698-8.874c-3.549-3.549-6.136-9.451-8.874-15.699c-4.005-9.138-8.545-19.495-17.842-24.874
	c-9.157-5.299-19.833-4.14-30.157-3.019c-6.866,0.744-13.35,1.449-18.347,0.114c-4.663-1.247-9.749-4.992-15.134-8.958
	C276.198,6.776,266.997,0,256,0c-10.996,0-20.197,6.776-28.316,12.754c-5.385,3.966-10.471,7.711-15.133,8.957
	c-4.997,1.335-11.48,0.63-18.345-0.115c-10.324-1.12-20.998-2.282-30.157,3.018c-9.296,5.379-13.835,15.735-17.841,24.873
	c-2.739,6.248-5.325,12.149-8.874,15.697c-3.549,3.549-9.451,6.136-15.699,8.875c-9.138,4.005-19.495,8.544-24.874,17.841
	c-5.299,9.158-4.14,19.834-3.018,30.157c0.746,6.865,1.45,13.351,0.114,18.347c-1.247,4.662-4.992,9.749-8.958,15.135
	c-5.979,8.119-12.754,17.32-12.754,28.316s6.776,20.198,12.754,28.316c3.965,5.385,7.711,10.471,8.957,15.133
	c1.335,4.996,0.631,11.48-0.115,18.346c-1.122,10.323-2.282,20.998,3.017,30.156c5.378,9.296,15.735,13.836,24.873,17.841
	c6.248,2.739,12.149,5.326,15.698,8.875c3.548,3.548,6.135,9.45,8.874,15.698c4.005,9.138,8.545,19.495,17.842,24.875
	c9.158,5.298,19.834,4.14,30.158,3.018c2.127-0.231,4.196-0.452,6.201-0.615v10.557c-0.173-0.006-0.343-0.025-0.516-0.025
	c-4.145,0-8.042,1.614-10.972,4.545l-18.38,18.38c-0.906,0.906-1.526,2.008-1.873,3.184l-67.441,23.802
	c-22.187,7.831-37.093,28.899-37.093,52.428V504.5c0,4.143,3.358,7.5,7.5,7.5s7.5-3.357,7.5-7.5v-46.132
	c0-4.992,0.925-9.831,2.626-14.327l37.925,32.508c5.451,4.672,8.578,11.47,8.578,18.65v9.301c0,4.143,3.358,7.5,7.5,7.5
	s7.5-3.357,7.5-7.5v-9.301c0-11.565-5.036-22.515-13.816-30.039l-39.755-34.076c4.423-4.876,10.048-8.712,16.528-10.999
	l38.953-13.748c6.934,55.377,54.127,97.646,110.833,97.646c56.679,0,103.895-42.28,110.831-97.647l38.954,13.748
	c6.479,2.287,12.105,6.123,16.528,10.999l-39.755,34.076c-8.781,7.524-13.817,18.474-13.817,30.039v9.301c0,4.143,3.358,7.5,7.5,7.5
	s7.5-3.357,7.5-7.5v-9.301c0-7.181,3.126-13.979,8.578-18.65l37.925-32.508c1.702,4.496,2.626,9.334,2.626,14.327V504.5
	c0,4.143,3.358,7.5,7.5,7.5s7.5-3.357,7.5-7.5v-46.132C447.871,434.84,432.964,413.771,410.778,405.94z M256,405.715l-40.597-40.596
	V344.04c12.589,4.928,26.282,7.638,40.597,7.638s28.007-2.71,40.597-7.638v21.079L256,405.715z M135.762,256.921
	c3.515,2.723,8.528,7.875,8.528,15.111c0,4.705-3.828,8.532-8.532,8.532c-4.705,0-8.533-3.827-8.533-8.532
	C127.226,264.804,132.247,259.646,135.762,256.921z M159.291,239.968c0-4.143-3.358-7.5-7.5-7.5s-7.5,3.357-7.5,7.5
	c0,0.172,0.006,0.344,0.007,0.516h-4.531c-6.915,0-12.541-5.625-12.541-12.54s5.625-12.54,12.541-12.54h28.573v8.532
	c0,21.815,17.749,39.564,39.564,39.564s39.564-17.749,39.564-39.564v-0.517h17.064v0.517c0,21.815,17.749,39.564,39.564,39.564
	s39.564-17.749,39.564-39.564v-8.532h28.573c6.915,0,12.541,5.625,12.541,12.54s-5.625,12.54-12.541,12.54h-4.531
	c0.001-0.172,0.007-0.343,0.007-0.516c0-4.143-3.358-7.5-7.5-7.5s-7.5,3.357-7.5,7.5c0,53.326-43.384,96.71-96.709,96.71
	S159.291,293.294,159.291,239.968z M159.291,167.822c0-13.604,36.792-32.58,96.709-32.58c9.892,0,19.529,0.535,28.724,1.576
	c-44.824,26.98-104.114,36.169-125.433,38.716V167.822z M159.291,190.666c22.959-2.525,96.913-13.252,147.083-50.263
	c4.016,0.895,7.902,1.896,11.619,3.014c3.962,1.193,8.149-1.054,9.343-5.021s-1.055-8.149-5.021-9.343
	c-19.159-5.765-42.09-8.812-66.314-8.812c-37.231,0-76.071,7.883-96.709,22.852v-7.336c0-13.604,36.792-32.58,96.709-32.58
	s96.709,18.976,96.709,32.58v7.373c-0.002-0.001-0.005-0.004-0.008-0.006c-3.343-2.44-8.037-1.713-10.48,1.63
	c-2.444,3.345-1.714,8.037,1.63,10.481c4.041,2.953,8.858,7.534,8.858,12.586v32.581h-80.677c-4.142,0-7.5,3.357-7.5,7.5v0.516
	h-17.064v-0.516c0-4.143-3.358-7.5-7.5-7.5h-80.677L159.291,190.666L159.291,190.666z M279.532,215.403h17.063v9.228
	c0,4.143,3.358,7.5,7.5,7.5s7.5-3.357,7.5-7.5v-9.228h17.066v8.532c0,13.545-11.02,24.564-24.564,24.564
	s-24.564-11.02-24.564-24.564v-8.532H279.532z M183.339,215.403h17.063v9.228c0,4.143,3.358,7.5,7.5,7.5s7.5-3.357,7.5-7.5v-9.228
	h17.066v8.532c0,13.545-11.02,24.564-24.564,24.564c-13.544,0-24.564-11.02-24.564-24.564v-8.532H183.339z M376.242,280.564
	c-4.705,0-8.532-3.827-8.532-8.532c0-7.225,5.015-12.38,8.53-15.106c3.526,2.733,8.535,7.887,8.535,15.106
	C384.774,276.737,380.947,280.564,376.242,280.564z M352.054,312.202c-3.379,7.71-6.572,14.993-11.615,17.91
	c-4.74,2.745-12.207,2.043-20.179,1.18c16.089-11.355,29.057-26.848,37.343-44.919c1.742,2.259,3.882,4.194,6.317,5.697
	C358.462,297.602,355.202,305.021,352.054,312.202z M109.742,268.294c-2.839-4.907-1.989-12.736-1.088-21.024
	c0.862-7.933,1.753-16.136-0.306-23.839c-1.979-7.4-6.752-13.885-11.37-20.154c-5.057-6.867-9.833-13.353-9.833-19.422
	s4.776-12.556,9.833-19.422c4.617-6.271,9.392-12.755,11.37-20.156c2.059-7.703,1.168-15.906,0.307-23.839
	c-0.9-8.289-1.75-16.118,1.089-21.026c2.918-5.043,10.201-8.235,17.913-11.614c7.245-3.176,14.737-6.46,20.284-12.006
	s8.83-13.038,12.006-20.283c3.38-7.711,6.572-14.994,11.615-17.911c4.908-2.84,12.737-1.988,21.024-1.089
	c7.932,0.862,16.135,1.755,23.839-0.306c7.4-1.978,13.884-6.752,20.154-11.369C243.445,19.776,249.931,15,256,15
	s12.556,4.776,19.423,9.833c6.271,4.617,12.754,9.392,20.155,11.369c7.704,2.059,15.906,1.168,23.84,0.308
	c8.287-0.9,16.116-1.752,21.026,1.09c5.043,2.918,8.236,10.201,11.616,17.912c3.175,7.245,6.459,14.737,12.005,20.283
	c5.546,5.547,13.038,8.831,20.283,12.006c7.71,3.38,14.994,6.572,17.911,11.615c2.839,4.908,1.989,12.736,1.088,21.024
	c-0.862,7.933-1.753,16.135,0.306,23.838c1.979,7.401,6.753,13.885,11.37,20.155c5.057,6.866,9.833,13.353,9.833,19.421
	c0,6.069-4.776,12.556-9.833,19.423c-4.618,6.271-9.393,12.755-11.371,20.156c-2.059,7.703-1.168,15.906-0.307,23.839
	c0.9,8.288,1.75,16.117-1.089,21.025c-0.636,1.1-1.491,2.108-2.502,3.053c-0.213-9.934-4.993-17.33-9.856-22.299
	c6.032-5.056,9.876-12.64,9.876-21.108c0-15.186-12.354-27.54-27.541-27.54h-4.524v-64.646c0-30.904-57.556-47.58-111.709-47.58
	s-111.709,16.676-111.709,47.58v64.646h-4.524c-15.186,0-27.541,12.354-27.541,27.54c0,8.468,3.844,16.052,9.876,21.108
	c-4.863,4.969-9.642,12.365-9.856,22.298C111.234,270.403,110.379,269.395,109.742,268.294z M171.557,330.111
	c-5.043-2.919-8.235-10.202-11.615-17.913c-3.147-7.181-6.407-14.596-11.863-20.127c2.436-1.503,4.576-3.439,6.318-5.698
	c8.286,18.07,21.253,33.563,37.342,44.918C183.765,332.154,176.297,332.852,171.557,330.111z M199.522,371.181
	c0.038-0.037,0.151-0.151,0.365-0.151c0.213,0,0.327,0.114,0.364,0.151c0,0,0,0,0,0.001l44.638,44.637l-33.639,28.032
	c-0.059,0.05-0.193,0.167-0.447,0.106c-0.25-0.059-0.323-0.223-0.354-0.293l-25.664-57.745L199.522,371.181z M159.704,401.207
	l13.365-4.717l23.674,53.266c1.994,4.485,5.878,7.696,10.659,8.811c1.188,0.276,2.383,0.412,3.568,0.412
	c3.579,0,7.053-1.244,9.885-3.604l27.646-23.039v56.358C201.717,485.106,163.997,448.238,159.704,401.207z M263.5,488.693v-56.358
	l27.646,23.039c2.833,2.361,6.306,3.604,9.886,3.604c1.184,0,2.379-0.136,3.567-0.412c4.78-1.114,8.665-4.325,10.659-8.811
	l11.366-25.573c1.682-3.785-0.022-8.217-3.808-9.899c-3.782-1.683-8.217,0.022-9.899,3.808l-11.366,25.573
	c-0.031,0.07-0.104,0.234-0.354,0.293c-0.254,0.061-0.389-0.057-0.448-0.106l-33.639-28.032l44.638-44.638
	c0.038-0.037,0.151-0.151,0.364-0.151c0.214,0,0.327,0.114,0.365,0.152l14.738,14.737l-1.473,3.313
	c-1.682,3.785,0.022,8.218,3.808,9.899c3.385,1.507,7.28,0.296,9.27-2.681l13.475,4.756
	C348.002,448.229,310.263,485.103,263.5,488.693z"/>
<path d="M256,303.581c11.897,0,22.856-3.805,29.316-10.178c2.948-2.909,2.98-7.657,0.071-10.606s-7.658-2.98-10.606-0.071
	c-2.738,2.701-9.299,5.855-18.781,5.855s-16.043-3.154-18.781-5.855c-2.95-2.911-7.698-2.878-10.606,0.071
	c-2.909,2.949-2.877,7.697,0.071,10.606C233.144,299.776,244.103,303.581,256,303.581z"/>
<path d="M296.081,191.354h16.032c4.142,0,7.5-3.357,7.5-7.5s-3.358-7.5-7.5-7.5h-16.032c-4.142,0-7.5,3.357-7.5,7.5
	S291.938,191.354,296.081,191.354z"/>
<g>
</g>
<g>
</g>
<g>
</g>
<g>
</g>
<g>
</g>
<g>
</g>
<g>
</g>
<g>
</g>
<g>
</g>
<g>
</g>
<g>
</g>
<g>
</g>
<g>
</g>
<g>
</g>
<g>
</g>
</svg>
