<?xml version="1.0" encoding="iso-8859-1"?>
<!-- Generator: Adobe Illustrator 19.0.0, SVG Export Plug-In . SVG Version: 6.00 Build 0)  -->
<svg version="1.1" id="Capa_1" xmlns="http://www.w3.org/2000/svg" xmlns:xlink="http://www.w3.org/1999/xlink" x="0px" y="0px"
	 viewBox="0 0 512.002 512.002" style="enable-background:new 0 0 512.002 512.002;" xml:space="preserve">
<path style="fill:#6E5A64;" d="M413.862,366.087l-77.522-22.801L256,416.323l-80.339-73.036l-77.522,22.801
	c-20.469,6.02-34.525,24.806-34.525,46.142v92.27h384.774v-92.271C448.388,390.893,434.331,372.107,413.862,366.087z"/>
<path style="fill:#5A4650;" d="M397.292,230.212L256,207.903l-141.291,22.309c-5.413,0.855-8.392,6.768-5.857,11.626l91.035,174.484
	l-11.715,23.431c-2.656,5.311-2.158,11.656,1.294,16.488l34.47,48.258h64.129l34.47-48.258c3.452-4.832,3.949-11.177,1.294-16.488
	l-11.715-23.431l91.035-174.484C405.684,236.98,402.705,231.067,397.292,230.212z"/>
<path style="fill:#E6646E;" d="M108.045,237.219L256,416.323l147.955-179.104c-0.402-3.402-2.925-6.416-6.664-7.006L256,207.903
	l-141.291,22.309C110.97,230.803,108.447,233.816,108.045,237.219z"/>
<path style="fill:#DBD9DC;" d="M262.181,408.841l59.262-71.738c-5.732-4.46-9.329-11.352-9.329-18.937v-38.119H199.888v38.119
	c0,7.585-3.597,14.476-9.329,18.937l59.262,71.738C253.026,412.722,258.975,412.722,262.181,408.841z"/>
<path style="fill:#C9C6CA;" d="M199.888,305.953c16.841,8.996,35.939,14.176,56.113,14.176s39.272-5.18,56.113-14.176v-25.905
	H199.888V305.953z"/>
<path style="fill:#EDEBED;" d="M372.234,159.806H360.21V63.613H151.791v96.194h-12.024c-11.068,0-20.04,8.972-20.04,20.04
	c0,11.068,8.972,20.04,20.04,20.04h12.429c4.106,53.795,48.958,96.194,103.805,96.194s99.699-42.398,103.805-96.194h12.429
	c11.068,0,20.04-8.973,20.04-20.04C392.275,168.779,383.303,159.806,372.234,159.806z"/>
<g>
	<path style="fill:#DBD9DC;" d="M256.001,239.968L256.001,239.968c-13.282,0-24.048-10.767-24.048-24.048l0,0h48.097l0,0
		C280.049,229.201,269.282,239.968,256.001,239.968z"/>
	<path style="fill:#DBD9DC;" d="M183.855,191.871v-24.854c0-23.153,6.68-45.934,19.896-64.945c0.111-0.16,0.222-0.319,0.334-0.479
		c2.623-3.742,7.771-4.676,11.419-1.924c9.255,6.983,20.335,14.022,31.907,18.465c2.751,1.056,5.639,1.591,8.589,1.591
		c2.949,0,5.838-0.535,8.588-1.591c14.332-5.502,71.574-54.522,71.574-54.522H151.791v96.194h-12.024
		c-11.068,0-20.04,8.972-20.04,20.04c0,11.068,8.972,20.04,20.04,20.04h12.429c4.106,53.795,48.958,96.194,103.805,96.194
		c5.484,0,10.83-0.534,16.083-1.351C222.137,287.022,183.855,243.975,183.855,191.871z"/>
</g>
<path style="fill:#5A4650;" d="M231.952,7.5c-53.126,0-96.194,43.067-96.194,96.194v60.156c3.352-2.525,7.503-4.043,12.024-4.043
	h5.381c3.796,0,7.043-2.641,7.839-6.353c3.189-14.867,13.626-53.015,41.44-84.069c2.881-3.217,7.871-3.399,11.105-0.538
	c8.046,7.119,23.618,19.67,39.61,25.81c1.826,0.701,3.859,0.701,5.685,0c15.992-6.14,31.564-18.69,39.61-25.81
	c3.234-2.862,8.224-2.679,11.105,0.538c27.813,31.054,38.251,69.202,41.44,84.069c0.796,3.712,4.043,6.353,7.839,6.353h5.381
	c4.52,0,8.671,1.518,12.024,4.043v-60.156c0-53.126-43.067-96.194-96.194-96.194C280.047,7.5,231.952,7.5,231.952,7.5z"/>
<g>
	<path style="fill:#FFFFFF;" d="M264.017,215.919l12.648,25.296c1.366,2.731,5.283,2.674,6.568-0.097l12.849-27.705L264.017,215.919
		z"/>
	<path style="fill:#FFFFFF;" d="M235.336,241.216l12.648-25.296l-32.065-2.505l12.849,27.705
		C230.053,243.889,233.971,243.947,235.336,241.216z"/>
</g>
<path d="M207.904,183.339c4.142,0,7.5-3.357,7.5-7.5v-8.017c0-4.143-3.358-7.5-7.5-7.5s-7.5,3.357-7.5,7.5v8.017
	C200.404,179.981,203.762,183.339,207.904,183.339z"/>
<path d="M304.098,160.322c-4.142,0-7.5,3.357-7.5,7.5v8.017c0,4.143,3.358,7.5,7.5,7.5s7.5-3.357,7.5-7.5v-8.017
	C311.598,163.68,308.24,160.322,304.098,160.322z"/>
<path d="M197.516,150.89l24.048,8.016c0.787,0.263,1.586,0.387,2.373,0.387c3.14,0,6.067-1.987,7.114-5.131
	c1.31-3.929-0.814-8.177-4.744-9.486l-24.048-8.016c-3.932-1.312-8.177,0.813-9.487,4.744
	C191.463,145.332,193.586,149.58,197.516,150.89z"/>
<path d="M288.064,159.292c0.786,0,1.586-0.125,2.373-0.387l24.049-8.016c3.93-1.31,6.053-5.558,4.744-9.486
	c-1.31-3.931-5.559-6.052-9.487-4.744l-24.049,8.016c-3.93,1.31-6.053,5.558-4.744,9.486
	C281.998,157.305,284.923,159.292,288.064,159.292z"/>
<path d="M256,440.887c-4.142,0-7.5,3.357-7.5,7.5V504.5c0,4.143,3.358,7.5,7.5,7.5s7.5-3.357,7.5-7.5v-56.113
	C263.5,444.244,260.143,440.887,256,440.887z"/>
<path d="M416.874,358.537l-56.879-17.775l49.849-95.543c2.292-4.393,2.341-9.663,0.13-14.098c-2.21-4.436-6.448-7.569-11.336-8.384
	l-33.811-5.635c0.74-3.189,1.345-6.429,1.804-9.716h4.458c14.618,0,27.155-10.861,28.544-24.727
	c0.778-7.771-1.764-15.53-6.974-21.288c-2.521-2.786-5.568-4.991-8.917-6.533v-51.146C383.742,46.517,337.226,0,280.049,0h-48.097
	c-57.177,0-103.693,46.517-103.693,103.693v51.48c-8.63,4.115-14.929,12.266-15.89,21.858c-0.779,7.771,1.762,15.53,6.972,21.288
	c5.213,5.763,12.658,9.067,20.426,9.067h5.598c0.459,3.287,1.064,6.527,1.803,9.716l-33.806,5.634
	c-4.888,0.814-9.125,3.948-11.335,8.384c-2.21,4.435-2.162,9.705,0.13,14.099l49.849,95.542l-56.878,17.775
	c-23.335,7.291-39.014,28.617-39.014,53.065V504.5c0,4.143,3.358,7.5,7.5,7.5s7.5-3.357,7.5-7.5v-92.897
	c0-5.4,1.054-10.588,2.986-15.35l37.565,32.198c5.451,4.673,8.578,11.471,8.578,18.651V504.5c0,4.143,3.358,7.5,7.5,7.5
	c4.142,0,7.5-3.357,7.5-7.5v-57.397c0-11.564-5.036-22.514-13.816-30.04l-39.104-33.517c4.636-4.845,10.514-8.578,17.279-10.692
	l59.453-18.58l32.411,62.121L181.464,436.4c-3.908,7.816-3.181,17.09,1.898,24.202l34.47,48.258c1.464,2.05,3.769,3.142,6.109,3.142
	c1.509,0,3.032-0.454,4.353-1.398c3.371-2.407,4.151-7.091,1.744-10.462l-34.47-48.258c-1.841-2.578-2.105-5.94-0.688-8.775
	l11.715-23.432c1.076-2.151,1.054-4.689-0.059-6.823L143.332,291.71l106.887,129.389c1.425,1.725,3.545,2.724,5.782,2.724
	c2.237,0,4.357-0.999,5.782-2.724l106.886-129.387l-63.204,121.141c-1.113,2.134-1.135,4.672-0.059,6.823l11.715,23.433
	c1.417,2.834,1.153,6.196-0.688,8.774l-34.47,48.258c-2.408,3.371-1.627,8.055,1.744,10.462c1.321,0.944,2.844,1.398,4.353,1.398
	c2.34,0,4.646-1.093,6.109-3.142l34.471-48.258c5.079-7.112,5.806-16.386,1.898-24.201l-10.002-20.006l32.411-62.121l59.454,18.58
	c6.764,2.114,12.643,5.847,17.278,10.692l-39.104,33.517c-8.78,7.526-13.816,18.476-13.816,30.04V504.5c0,4.143,3.358,7.5,7.5,7.5
	s7.5-3.357,7.5-7.5v-57.397c0-7.181,3.126-13.979,8.578-18.651l37.565-32.198c1.933,4.762,2.986,9.95,2.986,15.35V504.5
	c0,4.143,3.358,7.5,7.5,7.5s7.5-3.357,7.5-7.5v-92.897C455.888,387.154,440.209,365.828,416.874,358.537z M394.236,237.209
	l-74.622,90.332V283.64c18.35-12.762,32.711-30.879,40.799-52.068L394.236,237.209z M144.292,191.871v0.516h-4.524
	c-3.537,0-6.928-1.506-9.303-4.131c-2.407-2.659-3.532-6.114-3.17-9.729c0.63-6.292,6.612-11.221,13.618-11.221h12.251
	c7.382,0,13.622-5.052,15.174-12.285c2.237-10.429,7.813-31.173,20.033-52.924c2.028-3.611,0.746-8.184-2.866-10.213
	c-3.612-2.028-8.184-0.747-10.212,2.865c-13.188,23.476-19.207,45.868-21.621,57.126c-0.056,0.262-0.255,0.431-0.508,0.431h-9.905
	v-48.613c0-48.905,39.788-88.693,88.693-88.693h48.097c48.906,0,88.693,39.788,88.693,88.693v48.613h-9.905
	c-0.252,0-0.452-0.169-0.508-0.431c-3.664-17.085-15.768-60.405-48.929-93.566c-2.927-2.925-7.674-2.926-10.604-0.002
	c-0.221,0.22-21.514,21.311-42.796,29.408c-21.283-8.098-42.576-29.188-42.793-29.406c-2.928-2.927-7.677-2.929-10.606,0
	c-2.894,2.893-5.73,5.971-8.431,9.149c-2.682,3.156-2.298,7.89,0.859,10.571c3.155,2.682,7.888,2.299,10.572-0.858
	c0.862-1.015,1.739-2.018,2.628-3.006c8.856,7.884,26.896,22.459,45.399,28.627c1.54,0.514,3.204,0.514,4.744,0
	c18.503-6.168,36.544-20.744,45.4-28.628c26.597,29.545,36.697,65.968,39.891,80.857c1.552,7.232,7.792,12.284,15.174,12.284h13.397
	c3.537,0,6.927,1.506,9.302,4.13c2.407,2.66,3.533,6.115,3.171,9.729c-0.63,6.292-6.612,11.221-13.618,11.221h-3.383v-0.438
	c0-4.141-3.356-7.498-7.497-7.5c-0.001,0-0.002,0-0.003,0c-4.14,0-7.497,3.354-7.5,7.494c-0.039,53.287-43.421,96.639-96.706,96.639
	c-53.326,0-96.709-43.384-96.709-96.71c0-4.143-3.358-7.5-7.5-7.5S144.292,187.729,144.292,191.871z M192.388,283.651v43.891
	l-74.622-90.331l33.816-5.636C159.668,252.77,174.032,270.889,192.388,283.651z M256,404.546l-48.613-58.847v-53.265
	c14.705,7.137,31.199,11.147,48.613,11.147c17.412,0,33.906-4.012,48.612-11.153v53.271L256,404.546z"/>
<path d="M200.606,208.978c-0.957,4.03,1.535,8.072,5.565,9.028c1.315,0.312,2.669,0.595,4.019,0.881l14.958,32.252
	c1.212,2.613,3.813,4.302,6.693,4.344c0.037,0.001,0.074,0.001,0.111,0.001c2.837,0,5.436-1.603,6.708-4.146l13.982-27.963
	c1.12,0.015,2.235,0.044,3.359,0.044s2.239-0.029,3.359-0.044l13.982,27.963c1.271,2.543,3.87,4.146,6.708,4.146
	c0.037,0,0.074,0,0.111-0.001c2.88-0.042,5.481-1.73,6.693-4.344l14.958-32.252c1.35-0.286,2.704-0.569,4.019-0.881
	c4.03-0.956,6.522-4.998,5.565-9.028s-4.997-6.526-9.029-5.565c-13.803,3.275-29.836,5.007-46.365,5.007s-32.562-1.731-46.365-5.007
	C205.604,202.453,201.563,204.947,200.606,208.978z M279.795,230.705l-4.04-8.08c2.761-0.224,5.478-0.511,8.171-0.828
	L279.795,230.705z M232.206,230.705l-4.131-8.908c2.693,0.317,5.41,0.604,8.171,0.828L232.206,230.705z"/>
<g>
</g>
<g>
</g>
<g>
</g>
<g>
</g>
<g>
</g>
<g>
</g>
<g>
</g>
<g>
</g>
<g>
</g>
<g>
</g>
<g>
</g>
<g>
</g>
<g>
</g>
<g>
</g>
<g>
</g>
</svg>
