<?xml version="1.0" encoding="iso-8859-1"?>
<!-- Generator: Adobe Illustrator 19.0.0, SVG Export Plug-In . SVG Version: 6.00 Build 0)  -->
<svg version="1.1" id="Capa_1" xmlns="http://www.w3.org/2000/svg" xmlns:xlink="http://www.w3.org/1999/xlink" x="0px" y="0px"
	 viewBox="0 0 512.001 512.001" style="enable-background:new 0 0 512.001 512.001;" xml:space="preserve">
<g>
	<path style="fill:#A06E50;" d="M182.615,280.797c-3.095-9.705-12.077-16.781-22.808-16.781c-13.282,0-24.048,10.767-24.048,24.048
		c0,7.365,3.382,13.875,8.597,18.286c-0.342,1.875-0.581,3.788-0.581,5.762c0,17.708,14.356,32.065,32.065,32.065
		s32.065-14.356,32.065-32.065C207.903,296.733,197.063,283.911,182.615,280.797z"/>
	<path style="fill:#A06E50;" d="M329.385,280.797c3.095-9.705,12.077-16.781,22.808-16.781c13.282,0,24.048,10.767,24.048,24.048
		c0,7.365-3.382,13.875-8.597,18.286c0.341,1.875,0.581,3.788,0.581,5.762c0,17.708-14.356,32.065-32.065,32.065
		c-17.709,0-32.065-14.356-32.065-32.065C304.097,296.733,314.937,283.911,329.385,280.797z"/>
</g>
<path style="fill:#D29B6E;" d="M408.282,413.013l-82.792-29.221c-12.82-4.525-12.708-16.642-12.708-30.237v-41.443H199.218v41.443
	c0,13.595,0.112,25.712-12.708,30.237l-82.792,29.221c-19.229,6.787-32.089,24.962-32.089,45.354V504.5h368.742v-46.132
	C440.371,437.976,427.512,419.8,408.282,413.013z"/>
<path style="fill:#EDEBED;" d="M408.282,413.013l-82.792-29.221c-8.323-2.938-14.804-9.101-18.363-16.765
	c-13.878,5.753-31.692,9.215-51.127,9.215s-37.25-3.462-51.127-9.215c-3.559,7.664-10.039,13.828-18.363,16.765l-82.792,29.221
	c-19.23,6.787-32.089,24.962-32.089,45.355V504.5h368.742v-46.132C440.371,437.976,427.512,419.8,408.282,413.013z"/>
<path style="fill:#F5B97D;" d="M372.234,207.903H360.21v-32.065H151.79v32.065h-12.024c-11.068,0-20.04,8.972-20.04,20.04
	s8.972,20.04,20.04,20.04h12.429c4.106,53.795,48.958,96.194,103.805,96.194s99.699-42.398,103.805-96.194h12.429
	c11.068,0,20.04-8.973,20.04-20.04C392.274,216.875,383.302,207.903,372.234,207.903z"/>
<path style="fill:#E3AA75;" d="M328.145,183.855v-8.016H151.79v32.065h-10.881c-11.753,0-20.035,7.542-21.08,17.973
	c-1.201,11.996,8.186,22.108,19.937,22.108h12.429c4.106,53.795,48.957,96.194,103.805,96.194c5.483,0,10.83-0.534,16.083-1.351
	c-49.946-7.708-88.228-50.754-88.228-102.859v-8.016c0-17.709,14.356-32.065,32.065-32.065h96.194
	C320.967,199.887,328.145,192.709,328.145,183.855z"/>
<g>
	<path style="fill:#A06E50;" d="M146.792,210.563l-11.033,1.395v-36.12h32.065v10.866
		C167.823,198.82,158.811,209.043,146.792,210.563z"/>
	<path style="fill:#A06E50;" d="M365.208,210.563l11.034,1.395v-36.12h-32.065v10.866
		C344.177,198.82,353.189,209.043,365.208,210.563z"/>
</g>
<path style="fill:#EDEBED;" d="M400.29,71.629c0-22.136-17.944-40.081-40.081-40.081H319.9C310.638,17.1,294.476,7.5,276.04,7.5
	h-40.08c-18.436,0-34.598,9.6-43.86,24.048h-40.31c-22.136,0-40.081,17.945-40.081,40.081c0,16.427,9.905,30.507,24.048,36.697
	v67.513h240.484v-67.513C390.386,102.136,400.29,88.056,400.29,71.629z"/>
<g>
	<path style="fill:#DBD9DC;" d="M135.758,175.839h32.065v-48.097c0-8.854-7.178-16.032-16.032-16.032h-16.032v64.129H135.758z"/>
	<path style="fill:#DBD9DC;" d="M325.489,383.792c-8.323-2.938-14.803-9.101-18.362-16.765c-13.878,5.753-31.692,9.215-51.127,9.215
		s-37.25-3.462-51.127-9.215c-3.559,7.664-10.039,13.828-18.362,16.765l-16.049,5.664c15.955,20.697,48.231,34.882,85.538,34.882
		c11.551,0,22.52-1.498,32.771-3.99l17.25-5.421c15.057-6.147,27.409-14.953,35.518-25.471L325.489,383.792z"/>
</g>
<path d="M256,295.564c11.897,0,22.856-3.805,29.315-10.177c2.949-2.908,2.981-7.657,0.072-10.605
	c-2.908-2.951-7.657-2.981-10.605-0.072c-2.738,2.7-9.3,5.854-18.782,5.854c-9.482,0-16.043-3.154-18.781-5.854
	c-2.949-2.911-7.698-2.878-10.606,0.071c-2.909,2.949-2.877,7.697,0.071,10.606C233.144,291.76,244.103,295.564,256,295.564z"/>
<path d="M207.903,231.436c4.142,0,7.5-3.357,7.5-7.5v-8.017c0-4.143-3.358-7.5-7.5-7.5s-7.5,3.357-7.5,7.5v8.017
	C200.403,228.078,203.761,231.436,207.903,231.436z"/>
<path d="M304.097,231.436c4.143,0,7.5-3.357,7.5-7.5v-8.017c0-4.143-3.357-7.5-7.5-7.5s-7.5,3.357-7.5,7.5v8.017
	C296.597,228.078,299.954,231.436,304.097,231.436z"/>
<path d="M410.778,405.94l-85.473-30.166c-3.404-1.202-5.692-4.436-5.692-8.046V348.04c5.135,2.366,10.771,3.637,16.547,3.637
	c21.816,0,39.565-17.749,39.565-39.564c0-0.993-0.045-1.995-0.138-3.034c5.225-5.774,8.153-13.23,8.153-21.015
	c0-12.219-7.005-23.149-17.776-28.368c0.25-1.395,0.465-2.801,0.662-4.213h5.607c15.186,0,27.54-12.354,27.54-27.54
	c0-11.079-6.579-20.644-16.032-25.011v-89.975c14.349-8.203,24.048-23.649,24.048-41.328c0-26.235-21.345-47.58-47.58-47.58h-36.321
	C312.943,9.246,295.452,0,276.04,0h-40.081c-19.412,0-36.903,9.246-47.848,24.049H151.79c-26.236,0-47.581,21.345-47.581,47.58
	c0,17.679,9.699,33.126,24.049,41.329v89.975c-9.454,4.367-16.033,13.932-16.033,25.011c0,15.186,12.354,27.54,27.541,27.54h5.607
	c0.197,1.412,0.412,2.818,0.662,4.213c-10.771,5.219-17.776,16.147-17.776,28.368c0,7.783,2.93,15.24,8.153,21.015
	c-0.092,1.04-0.137,2.041-0.137,3.034c0,21.815,17.749,39.564,39.564,39.564c5.776,0,11.412-1.272,16.548-3.637v19.688
	c0,3.61-2.288,6.844-5.693,8.046l-85.472,30.166c-22.187,7.83-37.093,28.899-37.093,52.427V504.5c0,4.143,3.358,7.5,7.5,7.5
	s7.5-3.357,7.5-7.5v-46.133c0-4.992,0.925-9.83,2.626-14.326l37.925,32.508c5.451,4.672,8.578,11.47,8.578,18.65v9.301
	c0,4.143,3.358,7.5,7.5,7.5s7.5-3.357,7.5-7.5v-9.301c0-11.565-5.036-22.515-13.816-30.039l-39.755-34.076
	c4.423-4.876,10.048-8.712,16.528-10.999l61.794-21.809c16.227,20.523,50.058,33.563,88.038,33.563
	c14.047,0,27.554-1.808,39.825-5.12l1.547,1.547c4.64,4.641,7.195,10.81,7.195,17.371V504.5c0,4.143,3.357,7.5,7.5,7.5
	s7.5-3.357,7.5-7.5v-58.863c0-8.865-2.906-17.279-8.251-24.175c13.796-5.744,25.152-13.652,32.692-23.164l61.732,21.787
	c6.479,2.287,12.104,6.123,16.527,10.999l-39.753,34.076c-8.781,7.525-13.817,18.475-13.817,30.04v9.301c0,4.143,3.357,7.5,7.5,7.5
	s7.5-3.357,7.5-7.5V495.2c0-7.181,3.126-13.979,8.578-18.65l37.924-32.508c1.702,4.496,2.626,9.334,2.626,14.326V504.5
	c0,4.143,3.357,7.5,7.5,7.5s7.5-3.357,7.5-7.5v-46.133C447.871,434.84,432.965,413.771,410.778,405.94z M368.741,288.064
	c0,4.789-2.165,9.366-5.94,12.56c-2.049,1.733-3.016,4.431-2.535,7.071c0.313,1.721,0.46,3.125,0.46,4.418
	c0,13.545-11.02,24.564-24.565,24.564c-5.725,0-11.234-2.003-15.601-5.592c19.277-13.698,34.033-33.355,41.575-56.259
	C366.217,277.892,368.741,282.747,368.741,288.064z M351.678,183.339h17.064v17.064h-0.489c-4.424,0-8.586-1.723-11.719-4.851
	c-3.132-3.126-4.856-7.28-4.856-11.697V183.339z M151.79,119.21c4.142,0,7.5-3.357,7.5-7.5s-3.358-7.5-7.5-7.5
	c-17.965,0-32.581-14.616-32.581-32.581s14.616-32.58,32.581-32.58h28.264c-0.804,2.205-1.495,4.472-2.047,6.806
	c-0.954,4.03,1.541,8.071,5.571,9.025c0.581,0.137,1.162,0.203,1.733,0.203c3.397-0.001,6.476-2.325,7.292-5.775
	C197.383,29.108,215.212,15,235.959,15h40.081c20.748,0,38.577,14.108,43.356,34.309c0.954,4.031,4.996,6.522,9.026,5.571
	c4.03-0.954,6.524-4.995,5.571-9.026c-0.552-2.333-1.243-4.6-2.047-6.805h28.263c17.965,0,32.58,14.615,32.58,32.58
	s-14.615,32.581-32.58,32.581c-4.143,0-7.5,3.357-7.5,7.5s3.357,7.5,7.5,7.5c2.914,0,5.762-0.277,8.532-0.781v17.846h-24.566
	c-4.143,0-7.5,3.357-7.5,7.5s3.357,7.5,7.5,7.5h24.566v17.064H143.258v-17.064h168.851c4.143,0,7.5-3.357,7.5-7.5
	s-3.357-7.5-7.5-7.5H143.258v-17.846C146.029,118.933,148.877,119.21,151.79,119.21z M160.323,183.339v0.517
	c0,4.417-1.725,8.571-4.856,11.697c-3.133,3.128-7.294,4.851-11.719,4.851h-0.001h-0.488V183.34h17.064V183.339z M139.766,240.483
	c-6.915,0-12.541-5.625-12.541-12.54s5.625-12.54,12.541-12.54h3.98c0.001,0,0.001,0,0.002,0c8.425,0,16.351-3.28,22.316-9.235
	c5.97-5.961,9.258-13.885,9.258-22.313v-0.517h161.355v0.517c0,8.428,3.288,16.352,9.258,22.313
	c5.966,5.956,13.893,9.236,22.318,9.235h3.98c6.915,0,12.54,5.625,12.54,12.54s-5.625,12.54-12.54,12.54h-4.531
	c0.001-0.172,0.007-0.343,0.007-0.516c0-4.143-3.357-7.5-7.5-7.5s-7.5,3.357-7.5,7.5c0,53.326-43.384,96.71-96.71,96.71
	s-96.709-43.384-96.709-96.71c0-4.143-3.358-7.5-7.5-7.5s-7.5,3.357-7.5,7.5c0,0.172,0.006,0.344,0.007,0.516L139.766,240.483
	L139.766,240.483z M151.275,312.113c0-1.293,0.146-2.697,0.459-4.42c0.48-2.641-0.486-5.336-2.535-7.068
	c-3.775-3.194-5.94-7.772-5.94-12.561c0-5.317,2.525-10.173,6.608-13.238c7.542,22.904,22.298,42.561,41.574,56.259
	c-4.368,3.589-9.876,5.592-15.602,5.592C162.294,336.678,151.275,325.658,151.275,312.113z M256.046,416.839
	c-30.406,0-58.226-9.378-72.785-23.946l8.426-2.974c7.057-2.491,12.372-8.146,14.579-15.029c2.47,0.911,4.958,1.766,7.46,2.535
	c0.734,0.225,1.475,0.332,2.205,0.332c3.208,0,6.176-2.074,7.167-5.3c1.216-3.96-1.008-8.155-4.967-9.372
	c-3.62-1.111-7.215-2.405-10.743-3.844v-18.708c14.705,7.137,31.199,11.145,48.613,11.145s33.908-4.008,48.613-11.145v18.709
	c-15.416,6.3-31.744,9.5-48.613,9.5c-2.526,0-5.079-0.074-7.587-0.22c-4.125-0.246-7.681,2.917-7.922,7.052
	c-0.24,4.136,2.917,7.683,7.052,7.923c2.797,0.163,5.643,0.245,8.458,0.245c17.181,0,33.864-2.978,49.737-8.844
	c2.208,6.879,7.523,12.531,14.577,15.021l8.48,2.993C314.202,407.452,286.309,416.839,256.046,416.839z"/>
<g>
</g>
<g>
</g>
<g>
</g>
<g>
</g>
<g>
</g>
<g>
</g>
<g>
</g>
<g>
</g>
<g>
</g>
<g>
</g>
<g>
</g>
<g>
</g>
<g>
</g>
<g>
</g>
<g>
</g>
</svg>
