<?xml version="1.0" encoding="iso-8859-1"?>
<!-- Generator: Adobe Illustrator 19.0.0, SVG Export Plug-In . SVG Version: 6.00 Build 0)  -->
<svg version="1.1" id="Capa_1" xmlns="http://www.w3.org/2000/svg" xmlns:xlink="http://www.w3.org/1999/xlink" x="0px" y="0px"
	 viewBox="0 0 512 512" style="enable-background:new 0 0 512 512;" xml:space="preserve">
<path style="fill:#DC4655;" d="M256,7.5c-54.57,0-100.183,34.223-112.225,80.161h224.451C356.183,41.723,310.57,7.5,256,7.5z"/>
<path style="fill:#8C5F4B;" d="M401.995,318.767c-11.284-17.138-10.427-27.978-10.868-47.131
	c-0.836-36.419-16.3-38.026-20.897-63.734H141.77c-4.598,25.707-20.062,27.314-20.898,63.734
	c-0.44,19.153,0.418,29.992-10.867,47.131c-17.015,25.84-4.634,46.452-4.634,46.452h301.258
	C406.629,365.219,419.009,344.607,401.995,318.767z"/>
<path style="fill:#A5CDFF;" d="M413.861,366.086l-125.797-37.942h-64.129L98.139,366.086c-20.469,6.02-34.525,24.806-34.525,46.143
	v92.27h384.773v-92.27C448.387,390.893,434.331,372.107,413.861,366.086z"/>
<path style="fill:#8CB4EB;" d="M363.807,350.99l-75.743-22.845h-64.129l-75.743,22.845c13.739,47.911,58.051,81.364,107.807,81.364
	S350.069,398.901,363.807,350.99z"/>
<g>
	<polygon style="fill:#E6646E;" points="135.758,504.499 175.839,504.499 175.839,342.651 135.758,354.74 	"/>
	<polygon style="fill:#E6646E;" points="376.242,504.499 336.161,504.499 336.161,342.651 376.242,354.74 	"/>
</g>
<path style="fill:#F5B97D;" d="M372.234,175.838H360.21v-56.113H151.791v56.113h-12.024c-11.068,0-20.04,8.972-20.04,20.04
	s8.972,20.04,20.04,20.04h12.429c4.106,53.795,48.958,96.193,103.804,96.193s99.698-42.398,103.804-96.193h12.429
	c11.068,0,20.04-8.973,20.04-20.04C392.274,184.81,383.302,175.838,372.234,175.838z"/>
<path style="fill:#E3AA75;" d="M151.791,119.726v56.113h-12.024c-11.068,0-20.04,8.972-20.04,20.04
	c0,11.068,8.972,20.04,20.04,20.04h12.429c2.006,26.285,13.786,49.803,31.659,67.029v-83.061c0-22.136,17.944-40.081,40.081-40.081
	H360.21v-40.081L151.791,119.726L151.791,119.726z"/>
<g>
	<path style="fill:#A06E50;" d="M153.756,177.576l-17.998,2.223v-44.041h32.064v25.907
		C167.823,169.759,161.789,176.584,153.756,177.576z"/>
	<path style="fill:#A06E50;" d="M358.244,177.576l17.998,2.223v-44.041h-32.064v25.907
		C344.177,169.759,350.211,176.584,358.244,177.576z"/>
</g>
<g>
	<path style="fill:#E6646E;" d="M376.242,135.758H135.758c-4.427,0-8.016-3.589-8.016-8.016V95.677c0-4.427,3.589-8.016,8.016-8.016
		h240.483c4.427,0,8.016,3.589,8.016,8.016v32.064C384.258,132.169,380.669,135.758,376.242,135.758z"/>
	<path style="fill:#E6646E;" d="M251.612,7.574c-0.117,0.038-0.231,0.074-0.348,0.112C241.08,14.5,232.151,23.21,224.936,33.351
		c-11.413,16.041-0.248,38.278,19.439,38.278h118.059C344.518,32.848,301.487,5.903,251.612,7.574z"/>
</g>
<g>
	<path style="fill:#8CB4EB;" d="M135.758,432.354L135.758,432.354v72.145H111.71v-48.097
		C111.71,443.121,122.477,432.354,135.758,432.354z"/>
	<path style="fill:#8CB4EB;" d="M376.242,432.354L376.242,432.354v72.145h24.048v-48.097
		C400.29,443.121,389.523,432.354,376.242,432.354z"/>
</g>
<g>
	<path style="fill:#DC4655;" d="M175.839,342.651l-6.959,2.099l-20.687,6.24c5.234,18.253,14.926,34.385,27.646,47.391V342.651z"/>
	<path style="fill:#DC4655;" d="M336.161,342.651l6.959,2.099l20.687,6.24c-5.234,18.253-14.926,34.385-27.646,47.391
		L336.161,342.651L336.161,342.651z"/>
</g>
<path style="fill:#A06E50;" d="M320.129,223.935H191.871c-13.282,0-24.048,10.767-24.048,24.048v72.145
	c0,48.699,39.478,88.177,88.177,88.177l0,0c48.699,0,88.177-39.478,88.177-88.177v-72.145
	C344.177,234.702,333.41,223.935,320.129,223.935z"/>
<path style="fill:#8C5F4B;" d="M296.081,392.273c-48.699,0-88.177-39.478-88.177-88.177v-80.161h-16.032
	c-13.282,0-24.048,10.767-24.048,24.048v72.145c0,48.699,39.478,88.177,88.177,88.177c19.362,0,37.208-6.314,51.753-16.893
	C303.924,391.921,300.048,392.273,296.081,392.273z"/>
<path d="M207.903,176.354c-4.143,0-7.5,3.358-7.5,7.5v8.016c0,4.142,3.357,7.5,7.5,7.5s7.5-3.358,7.5-7.5v-8.016
	C215.403,179.712,212.046,176.354,207.903,176.354z"/>
<path d="M304.097,176.354c-4.143,0-7.5,3.358-7.5,7.5v8.016c0,4.142,3.357,7.5,7.5,7.5s7.5-3.358,7.5-7.5v-8.016
	C311.597,179.712,308.239,176.354,304.097,176.354z"/>
<path d="M274.78,250.661c-2.737,2.701-9.298,5.854-18.78,5.854c-9.482,0-16.043-3.154-18.78-5.854
	c-2.946-2.909-7.695-2.879-10.606,0.071c-2.909,2.948-2.877,7.697,0.071,10.606c6.458,6.373,17.417,10.178,29.315,10.178
	c11.898,0,22.857-3.805,29.315-10.178c2.948-2.909,2.98-7.658,0.071-10.606C282.476,247.781,277.727,247.752,274.78,250.661z"/>
<path d="M416.268,358.983c3.006-8.937,5.097-25.087-8.195-43.474c-8.925-12.347-9.067-19.676-9.352-34.279
	c-0.027-1.429-0.057-2.908-0.095-4.444c-0.541-21.448-6.906-31.407-12.521-40.194c-2.906-4.548-5.497-8.613-7.269-14.216
	c11.079-3.029,19.663-12.351,20.797-23.684c0.778-7.771-1.764-15.53-6.974-21.288c-2.522-2.787-5.568-4.992-8.918-6.534v-29.556
	c4.775-2.649,8.017-7.738,8.017-13.574V95.677c0-8.556-6.961-15.516-15.517-15.516h-2.423c-7.103-21.89-21.612-41.571-41.358-55.88
	C310.542,8.396,284.103,0,256,0s-54.542,8.396-76.461,24.281c-19.746,14.309-34.254,33.991-41.358,55.88h-2.423
	c-8.556,0-15.517,6.96-15.517,15.516v32.064c0,5.836,3.242,10.925,8.017,13.574v29.889c-8.631,4.115-14.93,12.266-15.892,21.859
	c-0.778,7.771,1.764,15.531,6.975,21.289c3.691,4.08,8.504,6.92,13.755,8.235c-1.77,5.494-4.331,9.515-7.201,14.005
	c-5.615,8.787-11.98,18.746-12.521,40.194c-0.038,1.537-0.067,3.015-0.095,4.444c-0.284,14.603-0.427,21.932-9.352,34.279
	c-13.292,18.387-11.202,34.537-8.195,43.474c-23.342,7.007-39.619,28.854-39.619,53.246v92.27c0,4.142,3.357,7.5,7.5,7.5
	c4.143,0,7.5-3.358,7.5-7.5v-92.27c0-17.885,11.983-33.901,29.142-38.947l28.004-8.236v139.453c0,4.142,3.357,7.5,7.5,7.5
	s7.5-3.358,7.5-7.5V360.634l23.192-6.821c0.59,1.563,1.22,3.106,1.888,4.629v146.057c0,4.142,3.357,7.5,7.5,7.5s7.5-3.358,7.5-7.5
	V382.301c17.562,20.495,43.619,33.505,72.661,33.505c40.906,0,75.893-25.807,89.549-61.993l23.19,6.821V504.5
	c0,4.142,3.357,7.5,7.5,7.5s7.5-3.358,7.5-7.5V365.045l28.006,8.237c17.158,5.046,29.142,21.062,29.142,38.947v92.27
	c0,4.142,3.357,7.5,7.5,7.5s7.5-3.358,7.5-7.5v-92.27C455.887,387.837,439.609,365.99,416.268,358.983z M351.677,143.258h17.064
	v25.081h-8.532c-4.705,0-8.532-3.828-8.532-8.532L351.677,143.258L351.677,143.258z M135.242,95.677
	c0-0.285,0.231-0.516,0.517-0.516h176.354c4.143,0,7.5-3.358,7.5-7.5s-3.357-7.5-7.5-7.5H154.097
	c6.589-17.027,18.483-32.313,34.243-43.735C207.684,22.409,231.08,15,256,15s48.316,7.409,67.659,21.427
	c15.76,11.421,27.655,26.708,34.243,43.735h-13.728c-4.143,0-7.5,3.358-7.5,7.5s3.357,7.5,7.5,7.5h32.066
	c0.285,0,0.517,0.231,0.517,0.516v32.064c0,0.285-0.231,0.516-0.517,0.516H135.759c-0.285,0-0.517-0.231-0.517-0.516V95.677z
	 M160.323,143.258v16.548c0,4.705-3.827,8.532-8.532,8.532h-8.532v-25.08H160.323z M127.293,194.559
	c0.63-6.292,6.611-11.22,13.617-11.22h10.881c12.976,0,23.532-10.557,23.532-23.532v-16.548h161.354v16.548
	c0,12.976,10.557,23.532,23.532,23.532h12.024c3.537,0,6.928,1.506,9.304,4.131c2.406,2.659,3.532,6.115,3.17,9.729
	c-0.63,6.292-6.61,11.221-13.616,11.221h-3.386v-0.439c0-4.141-3.356-7.499-7.497-7.5c-0.001,0-0.002,0-0.003,0
	c-4.14,0-7.497,3.354-7.5,7.495c-0.006,9.205-1.315,18.285-3.848,26.997c-4.966-10.92-15.971-18.536-28.728-18.536H191.871
	c-12.759,0-23.765,7.618-28.73,18.541c-2.541-8.735-3.85-17.841-3.85-27.073c0-4.142-3.357-7.5-7.5-7.5s-7.5,3.358-7.5,7.5v0.516
	h-4.524c-3.536,0-6.928-1.506-9.303-4.131C128.057,201.628,126.931,198.173,127.293,194.559z M110.087,354.754
	c-1.943-5.366-3.929-16.727,5.997-30.457c11.675-16.15,11.892-27.318,12.192-42.775c0.027-1.401,0.056-2.851,0.094-4.358
	c0.435-17.27,4.943-24.325,10.165-32.495c2.692-4.213,5.629-8.812,7.918-14.856c2.51,12.602,7.184,24.695,13.87,35.766v54.549
	c0,6.601,0.672,13.048,1.951,19.277L110.087,354.754z M256,400.805c-44.485,0-80.677-36.192-80.677-80.677v-72.145
	c0-9.125,7.424-16.548,16.548-16.548h128.258c9.124,0,16.548,7.423,16.548,16.548v72.145
	C336.677,364.614,300.485,400.805,256,400.805z M351.677,320.128v-54.553c6.685-11.071,11.358-23.165,13.868-35.768
	c2.289,6.048,5.227,10.648,7.92,14.863c5.222,8.169,9.73,15.225,10.165,32.495c0.038,1.507,0.066,2.957,0.094,4.358
	c0.301,15.457,0.518,26.625,12.192,42.775c9.888,13.678,7.911,25.064,5.978,30.452l-52.169-15.344
	C351.005,333.177,351.677,326.73,351.677,320.128z"/>
<path d="M336.161,400.808c-4.143,0-7.5,3.358-7.5,7.5v96.191c0,4.142,3.357,7.5,7.5,7.5s7.5-3.358,7.5-7.5v-96.191
	C343.661,404.166,340.304,400.808,336.161,400.808z"/>
<path d="M199.883,171.65c0.649,0,1.309-0.085,1.966-0.263l16.032-4.342c3.998-1.083,6.361-5.202,5.278-9.2
	c-1.084-3.998-5.201-6.362-9.2-5.279l-16.032,4.342c-3.998,1.083-6.361,5.202-5.278,9.2
	C193.554,169.45,196.579,171.65,199.883,171.65z"/>
<path d="M294.119,167.045l16.032,4.342c0.657,0.178,1.316,0.263,1.966,0.263c3.303,0,6.329-2.2,7.234-5.541
	c1.083-3.998-1.28-8.117-5.278-9.2l-16.032-4.342c-3.999-1.081-8.117,1.28-9.2,5.279S290.121,165.963,294.119,167.045z"/>
<g>
</g>
<g>
</g>
<g>
</g>
<g>
</g>
<g>
</g>
<g>
</g>
<g>
</g>
<g>
</g>
<g>
</g>
<g>
</g>
<g>
</g>
<g>
</g>
<g>
</g>
<g>
</g>
<g>
</g>
</svg>
