<?xml version="1.0" encoding="iso-8859-1"?>
<!-- Generator: Adobe Illustrator 19.0.0, SVG Export Plug-In . SVG Version: 6.00 Build 0)  -->
<svg version="1.1" id="Capa_1" xmlns="http://www.w3.org/2000/svg" xmlns:xlink="http://www.w3.org/1999/xlink" x="0px" y="0px"
	 viewBox="0 0 512 512" style="enable-background:new 0 0 512 512;" xml:space="preserve">
<path style="fill:#B67F5F;" d="M360.21,239.967H151.791c0,61.724-32.065,96.995-16.032,176.355h240.484
	C392.274,336.963,360.21,301.692,360.21,239.967z"/>
<path style="fill:#A06E50;" d="M256,239.967h-104.21c0,61.724-32.065,96.995-16.032,176.355H256V239.967z"/>
<path style="fill:#F7D291;" d="M408.283,421.029l-82.792-29.221c-12.82-4.525-21.393-16.642-21.393-30.237v-49.459h-96.194v49.459
	c0,13.595-8.573,25.712-21.393,30.236l-82.793,29.221c-19.229,6.787-32.089,24.962-32.089,45.354V504.5H440.37v-38.116
	C440.371,445.992,427.512,427.816,408.283,421.029z"/>
<path style="fill:#EDEBED;" d="M408.283,421.029l-80.651-28.466c-4.125,35.926-34.6,63.839-71.631,63.839
	s-67.506-27.913-71.631-63.839l-80.651,28.465c-19.23,6.787-32.089,24.962-32.089,45.354V504.5h368.742v-38.116
	C440.371,445.992,427.512,427.816,408.283,421.029z"/>
<path style="fill:#F0C382;" d="M207.904,358.306c14.753,6.391,31.02,9.92,48.097,9.92s33.344-3.529,48.097-9.92v-38.177h-96.194
	L207.904,358.306L207.904,358.306z"/>
<path style="fill:#FFE1A0;" d="M256,344.177L256,344.177c-57.554,0-104.21-46.656-104.21-104.21V127.742h208.42v112.226
	C360.21,297.521,313.553,344.177,256,344.177z"/>
<path style="fill:#F7D291;" d="M151.79,127.742v112.226c0,57.553,46.656,104.21,104.21,104.21c5.466,0,10.793-0.547,16.032-1.359
	c-49.921-7.729-88.177-50.764-88.177-102.851v-27.417c0-2.464,0.284-4.874,0.824-7.196c1.93-8.296,9.742-13.344,18.198-14.377
	c1.136-0.139,2.277-0.364,3.414-0.68c22.334-6.169,41.764-13.026,58.172-20.51c1.057,12.306,11.382,21.966,23.962,21.966
	c1.174,0,29.058-0.102,58.54-9.01c5.184-1.567,9.378-4.775,12.353-8.83l0.892-1.983v-44.188L151.79,127.742L151.79,127.742z"/>
<g>
	<polygon style="fill:#FFD164;" points="304.089,360.21 304.097,360.212 304.097,359.952 	"/>
	<polygon style="fill:#FFD164;" points="207.904,359.952 207.904,360.212 207.911,360.21 	"/>
</g>
<path style="fill:#A06E50;" d="M250.189,39.702c-64.674,3.045-114.43,58.756-114.43,123.501v36.684h16.032v-7.279
	c0-7.292,4.883-13.669,11.941-15.498c31.404-8.138,81.984-23.036,112.7-41.325c5.308-3.161,11.992,0.744,11.992,6.922v16.63
	c0,4.634,3.875,8.32,8.498,8.006c9.59-0.652,26.079-2.482,43.081-7.619c9.257-2.797,20.208,8.099,20.208,19.673v20.49h16.032
	v-40.081C376.242,91.471,319.238,36.45,250.189,39.702z"/>
<path style="fill:#B67F5F;" d="M250.189,39.702c-17.903,0.843-34.592,5.837-49.469,13.826c2.794,23.881,13.031,63.005,47.961,95.95
	c10.149-4.29,19.651-8.87,27.752-13.694c5.308-3.161,11.992,0.745,11.992,6.923v16.63c0,4.633,3.875,8.32,8.498,8.006
	c9.59-0.652,26.079-2.482,43.081-7.619c9.257-2.797,20.208,8.099,20.208,19.673v20.49h16.032v-40.081
	C376.242,91.471,319.238,36.45,250.189,39.702z"/>
<g>
	<path style="fill:#6E5A64;" d="M127.743,247.984h24.048v-64.129h-24.048c-8.854,0-16.032,7.178-16.032,16.032v32.065
		C111.711,240.806,118.889,247.984,127.743,247.984z"/>
	<path style="fill:#6E5A64;" d="M384.258,247.984H360.21v-64.129h24.048c8.854,0,16.032,7.178,16.032,16.032v32.065
		C400.29,240.806,393.112,247.984,384.258,247.984z"/>
</g>
<path style="fill:#DBD9DC;" d="M161.312,400.702c7.815,45.275,47.181,79.749,94.689,79.749c47.509,0,86.874-34.474,94.689-79.75
	l-23.058-8.138c-4.125,35.926-34.599,63.839-71.63,63.839s-67.506-27.913-71.63-63.839L161.312,400.702z"/>
<path d="M275.141,274.71c-2.738,2.7-9.3,5.854-18.782,5.854c-9.482,0-16.043-3.153-18.78-5.854
	c-2.946-2.907-7.695-2.879-10.606,0.071c-2.909,2.948-2.877,7.697,0.071,10.606c6.458,6.372,17.418,10.177,29.315,10.177
	c11.897,0,22.856-3.805,29.315-10.177c2.949-2.908,2.981-7.657,0.072-10.605C282.839,271.831,278.089,271.801,275.141,274.71z"/>
<path d="M208.262,216.316c-4.143,0-7.5,3.357-7.5,7.5v8.017c0,4.143,3.357,7.5,7.5,7.5s7.5-3.357,7.5-7.5v-8.017
	C215.762,219.674,212.405,216.316,208.262,216.316z"/>
<path d="M304.455,216.316c-4.143,0-7.5,3.357-7.5,7.5v8.017c0,4.143,3.357,7.5,7.5,7.5s7.5-3.357,7.5-7.5v-8.017
	C311.955,219.674,308.598,216.316,304.455,216.316z"/>
<path d="M216.279,192.269h-16.032c-4.143,0-7.5,3.357-7.5,7.5s3.357,7.5,7.5,7.5h16.032c4.143,0,7.5-3.357,7.5-7.5
	S220.422,192.269,216.279,192.269z"/>
<path d="M312.472,192.269H296.44c-4.143,0-7.5,3.357-7.5,7.5s3.357,7.5,7.5,7.5h16.032c4.143,0,7.5-3.357,7.5-7.5
	S316.615,192.269,312.472,192.269z"/>
<path d="M410.779,413.957l-26.133-9.223c8.367-42.541,0.509-71.46-7.11-99.455c-4.445-16.331-8.669-31.868-9.622-49.795h16.345
	c12.976,0,23.532-10.557,23.532-23.532V151.79C407.79,68.093,339.697,0,256,0s-151.79,68.093-151.79,151.79V256
	c0,17.396,14.152,31.549,31.548,31.549h3.338c-1.416,5.907-3.008,11.765-4.631,17.729c-7.619,27.995-15.478,56.915-7.11,99.455
	l-26.133,9.223c-22.187,7.83-37.093,28.899-37.093,52.427V504.5c0,4.143,3.357,7.5,7.5,7.5s7.5-3.357,7.5-7.5v-38.116
	c0-7.302,1.972-14.276,5.477-20.325l35.432,30.371c5.451,4.673,8.578,11.471,8.578,18.65v9.301c0,4.143,3.357,7.5,7.5,7.5
	s7.5-3.357,7.5-7.5v-9.301c0-11.564-5.036-22.514-13.816-30.039l-35.415-30.357c3.486-2.792,7.462-5.041,11.829-6.583l72.278-25.51
	c8.362,35.468,40.34,61.311,77.508,61.311c12.693,0,25.323-3.062,36.526-8.854c3.68-1.902,5.12-6.427,3.218-10.106
	c-1.903-3.68-6.432-5.12-10.106-3.218c-9.213,4.763-19.185,7.178-29.638,7.178c-30.793,0-57.192-21.848-63.302-51.547
	c13.726-6.47,22.705-20.383,22.705-35.784V343.75c11.233,4.552,23.215,7.218,35.564,7.799c1.824,0.086,3.643,0.129,5.455,0.129
	c13.957,0,27.516-2.543,40.174-7.426v17.319c0,15.405,8.984,29.323,22.718,35.79c-1.895,9.171-5.8,17.899-11.414,25.444
	c-2.473,3.323-1.782,8.021,1.541,10.494c1.345,1,2.914,1.482,4.471,1.482c2.29,0,4.551-1.045,6.023-3.023
	c6.468-8.693,11.094-18.664,13.579-29.166l72.271,25.507c4.522,1.596,8.629,3.947,12.202,6.878l-35.071,30.061
	c-8.78,7.525-13.816,18.475-13.816,30.039v9.301c0,4.143,3.357,7.5,7.5,7.5s7.5-3.357,7.5-7.5v-9.301
	c0-7.18,3.127-13.978,8.578-18.65l34.951-29.959c3.357,5.953,5.241,12.776,5.241,19.913V504.5c0,4.143,3.357,7.5,7.5,7.5
	s7.5-3.357,7.5-7.5v-38.116C447.871,442.856,432.965,421.787,410.779,413.957z M392.79,231.951c0,4.705-3.827,8.532-8.532,8.532
	h-16.196c0.001-0.172,0.006-0.343,0.006-0.516v-48.613h16.189c4.705,0,8.532,3.827,8.532,8.532L392.79,231.951L392.79,231.951z
	 M119.211,151.79C119.211,76.363,180.574,15,256,15s136.79,61.363,136.79,136.79v26.172c-2.647-1.034-5.523-1.608-8.532-1.608
	h-0.516v-16.548c0-70.438-57.305-127.742-127.742-127.742S128.258,89.369,128.258,159.807v16.548h-0.516
	c-3.009,0-5.885,0.574-8.532,1.608V151.79z M119.211,199.887c0-4.705,3.827-8.532,8.532-8.532h16.548v49.129h-16.548
	c-4.705,0-8.532-3.827-8.532-8.532C119.21,231.952,119.21,199.887,119.211,199.887z M135.758,272.549
	c-9.125,0-16.548-7.424-16.548-16.549v-2.124c2.647,1.034,5.523,1.608,8.532,1.608h16.345c-0.314,5.911-0.99,11.56-1.907,17.065
	H135.758z M200.404,361.572c0,10.396-6.586,19.704-16.389,23.164l-42.357,14.949c-7.022-37.885-0.066-63.474,7.281-90.468
	c1.925-7.073,3.873-14.239,5.554-21.669h1.656c4.891,10.159,11.273,19.636,19.037,28.11c7.509,8.196,16.003,15.112,25.218,20.624
	L200.404,361.572L200.404,361.572z M251.674,336.567c-24.929-1.175-48.165-12.198-65.427-31.04
	c-5.073-5.538-9.454-11.576-13.134-17.979h26.46c4.107,0,7.688-3.165,7.811-7.27c0.127-4.247-3.278-7.73-7.497-7.73h-33.824
	c-4.197-11.248-6.414-23.252-6.414-35.525v-52.616c3.177-0.649,6.349-1.311,9.502-2c4.006-0.876,6.806-4.752,6.042-8.78
	c-0.791-4.168-4.854-6.829-8.976-5.933c-7.595,1.666-15.285,3.213-22.958,4.629v-11.275c0-62.212,49.872-113.623,112.083-113.98
	c62.467-0.359,113.401,50.355,113.401,112.74v16.548h-0.674v-0.748c0-7.61-3.419-14.924-9.534-19.454
	c-6.012-4.453-13.555-5.768-20.702-3.608c-16.558,5.005-32.79,6.74-41.909,7.342v-32.045c0-2.336-0.974-4.618-2.805-6.071
	c-2.871-2.277-6.813-2.145-9.497,0.091c-16.838,14.031-46.483,27.181-85.732,38.026c-3.992,1.104-6.334,5.234-5.231,9.228
	c1.104,3.992,5.23,6.332,9.228,5.231c33.723-9.319,60.219-20.071,79.038-32.055v25.412c0,4.143,3.357,7.5,7.5,7.5
	c1.073,0,26.594-0.095,53.749-8.301c2.563-0.776,5.278-0.299,7.443,1.309c0.015,0.011,0.03,0.023,0.045,0.034
	c1.981,1.492,3.049,3.907,3.049,6.387v73.35c0,0.1,0.004,0.197,0.004,0.297c-1.975,23.513-12.309,45.167-29.611,61.672
	C303.794,328.375,278.435,337.827,251.674,336.567z M370.342,399.686l-42.357-14.949c-9.803-3.46-16.389-12.769-16.389-23.164
	v-24.447c7.82-4.469,15.158-9.924,21.861-16.319c10.175-9.707,18.259-20.96,24.051-33.25c1.68,7.427,3.628,14.591,5.552,21.662
	C370.408,336.212,377.365,361.801,370.342,399.686z"/>
<g>
</g>
<g>
</g>
<g>
</g>
<g>
</g>
<g>
</g>
<g>
</g>
<g>
</g>
<g>
</g>
<g>
</g>
<g>
</g>
<g>
</g>
<g>
</g>
<g>
</g>
<g>
</g>
<g>
</g>
</svg>
