<?xml version="1.0" encoding="iso-8859-1"?>
<!-- Generator: Adobe Illustrator 19.0.0, SVG Export Plug-In . SVG Version: 6.00 Build 0)  -->
<svg version="1.1" id="Capa_1" xmlns="http://www.w3.org/2000/svg" xmlns:xlink="http://www.w3.org/1999/xlink" x="0px" y="0px"
	 viewBox="0 0 512 512" style="enable-background:new 0 0 512 512;" xml:space="preserve">
<path style="fill:#D29B6E;" d="M413.862,374.103l-84.486-24.849c-10.235-3.01-17.263-12.403-17.263-23.071v-38.119H199.888v38.119
	c0,10.668-7.028,20.061-17.263,23.071l-84.486,24.849c-20.469,6.02-34.525,24.806-34.525,46.142v84.254h384.773v-84.254
	C448.388,398.909,434.331,380.123,413.862,374.103z"/>
<path style="fill:#6E5A64;" d="M413.862,374.102l-84.486-24.849c-5.342-1.572-9.775-4.905-12.826-9.228l-60.549,20.184
	l-60.549-20.183c-3.052,4.323-7.484,7.656-12.826,9.228L98.14,374.103c-20.469,6.02-34.525,24.806-34.525,46.142v84.254h384.773
	v-84.254C448.388,398.908,434.331,380.123,413.862,374.102z"/>
<path style="fill:#5A4650;" d="M141.541,361.338l3.954,3.389l50.2,43.028c7.26,6.222,16.52,9.649,26.074,9.649
	c12.25,0,23.661-5.483,31.308-15.044l2.925-3.655l2.925,3.656c7.648,9.56,19.06,15.043,31.308,15.043
	c9.554,0,18.814-3.427,26.074-9.649l50.2-43.029l3.954-3.389l-41.085-12.084c-5.343-1.572-9.776-4.905-12.827-9.228l-60.55,20.184
	l-60.549-20.183c-3.051,4.323-7.484,7.656-12.827,9.228L141.541,361.338z"/>
<path style="fill:#F5B97D;" d="M372.235,167.822h-12.024v-40.081H151.792v40.081h-12.024c-11.068,0-20.04,8.972-20.04,20.04
	s8.972,20.04,20.04,20.04h12.024c0,57.553,46.656,104.209,104.209,104.209S360.21,265.455,360.21,207.902h12.024
	c11.068,0,20.04-8.973,20.04-20.04C392.275,176.794,383.303,167.822,372.235,167.822z"/>
<path style="fill:#E3AA75;" d="M183.856,207.903v-43.236h160.322v-36.925H151.792v40.081h-11.544
	c-10.462,0-19.536,7.823-20.443,18.246c-1.033,11.876,8.301,21.835,19.962,21.835h12.024c0,57.553,46.656,104.209,104.209,104.209
	c5.466,0,10.793-0.547,16.032-1.359C222.113,303.024,183.856,259.989,183.856,207.903z"/>
<g>
	<path style="fill:#B7B2B8;" d="M256.001,231.951c-42.969,0-80.905-9.277-104.18-23.468c0.317,57.283,46.823,103.629,104.18,103.629
		s103.863-46.346,104.18-103.629C336.906,222.674,298.97,231.951,256.001,231.951z"/>
	<rect x="135.761" y="127.74" style="fill:#B7B2B8;" width="32.06" height="40.08"/>
	<rect x="344.181" y="127.74" style="fill:#B7B2B8;" width="32.06" height="40.08"/>
</g>
<g>
	<path style="fill:#6E5A64;" d="M256.001,360.209l-64.826-36.015c-3.989-2.216-9.022-0.66-11.063,3.422l-10.609,21.217
		c-0.987,1.974-0.504,4.366,1.172,5.803l40.669,34.859c6.884,5.901,17.288,4.923,22.953-2.157L256.001,360.209z"/>
	<path style="fill:#6E5A64;" d="M256.001,360.209l64.826-36.015c3.99-2.216,9.022-0.66,11.063,3.422l10.609,21.217
		c0.987,1.974,0.504,4.366-1.172,5.803l-40.669,34.859c-6.884,5.901-17.288,4.923-22.953-2.157L256.001,360.209z"/>
</g>
<path style="fill:#B67F5F;" d="M353.699,43.204C348.084,22.15,329.017,7.5,307.226,7.5h-102.45c-21.79,0-40.858,14.65-46.473,35.704
	l-22.543,84.538h240.483L353.699,43.204z"/>
<path style="fill:#AEA8AF;" d="M272.033,264.531h-32.064c-8.854,0-16.032-7.178-16.032-16.032v-24.564h64.129v24.564
	C288.065,257.353,280.888,264.531,272.033,264.531z"/>
<path style="fill:#A06E50;" d="M236.84,7.5h-32.064c-21.79,0-40.858,14.65-46.473,35.704l-22.543,84.538h32.064l22.543-84.538
	C195.982,22.15,215.05,7.5,236.84,7.5z"/>
<polygon style="fill:#6E5A64;" points="137.897,119.726 374.105,119.726 367.692,95.677 144.31,95.677 "/>
<polygon style="fill:#5A4650;" points="137.897,119.726 169.961,119.726 176.374,95.677 144.31,95.677 "/>
<g>
	<polygon style="fill:#B67F5F;" points="135.759,504.499 167.824,504.499 167.824,353.607 135.759,363.038 	"/>
	<polygon style="fill:#B67F5F;" points="376.243,504.499 344.178,504.499 344.178,353.607 376.243,363.038 	"/>
</g>
<g>
	<path style="fill:#5A4650;" d="M135.759,432.354L135.759,432.354v72.145h-24.048v-48.097
		C111.711,443.121,122.478,432.354,135.759,432.354z"/>
	<path style="fill:#5A4650;" d="M376.243,432.354L376.243,432.354v72.145h24.048v-48.097
		C400.291,443.121,389.524,432.354,376.243,432.354z"/>
</g>
<g>
	<path style="fill:#C9C6CA;" d="M256.001,223.935h-24.048c-13.282,0-24.048,10.767-24.048,24.048l0,0h24.048
		C245.234,247.983,256.001,237.216,256.001,223.935L256.001,223.935"/>
	<path style="fill:#C9C6CA;" d="M256.001,223.935h24.048c13.282,0,24.048,10.767,24.048,24.048l0,0h-24.048
		C266.768,247.983,256.001,237.216,256.001,223.935L256.001,223.935"/>
</g>
<path style="fill:#AEA8AF;" d="M184.979,222.487c-12.867-3.77-24.136-8.504-33.158-14.004v0.002
	c0.018,3.288,0.176,6.542,0.493,9.751c0.012,0.144,0.02,0.285,0.032,0.43c5.389,52.495,49.737,93.446,103.655,93.446
	c5.466,0,10.793-0.547,16.032-1.359C226.868,303.76,191.355,267.835,184.979,222.487z"/>
<path d="M256.081,496.999h-0.08c-4.142,0-7.46,3.357-7.46,7.5s3.398,7.5,7.54,7.5c4.142,0,7.5-3.357,7.5-7.5
	S260.223,496.999,256.081,496.999z"/>
<path d="M415.979,366.907l-65.723-19.33l-11.658-23.315c-1.883-3.766-5.27-6.64-9.292-7.884c-3.174-0.981-6.585-0.887-9.692,0.192
	v-16.893c27.116-18.853,45.515-49.397,47.839-84.274h3.639c14.617,0,27.154-10.861,28.542-24.727
	c0.778-7.771-1.764-15.53-6.974-21.287c-2.522-2.786-5.568-4.992-8.917-6.533v-27.614h24.564c4.142,0,7.5-3.357,7.5-7.5
	s-3.358-7.5-7.5-7.5h-26.303l-21.059-78.97C354.466,16.972,332.376,0,307.227,0H204.775c-25.149,0-47.239,16.972-53.719,41.271
	l-21.059,78.97h-26.303c-4.142,0-7.5,3.357-7.5,7.5c0,4.143,3.358,7.5,7.5,7.5h24.564v27.948
	c-8.63,4.115-14.93,12.266-15.891,21.859c-0.778,7.771,1.764,15.53,6.974,21.288c5.213,5.762,12.658,9.066,20.425,9.066h4.781
	c2.324,34.877,20.723,65.421,47.839,84.274v16.894c-3.108-1.08-6.519-1.174-9.692-0.193c-4.022,1.244-7.409,4.118-9.292,7.884
	l-11.658,23.316l-65.723,19.33c-23.498,6.911-39.909,28.845-39.909,53.338v84.254c0,4.143,3.358,7.5,7.5,7.5s7.5-3.357,7.5-7.5
	v-84.254c0-17.885,11.983-33.9,29.142-38.947l28.003-8.236v131.437c0,4.143,3.358,7.5,7.5,7.5s7.5-3.357,7.5-7.5V368.65
	l17.064-5.019v140.868c0,4.143,3.358,7.5,7.5,7.5s7.5-3.357,7.5-7.5v-136l31.14,26.691c4.312,3.695,9.66,5.668,15.261,5.668
	c0.748,0,1.501-0.035,2.256-0.106c6.409-0.603,12.152-3.702,16.173-8.728l15.85-19.809l15.848,19.809
	c4.021,5.025,9.764,8.125,16.173,8.728c0.755,0.071,1.508,0.106,2.256,0.106c5.601,0,10.95-1.973,15.261-5.668l39.2-33.601
	l24.002,7.059V504.5c0,4.143,3.358,7.5,7.5,7.5s7.5-3.357,7.5-7.5V373.061l28.005,8.237c17.158,5.047,29.142,21.063,29.142,38.947
	v84.254c0,4.143,3.358,7.5,7.5,7.5s7.5-3.357,7.5-7.5v-84.254C455.888,395.752,439.477,373.818,415.979,366.907z M335.646,160.322
	v-0.517c0-4.143-3.358-7.5-7.5-7.5h-56.113c-4.142,0-7.5,3.357-7.5,7.5v2.124c-2.647-1.034-5.523-1.608-8.532-1.608
	c-3.009,0-5.885,0.574-8.532,1.608v-2.124c0-4.143-3.358-7.5-7.5-7.5h-56.113c-4.142,0-7.5,3.357-7.5,7.5v0.517h-1.032v-25.081
	h161.354v25.081H335.646z M300.089,183.338c4.142,0,7.5-3.357,7.5-7.5v-8.016c0-0.174-0.014-0.345-0.026-0.517h13.083v16.549
	c0,4.705-3.828,8.532-8.532,8.532h-24.048c-4.705,0-8.532-3.827-8.532-8.532v-16.549h13.082c-0.012,0.171-0.026,0.342-0.026,0.517
	v8.016C292.589,179.98,295.947,183.338,300.089,183.338z M191.356,167.306h13.083c-0.012,0.171-0.026,0.342-0.026,0.517v8.016
	c0,4.143,3.358,7.5,7.5,7.5s7.5-3.357,7.5-7.5v-8.016c0-0.174-0.014-0.345-0.026-0.517h13.082v16.549
	c0,4.705-3.828,8.532-8.532,8.532h-24.048c-4.705,0-8.532-3.827-8.532-8.532L191.356,167.306L191.356,167.306z M351.678,135.241
	h17.064v25.081h-17.064V135.241z M204.775,15h32.449c7.607,0,14.209,5.154,16.054,12.535l3.462,13.849
	c0.852,3.408,3.91,5.683,7.27,5.683c0.602,0,1.214-0.073,1.825-0.226c4.018-1.005,6.461-5.077,5.457-9.096l-3.462-13.849
	c-0.802-3.209-2.081-6.195-3.742-8.896h43.138c18.364,0,34.494,12.393,39.226,30.137l11.477,43.04h-29.786
	c-4.142,0-7.5,3.357-7.5,7.5s3.358,7.5,7.5,7.5h33.786l4.551,17.064H145.521l4.551-17.064h146.01c4.142,0,7.5-3.357,7.5-7.5
	s-3.358-7.5-7.5-7.5h-142.01l11.477-43.04C170.281,27.393,186.412,15,204.775,15z M160.324,135.241v25.081H143.26v-25.081H160.324z
	 M130.464,196.271c-2.406-2.659-3.533-6.115-3.171-9.729c0.63-6.292,6.612-11.221,13.618-11.221h35.445v8.532
	c0,12.976,10.557,23.532,23.532,23.532h24.048c12.976,0,23.532-10.557,23.532-23.532c0-4.705,3.828-8.532,8.532-8.532
	c4.704,0,8.532,3.827,8.532,8.532c0,12.976,10.557,23.532,23.532,23.532h24.048c12.976,0,23.532-10.557,23.532-23.532v-8.532h36.588
	c3.537,0,6.927,1.506,9.303,4.131c2.407,2.659,3.533,6.114,3.171,9.729c-0.629,6.292-6.61,11.221-13.616,11.221h-3.381v-0.516
	c0-4.143-3.358-7.5-7.5-7.5s-7.5,3.357-7.5,7.5v4.258c-20.003,14.302-45.465,18.304-52.982,19.206
	c-5.4-4.323-12.24-6.916-19.679-6.916h-48.097c-7.441,0-14.283,2.595-19.683,6.92c-7.5-0.886-32.9-4.841-52.978-19.208v-4.26
	c0-4.143-3.358-7.5-7.5-7.5s-7.5,3.357-7.5,7.5v0.516h-4.524C136.231,200.402,132.84,198.896,130.464,196.271z M294.799,240.483
	h-14.75c-6.427,0-12.01-3.683-14.75-9.049h14.75C286.476,231.435,292.059,235.117,294.799,240.483z M231.953,231.435h14.75
	c-2.74,5.366-8.323,9.049-14.75,9.049h-14.75C219.943,235.117,225.526,231.435,231.953,231.435z M160.399,222.548
	c15.448,8.56,31.606,12.616,41.967,14.485c-1.267,3.413-1.962,7.102-1.962,10.95c0,4.143,3.358,7.5,7.5,7.5h24.048
	c9.628,0,18.257-4.34,24.048-11.161c5.791,6.821,14.42,11.161,24.048,11.161h24.048c4.142,0,7.5-3.357,7.5-7.5
	c0-3.849-0.695-7.537-1.962-10.95c10.361-1.869,26.519-5.925,41.967-14.485c-7.079,46.401-47.254,82.064-95.602,82.064
	S167.478,268.95,160.399,222.548z M256.001,319.612c17.413,0,33.908-4.007,48.613-11.145v16.154l-48.613,27.008l-48.613-27.006
	v-16.155C222.093,315.605,238.588,319.612,256.001,319.612z M228.44,382.653c-1.458,1.822-3.54,2.946-5.864,3.165
	c-2.32,0.216-4.579-0.497-6.352-2.017l-39.074-33.493l9.669-19.338c0.024-0.049,0.099-0.197,0.309-0.263
	c0.209-0.063,0.355,0.016,0.403,0.043l57.067,31.704L228.44,382.653z M295.777,383.802c-1.772,1.52-4.028,2.232-6.352,2.017
	c-2.324-0.219-4.406-1.343-5.864-3.165l-16.159-20.198l57.067-31.705c0.048-0.025,0.195-0.105,0.403-0.042
	c0.21,0.065,0.285,0.214,0.309,0.263l9.669,19.338L295.777,383.802z"/>
<path d="M344.176,384.773c-4.142,0-7.5,3.357-7.5,7.5V504.5c0,4.143,3.358,7.5,7.5,7.5s7.5-3.357,7.5-7.5V392.273
	C351.676,388.131,348.318,384.773,344.176,384.773z"/>
<path d="M256.081,400.806h-0.08c-4.142,0-7.46,3.357-7.46,7.5s3.398,7.5,7.54,7.5c4.142,0,7.5-3.357,7.5-7.5
	S260.223,400.806,256.081,400.806z"/>
<path d="M256.081,448.902h-0.08c-4.142,0-7.46,3.357-7.46,7.5s3.398,7.5,7.54,7.5c4.142,0,7.5-3.357,7.5-7.5
	S260.223,448.902,256.081,448.902z"/>
<path d="M271.517,272.031c0-4.143-3.358-7.5-7.5-7.5h-16.032c-4.142,0-7.5,3.357-7.5,7.5s3.358,7.5,7.5,7.5h16.032
	C268.159,279.531,271.517,276.174,271.517,272.031z"/>
<g>
</g>
<g>
</g>
<g>
</g>
<g>
</g>
<g>
</g>
<g>
</g>
<g>
</g>
<g>
</g>
<g>
</g>
<g>
</g>
<g>
</g>
<g>
</g>
<g>
</g>
<g>
</g>
<g>
</g>
</svg>
