<?xml version="1.0" encoding="iso-8859-1"?>
<!-- Generator: Adobe Illustrator 19.0.0, SVG Export Plug-In . SVG Version: 6.00 Build 0)  -->
<svg version="1.1" id="Capa_1" xmlns="http://www.w3.org/2000/svg" xmlns:xlink="http://www.w3.org/1999/xlink" x="0px" y="0px"
	 viewBox="0 0 512.002 512.002" style="enable-background:new 0 0 512.002 512.002;" xml:space="preserve">
<path style="fill:#A06E50;" d="M413.863,374.103l-84.486-24.849c-5.342-1.572-9.775-4.905-12.826-9.228H195.452
	c-3.052,4.323-7.484,7.657-12.826,9.228L98.14,374.103c-20.469,6.02-34.525,24.806-34.525,46.142V504.5h384.774v-84.254
	C448.389,398.909,434.332,380.124,413.863,374.103z"/>
<path style="fill:#E3AA75;" d="M256.001,424.339c-47.652,0-87.104,34.684-94.751,80.161h189.502
	C343.106,459.022,303.653,424.339,256.001,424.339z"/>
<path style="fill:#8C5F4B;" d="M256.001,376.242c32.225,0,62.552-8.107,89.077-22.37l-15.701-4.618
	c-5.343-1.572-9.776-4.905-12.827-9.228H195.452c-3.051,4.323-7.484,7.657-12.827,9.228l-15.701,4.618
	C193.45,368.135,223.776,376.242,256.001,376.242z"/>
<circle style="fill:#B67F5F;" cx="376.241" cy="55.6" r="48.1"/>
<circle style="fill:#6E5A64;" cx="376.241" cy="55.6" r="16"/>
<circle style="fill:#B67F5F;" cx="135.761" cy="55.6" r="48.1"/>
<circle style="fill:#6E5A64;" cx="135.761" cy="55.6" r="16"/>
<circle style="fill:#B67F5F;" cx="256.001" cy="187.86" r="164.33"/>
<circle style="fill:#F5B97D;" cx="256.001" cy="199.89" r="104.21"/>
<path style="fill:#E3AA75;" d="M183.856,199.887c0-52.087,38.256-95.122,88.177-102.851c-5.24-0.811-10.566-1.359-16.032-1.359
	c-57.553,0-104.21,46.656-104.21,104.21s46.656,104.21,104.21,104.21c5.467,0,10.793-0.547,16.032-1.359
	C222.112,295.009,183.856,251.974,183.856,199.887z"/>
<path style="fill:#FFFFFF;" d="M219.929,227.915c0,17.708,16.15,32.064,36.073,32.064s36.073-14.356,36.073-32.064L219.929,227.915
	L219.929,227.915z"/>
<g>
	<path style="fill:#A06E50;" d="M278.046,330.149c-90.757,0-164.331-73.573-164.331-164.331c0-39.765,14.13-76.227,37.635-104.651
		c-36.449,30.142-59.679,75.704-59.679,126.696c0,90.757,73.573,164.331,164.331,164.331c50.992,0,96.554-23.23,126.695-59.68
		C354.272,316.019,317.811,330.149,278.046,330.149z"/>
	<path style="fill:#A06E50;" d="M272.034,119.726h-32.065c-13.282,0-24.048-10.767-24.048-24.048l0,0
		c0-13.282,10.767-24.048,24.048-24.048h32.065c13.282,0,24.048,10.767,24.048,24.048l0,0
		C296.082,108.959,285.315,119.726,272.034,119.726z"/>
</g>
<circle style="fill:#5A4650;" cx="256.001" cy="71.63" r="16.03"/>
<path d="M207.905,199.371c4.142,0,7.5-3.357,7.5-7.5v-8.017c0-4.143-3.358-7.5-7.5-7.5s-7.5,3.357-7.5,7.5v8.017
	C200.405,196.014,203.763,199.371,207.905,199.371z"/>
<path d="M311.598,191.871v-8.017c0-4.143-3.358-7.5-7.5-7.5s-7.5,3.357-7.5,7.5v8.017c0,4.143,3.358,7.5,7.5,7.5
	S311.598,196.014,311.598,191.871z"/>
<path d="M415.98,366.908l-84.316-24.799c56.912-28.03,96.168-86.636,96.168-154.246c0-30.854-8.18-59.83-22.476-84.886
	c16.316-10.01,26.484-27.822,26.484-47.381C431.84,24.94,406.899,0,376.243,0c-21.331,0-40.662,12.266-49.916,31.093
	c-21.477-9.672-45.283-15.061-70.326-15.061s-48.849,5.388-70.326,15.061C176.422,12.266,157.091,0,135.76,0
	c-30.656,0-55.597,24.94-55.597,55.597c0,19.558,10.168,37.371,26.484,47.381c-14.296,25.055-22.476,54.032-22.476,84.885
	c0,67.61,39.257,126.216,96.168,154.246l-84.316,24.799c-23.498,6.911-39.909,28.845-39.909,53.338V504.5c0,4.143,3.358,7.5,7.5,7.5
	s7.5-3.357,7.5-7.5v-84.254c0-17.885,11.983-33.9,29.142-38.947l84.487-24.849c4.715-1.388,8.969-3.812,12.517-7.102
	c18.336,6.69,38.119,10.345,58.741,10.345c20.622,0,40.406-3.655,58.741-10.345c3.549,3.29,7.802,5.714,12.518,7.102l84.486,24.849
	c17.158,5.047,29.142,21.063,29.142,38.947V504.5c0,4.143,3.358,7.5,7.5,7.5s7.5-3.357,7.5-7.5v-84.254
	C455.889,395.753,439.478,373.819,415.98,366.908z M376.243,15c22.385,0,40.597,18.212,40.597,40.597
	c0,14.34-7.485,27.395-19.484,34.689c-3.282-4.739-6.794-9.306-10.523-13.685c7.67-3.883,12.943-11.837,12.943-21.005
	c0-12.976-10.557-23.532-23.533-23.532c-9.954,0-18.478,6.216-21.911,14.967c-4.704-3.294-9.58-6.357-14.612-9.176
	C346.448,24.023,360.608,15,376.243,15z M367.711,55.597c0-4.705,3.828-8.532,8.532-8.532c4.705,0,8.533,3.827,8.533,8.532
	s-3.828,8.532-8.533,8.532c-0.418,0-0.832-0.04-1.241-0.099c-2.284-2.195-4.627-4.329-7.028-6.397
	C367.812,56.97,367.711,56.29,367.711,55.597z M95.163,55.597C95.163,33.212,113.375,15,135.76,15
	c15.635,0,29.795,9.023,36.523,22.855c-5.031,2.819-9.908,5.882-14.612,9.176c-3.433-8.751-11.957-14.967-21.911-14.967
	c-12.976,0-23.533,10.557-23.533,23.532c0,9.168,5.273,17.122,12.943,21.005c-3.729,4.378-7.241,8.945-10.523,13.685
	C102.648,82.992,95.163,69.937,95.163,55.597z M144.029,57.633c-2.402,2.068-4.745,4.202-7.028,6.397
	c-0.409,0.059-0.823,0.099-1.241,0.099c-4.705,0-8.533-3.827-8.533-8.532s3.828-8.532,8.533-8.532s8.532,3.827,8.532,8.532
	C144.292,56.29,144.191,56.97,144.029,57.633z M99.171,187.863c0-86.477,70.354-156.831,156.831-156.831
	s156.831,70.354,156.831,156.831s-70.355,156.83-156.832,156.83S99.171,274.34,99.171,187.863z"/>
<path d="M223.421,159.807c0-4.143-3.358-7.5-7.5-7.5h-16.032c-4.142,0-7.5,3.357-7.5,7.5s3.358,7.5,7.5,7.5h16.032
	C220.063,167.307,223.421,163.949,223.421,159.807z"/>
<path d="M319.614,159.807c0-4.143-3.358-7.5-7.5-7.5h-16.032c-4.142,0-7.5,3.357-7.5,7.5s3.358,7.5,7.5,7.5h16.032
	C316.256,167.307,319.614,163.949,319.614,159.807z"/>
<path d="M127.743,448.903c-4.142,0-7.5,3.357-7.5,7.5V504.5c0,4.143,3.358,7.5,7.5,7.5s7.5-3.357,7.5-7.5v-48.097
	C135.243,452.261,131.885,448.903,127.743,448.903z"/>
<path d="M384.26,448.903c-4.142,0-7.5,3.357-7.5,7.5V504.5c0,4.143,3.358,7.5,7.5,7.5s7.5-3.357,7.5-7.5v-48.097
	C391.76,452.261,388.402,448.903,384.26,448.903z"/>
<path d="M323.255,441.667c-18.71-16.011-42.594-24.828-67.254-24.828s-48.544,8.817-67.254,24.828
	c-18.483,15.816-30.875,37.689-34.893,61.59c-0.687,4.084,2.068,7.952,6.152,8.64c4.084,0.684,7.953-2.068,8.64-6.153
	c7.2-42.823,43.938-73.904,87.355-73.904s80.155,31.081,87.355,73.904c0.616,3.664,3.792,6.258,7.387,6.258
	c0.413,0,0.832-0.034,1.253-0.104c4.084-0.688,6.839-4.556,6.152-8.64C354.13,479.356,341.738,457.483,323.255,441.667z"/>
<path d="M191.873,79.129h0.08c4.142,0,7.46-3.357,7.46-7.5s-3.398-7.5-7.54-7.5s-7.5,3.357-7.5,7.5S187.73,79.129,191.873,79.129z"
	/>
<path d="M320.13,79.129h0.08c4.142,0,7.46-3.357,7.46-7.5s-3.398-7.5-7.54-7.5s-7.5,3.357-7.5,7.5S315.988,79.129,320.13,79.129z"/>
<path d="M159.608,192.797c1.651-23.114,11.598-44.883,28.009-61.294c7.659-7.658,16.385-13.865,25.983-18.535
	c5.645,8.579,15.353,14.257,26.369,14.257h32.064c10.978,0,20.66-5.64,26.313-14.171c5.116,2.5,10.014,5.454,14.615,8.821
	c1.335,0.978,2.886,1.449,4.424,1.449c2.31,0,4.589-1.064,6.058-3.071c2.446-3.343,1.72-8.035-1.623-10.481
	c-5.767-4.221-11.941-7.871-18.4-10.908c0.106-1.048,0.161-2.111,0.161-3.187c0-15.173-10.767-27.875-25.062-30.875
	c-2.933-9.657-11.917-16.706-22.519-16.706c-10.602,0-19.586,7.049-22.519,16.706c-14.294,3-25.062,15.702-25.062,30.875
	c0,1.031,0.053,2.049,0.151,3.055c-11.708,5.474-22.308,12.911-31.561,22.164c-18.962,18.963-30.457,44.118-32.365,70.832
	c-1.887,26.412,5.657,52.685,21.24,73.979c1.469,2.007,3.748,3.071,6.058,3.071c1.537,0,3.088-0.472,4.423-1.448
	c3.343-2.446,4.069-7.14,1.623-10.482C164.502,238.418,157.974,215.671,159.608,192.797z M256.001,63.097
	c4.705,0,8.532,3.827,8.532,8.532s-3.828,8.532-8.532,8.532s-8.532-3.827-8.532-8.532S251.297,63.097,256.001,63.097z
	 M234.102,80.223c3.441,8.736,11.957,14.938,21.9,14.938c9.943,0,18.459-6.202,21.9-14.938c6.233,2.375,10.681,8.398,10.681,15.454
	c0,9.125-7.423,16.548-16.548,16.548h-32.064c-9.125,0-16.548-7.423-16.548-16.548C223.421,88.621,227.869,82.598,234.102,80.223z"
	/>
<path d="M346.117,134.067c-2.446-3.342-7.138-4.068-10.482-1.622c-3.342,2.446-4.069,7.139-1.623,10.481
	c13.488,18.43,20.017,41.177,18.383,64.05c-1.651,23.115-11.598,44.883-28.009,61.294s-38.18,26.359-61.295,28.01
	c-22.868,1.635-45.62-4.894-64.05-18.383c-3.342-2.444-8.035-1.72-10.481,1.623s-1.72,8.036,1.623,10.482
	c19.147,14.013,42.32,21.524,66.001,21.524c2.654,0,5.315-0.095,7.977-0.285c26.714-1.908,51.87-13.402,70.833-32.364
	c18.962-18.963,30.457-44.118,32.365-70.833C369.244,181.633,361.7,155.36,346.117,134.067z"/>
<path d="M256.001,267.479c24.026,0,43.573-17.748,43.573-39.564c0-4.143-3.358-7.5-7.5-7.5h-72.146c-4.142,0-7.5,3.357-7.5,7.5
	C212.429,249.731,231.976,267.479,256.001,267.479z M283.212,235.415c-3.695,9.889-14.497,17.064-27.211,17.064
	s-23.516-7.176-27.211-17.064H283.212z"/>
<g>
</g>
<g>
</g>
<g>
</g>
<g>
</g>
<g>
</g>
<g>
</g>
<g>
</g>
<g>
</g>
<g>
</g>
<g>
</g>
<g>
</g>
<g>
</g>
<g>
</g>
<g>
</g>
<g>
</g>
</svg>
