<?xml version="1.0" encoding="iso-8859-1"?>
<!-- Generator: Adobe Illustrator 19.0.0, SVG Export Plug-In . SVG Version: 6.00 Build 0)  -->
<svg version="1.1" id="Capa_1" xmlns="http://www.w3.org/2000/svg" xmlns:xlink="http://www.w3.org/1999/xlink" x="0px" y="0px"
	 viewBox="0 0 512 512" style="enable-background:new 0 0 512 512;" xml:space="preserve">
<path style="fill:#6E5A64;" d="M413.862,387.765l-84.486-24.849c-10.235-3.01-17.263-12.403-17.263-23.071v-59.796H199.888v59.796
	c0,10.668-7.028,20.061-17.263,23.071l-84.486,24.849c-20.469,6.02-34.525,24.806-34.525,46.142V504.5h384.774v-70.593
	C448.387,412.571,434.331,393.785,413.862,387.765z"/>
<path style="fill:#84737B;" d="M344.178,294.076H167.823c-26.563,0-48.097,21.534-48.097,48.097
	c0,53.126,43.067,96.193,96.193,96.193h80.161c53.126,0,96.193-43.068,96.193-96.193
	C392.275,315.61,370.741,294.076,344.178,294.076z"/>
<path style="fill:#6E5A64;" d="M342.045,318.125c17.449,0,24.301,22.63,9.782,32.309L256,414.318l-95.827-63.884
	c-14.518-9.679-7.666-32.309,9.782-32.309H342.045z"/>
<path style="fill:#F7D291;" d="M180.42,363.931L256,414.318l75.581-50.387l0,0l-2.206-0.649
	c-10.235-3.01-17.263-12.404-17.263-23.072v-52.146H199.888v52.146c0,10.668-7.028,20.061-17.263,23.072L180.42,363.931
	L180.42,363.931z"/>
<path style="fill:#F0C382;" d="M199.888,321.985c16.841,8.996,35.939,14.176,56.113,14.176c20.173,0,39.272-5.18,56.113-14.176
	v-33.921H199.888V321.985z"/>
<path style="fill:#FFE1A0;" d="M372.234,175.839H360.21V151.79H151.791v24.048h-12.024c-11.068,0-20.04,8.972-20.04,20.04
	s8.972,20.04,20.04,20.04h12.429c4.106,53.795,48.958,96.193,103.805,96.193s99.699-42.398,103.805-96.193h12.429
	c11.068,0,20.04-8.973,20.04-20.04C392.275,184.811,383.302,175.839,372.234,175.839z"/>
<path style="fill:#F7D291;" d="M183.855,207.903V151.79h-32.064v24.048h-12.024c-11.022,0-20.04,9.018-20.04,20.04
	s9.018,20.04,20.04,20.04h12.429c4.106,53.795,48.957,96.193,103.805,96.193c5.483,0,10.83-0.534,16.083-1.351
	C222.137,303.054,183.855,260.007,183.855,207.903z"/>
<path style="fill:#6E5A64;" d="M256,7.5c-60.958,0-111.195,45.401-119.051,104.21h238.101C367.195,52.901,316.958,7.5,256,7.5z"/>
<circle style="fill:#5A4650;" cx="256" cy="440.37" r="16.03"/>
<path style="fill:#84737B;" d="M384.258,151.79H127.742v-32.065c0-4.427,3.589-8.016,8.016-8.016h240.484
	c4.427,0,8.016,3.589,8.016,8.016V151.79z"/>
<g>
	<path style="fill:#6E5A64;" d="M183.855,111.71h-48.097c-4.427,0-8.016,3.589-8.016,8.016v32.065h48.097v-32.065
		C175.839,115.298,179.428,111.71,183.855,111.71z"/>
	<path style="fill:#6E5A64;" d="M376.242,175.839l-58.064,40.198c-16.014,11.086-36.84,3.668-43.779-12.472
		c-3.112-7.239-10.498-11.697-18.378-11.7h-0.031c-7.886-0.003-15.276,4.458-18.393,11.701
		c-6.945,16.134-27.765,23.554-43.774,12.471l-58.064-40.198V151.79h240.484v24.049H376.242z"/>
</g>
<path style="fill:#5A4650;" d="M127.793,175.839h256.416c0.004-0.196,0.05-0.379,0.05-0.576V151.79H127.742v23.472
	C127.742,175.459,127.789,175.643,127.793,175.839z"/>
<path d="M415.978,382.94l-21.414-6.298c3.377-10.218,5.211-21.131,5.211-32.465c0-30.656-24.94-55.597-55.597-55.597h-11.001
	c17.73-16.969,29.892-39.706,33.447-65.161h4.467c14.617,0,27.155-10.861,28.544-24.728c0.778-7.771-1.764-15.529-6.974-21.286
	c-0.293-0.324-0.595-0.637-0.902-0.946v-56.734c0-6.663-4.229-12.341-10.137-14.535c-5.05-28.266-19.547-54.11-41.215-73.259
	C317.105,11.34,287.13,0,256.001,0c-31.13,0-61.105,11.34-84.405,31.932c-21.668,19.149-36.165,44.993-41.216,73.259
	c-5.908,2.194-10.137,7.872-10.137,14.535l0.001,57.124c-4.339,4.312-7.247,9.953-7.874,16.214
	c-0.779,7.771,1.762,15.53,6.972,21.289c5.213,5.762,12.658,9.066,20.426,9.066h5.607c3.553,25.456,15.711,48.193,33.438,65.161
	h-10.99c-30.656,0-55.597,24.941-55.597,55.598c0,11.334,1.834,22.247,5.211,32.464l-21.414,6.298
	c-23.498,6.911-39.91,28.845-39.91,53.338V504.5c0,4.143,3.358,7.5,7.5,7.5s7.5-3.357,7.5-7.5v-68.222
	c0-6.066,1.382-11.916,3.874-17.197l36.678,31.438c5.451,4.673,8.578,11.471,8.578,18.65v35.33c0,4.143,3.358,7.5,7.5,7.5
	c4.142,0,7.5-3.357,7.5-7.5v-35.33c0-11.564-5.036-22.513-13.816-30.039l-37.632-32.256c4.567-4.358,10.163-7.692,16.461-9.544
	l22.952-6.751c17.057,33.942,52.207,57.291,92.712,57.291h17.781c2.344,6.951,7.849,12.455,14.8,14.8v41.83
	c0,4.143,3.358,7.5,7.5,7.5c4.142,0,7.5-3.357,7.5-7.5v-41.829c6.951-2.344,12.455-7.849,14.8-14.8h17.781
	c40.505,0,75.655-23.348,92.712-57.291l22.952,6.751c6.298,1.852,11.894,5.187,16.461,9.544l-37.632,32.255
	c-8.78,7.526-13.815,18.475-13.815,30.039v35.33c0,4.143,3.357,7.5,7.5,7.5s7.5-3.357,7.5-7.5v-35.33
	c0-7.18,3.126-13.978,8.577-18.65l36.677-31.437c2.491,5.281,3.874,11.13,3.874,17.196V504.5c0,4.143,3.357,7.5,7.5,7.5
	s7.5-3.357,7.5-7.5v-68.222C455.887,411.785,439.476,389.852,415.978,382.94z M352.708,183.009l-38.799,26.861
	c-5.516,3.819-12.051,4.918-18.408,3.094c-6.355-1.825-11.669-6.446-14.214-12.363c-4.238-9.857-14.154-16.23-25.294-16.236
	c-0.004,0-0.007,0-0.011,0c-11.107,0-21.028,6.372-25.273,16.235c-2.547,5.918-7.864,10.54-14.221,12.363
	c-6.35,1.823-12.883,0.725-18.396-3.092l-38.8-26.862V159.29H352.71L352.708,183.009z M384.708,197.197
	c-0.63,6.292-6.612,11.222-13.618,11.222h-3.389c0.001-0.146,0.006-0.292,0.006-0.438l0.001-24.642h4.527
	c3.537,0,6.928,1.506,9.303,4.131C383.945,190.129,385.071,193.583,384.708,197.197z M367.709,168.339v-9.049h9.048v9.429
	c-1.486-0.249-2.997-0.38-4.522-0.38H367.709z M366.143,104.21h-23.272c-3.514-27.37-13.128-52.449-27.416-71.203
	c-0.453-0.594-0.91-1.178-1.371-1.757C340.154,47.035,359.533,73.134,366.143,104.21z M327.752,104.21h-32.514
	c-1.617-30.556-6.634-62.975-16.086-83.39C303.319,33.302,322.243,64.75,327.752,104.21z M256.001,15
	c1.734,0,8.068,4.545,14.221,24.738c5.137,16.855,8.629,39.525,9.989,64.472h-48.42c1.36-24.947,4.852-47.617,9.989-64.472
	C247.933,19.545,254.267,15,256.001,15z M197.832,31.302c-6.601,8.343-12.401,18.19-17.152,29.375
	c-1.62,3.813,0.158,8.216,3.971,9.836c3.813,1.619,8.215-0.159,9.835-3.971c9.298-21.888,22.87-37.784,38.379-45.755
	c-9.462,20.413-14.483,52.85-16.102,83.422h-32.511c0.337-2.412,0.722-4.807,1.16-7.167c0.757-4.072-1.931-7.987-6.003-8.744
	c-4.071-0.756-7.987,1.932-8.744,6.004c-0.605,3.255-1.112,6.57-1.54,9.907h-23.267C152.461,73.168,171.806,47.093,197.832,31.302z
	 M139.767,208.419c-3.537,0-6.928-1.506-9.303-4.131c-2.406-2.659-3.532-6.114-3.17-9.729c0.63-6.292,6.612-11.221,13.619-11.221
	h3.379v24.564c0,0.172,0.006,0.344,0.007,0.516L139.767,208.419L139.767,208.419z M135.244,168.896v-9.606h9.048v9.049h-3.379
	C138.979,168.339,137.084,168.534,135.244,168.896z M135.242,144.29v-24.564c0-0.284,0.231-0.516,0.516-0.516h240.484
	c0.284,0,0.516,0.231,0.516,0.516v24.564H135.242z M159.292,207.903v-6.651l30.262,20.952c9.146,6.331,20.472,8.217,31.071,5.178
	c10.793-3.097,19.491-10.697,23.862-20.852c1.874-4.354,6.385-7.166,11.525-7.166c0.001,0,0.003,0,0.005,0
	c5.111,0.003,9.621,2.813,11.491,7.162c4.366,10.155,13.061,17.757,23.854,20.855c3.324,0.954,6.719,1.424,10.097,1.424
	c7.396,0,14.706-2.253,20.988-6.603l30.26-20.95v6.721c-0.039,53.286-43.421,96.638-96.706,96.638
	C202.676,304.612,159.292,261.229,159.292,207.903z M319.614,327.629h22.431c5.546,0,8.647,3.719,9.701,7.198
	s0.535,8.294-4.079,11.37l-17.278,11.519c-6.397-2.391-10.775-8.602-10.775-15.5L319.614,327.629L319.614,327.629z M233.701,432.871
	H215.92c-48.906,0-88.693-39.788-88.693-88.694c0-22.385,18.211-40.597,40.597-40.597h24.564v9.049h-22.432
	c-11.331,0-20.773,7.007-24.057,17.852c-3.284,10.844,0.687,21.912,10.114,28.197l90.35,60.234
	C240.43,421.587,235.799,426.649,233.701,432.871z M192.387,327.629v14.587c0,6.899-4.378,13.109-10.775,15.5l-17.279-11.519
	c-4.614-3.076-5.132-7.891-4.078-11.37s4.155-7.198,9.7-7.198H192.387z M264.531,440.4c-0.016,4.692-3.835,8.503-8.53,8.503
	c-4.701,0-8.526-3.822-8.532-8.522c0-0.003,0-0.007,0-0.01s0-0.006,0-0.01c0.005-4.7,3.83-8.522,8.532-8.522
	c4.695,0,8.514,3.812,8.53,8.503c0,0.01-0.001,0.019-0.001,0.029S264.531,440.39,264.531,440.4z M296.081,432.871h-17.781
	c-2.098-6.222-6.729-11.285-12.662-13.96l26.588-17.726c3.446-2.298,4.378-6.954,2.08-10.4c-2.297-3.446-6.954-4.377-10.4-2.08
	L256,407.309l-60.6-40.4c7.37-5.878,11.988-14.919,11.988-24.692v-33.749c14.705,7.137,31.2,11.145,48.614,11.145
	c17.411,0,33.906-4.01,48.612-11.151v33.754c0,9.773,4.617,18.814,11.987,24.692L311.963,370c-3.446,2.298-4.378,6.954-2.08,10.4
	c1.445,2.168,3.823,3.341,6.247,3.341c1.43,0,2.875-0.408,4.153-1.261l35.703-23.803c9.428-6.285,13.398-17.353,10.115-28.197
	c-3.284-10.845-12.727-17.852-24.058-17.852h-22.431v-9.049h24.564c22.385,0,40.597,18.212,40.597,40.598
	C384.775,393.083,344.987,432.871,296.081,432.871z"/>
<path d="M207.905,199.371c4.142,0,7.5-3.357,7.5-7.5v-8.017c0-4.143-3.358-7.5-7.5-7.5s-7.5,3.357-7.5,7.5v8.017
	C200.405,196.014,203.762,199.371,207.905,199.371z"/>
<path d="M304.098,199.371c4.143,0,7.5-3.357,7.5-7.5v-8.017c0-4.143-3.357-7.5-7.5-7.5s-7.5,3.357-7.5,7.5v8.017
	C296.598,196.014,299.954,199.371,304.098,199.371z"/>
<path d="M239.969,255.483h32.064c4.143,0,7.5-3.357,7.5-7.5s-3.357-7.5-7.5-7.5h-32.064c-4.142,0-7.5,3.357-7.5,7.5
	S235.826,255.483,239.969,255.483z"/>
<g>
</g>
<g>
</g>
<g>
</g>
<g>
</g>
<g>
</g>
<g>
</g>
<g>
</g>
<g>
</g>
<g>
</g>
<g>
</g>
<g>
</g>
<g>
</g>
<g>
</g>
<g>
</g>
<g>
</g>
</svg>
