<?xml version="1.0" encoding="iso-8859-1"?>
<!-- Generator: Adobe Illustrator 19.0.0, SVG Export Plug-In . SVG Version: 6.00 Build 0)  -->
<svg version="1.1" id="Capa_1" xmlns="http://www.w3.org/2000/svg" xmlns:xlink="http://www.w3.org/1999/xlink" x="0px" y="0px"
	 viewBox="0 0 512.002 512.002" style="enable-background:new 0 0 512.002 512.002;" xml:space="preserve">
<path style="fill:#E3AA75;" d="M408.488,380.785l-82.903-29.26c-12.837-4.531-21.422-16.664-21.422-30.277v-41.498h-96.321v41.498
	c0,13.613-8.585,25.746-21.421,30.277l-82.903,29.26c-19.255,6.796-32.131,24.996-32.131,45.415v78.301H440.62v-78.301
	C440.619,405.781,427.742,387.581,408.488,380.785z"/>
<path style="fill:#D29B6E;" d="M207.842,321.248c14.867,6.148,31.129,9.562,48.161,9.562s33.294-3.415,48.161-9.562V279.75h-96.321
	L207.842,321.248L207.842,321.248z"/>
<path style="fill:#F5B97D;" d="M145.146,175.401l0.876,16.206c3.159,58.434,51.461,104.196,109.98,104.196
	c58.52,0,106.822-45.762,109.981-104.196l0.876-16.206L145.146,175.401L145.146,175.401z"/>
<path style="fill:#E3AA75;" d="M366.859,175.401H145.146l0.876,16.206c3.159,58.434,51.461,104.196,109.98,104.196
	c6.741,0,13.325-0.673,19.742-1.837c-32.903-5.968-60.847-26.545-76.621-54.948c-11.81-21.268,3.916-47.425,28.243-47.446
	l138.626-0.117L366.859,175.401z"/>
<path style="fill:#5A4650;" d="M362.645,9.132L312.19,46.973H199.815L149.36,9.132c-5.452-4.089-13.199,0.049-12.831,6.855
	l6.014,111.255h226.92l6.014-111.255C375.844,9.18,368.098,5.042,362.645,9.132z"/>
<path style="fill:#6E5A64;" d="M256.002,20.551c-60.642,0-109.322,47.19-113.49,105.686h-0.024l2.657,49.164h221.714l2.657-49.163
	h-0.025C365.325,67.741,316.644,20.551,256.002,20.551z"/>
<path style="fill:#5A4650;" d="M183.785,126.237c3.682-51.681,42.129-94.477,92.854-103.761c-6.689-1.224-13.571-1.925-20.637-1.925
	c-60.642,0-109.322,47.19-113.49,105.686h-0.024l2.657,49.164h41.272l-2.657-49.164C183.76,126.237,183.785,126.237,183.785,126.237
	z"/>
<g>
	<path style="fill:#6E5A64;" d="M195.806,346.243c7.229,7.434,31.406,13.776,60.196,13.776c28.792,0,52.966-6.343,60.196-13.776
		c-7.44-5.98-12.035-15.075-12.035-24.995v-2.579c-15.061,5.147-31.235,8.106-48.161,8.106s-33.1-2.959-48.161-8.106v2.579
		C207.842,331.168,203.247,340.263,195.806,346.243z"/>
	<path style="fill:#6E5A64;" d="M408.487,380.785l-5.832-2.058c-28.958,51.096-83.73,85.64-146.654,85.64
		s-117.696-34.544-146.654-85.64l-5.831,2.058c-19.256,6.796-32.131,24.996-32.131,45.415v78.301h369.233v-78.301
		C440.619,405.781,427.742,387.581,408.487,380.785z"/>
</g>
<g>
	<path style="fill:#F5B97D;" d="M210.028,200.029l-9.974-2.493c-14.293-3.573-24.32-16.416-24.32-31.149l0,0
		c0-12.754,10.339-23.093,23.093-23.093h18.03c12.754,0,23.093,10.339,23.093,23.093v10.281
		C239.948,192.333,225.227,203.828,210.028,200.029z"/>
	<path style="fill:#F5B97D;" d="M311.95,197.535l-9.974,2.493c-15.199,3.8-29.921-7.696-29.921-23.362v-10.281
		c0-12.754,10.339-23.093,23.093-23.093h18.03c12.754,0,23.093,10.339,23.093,23.093l0,0
		C336.271,181.119,326.243,193.962,311.95,197.535z"/>
</g>
<g>
	<path style="fill:#E3AA75;" d="M216.856,143.295h-18.029c-12.754,0-23.093,10.339-23.093,23.093c0,4.374,0.974,8.535,2.591,12.383
		c3.818-7.49,11.518-12.673,20.502-12.673h18.029c10.616,0,19.464,7.202,22.164,16.958c0.559-2.034,0.929-4.151,0.929-6.388v-10.281
		C239.948,153.633,229.61,143.295,216.856,143.295z"/>
	<path style="fill:#E3AA75;" d="M295.149,166.098h18.029c8.984,0,16.684,5.182,20.502,12.673c1.617-3.848,2.591-8.009,2.591-12.383
		c0-12.754-10.339-23.093-23.093-23.093h-18.029c-12.754,0-23.093,10.339-23.093,23.093v10.281c0,2.237,0.37,4.353,0.929,6.388
		C275.685,173.3,284.534,166.098,295.149,166.098z"/>
</g>
<path d="M410.999,373.7l-82.911-29.264c-9.821-3.467-16.42-12.793-16.42-23.208v-31.941c35.032-18.85,59.526-54.963,61.815-97.307
	l9.491-175.589c0.329-6.098-2.814-11.67-8.204-14.542c-5.39-2.87-11.77-2.372-16.646,1.304l-37.662,28.384
	c-19.153-12.058-41.382-18.536-64.46-18.536c-22.893,0-45.261,6.507-64.447,18.547L153.88,3.154
	c-4.876-3.676-11.255-4.176-16.646-1.305c-5.391,2.871-8.534,8.443-8.205,14.543l9.491,175.588
	c2.289,42.344,26.783,78.458,61.815,97.307v31.941c0,10.415-6.599,19.741-16.42,23.208L101.005,373.7
	c-22.214,7.839-37.139,28.935-37.139,52.491v78.31c0,4.143,3.357,7.5,7.5,7.5s7.5-3.357,7.5-7.5v-78.31
	c0-17.182,10.869-32.568,27.054-38.317c15.141,24.621,36.21,45.293,61.168,59.922c26.863,15.745,57.608,24.067,88.915,24.067
	c31.45,0,62.318-8.395,89.27-24.276c24.813-14.621,45.75-35.207,60.82-59.71c16.181,5.751,27.047,21.136,27.047,38.315v78.31
	c0,4.143,3.357,7.5,7.5,7.5s7.5-3.357,7.5-7.5v-78.31C448.138,402.634,433.212,381.539,410.999,373.7z M367.152,15.133
	c0.125-0.096,0.27-0.203,0.566-0.045c0.296,0.158,0.287,0.337,0.278,0.495l-3.488,64.528c-6.33-12.652-14.893-24.223-25.431-34.157
	c-1.919-1.809-3.892-3.543-5.908-5.212L367.152,15.133z M144.286,15.088c0.298-0.156,0.44-0.049,0.566,0.045l33.981,25.609
	c-0.175,0.145-0.353,0.285-0.527,0.431c-3.177,2.659-3.597,7.389-0.938,10.565c2.66,3.177,7.391,3.596,10.565,0.938
	C206.946,36.764,231.12,28,256.001,28c27.19,0,53.039,10.252,72.787,28.868c19.474,18.358,31.262,43.073,33.212,69.619l-2.237,41.38
	h-16.019c0.019-0.504,0.032-1.009,0.032-1.517c0-16.87-13.725-30.595-30.595-30.595h-18.032c-15.011,0-27.522,10.869-30.1,25.149
	c-2.749-0.69-5.791-1.066-9.051-1.066c-3.26,0-6.302,0.376-9.051,1.066c-2.578-14.28-15.089-25.149-30.1-25.149h-18.032
	c-16.87,0-30.595,13.725-30.595,30.595c0,0.508,0.013,1.013,0.032,1.517H152.24l-2.236-41.372
	c1.343-18.292,7.46-36.029,17.703-51.311c2.306-3.441,1.386-8.1-2.055-10.406c-3.441-2.307-8.1-1.385-10.406,2.055
	c-2.871,4.284-5.454,8.74-7.747,13.33l-3.491-64.579C143.999,15.425,143.99,15.246,144.286,15.088z M279.558,166.351
	c0-8.599,6.996-15.595,15.595-15.595h18.032c8.599,0,15.595,6.996,15.595,15.595c0,11.314-7.665,21.133-18.641,23.876
	c-0.001,0-0.001,0-0.001,0l-9.976,2.494c-4.988,1.246-10.174,0.147-14.227-3.017c-4.054-3.165-6.378-7.929-6.378-13.071
	L279.558,166.351L279.558,166.351z M232.448,176.632c0,5.143-2.324,9.906-6.378,13.071c-4.053,3.164-9.24,4.265-14.227,3.017
	l-9.977-2.494c-10.976-2.743-18.641-12.562-18.641-23.876c0-8.599,6.996-15.595,15.595-15.595h18.032
	c8.599,0,15.595,6.996,15.595,15.595v10.282H232.448z M153.499,191.17l-0.449-8.303h18.776
	c4.891,10.675,14.418,18.916,26.404,21.912l9.976,2.494c2.566,0.642,5.159,0.957,7.73,0.957c6.947,0,13.732-2.305,19.366-6.703
	c7.698-6.011,12.121-15.054,12.144-24.817c1.183-0.731,4.112-1.871,8.558-1.871c4.446,0,7.375,1.14,8.558,1.871
	c0.023,9.763,4.446,18.806,12.144,24.817c5.635,4.398,12.418,6.703,19.366,6.703c2.57,0,5.164-0.315,7.73-0.957l9.975-2.494
	c11.986-2.996,21.513-11.237,26.405-21.912h18.776l-0.449,8.303c-2.943,54.456-47.968,97.112-102.503,97.112
	S156.443,245.626,153.499,191.17z M256.002,303.282c14.273,0,27.975-2.557,40.666-7.234v15.276
	c-0.265,0.327-0.986,1.061-2.689,2.043c-2.026,1.168-4.798,2.292-8.014,3.251c-3.97,1.185-6.228,5.361-5.044,9.331
	c0.971,3.255,3.954,5.358,7.185,5.358c0.71,0,1.432-0.102,2.146-0.314c2.58-0.77,4.944-1.629,7.084-2.565
	c1.042,5.617,3.278,10.885,6.485,15.475c-4.67,3.427-21.172,8.601-47.818,8.601s-43.148-5.174-47.818-8.601
	c3.207-4.59,5.443-9.858,6.485-15.476c1.486,0.651,3.111,1.28,4.904,1.877c9.842,3.281,22.78,5.088,36.43,5.088
	c4.143,0,7.5-3.357,7.5-7.5s-3.357-7.5-7.5-7.5c-24.833,0-38.617-6.209-40.666-9.045v-15.3
	C228.028,300.726,241.729,303.282,256.002,303.282z M337.657,434.664c-22.5,13.258-47.993,20.789-74.154,22.004v-8.36
	c0-4.143-3.357-7.5-7.5-7.5s-7.5,3.357-7.5,7.5v8.36c-26.033-1.209-51.414-8.675-73.83-21.813
	c-21.909-12.841-40.542-30.773-54.256-52.099l68.492-24.174c3.04-1.073,5.885-2.497,8.502-4.213
	c3.654,3.261,9.25,5.988,16.796,8.144c11.266,3.219,26.108,4.991,41.795,4.991s30.53-1.772,41.795-4.991
	c7.546-2.156,13.143-4.882,16.796-8.144c2.617,1.716,5.463,3.14,8.502,4.213l68.489,24.173
	C377.94,403.974,359.433,421.833,337.657,434.664z"/>
<path d="M285.353,236.9c2.948-2.909,2.98-7.658,0.071-10.606c-2.911-2.949-7.66-2.979-10.606-0.071
	c-2.742,2.706-9.315,5.866-18.815,5.866c-9.5,0-16.073-3.16-18.815-5.866c-2.946-2.907-7.695-2.878-10.606,0.071
	c-2.909,2.948-2.877,7.697,0.071,10.606c6.466,6.38,17.438,10.188,29.351,10.188C267.917,247.087,278.887,243.279,285.353,236.9z"/>
<path d="M207.836,159.839c-4.143,0-7.5,3.357-7.5,7.5v8.028c0,4.143,3.357,7.5,7.5,7.5s7.5-3.357,7.5-7.5v-8.028
	C215.336,163.197,211.979,159.839,207.836,159.839z"/>
<path d="M304.168,182.867c4.143,0,7.5-3.357,7.5-7.5v-8.028c0-4.143-3.357-7.5-7.5-7.5s-7.5,3.357-7.5,7.5v8.028
	C296.668,179.509,300.026,182.867,304.168,182.867z"/>
<g>
</g>
<g>
</g>
<g>
</g>
<g>
</g>
<g>
</g>
<g>
</g>
<g>
</g>
<g>
</g>
<g>
</g>
<g>
</g>
<g>
</g>
<g>
</g>
<g>
</g>
<g>
</g>
<g>
</g>
</svg>
