<?xml version="1.0" encoding="iso-8859-1"?>
<!-- Generator: Adobe Illustrator 19.0.0, SVG Export Plug-In . SVG Version: 6.00 Build 0)  -->
<svg version="1.1" id="Capa_1" xmlns="http://www.w3.org/2000/svg" xmlns:xlink="http://www.w3.org/1999/xlink" x="0px" y="0px"
	 viewBox="0 0 512 512" style="enable-background:new 0 0 512 512;" xml:space="preserve">
<path style="fill:#B67F5F;" d="M413.863,358.071l-84.486-24.849c-10.235-3.01-17.263-12.403-17.263-23.071v-38.119H199.888v38.119
	c0,10.668-7.028,20.061-17.263,23.071l-84.486,24.849c-20.469,6.02-34.525,24.806-34.525,46.142V504.5h384.774V404.213
	C448.388,382.877,434.332,364.091,413.863,358.071z"/>
<path style="fill:#EDEBED;" d="M432.356,296.081h-2.671c-8.671,0-17.109,2.812-24.047,8.015l-10.691,8.018
	c-6.939,5.203-15.378,8.016-24.051,8.016h-13.681c-3.037,0-5.767,1.673-7.142,4.381c-7.591,14.949-35.547,57.385-83.868,79.548
	c-6.465,2.965-13.943,2.965-20.408,0c-48.32-22.163-76.276-64.597-83.867-79.547c-1.375-2.708-4.105-4.381-7.143-4.381h-13.684
	c-8.672,0-17.111-2.813-24.049-8.016l-10.688-8.016c-6.938-5.203-15.377-8.016-24.049-8.016h-2.671
	c-26.563,0-48.097,21.534-48.097,48.097v56.113c0,17.709,14.356,32.065,32.065,32.065h64.129h256.516h64.129
	c17.709,0,32.065-14.356,32.065-32.065V344.18C480.453,317.614,458.919,296.081,432.356,296.081z"/>
<path style="fill:#A5CDFF;" d="M370.896,320.129h-13.682c-3.037,0-5.766,1.672-7.142,4.38c-7.591,14.95-35.547,57.385-83.868,79.548
	c-6.465,2.965-13.943,2.965-20.407,0c-48.32-22.163-76.276-64.597-83.867-79.547c-1.375-2.709-4.105-4.382-7.143-4.381h-13.684
	c-4.588,0-9.092-0.837-13.361-2.348V504.5h256.516V317.78C379.989,319.292,375.485,320.129,370.896,320.129z"/>
<path style="fill:#A06E50;" d="M199.888,297.937c16.841,8.996,35.939,14.176,56.113,14.176s39.272-5.18,56.113-14.176v-25.905
	H199.888V297.937z"/>
<path style="fill:#A5CDFF;" d="M256.001,7.5c-66.408,0-120.242,53.834-120.242,120.242h240.484
	C376.243,61.334,322.409,7.5,256.001,7.5z"/>
<path style="fill:#EDEBED;" d="M256.001,7.5c-11.122,0-21.842,1.631-32.065,4.457v115.785h64.13V11.957
	C277.843,9.13,267.123,7.5,256.001,7.5z"/>
<path style="fill:#8CB4EB;" d="M209.372,84.9c4.982-31.578,22.314-59.019,46.834-77.39c-0.003-0.008,0-0.001-0.003-0.01
	C189.702,7.391,135.76,61.266,135.76,127.742h240.484c0-8.237-0.837-16.277-2.415-24.048H225.221
	C215.269,103.694,207.821,94.729,209.372,84.9z"/>
<g>
	<path style="fill:#DBD9DC;" d="M256.001,440.371c-35.417,0-64.129,28.712-64.129,64.129H320.13
		C320.13,469.083,291.418,440.371,256.001,440.371z"/>
	<path style="fill:#DBD9DC;" d="M223.936,44.037c8.21-14.244,19.166-26.71,32.27-36.527c-0.003-0.008-0.001-0.001-0.003-0.009
		c-11.193-0.019-21.982,1.61-32.266,4.453v32.083H223.936z"/>
	<path style="fill:#DBD9DC;" d="M288.066,103.694h-62.845c-0.444,0-0.851-0.11-1.284-0.144v24.193h64.13v-24.049H288.066z"/>
	<path style="fill:#DBD9DC;" d="M103.695,432.355h24.048v-40.081l0,0l0,0c-13.282,0-24.048,10.767-24.048,24.048V432.355z"/>
</g>
<path style="fill:#A06E50;" d="M63.614,432.355v16.032h24.048c8.854,0,16.032,7.178,16.032,16.032V504.5h24.048v-72.145H63.614z"/>
<path style="fill:#DBD9DC;" d="M408.307,432.355h-24.048v-40.081l0,0l0,0c13.282,0,24.048,10.767,24.048,24.048V432.355z"/>
<path style="fill:#A06E50;" d="M448.388,432.355v16.032H424.34c-8.854,0-16.032,7.178-16.032,16.032V504.5h-24.048v-72.145H448.388z
	"/>
<path style="fill:#EDEBED;" d="M256.001,464.419c-22.136,0-40.081,17.945-40.081,40.081h80.161
	C296.082,482.364,278.137,464.419,256.001,464.419z"/>
<path style="fill:#CD916E;" d="M256.001,288.065L256.001,288.065c-57.554,0-104.21-46.656-104.21-104.21v-56.113h208.42v56.113
	C360.211,241.408,313.554,288.065,256.001,288.065z"/>
<path style="fill:#B67F5F;" d="M336.162,135.758v-8.016H151.791v56.113c0,57.553,46.656,104.21,104.21,104.21
	c5.466,0,10.793-0.547,16.032-1.359c-49.921-7.729-88.177-50.764-88.177-102.851l0,0c0-17.709,14.356-32.064,32.064-32.064h104.21
	C328.984,151.79,336.162,144.612,336.162,135.758z"/>
<path d="M211.912,175.322c4.143,0,7.5-3.357,7.5-7.5v-8.016c0-4.143-3.357-7.5-7.5-7.5s-7.5,3.357-7.5,7.5v8.016
	C204.412,171.965,207.77,175.322,211.912,175.322z"/>
<path d="M300.09,175.322c4.143,0,7.5-3.357,7.5-7.5v-8.016c0-4.143-3.357-7.5-7.5-7.5s-7.5,3.357-7.5,7.5v8.016
	C292.59,171.965,295.947,175.322,300.09,175.322z"/>
<path d="M272.033,216.436h-32.064c-4.143,0-7.5,3.357-7.5,7.5s3.357,7.5,7.5,7.5h32.064c4.143,0,7.5-3.357,7.5-7.5
	S276.176,216.436,272.033,216.436z"/>
<path d="M432.355,288.581h-2.672c-10.228,0-20.366,3.38-28.548,9.516l-10.688,8.017c-5.603,4.201-12.545,6.516-19.549,6.516h-13.684
	c-5.878,0-11.169,3.234-13.807,8.44c-0.241,0.475-1.61,3.13-4.14,7.245l-7.775-2.287c-6.994-2.058-11.879-8.586-11.879-15.876
	v-34.453c8.21-5.69,15.636-12.472,22.1-20.215h12.931c11.55,0,21.313-8.27,23.213-19.663l4.893-29.356
	c9.819-2.831,17.024-11.892,17.024-22.61v-40.08c0-10.412-6.8-19.26-16.189-22.353C380.28,53.909,324.319,0,256.001,0
	S131.722,53.909,128.416,121.422c-9.39,3.093-16.189,11.941-16.189,22.353v40.08c0,10.718,7.205,19.779,17.025,22.61l4.893,29.356
	c1.899,11.394,11.662,19.663,23.212,19.663h12.935c6.459,7.736,13.88,14.528,22.096,20.221v34.447
	c0,7.29-4.885,13.818-11.879,15.876l-7.775,2.287c-2.529-4.114-3.898-6.769-4.139-7.244c-2.639-5.207-7.93-8.441-13.808-8.441
	h-13.684c-7.004,0-13.946-2.314-19.549-6.516l-10.688-8.017c-8.182-6.136-18.32-9.516-28.548-9.516h-2.672
	c-30.656,0-55.597,24.94-55.597,55.597v56.112c0,19.251,13.824,35.327,32.064,38.842V504.5c0,4.143,3.357,7.5,7.5,7.5
	s7.5-3.357,7.5-7.5v-64.646h49.129V504.5c0,4.143,3.357,7.5,7.5,7.5c4.143,0,7.5-3.357,7.5-7.5v-88.178c0-4.143-3.357-7.5-7.5-7.5
	c-4.143,0-7.5,3.357-7.5,7.5v8.532H63.614c-13.545,0-24.564-11.02-24.564-24.564v-56.112c0-22.385,18.212-40.597,40.597-40.597
	h2.672c7.003,0,13.945,2.313,19.548,6.516l10.688,8.017c2.408,1.806,4.989,3.366,7.688,4.679v61.466c0,4.143,3.357,7.5,7.5,7.5
	s7.5-3.357,7.5-7.5v-57c1.941,0.244,3.899,0.371,5.86,0.371h13.684c0.074,0,0.323,0.016,0.428,0.222
	c1.294,2.555,32.461,62.844,98.152,87.479c1.699,0.637,3.568,0.637,5.268,0c65.691-24.635,96.858-84.924,98.153-87.479
	c0.104-0.205,0.353-0.221,0.427-0.221h13.684c1.961,0,3.919-0.127,5.86-0.371V504.5c0,4.143,3.357,7.5,7.5,7.5s7.5-3.357,7.5-7.5
	v-64.646h49.129V504.5c0,4.143,3.357,7.5,7.5,7.5s7.5-3.357,7.5-7.5v-65.368c18.24-3.516,32.064-19.591,32.064-38.842v-56.112
	C487.952,313.521,463.012,288.581,432.355,288.581z M219.709,266.977l-2.09-11.493h76.764l-2.09,11.493
	c-1.432,7.873-8.279,13.588-16.281,13.588h-40.021C227.988,280.564,221.141,274.85,219.709,266.977z M177.483,240.483
	c-7.118-9.869-12.34-21.079-15.318-33.097h31.463l6.018,33.097H177.483z M208.874,207.387h94.253l-6.018,33.097h-82.218
	L208.874,207.387z M349.817,207.387c-2.836,11.361-7.722,22.142-14.551,31.889c-0.286,0.409-0.588,0.804-0.88,1.208h-22.031
	l6.018-33.097H349.817z M307.8,265.539l1.828-10.056h11.379C316.903,259.216,312.482,262.57,307.8,265.539z M354.646,240.483h-2.334
	c6.085-10.316,10.411-21.466,12.901-33.097h2.177l-4.328,25.967C362.373,237.484,358.833,240.483,354.646,240.483z M384.775,183.854
	c0,4.705-3.827,8.532-8.532,8.532h-8.854c0.213-2.827,0.321-5.672,0.321-8.532v-48.612h8.532c4.705,0,8.532,3.827,8.532,8.532
	L384.775,183.854L384.775,183.854z M280.565,17.703v61.94c0,4.143,3.357,7.5,7.5,7.5s7.5-3.357,7.5-7.5V22.172
	c40.476,15.219,69.952,53.079,72.922,98.07h-72.922v-8.534c0-4.143-3.357-7.5-7.5-7.5s-7.5,3.357-7.5,7.5v8.534h-49.129V17.703
	c7.911-1.765,16.13-2.703,24.565-2.703S272.655,15.938,280.565,17.703z M216.437,22.172v98.07h-72.922
	C146.484,75.251,175.961,37.391,216.437,22.172z M127.227,143.774c0-4.705,3.827-8.532,8.532-8.532h8.532v0.517
	c0,4.143,3.357,7.5,7.5,7.5s7.5-3.357,7.5-7.5v-0.517h193.42v48.612c0,2.864-0.139,5.708-0.385,8.532H159.674
	c-0.244-2.818-0.383-5.661-0.383-8.532v-16.031c0-4.143-3.357-7.5-7.5-7.5s-7.5,3.357-7.5,7.5v16.031
	c0,2.859,0.108,5.705,0.321,8.532h-8.854c-4.705,0-8.532-3.827-8.532-8.532L127.227,143.774L127.227,143.774z M148.94,233.354
	l-4.328-25.967h2.178c2.491,11.629,6.822,22.781,12.906,33.097h-2.339C153.169,240.483,149.629,237.484,148.94,233.354z
	 M202.374,255.483l1.836,10.097c-4.756-2.999-9.193-6.385-13.294-10.097L202.374,255.483L202.374,255.483z M256.001,400.269
	c-36.342-14.416-60.813-40.604-74.418-58.922l3.158-0.929c13.334-3.922,22.646-16.368,22.646-30.267v-25.695
	c2.374,1.147,4.791,2.217,7.255,3.2c0.248,0.099,0.497,0.18,0.748,0.251c5.565,4.798,12.792,7.657,20.6,7.657h40.021
	c7.776,0,14.975-2.835,20.531-7.598c2.746-1.07,5.436-2.246,8.071-3.519v25.703c0,13.898,9.313,26.345,22.646,30.267l3.158,0.929
	C316.814,359.665,292.342,385.852,256.001,400.269z M472.952,400.29c0,13.545-11.02,24.564-24.564,24.564h-56.629V322.792
	c2.699-1.313,5.281-2.873,7.688-4.679l10.688-8.017c5.603-4.202,12.545-6.516,19.548-6.516h2.672
	c22.385,0,40.597,18.212,40.597,40.597V400.29z"/>
<path d="M256.001,432.871c-39.496,0-71.629,32.133-71.629,71.629c0,4.143,3.357,7.5,7.5,7.5s7.5-3.357,7.5-7.5
	c0-31.226,25.403-56.629,56.629-56.629s56.629,25.403,56.629,56.629c0,4.143,3.357,7.5,7.5,7.5s7.5-3.357,7.5-7.5
	C327.63,465.004,295.497,432.871,256.001,432.871z"/>
<g>
</g>
<g>
</g>
<g>
</g>
<g>
</g>
<g>
</g>
<g>
</g>
<g>
</g>
<g>
</g>
<g>
</g>
<g>
</g>
<g>
</g>
<g>
</g>
<g>
</g>
<g>
</g>
<g>
</g>
</svg>
