<?xml version="1.0" encoding="iso-8859-1"?>
<!-- Generator: Adobe Illustrator 19.0.0, SVG Export Plug-In . SVG Version: 6.00 Build 0)  -->
<svg version="1.1" id="Capa_1" xmlns="http://www.w3.org/2000/svg" xmlns:xlink="http://www.w3.org/1999/xlink" x="0px" y="0px"
	 viewBox="0 0 512.002 512.002" style="enable-background:new 0 0 512.002 512.002;" xml:space="preserve">
<path style="fill:#F7D291;" d="M402.577,451.08l-77.085-27.207c-12.82-4.525-21.393-16.642-21.393-30.237v-49.458h-96.194v49.459
	c0,13.595-8.573,25.712-21.393,30.237l-77.086,27.207c-22.65,7.994-37.796,29.401-37.795,53.42h368.741
	C440.373,480.481,425.227,459.074,402.577,451.08z"/>
<path style="fill:#8CB4EB;" d="M402.577,451.08l-77.085-27.207c-8.416-2.971-14.938-9.243-18.47-17.028l-51.02,25.51l-51.02-25.51
	c-3.532,7.785-10.054,14.058-18.47,17.028l-77.086,27.207c-22.649,7.993-37.796,29.4-37.792,53.42h368.733
	C440.373,480.48,425.226,459.073,402.577,451.08z"/>
<path style="fill:#F0C382;" d="M207.905,390.37c14.753,6.391,31.02,9.92,48.097,9.92s33.344-3.529,48.097-9.92v-46.193h-96.194
	L207.905,390.37L207.905,390.37z"/>
<path style="fill:#6E5A64;" d="M135.76,272.032h72.192l-2.552,80.662c-8.934,18.537-53.608,55.612-53.608,55.612v8.016
	c0,0,27.555,39.58,40.081,88.177H135.76v-96.194C127.744,344.177,135.76,272.032,135.76,272.032z"/>
<path style="fill:#5A4650;" d="M151.792,432.355h-8.016c-8.854,0-16.032-7.178-16.032-16.032l0,0
	c0-8.854,7.178-16.032,16.032-16.032h8.016c8.854,0,16.032,7.178,16.032,16.032l0,0
	C167.825,425.177,160.647,432.355,151.792,432.355z"/>
<g>
	<path style="fill:#6E5A64;" d="M376.244,272.032h-72.192l2.552,80.662c8.934,18.537,53.608,55.612,53.608,55.612v8.016
		c0,0-27.555,39.58-40.081,88.177h56.113v-96.194C384.26,344.177,376.244,272.032,376.244,272.032z"/>
	<circle style="fill:#6E5A64;" cx="256.001" cy="432.36" r="16.03"/>
</g>
<path style="fill:#5A4650;" d="M360.212,432.355h8.016c8.854,0,16.032-7.178,16.032-16.032l0,0c0-8.854-7.178-16.032-16.032-16.032
	h-8.016c-8.854,0-16.032,7.178-16.032,16.032l0,0C344.179,425.177,351.357,432.355,360.212,432.355z"/>
<path style="fill:#739BD7;" d="M317.011,50.62L290.86,20.111C283.999,12.107,273.982,7.5,263.44,7.5
	c-14.272,0-27.206,8.406-33.002,21.447l65.645,58.714l18.375-13.782C321.869,68.322,323.04,57.656,317.011,50.62z"/>
<path style="fill:#8CB4EB;" d="M263.44,7.5L263.44,7.5c-14.272,0-27.206,8.405-33.002,21.447L175.841,151.79h160.323L263.44,7.5z"/>
<path style="fill:#FFE1A0;" d="M372.236,239.968H139.768c-11.068,0-20.04,8.972-20.04,20.04c0,11.067,8.972,20.04,20.04,20.04
	h12.429c4.106,53.796,48.958,96.194,103.805,96.194s99.699-42.398,103.805-96.194h12.429c11.068,0,20.04-8.973,20.04-20.04
	C392.276,248.94,383.304,239.968,372.236,239.968z"/>
<path style="fill:#F7D291;" d="M336.163,247.984v-8.016H140.912c-10.483,0-20.035,7.542-21.081,17.972
	c-1.202,11.996,8.186,22.109,19.936,22.109h12.429c4.106,53.796,48.957,96.194,103.805,96.194c5.483,0,10.83-0.534,16.083-1.35
	c-49.946-7.709-88.228-42.738-88.228-94.843l0,0c0-8.854,7.178-16.032,16.032-16.032h120.243
	C328.985,264.016,336.163,256.838,336.163,247.984z"/>
<path style="fill:#8CB4EB;" d="M428.853,229.449l-84.674-45.594H167.825l-84.674,45.594c-5.117,2.756-3.159,10.519,2.652,10.519
	h340.398C432.012,239.968,433.97,232.204,428.853,229.449z"/>
<path style="fill:#6E5A64;" d="M336.163,151.79H175.841c-4.427,0-8.016,3.589-8.016,8.016v24.048H344.18v-24.048
	C344.179,155.38,340.591,151.79,336.163,151.79z"/>
<path style="fill:#739BD7;" d="M230.438,28.947L175.841,151.79h40.081L254.052,8.8C243.704,11.592,234.924,18.853,230.438,28.947z"
	/>
<path style="fill:#5A4650;" d="M175.841,151.79c-4.427,0-8.016,3.589-8.016,8.016v24.048h40.081V151.79H175.841z"/>
<path style="fill:#739BD7;" d="M170.266,229.449l37.639-45.594h-40.081l-84.673,45.594c-5.117,2.756-3.159,10.519,2.652,10.519
	h85.665C168.836,239.968,167.95,232.204,170.266,229.449z"/>
<path d="M285.272,317.452c2.948-2.909,2.98-7.657,0.071-10.606c-2.909-2.949-7.658-2.98-10.606-0.071
	c-2.737,2.7-9.299,5.854-18.781,5.854s-16.043-3.154-18.781-5.854c-2.949-2.911-7.698-2.878-10.606,0.071
	c-2.909,2.949-2.877,7.697,0.071,10.606c6.459,6.372,17.418,10.177,29.316,10.177S278.812,323.824,285.272,317.452z"/>
<path d="M410.78,446.021l-27.036-9.542v-2.487c4.909-4.316,8.017-10.635,8.017-17.67c0-6.926-3.009-13.161-7.787-17.471
	c6.251-52.328,2.196-98.393,0.407-114.156c9.086-4.505,15.349-13.876,15.349-24.687c0-4.515-1.099-8.776-3.033-12.54h29.504
	c6.102,0,11.205-3.976,12.696-9.893c1.492-5.917-1.115-11.837-6.489-14.73l-80.729-43.47v-19.568
	c0-6.771-4.366-12.527-10.425-14.641l-29.588-59.817l7.292-5.469c5.185-3.889,8.565-9.814,9.272-16.257
	c0.708-6.443-1.306-12.962-5.525-17.884l-26.15-30.509C288.258,5.551,276.189,0,263.44,0c-17.219,0-32.863,10.167-39.856,25.901
	l-53.04,119.34c-5.951,2.172-10.22,7.872-10.22,14.566v19.568l-80.73,43.47c-5.373,2.894-7.98,8.813-6.488,14.73
	c1.492,5.917,6.594,9.893,12.696,9.893h29.412c-1.934,3.764-3.033,8.025-3.033,12.54c0,10.849,6.307,20.25,15.446,24.737
	c-0.303,2.707-0.672,6.307-1.047,10.701c-0.352,4.127,2.709,7.758,6.836,8.109c0.217,0.019,0.432,0.027,0.646,0.027
	c3.854,0,7.131-2.953,7.464-6.863c0.31-3.641,0.619-6.726,0.884-9.17h2.918c4.253,30.471,20.841,57.042,44.543,74.491
	c-8.232,10.997-25.19,25.071-33.248,31.251c-1.56-0.327-3.175-0.501-4.831-0.501h-8.016c-0.444,0-0.885,0.015-1.323,0.04
	c-2.242-20.514-3.13-42.171-2.613-64.505c0.096-4.142-3.184-7.576-7.325-7.672c-0.059-0.001-0.118-0.002-0.177-0.002
	c-4.062,0-7.4,3.245-7.495,7.326c-0.568,24.584,0.519,48.401,3.201,70.862c-4.786,4.311-7.801,10.551-7.801,17.484
	c0,7.035,3.107,13.354,8.017,17.67v2.487l-27.036,9.542c-22.187,7.831-37.093,28.899-37.093,52.427v6.052c0,4.143,3.358,7.5,7.5,7.5
	s7.5-3.357,7.5-7.5v-6.052c0-17.18,10.885-32.564,27.085-38.282l22.044-7.78V504.5c0,4.143,3.358,7.5,7.5,7.5s7.5-3.357,7.5-7.5
	v-64.646h8.532c1.205,0,2.388-0.092,3.545-0.267c5.798,10.144,22.91,41.335,29.26,66.732c0.852,3.407,3.91,5.683,7.27,5.683
	c0.602,0,1.214-0.073,1.825-0.226c4.019-1.005,6.462-5.077,5.457-9.096c-5.993-23.974-20.283-51.658-27.922-65.459l17.781-6.276
	c7.798-2.752,14.329-7.805,18.946-14.229l24.747,12.373c-0.149,1.068-0.232,2.157-0.232,3.265c0,10.354,6.724,19.16,16.032,22.3
	V504.5c0,4.143,3.358,7.5,7.5,7.5s7.5-3.357,7.5-7.5v-49.846c9.308-3.139,16.032-11.946,16.032-22.3
	c0-1.108-0.083-2.197-0.232-3.265l24.747-12.373c4.617,6.424,11.147,11.477,18.946,14.229l17.781,6.276
	c-7.638,13.801-21.928,41.486-27.922,65.459c-1.005,4.019,1.438,8.091,5.457,9.096c0.61,0.152,1.222,0.226,1.825,0.226
	c3.36,0,6.418-2.275,7.27-5.683c6.341-25.363,23.461-56.581,29.261-66.732c1.156,0.175,2.34,0.267,3.544,0.267h8.532V504.5
	c0,4.143,3.358,7.5,7.5,7.5s7.5-3.357,7.5-7.5v-52.114l22.044,7.78c16.201,5.718,27.085,21.103,27.085,38.282v6.052
	c0,4.143,3.358,7.5,7.5,7.5s7.5-3.357,7.5-7.5v-6.052C447.873,474.921,432.966,453.853,410.78,446.021z M237.291,31.993
	C241.879,21.67,252.143,15,263.44,15c8.364,0,16.283,3.642,21.726,9.992l26.15,30.509c1.553,1.811,2.264,4.114,2.004,6.484
	c-0.261,2.37-1.455,4.464-3.362,5.895l-5.057,3.792l-6.038-12.207c-1.836-3.713-6.334-5.232-10.048-3.397
	c-3.713,1.837-5.234,6.335-3.397,10.048l38.668,78.174H187.381L237.291,31.993z M93.363,232.468l76.353-41.113h118.348
	c4.142,0,7.5-3.357,7.5-7.5s-3.358-7.5-7.5-7.5H175.325v-16.548c0-0.282,0.227-0.51,0.508-0.515c0.001,0,0.003,0,0.004,0
	c0.009,0,0.018-0.002,0.027-0.002h160.277c0.01,0,0.019,0.002,0.028,0.002c0.001,0,0.002,0,0.003,0
	c0.28,0.005,0.507,0.233,0.507,0.515v16.548h-16.548c-4.142,0-7.5,3.357-7.5,7.5s3.358,7.5,7.5,7.5h22.157l76.353,41.113
	L93.363,232.468L93.363,232.468z M151.793,424.854h-8.016c-4.705,0-8.533-3.827-8.533-8.532s3.828-8.532,8.533-8.532h8.016
	c4.705,0,8.532,3.827,8.532,8.532S156.497,424.854,151.793,424.854z M200.405,393.637c0,10.396-6.586,19.704-16.389,23.164
	l-8.975,3.168c0.186-1.189,0.284-2.406,0.284-3.646c0-5.523-1.918-10.604-5.116-14.623c7.858-6.287,21.408-17.78,30.196-28.804
	V393.637z M256.002,440.887c-4.705,0-8.532-3.827-8.532-8.532s3.828-8.532,8.532-8.532c4.704,0,8.532,3.827,8.532,8.532
	S260.707,440.887,256.002,440.887z M272.587,415.677c-4.257-4.234-10.12-6.855-16.585-6.855s-12.327,2.621-16.585,6.855
	l-25.166-12.583c0.754-3.051,1.154-6.221,1.154-9.458v-17.515c12.577,4.917,26.253,7.62,40.55,7.62
	c14.332,0,28.041-2.716,40.643-7.656v17.55c0,3.237,0.401,6.407,1.154,9.458L272.587,415.677z M336.679,416.322
	c0,1.24,0.098,2.458,0.284,3.646l-8.975-3.168c-9.803-3.46-16.389-12.769-16.389-23.164v-20.742
	c8.788,11.024,22.338,22.518,30.196,28.804C338.597,405.718,336.679,410.799,336.679,416.322z M322.098,361.997
	c23.671-17.45,40.235-44.002,44.484-74.448h3.003c1.679,15.661,5.137,57.944-0.022,105.281c-0.442-0.025-0.887-0.04-1.336-0.04
	h-8.016c-1.656,0-3.271,0.174-4.831,0.501C347.314,387.108,330.32,373.011,322.098,361.997z M368.228,424.854h-8.016
	c-4.705,0-8.532-3.827-8.532-8.532s3.828-8.532,8.532-8.532h8.016c4.705,0,8.533,3.827,8.533,8.532S372.933,424.854,368.228,424.854
	z M372.189,272.549h-4.531c0.001-0.173,0.007-0.344,0.007-0.517c0-4.143-3.358-7.5-7.5-7.5s-7.5,3.357-7.5,7.5
	c0,53.326-43.384,96.71-96.709,96.71c-53.326,0-96.71-43.384-96.71-96.71c0-4.143-3.358-7.5-7.5-7.5s-7.5,3.357-7.5,7.5
	c0,0.173,0.006,0.344,0.007,0.517h-4.53c-6.915,0-12.541-5.626-12.541-12.541s5.625-12.54,12.541-12.54h60.637V258.5
	c0,4.143,3.358,7.5,7.5,7.5s7.5-3.357,7.5-7.5v-11.032h81.193V258.5c0,4.143,3.358,7.5,7.5,7.5s7.5-3.357,7.5-7.5v-11.032h60.637
	c6.915,0,12.54,5.625,12.54,12.54C384.73,266.923,379.104,272.549,372.189,272.549z"/>
<g>
</g>
<g>
</g>
<g>
</g>
<g>
</g>
<g>
</g>
<g>
</g>
<g>
</g>
<g>
</g>
<g>
</g>
<g>
</g>
<g>
</g>
<g>
</g>
<g>
</g>
<g>
</g>
<g>
</g>
</svg>
