<?xml version="1.0" encoding="iso-8859-1"?>
<!-- Generator: Adobe Illustrator 19.0.0, SVG Export Plug-In . SVG Version: 6.00 Build 0)  -->
<svg version="1.1" id="Capa_1" xmlns="http://www.w3.org/2000/svg" xmlns:xlink="http://www.w3.org/1999/xlink" x="0px" y="0px"
	 viewBox="0 0 512 512" style="enable-background:new 0 0 512 512;" xml:space="preserve">
<path style="fill:#E3AA75;" d="M427.725,362.942l-52.086-9.41c-4.822-0.871-9.264-3.195-12.729-6.66l-27.72-27.719
	c-4.51-4.51-7.044-10.627-7.044-17.005L328.48,256H183.522l0.334,46.149c0,6.378-2.534,12.495-7.044,17.005l-27.72,27.719
	c-3.465,3.465-7.906,5.789-12.729,6.66l-52.086,9.41c-30.525,5.514-52.728,32.087-52.728,63.107v78.45h448.903v-78.452
	C480.453,395.029,458.25,368.456,427.725,362.942z"/>
<path style="fill:#D29B6E;" d="M183.751,295.609c20.234,15.344,45.295,24.52,72.25,24.52c26.955,0,52.016-9.176,72.25-24.52
	L328.48,256H183.522L183.751,295.609z"/>
<path style="fill:#A06E50;" d="M344.178,7.5H167.823c-17.709,0-32.065,14.355-32.065,32.065v136.274h240.484V39.565
	C376.242,21.855,361.886,7.5,344.178,7.5z"/>
<path style="fill:#F5B97D;" d="M372.235,159.806h-12.024c-8.854,0-16.032-7.179-16.032-16.032v-24.048
	c0-17.709-14.355-32.065-32.065-32.065H199.888c-17.709,0-32.065,14.355-32.065,32.065v24.048c0,8.854-7.179,16.032-16.032,16.032
	h-12.024c-11.068,0-20.04,8.972-20.04,20.04c0,11.067,8.972,20.04,20.04,20.04h12.429c4.106,53.796,48.958,96.194,103.805,96.194
	s99.699-42.398,103.805-96.194h12.429c11.068,0,20.04-8.973,20.04-20.04C392.275,168.779,383.303,159.806,372.235,159.806z"/>
<path style="fill:#B67F5F;" d="M344.178,7.5H207.904v16.032c0,22.136,17.945,40.081,40.081,40.081h128.258V39.565
	C376.242,21.856,361.887,7.5,344.178,7.5z"/>
<path style="fill:#FFE17D;" d="M127.743,504.5h256.516V355.09l-8.62-1.558c-4.823-0.871-9.264-3.195-12.729-6.66l-10.715-10.715
	v32.068c0,53.126-43.067,96.194-96.194,96.194s-96.194-43.067-96.194-96.194v-32.068l-10.715,10.715
	c-3.465,3.465-7.906,5.789-12.729,6.66l-8.62,1.558V504.5z"/>
<g>
	<path style="fill:#D29B6E;" d="M127.743,440.371L127.743,440.371V504.5h-24.048v-40.081
		C103.695,451.138,114.461,440.371,127.743,440.371z"/>
	<path style="fill:#D29B6E;" d="M384.259,440.371L384.259,440.371V504.5h24.048v-40.081
		C408.307,451.138,397.541,440.371,384.259,440.371z"/>
</g>
<path style="fill:#E3AA75;" d="M183.856,191.871v-48.097c0-17.709,14.356-32.065,32.065-32.065h127.125
	c-3.576-13.805-16.007-24.048-30.931-24.048H199.888c-17.709,0-32.065,14.356-32.065,32.065v24.048
	c0,8.854-7.178,16.032-16.032,16.032h-10.879c-10.484,0-20.039,7.543-21.082,17.974c-1.199,11.994,8.188,22.107,19.937,22.107
	h12.429c4.106,53.796,48.958,96.194,103.805,96.194c5.484,0,10.83-0.534,16.083-1.35
	C222.138,287.021,183.856,243.976,183.856,191.871z"/>
<path d="M207.904,160.322c-4.143,0-7.5,3.357-7.5,7.5v8.017c0,4.143,3.357,7.5,7.5,7.5s7.5-3.357,7.5-7.5v-8.017
	C215.404,163.68,212.047,160.322,207.904,160.322z"/>
<path d="M304.098,160.322c-4.143,0-7.5,3.357-7.5,7.5v8.017c0,4.143,3.357,7.5,7.5,7.5s7.5-3.357,7.5-7.5v-8.017
	C311.598,163.68,308.24,160.322,304.098,160.322z"/>
<path d="M256.001,239.451c11.897,0,22.856-3.805,29.315-10.177c2.949-2.908,2.981-7.657,0.072-10.605
	c-2.908-2.951-7.658-2.981-10.605-0.072c-2.738,2.7-9.3,5.854-18.782,5.854c-9.482,0-16.044-3.154-18.782-5.854
	c-2.948-2.911-7.698-2.879-10.605,0.072c-2.909,2.948-2.877,7.697,0.072,10.605C233.145,235.646,244.104,239.451,256.001,239.451z"
	/>
<path d="M429.059,355.562l-52.087-9.411c-3.335-0.603-6.363-2.187-8.759-4.582l-27.72-27.719c-3.125-3.125-4.847-7.28-4.847-11.629
	l0.311-32.436c16.218-16.64,27.309-38.299,30.675-62.398h4.457c0.002,0,0.001,0,0.003,0c14.616,0,27.153-10.861,28.541-24.727
	c0.778-7.771-1.764-15.53-6.974-21.287c-2.522-2.787-5.568-4.992-8.918-6.534V39.564C383.742,17.748,365.993,0,344.178,0H167.823
	c-21.815,0-39.564,17.748-39.564,39.564v115.609c-8.63,4.115-14.929,12.266-15.891,21.858c-0.778,7.771,1.763,15.53,6.973,21.288
	c5.214,5.763,12.659,9.067,20.427,9.067h5.598c3.364,24.109,14.457,45.773,30.679,62.414l0.311,32.348
	c0,4.421-1.722,8.576-4.848,11.701l-27.72,27.719c-2.395,2.396-5.423,3.979-8.759,4.582l-52.085,9.411
	c-34.126,6.165-58.895,35.81-58.895,70.487V504.5c0,4.143,3.357,7.5,7.5,7.5s7.5-3.357,7.5-7.5v-78.451
	c0-27.416,19.582-50.852,46.562-55.726l34.632-6.258V504.5c0,4.143,3.357,7.5,7.5,7.5s7.5-3.357,7.5-7.5V361.355l2.453-0.443
	c5.427-0.98,10.423-3.337,14.611-6.843v14.157c0,57.176,46.516,103.693,103.693,103.693l0,0l0,0h0.001
	c57.176-0.001,103.692-46.518,103.692-103.693V354.07c4.189,3.506,9.184,5.862,14.61,6.843l2.454,0.443v14.889
	c0,4.143,3.357,7.5,7.5,7.5s7.5-3.357,7.5-7.5v-12.178l34.633,6.258c26.979,4.874,46.561,28.31,46.561,55.726V504.5
	c0,4.143,3.357,7.5,7.5,7.5s7.5-3.357,7.5-7.5v-78.451C487.952,391.371,463.184,361.727,429.059,355.562z M151.791,184.371
	c-4.143,0-7.5,3.357-7.5,7.5v0.516h-4.523c-3.537,0-6.929-1.506-9.304-4.131c-2.406-2.66-3.532-6.115-3.17-9.729
	c0.63-6.292,6.612-11.221,13.618-11.221h10.879c12.976,0,23.532-10.557,23.532-23.532v-24.049c0-13.545,11.02-24.564,24.564-24.564
	c4.143,0,7.5-3.357,7.5-7.5s-3.357-7.5-7.5-7.5c-21.816,0-39.564,17.749-39.564,39.564v24.049c0,4.705-3.827,8.532-8.532,8.532
	h-8.532V39.564c0-13.545,11.02-24.564,24.564-24.564h176.354c13.545,0,24.564,11.02,24.564,24.564v112.742h-8.531
	c-4.705,0-8.532-3.827-8.532-8.532v-24.049c0-21.815-17.748-39.564-39.564-39.564h-80.161c-4.143,0-7.5,3.357-7.5,7.5
	s3.357,7.5,7.5,7.5h80.161c13.545,0,24.564,11.02,24.564,24.564v24.049c0,12.976,10.557,23.532,23.532,23.532h12.024
	c3.536,0,6.927,1.506,9.303,4.13c2.406,2.66,3.532,6.115,3.17,9.729c-0.63,6.292-6.61,11.221-13.616,11.221h-0.001h-3.384v-0.438
	c0-4.141-3.356-7.498-7.497-7.5c-0.001,0-0.002,0-0.003,0c-4.14,0-7.497,3.354-7.5,7.494c-0.039,53.287-43.421,96.639-96.706,96.639
	c-53.326,0-96.71-43.384-96.71-96.71C159.291,187.729,155.934,184.371,151.791,184.371z M263.501,456.599v-8.212
	c0-4.143-3.357-7.5-7.5-7.5c-4.143,0-7.5,3.357-7.5,7.5v8.212c-45.408-3.821-81.193-41.994-81.193-88.373v-28.962l14.807-14.806
	c5.959-5.958,9.241-13.881,9.241-22.381l-0.185-19.287c18.293,13.082,40.677,20.792,64.831,20.792
	c24.151,0,46.536-7.716,64.831-20.804l-0.186,19.371c0,8.428,3.282,16.351,9.24,22.309l14.808,14.807v28.961
	C344.694,414.604,308.909,452.778,263.501,456.599z"/>
<path d="M198.358,151.117l16.032,3.34c0.516,0.107,1.03,0.159,1.537,0.159c3.478,0,6.598-2.434,7.335-5.973
	c0.845-4.055-1.758-8.027-5.813-8.872l-16.032-3.34c-4.053-0.843-8.027,1.759-8.872,5.813S194.303,150.272,198.358,151.117z"/>
<path d="M296.074,154.616c0.507,0,1.021-0.052,1.537-0.159l16.032-3.34c4.056-0.845,6.658-4.817,5.813-8.872
	s-4.815-6.657-8.872-5.813l-16.032,3.34c-4.056,0.845-6.658,4.817-5.813,8.872C289.477,152.183,292.597,154.616,296.074,154.616z"/>
<path d="M384.259,400.809c-4.143,0-7.5,3.357-7.5,7.5v96.189c0,4.143,3.357,7.5,7.5,7.5s7.5-3.357,7.5-7.5v-96.189
	C391.759,404.166,388.401,400.809,384.259,400.809z"/>
<g>
</g>
<g>
</g>
<g>
</g>
<g>
</g>
<g>
</g>
<g>
</g>
<g>
</g>
<g>
</g>
<g>
</g>
<g>
</g>
<g>
</g>
<g>
</g>
<g>
</g>
<g>
</g>
<g>
</g>
</svg>
