<?xml version="1.0" encoding="iso-8859-1"?>
<!-- Generator: Adobe Illustrator 19.0.0, SVG Export Plug-In . SVG Version: 6.00 Build 0)  -->
<svg version="1.1" id="Capa_1" xmlns="http://www.w3.org/2000/svg" xmlns:xlink="http://www.w3.org/1999/xlink" x="0px" y="0px"
	 viewBox="0 0 512 512" style="enable-background:new 0 0 512 512;" xml:space="preserve">
<path style="fill:#B4F09B;" d="M255.999,343.481c48.097,0,124.635-24.847,144.57-32.783c8.243-3.281,12.297-12.693,8.878-20.879
	c-7.107-17.016-17.174-48.44-17.174-89.931v-56.113C392.273,68.512,331.261,7.5,255.999,7.5l0,0l0,0l0,0l0,0l0,0l0,0l0,0l0,0
	c-75.262,0-136.274,61.012-136.274,136.274v56.113c0,41.491-10.067,72.916-17.174,89.931c-3.419,8.186,0.635,17.598,8.878,20.879
	C131.365,318.634,207.902,343.481,255.999,343.481z"/>
<path style="fill:#CDF5A0;" d="M255.999,7.5c-23.193,0-45.011,5.83-64.129,16.049v7.303c0,53.126,43.067,96.194,96.194,96.194
	h103.079C382.881,59.692,325.586,7.5,255.999,7.5z"/>
<path style="fill:#E3AA75;" d="M408.281,396.284l-82.792-29.221c-12.82-4.525-21.393-16.642-21.393-30.237v-49.459h-96.194v49.459
	c0,13.595-8.573,25.712-21.393,30.236l-82.793,29.221c-19.23,6.787-32.089,24.962-32.089,45.354v62.165H440.37v-62.165
	C440.37,421.247,427.511,403.071,408.281,396.284z"/>
<path style="fill:#64DCA0;" d="M71.628,503.803H440.37v-62.165c0-20.392-12.859-38.568-32.089-45.354l-70.932-25.035
	c-11.906,18.861-39.114,55.148-78.826,67.666c-1.627,0.513-3.422,0.513-5.049,0c-39.712-12.518-66.921-48.805-78.826-67.666
	l-70.932,25.035c-19.23,6.787-32.089,24.962-32.089,45.354L71.628,503.803L71.628,503.803z"/>
<path style="fill:#B4F09B;" d="M248.68,454.215c2.364,0.74,4.838,1.112,7.312,1.112c2.489,0,4.971-0.372,7.343-1.116
	c46.977-14.804,77.566-57.807,89.508-77.494l-27.353-9.654c-1.212-0.428-2.348-0.985-3.481-1.544
	c-11.239,17.169-34.161,46.297-66.009,57.344c-31.677-11.005-54.677-40.18-65.972-57.36c-1.144,0.566-2.292,1.128-3.517,1.56
	l-27.353,9.654C171.1,396.404,201.69,439.408,248.68,454.215z"/>
<path style="fill:#D29B6E;" d="M207.902,325.21c13.042,5.808,27.268,9.411,42.305,10.118c1.94,0.091,3.872,0.137,5.792,0.137
	c17.103,0,33.353-3.645,48.097-10.11v-37.987h-96.194L207.902,325.21L207.902,325.21z"/>
<path style="fill:#F5B97D;" d="M328.144,143.077h-12.712c-2.126,0-4.165-0.845-5.668-2.348l-29.522-29.522
	c-3.03-3.03-8.211-0.884-8.211,3.401v20.453c0,4.427-3.589,8.016-8.016,8.016h-80.161c-17.709,0-32.065,14.356-32.065,32.065v29.121
	c0,56.112,43.122,104.395,99.172,107.034c59.844,2.818,109.248-44.867,109.248-104.091v-32.065
	C360.209,157.433,345.854,143.077,328.144,143.077z"/>
<path style="fill:#E3AA75;" d="M328.144,151.094v-8.016h-12.712c-2.126,0-4.165-0.845-5.668-2.348l-29.522-29.522
	c-3.03-3.03-8.211-0.884-8.211,3.401v20.453c0,4.427-3.589,8.016-8.016,8.016h-80.161c-17.709,0-32.065,14.356-32.065,32.065v28.852
	c0,47.061,29.921,90.101,75.102,103.267c15.682,4.57,30.874,5.097,45.157,2.888c-50.6-7.969-88.195-53.501-88.195-105.886v-5.072
	c0-17.709,14.356-32.065,32.065-32.065h96.194C320.966,167.126,328.144,159.948,328.144,151.094z"/>
<path d="M207.902,184.371c-4.142,0-7.5,3.358-7.5,7.5v8.016c0,4.142,3.358,7.5,7.5,7.5s7.5-3.358,7.5-7.5v-8.016
	C215.402,187.729,212.044,184.371,207.902,184.371z"/>
<path d="M304.096,184.371c-4.142,0-7.5,3.358-7.5,7.5v8.016c0,4.142,3.358,7.5,7.5,7.5c4.142,0,7.5-3.358,7.5-7.5v-8.016
	C311.596,187.729,308.239,184.371,304.096,184.371z"/>
<path d="M255.999,263.5c11.898,0,22.857-3.805,29.316-10.177c2.949-2.909,2.98-7.658,0.071-10.606
	c-2.91-2.948-7.659-2.98-10.606-0.071c-2.737,2.701-9.298,5.855-18.781,5.855c-9.483,0-16.043-3.154-18.781-5.855
	c-2.95-2.91-7.698-2.877-10.606,0.071c-2.909,2.948-2.877,7.697,0.071,10.606C233.143,259.695,244.102,263.5,255.999,263.5z"/>
<path d="M410.778,389.909l-82.792-29.221c-7.268-2.565-12.761-8.35-15.119-15.406c37.467-7.642,72.465-20.447,90.477-27.617
	c5.907-2.352,10.519-6.876,12.985-12.739c2.445-5.813,2.459-12.205,0.04-17.999c-6.198-14.838-16.595-45.875-16.595-87.041v-56.113
	C399.773,64.497,335.276,0,255.999,0S112.225,64.497,112.225,143.774v56.113c0,41.166-10.397,72.203-16.594,87.041
	c-2.42,5.793-2.406,12.185,0.039,17.998c2.466,5.864,7.078,10.389,12.985,12.74c18.012,7.17,53.011,19.975,90.477,27.617
	c-2.358,7.055-7.85,12.84-15.119,15.406l-82.792,29.221c-22.187,7.83-37.093,28.899-37.093,52.427V504.5c0,4.142,3.358,7.5,7.5,7.5
	s7.5-3.358,7.5-7.5v-62.165c0-4.992,0.925-9.83,2.626-14.326l37.925,32.507c5.452,4.673,8.578,11.471,8.578,18.651V504.5
	c0,4.142,3.358,7.5,7.5,7.5s7.5-3.358,7.5-7.5v-25.333c0-11.564-5.036-22.513-13.816-30.04l-39.755-34.075
	c4.423-4.876,10.048-8.712,16.528-10.999l50.404-17.79c33.991,51.887,69.37,70.459,93.321,76.847
	c1.975,0.526,4.014,0.793,6.061,0.793c2.047,0,4.086-0.267,6.062-0.793c23.929-6.382,59.311-24.949,93.317-76.847l50.406,17.791
	c6.479,2.287,12.105,6.123,16.528,10.999l-39.755,34.075c-8.781,7.526-13.816,18.475-13.816,30.04V504.5c0,4.142,3.358,7.5,7.5,7.5
	c4.142,0,7.5-3.358,7.5-7.5v-25.333c0-7.18,3.126-13.978,8.578-18.651l37.925-32.507c1.702,4.496,2.626,9.334,2.626,14.326V504.5
	c0,4.142,3.358,7.5,7.5,7.5c4.142,0,7.5-3.358,7.5-7.5v-62.165C447.87,418.808,432.964,397.739,410.778,389.909z M109.496,299.11
	c-0.873-2.076-0.882-4.349-0.025-6.401c8.099-19.389,17.753-51.232,17.753-92.822v-56.113C127.225,72.768,184.993,15,255.999,15
	s128.774,57.768,128.774,128.774v56.113c0,41.588,9.655,73.432,17.753,92.821c0.857,2.052,0.849,4.326-0.025,6.402
	c-0.895,2.126-2.566,3.767-4.706,4.619c-17.262,6.872-50.526,19.06-86.2,26.504V304.77c33.507-19.306,56.113-55.496,56.113-96.866
	V175.84c0-21.816-17.749-39.564-39.564-39.564h-12.926L277.334,98.39c-2.145-2.146-5.371-2.786-8.173-1.626
	c-2.803,1.161-4.63,3.896-4.63,6.929v32.581h-40.596c-4.142,0-7.5,3.358-7.5,7.5s3.358,7.5,7.5,7.5h48.096
	c4.142,0,7.5-3.358,7.5-7.5V121.8l27.277,27.277c1.406,1.407,3.314,2.197,5.303,2.197h16.032c13.545,0,24.564,11.02,24.564,24.564
	v32.064c0,53.326-43.384,96.709-96.709,96.709s-96.709-43.384-96.709-96.709v-32.064c0-13.545,11.02-24.564,24.564-24.564h8.02
	c4.142,0,7.5-3.358,7.5-7.5s-3.358-7.5-7.5-7.5h-8.02c-21.816,0-39.564,17.749-39.564,39.564v32.064
	c0,41.37,22.605,77.56,56.113,96.866v25.464c-35.673-7.445-68.937-19.632-86.2-26.504
	C112.063,302.877,110.391,301.236,109.496,299.11z M258.198,448.616c-1.43,0.381-2.968,0.38-4.395,0
	c-20.946-5.587-51.871-21.922-82.595-67.502l16.688-5.89c14.731,21.012,37.312,46.093,65.732,55.535
	c0.768,0.255,1.566,0.382,2.365,0.382c0.804,0,1.608-0.129,2.38-0.388c13.278-4.444,26.571-12.852,39.509-24.991
	c3.021-2.834,3.172-7.581,0.338-10.601c-2.834-3.021-7.581-3.172-10.601-0.338c-10.554,9.901-21.185,16.909-31.639,20.862
	c-22.961-8.586-41.934-29.562-54.864-47.739c8.862-7.378,14.287-18.452,14.287-30.423v-25.548
	c12.589,4.928,26.282,7.638,40.597,7.638c14.315,0,28.007-2.71,40.597-7.638v25.548c0,11.97,5.424,23.044,14.286,30.423
	c-1.544,2.144-3.111,4.247-4.691,6.281c-2.541,3.271-1.948,7.983,1.323,10.523c1.368,1.063,2.987,1.577,4.595,1.577
	c2.237,0,4.451-0.997,5.929-2.9c2.054-2.645,4.085-5.394,6.075-8.2l16.677,5.886C310.052,426.707,279.125,443.035,258.198,448.616z"
	/>
<path d="M192.386,167.126c0,4.142,3.358,7.5,7.5,7.5h16.032c4.142,0,7.5-3.358,7.5-7.5s-3.358-7.5-7.5-7.5h-16.032
	C195.744,159.626,192.386,162.984,192.386,167.126z"/>
<path d="M296.081,174.626h16.032c4.142,0,7.5-3.358,7.5-7.5s-3.358-7.5-7.5-7.5h-16.032c-4.142,0-7.5,3.358-7.5,7.5
	S291.938,174.626,296.081,174.626z"/>
<g>
</g>
<g>
</g>
<g>
</g>
<g>
</g>
<g>
</g>
<g>
</g>
<g>
</g>
<g>
</g>
<g>
</g>
<g>
</g>
<g>
</g>
<g>
</g>
<g>
</g>
<g>
</g>
<g>
</g>
</svg>
