<?xml version="1.0" encoding="iso-8859-1"?>
<!-- Generator: Adobe Illustrator 19.0.0, SVG Export Plug-In . SVG Version: 6.00 Build 0)  -->
<svg version="1.1" id="Capa_1" xmlns="http://www.w3.org/2000/svg" xmlns:xlink="http://www.w3.org/1999/xlink" x="0px" y="0px"
	 viewBox="0 0 512 512" style="enable-background:new 0 0 512 512;" xml:space="preserve">
<path style="fill:#FF8087;" d="M408.461,396.981l-82.792-29.221H186.69l-82.792,29.221c-19.23,6.787-32.089,24.963-32.089,45.355
	V504.5H440.55v-62.164C440.55,421.944,427.691,403.768,408.461,396.981z"/>
<path style="fill:#E6646E;" d="M221.604,480.325l32.631-8.159c0.637-0.159,1.291-0.24,1.944-0.24s1.306,0.08,1.94,0.24l32.633,8.158
	c4.467,1.117,9.052,1.682,13.632,1.682c22.719,0,43.064-13.586,51.832-34.613c8.247-19.773,12.745-41.908,13.266-64.17
	l-43.814-15.464H186.69l-43.814,15.463c0.52,22.262,5.019,44.398,13.266,64.172c8.77,21.026,29.114,34.612,51.832,34.612
	C212.553,482.007,217.14,481.441,221.604,480.325z"/>
<path style="fill:#FFE17D;" d="M345.36,369.613c-0.383-6.493-4.635-12.164-10.776-14.305l-30.316-10.309H208.09l-30.316,10.309
	c-6.141,2.141-10.393,7.813-10.776,14.305c-1.71,29,4.617,52.407,11.339,68.525c6.127,14.692,21.993,22.716,37.436,18.856
	l32.629-8.158c5.106-1.277,10.448-1.277,15.555,0l32.629,8.158c15.442,3.859,31.309-4.165,37.436-18.856
	C340.743,422.021,347.071,398.613,345.36,369.613z"/>
<path style="fill:#B67F5F;" d="M256.179,416.323L256.179,416.323c-26.563,0-48.097-21.534-48.097-48.097v-64.129h96.194v64.129
	C304.276,394.789,282.742,416.323,256.179,416.323z"/>
<path style="fill:#A06E50;" d="M208.082,341.937c14.8,6.544,31.063,10.257,48.097,10.257s33.296-3.713,48.097-10.257v-37.84h-96.194
	V341.937z"/>
<path style="fill:#6E5A64;" d="M272.212,71.629h-32.065c-17.709,0-32.064-14.356-32.064-32.064l0,0
	c0-17.709,14.356-32.064,32.064-32.064h32.065c17.709,0,32.064,14.356,32.064,32.064l0,0
	C304.276,57.273,289.92,71.629,272.212,71.629z"/>
<path style="fill:#84737B;" d="M304.276,247.984h-96.194c-53.126,0-96.193-43.067-96.193-96.193l0,0
	c0-53.126,43.067-96.193,96.193-96.193h96.194c53.126,0,96.193,43.067,96.193,96.193l0,0
	C400.47,204.917,357.402,247.984,304.276,247.984z"/>
<path style="fill:#6E5A64;" d="M304.276,95.677h-96.194c-39.781,0-72.145,32.364-72.145,72.145s32.364,72.145,72.145,72.145h96.194
	c39.781,0,72.145-32.364,72.145-72.145S344.057,95.677,304.276,95.677z"/>
<path style="fill:#CD916E;" d="M371.92,191.871h-8.667c-6.009,0-10.88-4.871-10.88-10.88v-13.168
	c0-26.563-21.534-48.097-48.097-48.097h-96.194c-26.563,0-48.097,21.534-48.097,48.097v13.168c0,6.009-4.871,10.88-10.88,10.88h-8
	c-10.482,0-20.035,7.542-21.08,17.972c-1.202,11.996,8.186,22.109,19.936,22.109h12.413c4.106,53.796,48.957,96.194,103.805,96.194
	s99.699-42.398,103.805-96.194h13.08c11.75,0,21.138-10.113,19.936-22.109C391.955,199.413,382.402,191.871,371.92,191.871z"/>
<g>
	<path style="fill:#B67F5F;" d="M304.276,119.726h-96.194c-26.563,0-48.097,21.534-48.097,48.097v13.167
		c0,6.092-13.145,10.826-19.237,10.882c-10.403,0.096-19.841,7.607-20.879,17.971c-1.202,11.995,8.186,22.109,19.937,22.109h12.568
		c4.106,53.796,48.957,96.194,103.805,96.194c5.483,0,10.83-0.534,16.083-1.35c-49.946-7.709-88.228-50.754-88.228-102.859v-40.081
		c0-22.136,17.945-40.081,40.081-40.081h64.316c12.856,0,23.239-10.236,23.779-23.081c0.004-0.086,0.007-0.172,0.011-0.257
		C309.631,120.005,306.989,119.726,304.276,119.726z"/>
	<path style="fill:#B67F5F;" d="M208.082,199.887c13.45,0,24.925,8.299,29.687,20.04c1.508-3.718,2.378-7.766,2.378-12.024
		c0-17.709-14.355-32.065-32.065-32.065s-32.065,14.355-32.065,32.065c0,4.259,0.87,8.306,2.378,12.024
		C183.157,208.186,194.633,199.887,208.082,199.887z"/>
	<path style="fill:#B67F5F;" d="M304.276,199.887c13.45,0,24.925,8.299,29.687,20.04c1.508-3.718,2.378-7.766,2.378-12.024
		c0-17.709-14.355-32.065-32.065-32.065s-32.065,14.355-32.065,32.065c0,4.259,0.87,8.306,2.378,12.024
		C279.351,208.186,290.826,199.887,304.276,199.887z"/>
</g>
<path d="M410.957,390.85l-58.06-20.492c-0.021-0.398-0.026-0.785-0.049-1.186c-0.565-9.576-6.765-17.798-15.85-20.964l-25.222-8.576
	v-18.829c29.243-16.85,50.174-46.562,55.03-81.351h5.607c15.186,0,27.54-12.354,27.54-27.54c0-4.709-1.19-9.145-3.282-13.026
	c7.398-14.506,11.299-30.702,11.299-47.095c0-55.004-43.051-100.135-97.226-103.486c0.673-2.859,1.032-5.775,1.032-8.74
	C311.776,17.749,294.027,0,272.212,0h-32.064c-21.816,0-39.565,17.749-39.565,39.564c0,2.965,0.359,5.881,1.032,8.74
	c-54.175,3.351-97.226,48.482-97.226,103.486c0,16.384,3.899,32.601,11.296,47.101c-2.09,3.879-3.28,8.313-3.28,13.02
	c0,15.186,12.354,27.54,27.54,27.54h5.607c4.856,34.789,25.787,64.501,55.03,81.351v18.83l-25.276,8.595
	c-9.03,3.147-15.229,11.369-15.795,20.945c-0.021,0.357-0.025,0.702-0.044,1.058l-58.424,20.62
	c-22.187,7.83-37.093,28.899-37.093,52.427V504.5c0,4.143,3.357,7.5,7.5,7.5s7.5-3.357,7.5-7.5v-61.224
	c0-5.175,0.994-10.185,2.817-14.82l38.092,32.65c5.451,4.673,8.578,11.472,8.578,18.651v24.623c0,4.143,3.357,7.5,7.5,7.5
	s7.5-3.357,7.5-7.5v-24.623c0-11.564-5.036-22.514-13.816-30.04l-39.773-34.091c4.37-4.701,9.872-8.404,16.187-10.633l53.338-18.825
	c1.006,23.438,6.804,42.297,12.043,54.856c7.613,18.254,27.033,28.027,46.177,23.245l38.587-9.647l38.586,9.647
	c3.263,0.815,6.531,1.208,9.75,1.208c15.668-0.001,30.111-9.31,36.427-24.453c5.229-12.537,11.015-31.353,12.036-54.732
	l52.986,18.701c6.392,2.256,11.951,6.021,16.346,10.804l-39.574,33.92c-8.78,7.526-13.816,18.476-13.816,30.04v24.623
	c0,4.143,3.357,7.5,7.5,7.5s7.5-3.357,7.5-7.5v-24.623c0-7.18,3.127-13.979,8.578-18.651l37.823-32.419
	c1.766,4.57,2.728,9.499,2.728,14.589V504.5c0,4.143,3.357,7.5,7.5,7.5s7.5-3.357,7.5-7.5v-61.224
	C448.05,419.749,433.144,398.681,410.957,390.85z M240.147,15h32.064c13.545,0,24.564,11.02,24.564,24.564
	c0,2.904-0.559,5.76-1.639,8.532H217.22c-1.08-2.772-1.639-5.628-1.639-8.532C215.582,26.02,226.602,15,240.147,15z M208.082,63.097
	h96.194c48.905,0,88.693,39.788,88.693,88.693c0,12.379-2.595,24.623-7.552,35.853c-3.876-2.085-8.304-3.271-13.005-3.271h-12.538
	v-16.548c0-30.656-24.94-55.597-55.597-55.597c-4.143,0-7.5,3.357-7.5,7.5s3.357,7.5,7.5,7.5c22.385,0,40.597,18.212,40.597,40.597
	v16.548h-8.74c-7.21-9.78-18.804-16.139-31.859-16.139c-16.312,0-30.346,9.923-36.392,24.049h-23.41
	c-6.046-14.125-20.081-24.049-36.393-24.049c-13.055,0-24.649,6.359-31.859,16.139h-8.735v-16.548
	c0-22.385,18.212-40.597,40.597-40.597h64.129c4.143,0,7.5-3.357,7.5-7.5s-3.357-7.5-7.5-7.5h-64.129
	c-30.656,0-55.597,24.94-55.597,55.597v16.548h-12.543c-4.699,0-9.125,1.185-13,3.269c-4.955-11.228-7.557-23.48-7.557-35.85
	C119.389,102.885,159.177,63.097,208.082,63.097z M304.276,183.232c13.545,0,24.564,11.02,24.564,24.564
	s-11.02,24.564-24.564,24.564s-24.564-11.02-24.564-24.564S290.731,183.232,304.276,183.232z M208.082,183.232
	c13.546,0,24.565,11.02,24.565,24.564s-11.02,24.564-24.565,24.564s-24.564-11.02-24.564-24.564S194.537,183.232,208.082,183.232z
	 M159.47,223.936c0-4.143-3.357-7.5-7.5-7.5s-7.5,3.357-7.5,7.5c0,0.172,0.006,0.344,0.007,0.516h-4.531
	c-6.915,0-12.54-5.625-12.54-12.54s5.625-12.54,12.54-12.54h29.484c-0.592,2.717-0.912,5.534-0.912,8.426
	c0,21.816,17.748,39.564,39.564,39.564s39.565-17.748,39.565-39.564c0-0.173-0.011-0.343-0.013-0.516h17.091
	c-0.002,0.172-0.013,0.343-0.013,0.516c0,21.816,17.748,39.564,39.564,39.564s39.564-17.748,39.564-39.564
	c0-2.892-0.32-5.709-0.912-8.426h29.484c6.915,0,12.54,5.625,12.54,12.54s-5.625,12.54-12.54,12.54h-4.531
	c0.001-0.172,0.007-0.343,0.007-0.516c0-4.143-3.357-7.5-7.5-7.5s-7.5,3.357-7.5,7.5c0,53.326-43.384,96.71-96.71,96.71
	C202.854,320.646,159.47,277.262,159.47,223.936z M327.099,435.252c-4.736,11.354-16.805,17.442-28.694,14.466L258,439.616
	c-1.195-0.299-2.443-0.299-3.639,0l-40.406,10.102c-11.893,2.977-23.959-3.111-28.694-14.466
	c-5.843-14.01-12.455-36.693-10.774-65.197c0.207-3.509,2.467-6.517,5.704-7.646l20.393-6.934v13.315
	c0,30.656,24.941,55.597,55.598,55.597c10.975,0,21.592-3.195,30.703-9.241c3.451-2.29,4.394-6.944,2.103-10.396
	c-2.29-3.451-6.944-4.395-10.396-2.103c-6.646,4.409-14.395,6.739-22.41,6.739c-22.386,0-40.598-18.212-40.598-40.597v-40.783
	c12.59,4.928,26.283,7.638,40.598,7.638c14.314,0,28.007-2.71,40.597-7.638v40.782c0,4.654-0.779,9.214-2.315,13.553
	c-1.383,3.904,0.661,8.191,4.565,9.573c0.828,0.294,1.673,0.433,2.504,0.433c3.088,0,5.98-1.922,7.069-4.998
	c2.108-5.951,3.177-12.196,3.177-18.561v-13.315l20.339,6.916c3.291,1.147,5.551,4.155,5.758,7.664
	C339.554,398.559,332.941,421.242,327.099,435.252z"/>
<path d="M285.496,270.063c2.948-2.909,2.979-7.658,0.069-10.606c-2.909-2.948-7.657-2.979-10.606-0.069
	c-2.736,2.7-9.297,5.854-18.779,5.854s-16.044-3.154-18.781-5.855c-2.946-2.907-7.695-2.879-10.606,0.071
	c-2.909,2.948-2.877,7.697,0.071,10.606c6.459,6.373,17.419,10.178,29.316,10.178C268.078,280.242,279.037,276.438,285.496,270.063z
	"/>
<path d="M208.082,215.994c4.143,0,7.5-3.357,7.5-7.5v-8.017c0-4.143-3.357-7.5-7.5-7.5s-7.5,3.357-7.5,7.5v8.017
	C200.582,212.637,203.939,215.994,208.082,215.994z"/>
<path d="M304.276,215.994c4.143,0,7.5-3.357,7.5-7.5v-8.017c0-4.143-3.357-7.5-7.5-7.5s-7.5,3.357-7.5,7.5v8.017
	C296.776,212.637,300.134,215.994,304.276,215.994z"/>
<path d="M256.26,480.968h-0.08c-4.143,0-7.46,3.357-7.46,7.5s3.397,7.5,7.54,7.5c4.143,0,7.5-3.357,7.5-7.5
	S260.402,480.968,256.26,480.968z"/>
<g>
</g>
<g>
</g>
<g>
</g>
<g>
</g>
<g>
</g>
<g>
</g>
<g>
</g>
<g>
</g>
<g>
</g>
<g>
</g>
<g>
</g>
<g>
</g>
<g>
</g>
<g>
</g>
<g>
</g>
</svg>
