<?xml version="1.0" encoding="iso-8859-1"?>
<!-- Generator: Adobe Illustrator 19.0.0, SVG Export Plug-In . SVG Version: 6.00 Build 0)  -->
<svg version="1.1" id="Capa_1" xmlns="http://www.w3.org/2000/svg" xmlns:xlink="http://www.w3.org/1999/xlink" x="0px" y="0px"
	 viewBox="0 0 512 512" style="enable-background:new 0 0 512 512;" xml:space="preserve">
<path style="fill:#E6646E;" d="M413.862,355.701l-61.469-18.079c-23.881-7.024-40.28-28.941-40.28-53.833H199.887
	c0,24.892-16.399,46.809-40.28,53.833l-61.47,18.079c-20.469,6.02-34.525,24.806-34.525,46.142V504.5h384.774V401.842
	C448.387,380.507,434.331,361.721,413.862,355.701z"/>
<path style="fill:#DC4655;" d="M256,7.5c70.835,0,128.258,57.423,128.258,128.258v56.113C384.258,312.113,256,352.194,256,408.306
	c0-56.113-128.258-96.194-128.258-216.435v-56.113C127.742,64.923,185.165,7.5,256,7.5L256,7.5z"/>
<polygon style="fill:#C9C6CA;" points="280.048,360.21 256,392.274 231.952,360.21 231.952,280.048 280.048,280.048 "/>
<path style="fill:#DBD9DC;" d="M175.839,199.887v42.42c0,13.111,7.982,24.902,20.156,29.771l39.165,15.666
	c13.378,5.352,28.302,5.352,41.68,0l39.165-15.666c12.174-4.869,20.156-16.66,20.156-29.771v-42.42L175.839,199.887L175.839,199.887
	z"/>
<path style="fill:#EDEBED;" d="M254.199,39.581c-52.955,0.969-94.392,46.403-94.392,99.367v43.606
	c0,10.352,6.624,19.541,16.443,22.814l31.654,10.551c0,8.854,7.179,16.032,16.032,16.032h64.129c8.854,0,16.032-7.179,16.032-16.032
	l31.652-10.551c9.821-3.273,16.445-12.464,16.445-22.815v-46.795C352.194,82.033,308.15,38.594,254.199,39.581z"/>
<path style="fill:#DBD9DC;" d="M207.903,135.758c0-44.813,30.688-82.357,72.163-93.045c-8.258-2.131-16.906-3.296-25.867-3.132
	c-52.956,0.969-94.392,46.403-94.392,99.367v43.606c0,10.352,6.624,19.541,16.444,22.814l23.235,7.744
	c3.55,1.184,6.471,3.609,8.418,6.74v-84.094H207.903z"/>
<circle style="fill:#E6646E;" cx="215.92" cy="159.81" r="24.05"/>
<path style="fill:#DC4655;" d="M215.919,159.806c8.879,0,16.547,4.866,20.714,12.024c2.065-3.55,3.335-7.621,3.335-12.024
	c0-13.282-10.767-24.048-24.048-24.048c-13.282,0-24.048,10.767-24.048,24.048c0,4.403,1.27,8.474,3.335,12.024
	C199.372,164.673,207.04,159.806,215.919,159.806z"/>
<circle style="fill:#E6646E;" cx="296.08" cy="159.81" r="24.05"/>
<path style="fill:#DC4655;" d="M296.081,159.806c8.879,0,16.547,4.866,20.714,12.024c2.065-3.55,3.335-7.621,3.335-12.024
	c0-13.282-10.767-24.048-24.048-24.048s-24.048,10.767-24.048,24.048c0,4.403,1.27,8.474,3.335,12.024
	C279.534,164.673,287.201,159.806,296.081,159.806z"/>
<path d="M215.919,128.258c-17.396,0-31.548,14.152-31.548,31.549c0,17.396,14.152,31.548,31.548,31.548s31.548-14.152,31.548-31.548
	C247.468,142.41,233.315,128.258,215.919,128.258z M215.919,176.354c-9.125,0-16.548-7.423-16.548-16.548
	s7.423-16.549,16.548-16.549s16.548,7.424,16.548,16.549S225.044,176.354,215.919,176.354z"/>
<path d="M296.081,128.258c-17.396,0-31.548,14.152-31.548,31.549c0,17.396,14.152,31.548,31.548,31.548s31.548-14.152,31.548-31.548
	C327.629,142.41,313.477,128.258,296.081,128.258z M296.081,176.354c-9.125,0-16.548-7.423-16.548-16.548
	s7.423-16.549,16.548-16.549s16.548,7.424,16.548,16.549S305.206,176.354,296.081,176.354z"/>
<path d="M256,184.371c-4.142,0-7.5,3.357-7.5,7.5v8.016c0,4.143,3.358,7.5,7.5,7.5s7.5-3.357,7.5-7.5v-8.016
	C263.5,187.729,260.142,184.371,256,184.371z"/>
<path d="M415.978,350.876l-61.469-18.079c-7.814-2.298-14.815-6.448-20.521-12.121c29.961-31.567,57.77-71.242,57.77-128.805
	v-56.113C391.758,60.9,330.857,0,256,0S120.242,60.9,120.242,135.758v56.113c0,57.562,27.807,97.236,57.767,128.803
	c-5.704,5.673-12.699,9.823-20.518,12.123l-61.469,18.079c-23.498,6.911-39.909,28.845-39.909,53.338V504.5
	c0,4.143,3.358,7.5,7.5,7.5s7.5-3.357,7.5-7.5V404.214c0-5.486,1.132-10.794,3.19-15.666l45.566,39.87
	c5.332,4.665,8.389,11.403,8.389,18.486V504.5c0,4.143,3.358,7.5,7.5,7.5s7.5-3.357,7.5-7.5v-57.596
	c0-11.409-4.925-22.262-13.511-29.775l-47.083-41.197c4.76-4.908,10.763-8.657,17.59-10.665l61.47-18.079
	c10.205-3.002,19.337-8.414,26.79-15.807c5.437,5.383,10.847,10.538,16.079,15.524c23.56,22.451,43.907,41.841,43.907,61.402
	c0,4.143,3.358,7.5,7.5,7.5s7.5-3.357,7.5-7.5c0-19.562,20.347-38.951,43.908-61.402c5.231-4.985,10.64-10.14,16.076-15.521
	c7.456,7.395,16.596,12.804,26.793,15.804l61.469,18.079c6.827,2.008,12.831,5.757,17.59,10.665l-47.083,41.197
	c-8.586,7.514-13.511,18.366-13.511,29.775V504.5c0,4.143,3.358,7.5,7.5,7.5s7.5-3.357,7.5-7.5v-57.596
	c0-7.083,3.058-13.821,8.389-18.486l45.566-39.87c2.059,4.872,3.19,10.18,3.19,15.666V504.5c0,4.143,3.358,7.5,7.5,7.5
	s7.5-3.357,7.5-7.5V404.214C455.887,379.721,439.476,357.787,415.978,350.876z M183.339,215.637l17.746,5.915
	c2.531,10.265,11.816,17.899,22.851,17.899h0.516v0.517c0,4.143,3.358,7.5,7.5,7.5s7.5-3.357,7.5-7.5v-0.517h9.048v0.517
	c0,4.143,3.358,7.5,7.5,7.5c4.142,0,7.5-3.357,7.5-7.5v-0.517h9.048v0.517c0,4.143,3.358,7.5,7.5,7.5s7.5-3.357,7.5-7.5v-0.517
	h0.516c11.035,0,20.32-7.635,22.851-17.899l17.746-5.915v26.671c0,10.103-6.061,19.055-15.441,22.807l-39.165,15.667
	c-11.643,4.658-24.466,4.657-36.109,0l-39.166-15.667c-9.38-3.752-15.441-12.704-15.441-22.807L183.339,215.637L183.339,215.637z
	 M256,299.278c5.56,0,11.118-0.753,16.548-2.223v15.573h-33.097v-15.573C244.882,298.526,250.44,299.278,256,299.278z
	 M239.452,327.629h33.097v17.064h-33.097L239.452,327.629L239.452,327.629z M256,382.274c-4.176-7.374-9.888-14.579-16.548-21.851
	v-0.73h33.097v0.73C265.888,367.695,260.176,374.901,256,382.274z M297.06,336.045c-3.238,3.086-6.419,6.118-9.511,9.115v-53.62
	l31.242-12.498c15.108-6.043,24.871-20.462,24.871-36.734v-32.307c9.775-5.516,16.032-15.906,16.032-27.447v-46.796
	c0-25.306-9.217-49.676-25.953-68.622c-2.742-3.105-7.481-3.398-10.586-0.656c-3.104,2.742-3.398,7.482-0.656,10.586
	c14.313,16.203,22.195,37.047,22.195,58.692v46.796c0,7.134-4.547,13.443-11.315,15.699l-31.653,10.551
	c-3.063,1.021-5.128,3.887-5.128,7.115c0,4.705-3.828,8.532-8.532,8.532h-64.129c-4.705,0-8.532-3.827-8.532-8.532
	c0-3.229-2.066-6.095-5.128-7.115l-31.653-10.551c-6.768-2.256-11.315-8.565-11.315-15.699v-46.796
	c0-48.905,39.788-88.693,88.693-88.693c15.6,0,30.937,4.104,44.355,11.868c3.584,2.074,8.172,0.851,10.248-2.734
	c2.074-3.586,0.85-8.174-2.735-10.248c-15.701-9.085-33.636-13.887-51.87-13.887c-57.177,0-103.693,46.517-103.693,103.693v46.796
	c0,11.542,6.257,21.932,16.032,27.447v32.307c0,16.272,9.762,30.691,24.87,36.734l31.243,12.498v53.62
	c-3.092-2.996-6.273-6.029-9.511-9.115c-17.936-17.092-38.266-36.465-53.709-59.849c-17.488-26.479-25.989-54.062-25.989-84.325
	v-56.113C135.242,69.172,189.414,15,256,15s120.758,54.172,120.758,120.758v56.113c0,30.264-8.501,57.847-25.989,84.325
	C335.326,299.58,314.996,318.953,297.06,336.045z"/>
<path d="M256,432.871c-4.142,0-7.5,3.357-7.5,7.5V504.5c0,4.143,3.358,7.5,7.5,7.5s7.5-3.357,7.5-7.5v-64.129
	C263.5,436.229,260.142,432.871,256,432.871z"/>
<g>
</g>
<g>
</g>
<g>
</g>
<g>
</g>
<g>
</g>
<g>
</g>
<g>
</g>
<g>
</g>
<g>
</g>
<g>
</g>
<g>
</g>
<g>
</g>
<g>
</g>
<g>
</g>
<g>
</g>
</svg>
