<?xml version="1.0" encoding="iso-8859-1"?>
<!-- Generator: Adobe Illustrator 19.0.0, SVG Export Plug-In . SVG Version: 6.00 Build 0)  -->
<svg version="1.1" id="Capa_1" xmlns="http://www.w3.org/2000/svg" xmlns:xlink="http://www.w3.org/1999/xlink" x="0px" y="0px"
	 viewBox="0 0 512.004 512.004" style="enable-background:new 0 0 512.004 512.004;" xml:space="preserve">
<path style="fill:#6E5A64;" d="M430.425,357.353l-42.553-239.365C376.507,54.064,320.93,7.498,256.003,7.5
	c-64.928,0-120.505,46.568-131.869,110.494l-42.553,239.36c-1.164,6.547,1.834,13.133,7.536,16.554l46.644,26.383h240.484
	l46.644-26.383C428.59,370.486,431.589,363.901,430.425,357.353z"/>
<path style="fill:#EDEBED;" d="M408.285,396.981l-82.792-29.221c-12.82-4.525-21.393-16.642-21.393-30.237V296.08h-96.194v41.443
	c0,13.595-8.573,25.712-21.393,30.236L103.72,396.98c-19.229,6.787-32.089,24.962-32.089,45.354V504.5h368.742v-62.165
	C440.374,421.943,427.515,403.768,408.285,396.981z"/>
<path style="fill:#6E5A64;" d="M412.806,398.987c-32.505,29.645-90.561,49.4-156.803,49.4s-124.297-19.756-156.803-49.4
	c-16.657,7.887-27.568,24.627-27.568,43.349V504.5h368.742v-62.164C440.374,423.614,429.462,406.874,412.806,398.987z"/>
<path style="fill:#DBD9DC;" d="M207.906,326.051c14.744,6.465,30.994,10.11,48.097,10.11s33.353-3.645,48.097-10.11v-29.97h-96.194
	L207.906,326.051L207.906,326.051z"/>
<path style="fill:#F5B97D;" d="M151.793,207.903c0,57.553,46.656,104.21,104.21,104.21l0,0c57.553,0,104.21-46.656,104.21-104.21
	v-62.802c0-6.218-0.514-12.425-1.536-18.559l0,0c-8.365-50.191-51.79-86.978-102.674-86.978l0,0
	c-50.883,0-94.308,36.787-102.674,86.978l0,0c-1.022,6.133-1.536,12.341-1.536,18.559L151.793,207.903z"/>
<path style="fill:#E3AA75;" d="M358.677,126.542c-8.615-51.687-54.411-89.159-107.243-86.879
	c-47.065,2.031-87.872,36.604-97.338,82.753c-1.532,7.468-2.302,15.069-2.302,22.685v6.27l0.002-0.002l-0.002,0.004v56.53
	c0,57.553,46.656,104.21,104.21,104.21c5.467,0,10.793-0.548,16.032-1.358c-49.921-7.73-88.177-50.764-88.177-102.851v-44.451
	c0-15.68,11.362-28.876,26.795-31.648c14.526-2.609,29.933-4.062,45.351-4.062c36.022,0,70.28,7.047,96.461,19.843l7.749,3.787
	v-6.27C360.213,138.883,359.699,132.676,358.677,126.542z"/>
<path style="fill:#EDEBED;" d="M256.003,39.565c-50.219,0-93.107,35.86-102.262,85.047c27.047-12.943,62.828-20.918,102.262-20.918
	s75.216,7.975,102.262,20.918C349.11,75.425,306.222,39.565,256.003,39.565z"/>
<path style="fill:#DBD9DC;" d="M256.003,39.565c-50.219,0-93.107,35.86-102.262,85.047c10.529-5.038,22.393-9.3,35.276-12.651
	c11.969-37.478,44.188-65.04,83.017-71.077C266.79,40.069,261.451,39.565,256.003,39.565z"/>
<path style="fill:#64505A;" d="M256.003,448.387c-66.242,0-124.297-19.756-156.803-49.4c-7.338,3.475-13.468,8.736-18.135,15.061
	c35.151,36.565,100.449,58.388,174.938,58.388c74.488,0,139.785-21.823,174.938-58.387c-4.667-6.325-10.796-11.587-18.135-15.062
	C380.3,428.632,322.245,448.387,256.003,448.387z"/>
<path d="M410.792,389.912l15.955-9.573c8.313-4.988,12.759-14.753,11.062-24.298l-42.554-239.365
	C383.236,49.067,324.672-0.002,256.003,0c-68.67,0-127.234,49.071-139.253,116.681l-42.553,239.36
	c-1.697,9.545,2.748,19.31,11.062,24.298l15.955,9.573c-22.181,7.834-37.082,28.899-37.082,52.424V504.5c0,4.143,3.357,7.5,7.5,7.5
	s7.5-3.357,7.5-7.5v-62.164c0-14.71,7.984-28.098,20.447-35.234c12.68,11.524,29.59,21.706,49.235,29.589
	c0.916,0.367,1.86,0.541,2.791,0.541c2.973,0,5.787-1.78,6.963-4.709c1.542-3.844-0.323-8.211-4.168-9.754
	c-15.158-6.082-28.437-13.57-39.036-21.944l73.646-25.992c15.788-5.572,26.396-20.565,26.396-37.309v-25.548
	c12.589,4.928,26.282,7.638,40.597,7.638c14.315,0,28.007-2.71,40.597-7.638v25.548c0,16.743,10.608,31.736,26.396,37.309
	l73.675,26.003c-31.358,24.909-83.838,40.052-140.668,40.052c-24.962,0-49.012-2.844-71.482-8.453
	c-4.021-1.007-8.09,1.44-9.093,5.46c-1.004,4.019,1.441,8.09,5.46,9.093c11.876,2.965,24.159,5.195,36.76,6.682l15.111,52.893
	c0.941,3.294,3.944,5.441,7.208,5.441c0.683,0,1.376-0.094,2.064-0.29c3.982-1.139,6.289-5.289,5.15-9.272l-13.515-47.301
	c7.36,0.493,14.809,0.749,22.336,0.749c7.526,0,14.982-0.271,22.343-0.774l-13.522,47.326c-1.139,3.983,1.168,8.134,5.15,9.272
	c0.688,0.196,1.382,0.29,2.064,0.29c3.264,0,6.267-2.147,7.208-5.441l15.126-52.946c48.692-5.806,91.648-22.481,118.056-46.511
	c12.462,7.137,20.444,20.524,20.444,35.233V504.5c0,4.143,3.357,7.5,7.5,7.5s7.5-3.357,7.5-7.5v-62.164
	C447.874,418.811,432.973,397.746,410.792,389.912z M159.293,207.903V145.1c0-4.25,0.265-8.521,0.78-12.751
	c22.555-13.274,58.163-21.156,95.93-21.156c10.576,0,21.067,0.608,31.183,1.808c4.109,0.481,7.843-2.451,8.331-6.565
	c0.487-4.113-2.452-7.843-6.565-8.331c-10.698-1.268-21.784-1.911-32.948-1.911c-34.917,0-67.348,6.15-91.705,17.137
	c12.847-39.145,49.333-66.266,91.705-66.266c42.376,0,78.866,27.126,91.709,66.279c-7.679-3.451-16.233-6.452-25.597-8.964
	c-4.002-1.073-8.114,1.3-9.188,5.301s1.3,8.114,5.301,9.188c13.003,3.488,24.596,8.131,33.704,13.483
	c0.515,4.23,0.78,8.501,0.78,12.75v62.803c0,53.326-43.384,96.71-96.71,96.71S159.293,261.229,159.293,207.903z M311.6,337.523
	V304.77c33.508-19.307,56.113-55.497,56.113-96.867V145.1c0-6.611-0.551-13.271-1.638-19.792
	c-4.338-26.023-17.813-49.746-37.943-66.8c-20.131-17.053-45.746-26.444-72.129-26.444s-51.998,9.392-72.129,26.444
	c-20.131,17.054-33.605,40.776-37.942,66.8c-1.088,6.521-1.639,13.181-1.639,19.792v62.803c0,41.37,22.606,77.56,56.113,96.867
	v32.753c0,10.396-6.586,19.704-16.389,23.164l-64.446,22.746l-26.596-15.958c-3.014-1.808-4.626-5.349-4.011-8.81l42.553-239.36
	C142.263,58.867,194.616,15,256.003,15c61.387-0.002,113.739,43.863,124.484,104.301l42.554,239.365
	c0.615,3.461-0.997,7.002-4.011,8.81l-26.596,15.958l-64.446-22.746C318.186,357.228,311.6,347.919,311.6,337.523z"/>
<path d="M274.784,242.645c-2.737,2.701-9.299,5.855-18.781,5.855s-16.044-3.154-18.781-5.855c-2.946-2.907-7.695-2.878-10.606,0.071
	c-2.909,2.948-2.877,7.697,0.071,10.606c6.459,6.373,17.419,10.178,29.316,10.178s22.857-3.805,29.316-10.178
	c2.948-2.909,2.98-7.658,0.071-10.606C282.481,239.767,277.731,239.735,274.784,242.645z"/>
<path d="M207.906,184.371c-4.143,0-7.5,3.357-7.5,7.5v8.016c0,4.143,3.357,7.5,7.5,7.5s7.5-3.357,7.5-7.5v-8.016
	C215.406,187.729,212.049,184.371,207.906,184.371z"/>
<path d="M304.1,184.371c-4.143,0-7.5,3.357-7.5,7.5v8.016c0,4.143,3.357,7.5,7.5,7.5s7.5-3.357,7.5-7.5v-8.016
	C311.6,187.729,308.242,184.371,304.1,184.371z"/>
<path d="M215.922,160.322H199.89c-4.143,0-7.5,3.357-7.5,7.5s3.357,7.5,7.5,7.5h16.032c4.143,0,7.5-3.357,7.5-7.5
	S220.065,160.322,215.922,160.322z"/>
<path d="M312.116,160.322h-16.032c-4.143,0-7.5,3.357-7.5,7.5s3.357,7.5,7.5,7.5h16.032c4.143,0,7.5-3.357,7.5-7.5
	S316.259,160.322,312.116,160.322z"/>
<g>
</g>
<g>
</g>
<g>
</g>
<g>
</g>
<g>
</g>
<g>
</g>
<g>
</g>
<g>
</g>
<g>
</g>
<g>
</g>
<g>
</g>
<g>
</g>
<g>
</g>
<g>
</g>
<g>
</g>
</svg>
