<?xml version="1.0" encoding="iso-8859-1"?>
<!-- Generator: Adobe Illustrator 19.0.0, SVG Export Plug-In . SVG Version: 6.00 Build 0)  -->
<svg version="1.1" id="Capa_1" xmlns="http://www.w3.org/2000/svg" xmlns:xlink="http://www.w3.org/1999/xlink" x="0px" y="0px"
	 viewBox="0 0 512.002 512.002" style="enable-background:new 0 0 512.002 512.002;" xml:space="preserve">
<path style="fill:#F7D291;" d="M413.861,374.369l-84.486-24.849c-10.235-3.01-17.263-12.403-17.263-23.071v-54.418H199.887v54.418
	c0,10.668-7.028,20.061-17.263,23.071l-84.486,24.849c-20.469,6.02-34.525,24.806-34.525,46.142v83.987h384.772v-83.987
	C448.386,399.175,434.33,380.389,413.861,374.369z"/>
<path style="fill:#A5CDFF;" d="M413.862,374.369l-82.707-24.326c-15.5,25.296-43.314,42.229-75.155,42.229
	s-59.655-16.933-75.155-42.229l-82.707,24.326c-20.469,6.02-34.524,24.806-34.524,46.141v83.987h384.772V420.51
	C448.386,399.175,434.33,380.39,413.862,374.369z"/>
<path style="fill:#8CB4EB;" d="M256,416.321c42.828,0,80.029-24.005,98.945-59.281l-23.79-6.996
	c-15.5,25.296-43.314,42.229-75.155,42.229s-59.655-16.933-75.155-42.229l-23.79,6.997C175.971,392.316,213.172,416.321,256,416.321
	z"/>
<g>
	<polygon style="fill:#FF8250;" points="167.823,353.873 127.743,365.662 127.743,464.417 167.823,464.417 	"/>
	<polygon style="fill:#FF8250;" points="344.177,353.873 384.257,365.662 384.257,464.417 344.177,464.417 	"/>
</g>
<path style="fill:#FF9664;" d="M360.209,432.353H151.791c-13.282,0-24.048,10.767-24.048,24.048v48.097h256.515v-48.097
	C384.257,443.12,373.491,432.353,360.209,432.353z"/>
<path style="fill:#F0C382;" d="M199.887,313.968c16.841,8.996,35.939,14.176,56.113,14.176s39.272-5.18,56.113-14.176v-33.921
	H199.887V313.968z"/>
<path style="fill:#FFE1A0;" d="M372.233,167.822h-4.008v-32.064c0-61.98-50.245-112.225-112.225-112.225
	S143.775,73.778,143.775,135.757v32.064h-4.008c-11.068,0-20.04,8.972-20.04,20.04c0,11.067,8.972,20.04,20.04,20.04h12.429
	c4.106,53.796,48.958,96.193,103.804,96.193s99.698-42.398,103.804-96.193h12.429c11.068,0,20.04-8.973,20.04-20.04
	C392.274,176.794,383.301,167.822,372.233,167.822z"/>
<path style="fill:#FFE17D;" d="M256,15.516L256,15.516c-70.835,0-128.258,57.423-128.258,128.257l0,0h256.515l0,0
	C384.257,72.939,326.835,15.516,256,15.516z"/>
<path style="fill:#FFD164;" d="M256,15.516c-70.835,0-128.257,57.422-128.257,128.257h72.145c0-44.063,22.258-82.861,56.113-105.927
	v-22.33H256z"/>
<path style="fill:#F7D291;" d="M143.775,143.774v24.048h-4.008c-11.068,0-20.04,8.972-20.04,20.04c0,11.067,8.972,20.04,20.04,20.04
	h12.429c4.106,53.796,48.958,96.193,103.804,96.193c8.108,0,15.957-1.028,23.529-2.781C229.38,290.1,191.871,245.4,191.871,191.87
	c0-13.282,10.767-24.048,24.048-24.048H336.16c8.854,0,16.032-7.178,16.032-16.032v-8.016L143.775,143.774L143.775,143.774z"/>
<path style="fill:#CD916E;" d="M274.558,223.935h-37.112c-12.254,0-22.548,9.214-23.901,21.393l-3.787,34.086
	c-1.113,10.014,4.135,19.659,13.146,24.165l22.344,11.172c6.77,3.385,14.739,3.385,21.509,0l22.344-11.172
	c9.012-4.506,14.259-14.151,13.146-24.165l-3.787-34.086C297.106,233.148,286.812,223.935,274.558,223.935z"/>
<path style="fill:#B67F5F;" d="M253.262,306.067c-9.012-5.554-14.259-17.442-13.147-29.785l3.787-42.013
	c0.334-3.709,1.223-7.189,2.543-10.335h-9c-12.254,0-22.548,9.214-23.901,21.393l-3.787,34.086
	c-1.113,10.014,4.135,19.66,13.147,24.165l22.344,11.172c6.77,3.385,14.739,3.385,21.51,0l0.328-0.164L253.262,306.067z"/>
<g>
	<path style="fill:#FFEDB1;" d="M272.032,111.709h-32.064c-4.427,0-8.016-3.589-8.016-8.016V15.516c0-4.427,3.589-8.016,8.016-8.016
		h32.064c4.427,0,8.016,3.589,8.016,8.016v88.177C280.048,108.12,276.459,111.709,272.032,111.709z"/>
	<path style="fill:#FFEDB1;" d="M344.177,111.709h-16.032c-4.427,0-8.016-3.589-8.016-8.016V33.852c0-4.252,4.854-6.679,8.256-4.128
		l17.396,13.047c4.037,3.028,6.413,7.779,6.413,12.826v48.097C352.193,108.12,348.604,111.709,344.177,111.709z"/>
</g>
<path style="fill:#FFE17D;" d="M167.823,111.709h16.032c4.427,0,8.016-3.589,8.016-8.016V33.852c0-4.252-4.854-6.679-8.256-4.128
	L166.22,42.771c-4.037,3.028-6.413,7.779-6.413,12.826v48.097C159.807,108.12,163.396,111.709,167.823,111.709z"/>
<g>
	<path style="fill:#8CB4EB;" d="M127.742,432.353L127.742,432.353v72.145h-24.048v-48.097
		C103.694,443.12,114.461,432.353,127.742,432.353z"/>
	<path style="fill:#8CB4EB;" d="M384.258,432.353L384.258,432.353v72.145h24.048v-48.097
		C408.306,443.12,397.539,432.353,384.258,432.353z"/>
</g>
<path d="M256.003,263.499c9.143,0,17.459-4.231,22.246-11.318c2.318-3.433,1.416-8.095-2.017-10.413
	c-3.433-2.317-8.094-1.416-10.413,2.017c-1.965,2.908-5.726,4.715-9.816,4.715s-7.853-1.807-9.817-4.716
	c-2.32-3.432-6.982-4.333-10.414-2.016c-3.432,2.319-4.334,6.981-2.016,10.414C238.545,259.269,246.861,263.499,256.003,263.499z"/>
<path d="M211.912,191.354c4.143,0,7.5-3.357,7.5-7.5v-8.017c0-4.143-3.357-7.5-7.5-7.5s-7.5,3.357-7.5,7.5v8.017
	C204.412,187.997,207.77,191.354,211.912,191.354z"/>
<path d="M300.089,191.354c4.143,0,7.5-3.357,7.5-7.5v-8.017c0-4.143-3.357-7.5-7.5-7.5s-7.5,3.357-7.5,7.5v8.017
	C292.589,187.997,295.946,191.354,300.089,191.354z"/>
<path d="M415.978,366.906l-84.486-24.849c-6.994-2.057-11.879-8.585-11.879-15.876v-34.477
	c25.495-17.719,42.655-45.456,47.007-76.302h4.473c14.617,0,27.155-10.861,28.543-24.728c0.778-7.771-1.764-15.529-6.974-21.286
	c-2.522-2.787-5.569-4.993-8.919-6.534v-11.581h16.548c4.143,0,7.5-3.357,7.5-7.5s-3.357-7.5-7.5-7.5h-8.747
	c-1.624-29.446-12.767-57.559-31.849-80.124v-0.553c0-7.367-3.519-14.404-9.413-18.826l-17.395-13.045
	c-3.863-2.898-8.943-3.355-13.258-1.197c-0.41,0.205-0.8,0.435-1.179,0.678c-9.969-5.176-20.497-9.074-31.427-11.627
	C285.273,4.927,279.226,0,272.032,0h-32.064c-7.193,0-13.241,4.927-14.99,11.578c-10.929,2.553-21.457,6.451-31.427,11.628
	c-0.379-0.243-0.769-0.473-1.179-0.678c-4.314-2.158-9.396-1.7-13.257,1.196L161.72,36.771c-5.895,4.422-9.413,11.459-9.413,18.826
	v0.554c-19.082,22.565-30.226,50.678-31.849,80.123h-8.747c-4.143,0-7.5,3.357-7.5,7.5s3.357,7.5,7.5,7.5h16.549v11.917
	c-8.63,4.115-14.928,12.266-15.888,21.857c-0.778,7.771,1.763,15.53,6.973,21.289c5.214,5.762,12.658,9.066,20.426,9.066h5.598
	c2.219,15.929,7.848,31.189,16.599,44.806c8.013,12.468,18.366,23.142,30.422,31.502v34.471c0,7.291-4.885,13.819-11.879,15.876
	l-84.486,24.849c-23.497,6.911-39.908,28.845-39.908,53.338v84.254c0,4.143,3.357,7.5,7.5,7.5c4.143,0,7.5-3.357,7.5-7.5v-84.254
	c0-17.885,11.983-33.9,29.141-38.947l19.987-5.878V504.5c0,4.143,3.357,7.5,7.5,7.5c4.143,0,7.5-3.357,7.5-7.5v-48.097
	c0-9.125,7.424-16.549,16.549-16.549h32.064c4.143,0,7.5-3.357,7.5-7.5s-3.357-7.5-7.5-7.5h-8.532V359.22l2.046-0.602
	c17.905,25.874,46.885,41.156,78.631,41.156c31.608,0,60.707-15.316,78.625-41.158l2.055,0.604v65.634H215.92
	c-4.143,0-7.5,3.357-7.5,7.5s3.357,7.5,7.5,7.5h144.289c9.125,0,16.549,7.424,16.549,16.549c0,0.013,0.002,0.026,0.002,0.039v48.06
	c0,4.143,3.357,7.5,7.5,7.5s7.5-3.357,7.5-7.5V375.419l19.985,5.878c17.157,5.047,29.141,21.063,29.141,38.947v84.254
	c0,4.143,3.357,7.5,7.5,7.5s7.5-3.357,7.5-7.5v-84.254C455.886,395.751,439.475,373.817,415.978,366.906z M217.212,280.241
	l3.787-34.086c0.933-8.392,8.004-14.721,16.447-14.721h37.112c8.443,0,15.515,6.329,16.447,14.721l3.787,34.086
	c0.762,6.859-2.874,13.542-9.047,16.629l-22.344,11.172c-4.636,2.319-10.168,2.315-14.8,0l-22.344-11.172
	C220.085,293.783,216.449,287.101,217.212,280.241z M327.629,38.532L341.28,48.77c2.137,1.603,3.413,4.155,3.413,6.826v48.097
	c0,0.284-0.231,0.516-0.517,0.516h-16.032c-0.284,0-0.516-0.231-0.516-0.516V38.532H327.629z M239.968,15h32.064
	c0.284,0,0.516,0.231,0.516,0.516v88.178c0,0.284-0.231,0.516-0.516,0.516h-32.064c-0.284,0-0.516-0.231-0.516-0.516V15.516
	C239.452,15.231,239.684,15,239.968,15z M167.307,55.597c0-2.671,1.276-5.224,3.413-6.826l13.651-10.238v65.161
	c0,0.284-0.231,0.516-0.516,0.516h-16.032c-0.285,0-0.517-0.231-0.517-0.516V55.597H167.307z M174.584,252.098
	c-10.003-15.563-15.29-33.618-15.29-52.212c0-4.143-3.357-7.5-7.5-7.5s-7.5,3.357-7.5,7.5v0.517h-4.524
	c-3.537,0-6.928-1.506-9.303-4.131c-2.406-2.659-3.532-6.114-3.17-9.729c0.63-6.292,6.611-11.22,13.617-11.22
	c4.143,0,7.5-3.357,7.5-7.5c0-3.323-2.162-6.136-5.155-7.121v-9.428h176.866c4.143,0,7.5-3.357,7.5-7.5s-3.357-7.5-7.5-7.5H135.481
	c1.197-19.302,6.994-37.937,16.826-54.399v21.819c0,8.556,6.961,15.516,15.517,15.516h16.032c8.556,0,15.516-6.96,15.516-15.516
	v-66.59c7.984-4.25,16.379-7.565,25.081-9.912v76.501c0,8.556,6.96,15.516,15.516,15.516h32.064c8.556,0,15.516-6.96,15.516-15.516
	v-76.5c8.702,2.347,17.097,5.662,25.081,9.912v66.589c0,8.556,6.96,15.516,15.516,15.516h16.032c8.556,0,15.517-6.96,15.517-15.516
	v-21.82c9.833,16.463,15.629,35.097,16.826,54.4h-24.328c-4.143,0-7.5,3.357-7.5,7.5s3.357,7.5,7.5,7.5h16.551v9.915
	c-2.381,1.257-4.006,3.754-4.006,6.634c0,4.143,3.357,7.5,7.5,7.5c3.537,0,6.928,1.506,9.303,4.13
	c2.406,2.659,3.532,6.114,3.17,9.729c-0.63,6.293-6.611,11.222-13.617,11.222h-3.384v-0.438c0-4.141-3.356-7.498-7.497-7.5
	c-0.001,0-0.002,0-0.003,0c-4.14,0-7.497,3.354-7.5,7.494c-0.023,32.449-16.456,62.508-42.889,80.272
	c-0.032-0.548-0.057-1.095-0.118-1.645l-3.787-34.086c-1.778-15.999-15.258-28.064-31.355-28.064h-37.112
	c-16.098,0-29.577,12.065-31.355,28.064l-3.787,34.085c-0.062,0.555-0.087,1.109-0.119,1.662
	C191.206,272.885,181.802,263.328,174.584,252.098z M160.323,424.853h-8.532c-6.066,0-11.734,1.725-16.549,4.703v-58.549
	l25.081-7.377V424.853z M256,384.772c-25.439,0-48.772-11.644-63.99-31.529c9.325-5.613,15.377-15.862,15.377-27.062V300.48
	c0.138,0.067,0.272,0.139,0.41,0.205c0.202,0.097,0.408,0.176,0.615,0.253c2.882,3.868,6.656,7.107,11.137,9.348l22.344,11.172
	c4.418,2.209,9.263,3.313,14.109,3.313c4.845,0,9.691-1.104,14.108-3.313l22.344-11.172c4.467-2.233,8.232-5.458,11.111-9.312
	c0.35-0.165,0.699-0.33,1.046-0.498v25.705c0,11.199,6.051,21.446,15.374,27.059C304.751,373.106,281.331,384.772,256,384.772z
	 M376.76,429.557c-4.815-2.979-10.484-4.705-16.551-4.705h-8.529V363.63l25.08,7.376V429.557z"/>
<path d="M159.887,456.917h-0.08c-4.143,0-7.46,3.357-7.46,7.5s3.397,7.5,7.54,7.5s7.5-3.357,7.5-7.5
	S164.029,456.917,159.887,456.917z"/>
<path d="M352.193,456.917h-0.08c-4.143,0-7.46,3.357-7.46,7.5s3.397,7.5,7.54,7.5s7.5-3.357,7.5-7.5
	S356.336,456.917,352.193,456.917z"/>
<g>
</g>
<g>
</g>
<g>
</g>
<g>
</g>
<g>
</g>
<g>
</g>
<g>
</g>
<g>
</g>
<g>
</g>
<g>
</g>
<g>
</g>
<g>
</g>
<g>
</g>
<g>
</g>
<g>
</g>
</svg>
