<?xml version="1.0" encoding="iso-8859-1"?>
<!-- Generator: Adobe Illustrator 19.0.0, SVG Export Plug-In . SVG Version: 6.00 Build 0)  -->
<svg version="1.1" id="Capa_1" xmlns="http://www.w3.org/2000/svg" xmlns:xlink="http://www.w3.org/1999/xlink" x="0px" y="0px"
	 viewBox="0 0 512 512" style="enable-background:new 0 0 512 512;" xml:space="preserve">
<path style="fill:#FF8087;" d="M360.21,344.177H151.79c-17.709,0-32.065,14.356-32.065,32.065v40.081h272.548v-40.081
	C392.274,358.533,377.918,344.177,360.21,344.177z"/>
<path style="fill:#FFE17D;" d="M280.048,71.629h-48.097c-17.709,0-32.064-14.356-32.064-32.064l0,0
	c0-17.709,14.356-32.064,32.064-32.064h48.097c17.709,0,32.064,14.356,32.064,32.064l0,0
	C312.113,57.273,297.757,71.629,280.048,71.629z"/>
<path style="fill:#E3AA75;" d="M408.283,404.997l-82.792-29.221c-12.82-4.525-21.393-16.642-21.393-30.237v-41.443h-96.194v41.443
	c0,13.595-8.573,25.712-21.393,30.237l-82.792,29.221c-19.229,6.787-32.089,24.962-32.089,45.354V504.5h368.742v-54.148
	C440.371,429.959,427.512,411.784,408.283,404.997z"/>
<path style="fill:#9C969E;" d="M408.283,404.997l-74.363-26.246c-8.378,35.317-40.041,61.62-77.919,61.62
	s-69.541-26.303-77.919-61.62l-74.363,26.246c-19.23,6.787-32.089,24.963-32.089,45.355V504.5h368.742v-54.148
	C440.371,429.96,427.511,411.784,408.283,404.997z"/>
<path style="fill:#D29B6E;" d="M207.903,349.953c14.8,6.544,31.063,10.257,48.097,10.257s33.296-3.713,48.097-10.257v-45.856
	h-96.194L207.903,349.953L207.903,349.953z"/>
<path style="fill:#F5B97D;" d="M372.234,199.887h-5.611l-6.413-32.065H151.79l-6.413,32.065h-5.611
	c-11.068,0-20.04,8.972-20.04,20.04c0,11.067,8.972,20.04,20.04,20.04h12.429c4.106,53.796,48.958,96.194,103.805,96.194
	s99.699-42.398,103.805-96.194h12.429c11.068,0,20.04-8.973,20.04-20.04C392.274,208.859,383.302,199.887,372.234,199.887z"/>
<path style="fill:#E3AA75;" d="M151.79,151.79l-6.871,48.097h-4.009c-10.482,0-20.035,7.542-21.08,17.972
	c-1.202,11.996,8.186,22.109,19.936,22.109h12.429c4.106,53.796,48.958,96.194,103.805,96.194c5.484,0,10.83-0.534,16.083-1.35
	c-46.353-7.155-82.659-44.744-87.643-91.764c-1.994-18.814,13.057-35.145,31.976-35.145l87.681,0.001
	c13.282,0,24.048-10.767,24.048-24.048V151.79H151.79z"/>
<path style="fill:#FFD164;" d="M281.551,63.613h-51.103c-61.151,0-110.723,46.656-110.723,104.21v52.105
	c0-11.096,9.581-20.085,21.381-20.04c2.321,0.009,4.17-1.824,4.17-4.008v-4.008c0-4.427,3.813-8.016,8.517-8.016h112.184
	c4.518,0,8.85-1.689,12.045-4.696l18.442-17.358c4.681-4.406,12.68-2.321,14.285,3.724l3.256,12.257
	c0.948,3.569,4.355,6.072,8.263,6.072h35.936c4.704,0,8.517,3.589,8.517,8.016v4.022c0,2.177,1.843,4.005,4.156,3.995
	c11.806-0.053,21.396,8.939,21.396,20.04v-52.105C392.274,110.269,342.702,63.613,281.551,63.613z"/>
<path style="fill:#FFE17D;" d="M281.551,63.613h-7.65c-24.677,9.586-44.887,27.269-56.796,49.578
	c-11.413,21.377,5.015,46.615,30.434,46.615h52.551c1.6-0.441,3.272-0.437,4.829,0h86.924
	C387.481,106.011,339.826,63.613,281.551,63.613z"/>
<path style="fill:#867E88;" d="M155.338,386.778c11.764,44.66,52.307,77.642,100.662,77.642s88.898-32.981,100.662-77.642
	l-22.743-8.027c-8.378,35.317-40.04,61.62-77.918,61.62s-69.54-26.303-77.919-61.62L155.338,386.778z"/>
<g>
	<path style="fill:#FF8087;" d="M174.932,371.796l-23.181,9.273c-4.817,1.926-7.976,6.592-7.976,11.782V504.5h40.081V377.835
		C183.855,373.233,179.206,370.085,174.932,371.796z"/>
	<path style="fill:#FF8087;" d="M337.068,371.796l23.181,9.273c4.817,1.926,7.977,6.592,7.977,11.782V504.5h-40.081V377.835
		C328.145,373.233,332.794,370.085,337.068,371.796z"/>
</g>
<path d="M285.316,277.371c2.948-2.909,2.98-7.657,0.071-10.606s-7.658-2.98-10.606-0.071c-2.738,2.701-9.299,5.855-18.781,5.855
	s-16.043-3.154-18.781-5.855c-2.95-2.911-7.698-2.878-10.606,0.071c-2.909,2.949-2.877,7.697,0.071,10.606
	c6.46,6.373,17.419,10.178,29.316,10.178S278.856,283.744,285.316,277.371z"/>
<path d="M207.903,208.301c-4.142,0-7.5,3.357-7.5,7.5v8.016c0,4.143,3.358,7.5,7.5,7.5s7.5-3.357,7.5-7.5v-8.016
	C215.403,211.658,212.045,208.301,207.903,208.301z"/>
<path d="M304.097,231.316c4.142,0,7.5-3.357,7.5-7.5V215.8c0-4.143-3.358-7.5-7.5-7.5s-7.5,3.357-7.5,7.5v8.016
	C296.597,227.959,299.955,231.316,304.097,231.316z"/>
<path d="M411.143,398.158l-11.368-4.024v-17.892c0-21.816-17.749-39.564-39.565-39.564h-48.613v-7.86
	c29.243-16.85,50.174-46.561,55.03-81.35h5.607c15.186,0,27.541-12.354,27.541-27.54v-44.089
	c0-54.486-36.588-100.584-86.484-115.026c4.081-6.311,6.322-13.669,6.322-21.249C319.613,17.749,301.865,0,280.048,0h-48.097
	c-21.816,0-39.564,17.749-39.564,39.564c0,7.58,2.242,14.938,6.322,21.249c-49.896,14.442-86.484,60.54-86.484,115.026v44.089
	c0,15.186,12.354,27.54,27.541,27.54h5.607c4.856,34.789,25.787,64.501,55.03,81.35v7.86H151.79
	c-21.816,0-39.565,17.748-39.565,39.564v17.893l-11.362,4.021c-22.187,7.83-37.093,28.899-37.093,52.427V504.5
	c0,4.143,3.358,7.5,7.5,7.5s7.5-3.357,7.5-7.5v-53.917c0-17.18,10.885-32.564,27.092-38.284l30.412-10.764V504.5
	c0,4.143,3.358,7.5,7.5,7.5s7.5-3.357,7.5-7.5v-64.646h25.081V504.5c0,4.143,3.358,7.5,7.5,7.5s7.5-3.357,7.5-7.5v-85.207
	c5.131,5.626,10.984,10.596,17.454,14.753c14.076,9.045,30.395,13.825,47.191,13.825s33.115-4.78,47.191-13.825
	c6.469-4.157,12.323-9.127,17.454-14.753v29.094c0,4.143,3.358,7.5,7.5,7.5s7.5-3.357,7.5-7.5v-8.532h25.081V504.5
	c0,4.143,3.358,7.5,7.5,7.5s7.5-3.357,7.5-7.5V401.535l30.418,10.766c16.201,5.718,27.085,21.103,27.085,38.282V504.5
	c0,4.143,3.358,7.5,7.5,7.5s7.5-3.357,7.5-7.5v-53.917C448.229,427.056,433.323,405.986,411.143,398.158z M384.774,376.242v12.583
	l-10.6-3.752c-2.037-4.908-5.97-8.902-11.14-10.97l-23.181-9.271c-4.32-1.729-9.201-1.204-13.055,1.405
	c-0.637,0.431-1.214,0.925-1.763,1.444l-2.413-0.854c-6.453-2.284-10.823-8.337-11.009-15.149h48.595
	C373.754,351.678,384.774,362.697,384.774,376.242z M207.387,39.564c0-13.545,11.02-24.564,24.564-24.564h48.097
	c13.545,0,24.564,11.02,24.564,24.564c0,6.756-2.754,13.013-7.766,17.733c-5.491-0.774-11.097-1.184-16.798-1.184h-48.097
	c-5.701,0-11.307,0.41-16.798,1.184C210.141,52.578,207.387,46.321,207.387,39.564z M159.291,231.952c0-4.143-3.358-7.5-7.5-7.5
	s-7.5,3.357-7.5,7.5c0,0.172,0.006,0.344,0.007,0.516h-4.531c-6.915,0-12.541-5.625-12.541-12.54s5.625-12.541,12.541-12.541h4.008
	c8.556,0,15.516-6.96,15.516-15.516v-0.517h8.529c4.142,0,7.5-3.357,7.5-7.5s-3.358-7.5-7.5-7.5h-16.029c-4.142,0-7.5,3.357-7.5,7.5
	v8.017c0,0.284-0.231,0.516-0.516,0.516h-4.008c-4.515,0-8.776,1.099-12.541,3.033v-19.581c0-57.746,46.98-104.726,104.726-104.726
	h48.097c57.746,0,104.726,46.979,104.726,104.726v19.582c-3.765-1.935-8.027-3.034-12.544-3.034l-3.99,0.001
	c-0.055,0-0.221,0-0.378-0.157c-0.152-0.151-0.152-0.308-0.152-0.358v-8.018c0-4.143-3.358-7.5-7.5-7.5h-42.241l-6.596-26.384
	c-0.655-2.621-2.67-4.688-5.274-5.408c-2.604-0.721-5.395,0.016-7.305,1.924l-29.868,29.868h-69.039c-4.142,0-7.5,3.357-7.5,7.5
	s3.358,7.5,7.5,7.5h72.145c1.989,0,3.897-0.79,5.303-2.196l22.698-22.698l4.804,19.214c0.834,3.339,3.834,5.681,7.276,5.681h40.597
	v0.518c0,4.147,1.619,8.047,4.559,10.979c2.934,2.926,6.83,4.537,10.969,4.537c0.001,0,0.002,0,0.003,0l3.993-0.001
	c6.915,0,12.541,5.626,12.541,12.541s-5.625,12.54-12.541,12.54h-4.531c0.001-0.172,0.007-0.343,0.007-0.516
	c0-4.143-3.358-7.5-7.5-7.5s-7.5,3.357-7.5,7.5c0,53.325-43.384,96.709-96.709,96.709S159.291,285.277,159.291,231.952z
	 M127.226,376.242c0-13.545,11.02-24.564,24.565-24.564h48.595c-0.186,6.813-4.556,12.866-11.009,15.149l-2.413,0.854
	c-0.549-0.519-1.126-1.013-1.763-1.444c-3.854-2.609-8.734-3.136-13.054-1.406l-23.182,9.272c-5.17,2.068-9.103,6.063-11.14,10.97
	l-10.6,3.752L127.226,376.242L127.226,376.242z M151.274,424.854v-32.006c0-2.134,1.28-4.025,3.261-4.817l21.819-8.728v45.551
	H151.274z M256,432.871c-27.524,0-52.138-15.163-64.645-39.678v-11.154l3.026-1.071c12.574-4.45,21.022-16.402,21.022-29.74v-15.204
	c12.589,4.928,26.282,7.638,40.597,7.638c14.315,0,28.007-2.71,40.597-7.638v15.204c0,13.338,8.448,25.29,21.022,29.74l3.026,1.071
	v11.154C308.138,417.708,283.524,432.871,256,432.871z M335.645,424.854v-45.551l21.819,8.728c1.981,0.792,3.261,2.684,3.261,4.817
	v32.006H335.645z"/>
<path d="M328.145,472.95c-4.142,0-7.5,3.357-7.5,7.5v24.05c0,4.143,3.358,7.5,7.5,7.5s7.5-3.357,7.5-7.5v-24.05
	C335.645,476.308,332.287,472.95,328.145,472.95z"/>
<g>
</g>
<g>
</g>
<g>
</g>
<g>
</g>
<g>
</g>
<g>
</g>
<g>
</g>
<g>
</g>
<g>
</g>
<g>
</g>
<g>
</g>
<g>
</g>
<g>
</g>
<g>
</g>
<g>
</g>
</svg>
