<?xml version="1.0" encoding="iso-8859-1"?>
<!-- Generator: Adobe Illustrator 19.0.0, SVG Export Plug-In . SVG Version: 6.00 Build 0)  -->
<svg version="1.1" id="Capa_1" xmlns="http://www.w3.org/2000/svg" xmlns:xlink="http://www.w3.org/1999/xlink" x="0px" y="0px"
	 viewBox="0 0 512 512" style="enable-background:new 0 0 512 512;" xml:space="preserve">
<path style="fill:#DBD9DC;" d="M413.847,419.837l-84.478-24.847c-10.234-3.01-17.261-12.402-17.261-23.069V312.13H199.892v59.791
	c0,10.667-7.028,20.059-17.261,23.069l-84.478,24.847c-20.467,6.02-34.522,24.804-34.522,46.138V504.5H448.37v-38.525
	C448.369,444.641,434.314,425.857,413.847,419.837z"/>
<path style="fill:#C9C6CA;" d="M215.923,494.481h80.154c50.814,0,94.266-31.737,111.836-76.389l-78.543-23.101
	c-10.234-3.01-17.262-12.403-17.262-23.07V312.13H199.892v59.791c0,10.667-7.027,20.06-17.262,23.07l-78.543,23.101
	C121.657,462.744,165.109,494.481,215.923,494.481z"/>
<path style="fill:#FF9664;" d="M344.169,326.158H167.831c-26.561,0-48.092,21.532-48.092,48.092
	c0,53.121,43.063,96.185,96.185,96.185h80.154c53.122,0,96.185-43.064,96.185-96.185
	C392.262,347.689,370.73,326.158,344.169,326.158z"/>
<path style="fill:#FF8250;" d="M342.036,350.204c17.447,0,24.298,22.628,9.781,32.306l-82.479,54.986
	c-8.077,5.385-18.6,5.385-26.677,0l-82.479-54.986c-14.517-9.678-7.666-32.306,9.781-32.306H342.036z"/>
<path style="fill:#F7D291;" d="M180.426,396.006l62.235,41.49c8.078,5.385,18.6,5.385,26.677,0l62.235-41.49l0,0l-2.205-0.649
	c-10.233-3.01-17.261-12.402-17.261-23.069v-52.142H199.892v52.142c0,10.667-7.028,20.059-17.261,23.069L180.426,396.006
	L180.426,396.006z"/>
<path style="fill:#F0C382;" d="M199.892,354.064c16.839,8.995,35.936,14.175,56.108,14.175s39.268-5.18,56.108-14.175v-33.918
	H199.892V354.064z"/>
<path style="fill:#FFE1A0;" d="M376.231,211.03v-27.146c0-62.528-47.742-113.869-108.756-119.652
	c-3.773-0.383-7.601-0.579-11.475-0.579s-7.702,0.197-11.475,0.579c-61.014,5.783-108.756,57.123-108.756,119.652v27.408
	c-8.278,2.002-15.054,8.607-15.923,17.281c-1.202,11.994,8.185,22.105,19.934,22.105h12.023h0.735
	c5.374,52.503,49.54,93.514,103.462,93.514s98.089-41.01,103.462-93.514h0.737h10.883c10.482,0,20.035-7.542,21.078-17.972
	C393.22,222.114,386.017,213.02,376.231,211.03z"/>
<path style="fill:#FF9664;" d="M248.847,98.811l-12.913-20.748c-2.521-4.051-3.107-9.014-1.598-13.54l18.168-54.503
	c1.12-3.36,5.873-3.36,6.993,0l18.168,54.503c1.509,4.526,0.923,9.489-1.598,13.539l-12.911,20.747
	C259.858,104.11,252.145,104.11,248.847,98.811z"/>
<path style="fill:#FF8250;" d="M256,7.5c-1.469,0-2.936,0.84-3.496,2.52l-18.168,54.503c-1.509,4.526-0.923,9.49,1.598,13.541
	l12.913,20.747c1.649,2.65,4.401,3.974,7.153,3.974V7.5z"/>
<path style="fill:#F7D291;" d="M191.877,239.992V136.441c0-22.928-30.383-30.296-41.401-10.19
	c-9.375,17.107-14.706,36.744-14.706,57.633v27.408c-8.278,2.002-15.054,8.607-15.923,17.281
	c-1.202,11.994,8.185,22.105,19.934,22.105h12.023h0.735c5.374,52.503,49.54,93.514,103.462,93.514
	c6.882,0,13.598-0.685,20.103-1.961C228.118,332.909,191.877,290.703,191.877,239.992z"/>
<path d="M415.963,415.013l-21.412-6.297c3.376-10.216,5.21-21.128,5.21-32.461c0-30.654-24.938-55.593-55.592-55.593h-8.295
	c16.261-16.648,27.373-38.341,30.743-62.482h4.464c14.617,0,27.153-10.861,28.541-24.726c0.778-7.771-1.764-15.529-6.974-21.286
	c-2.522-2.787-5.568-4.993-8.918-6.534v-19.078c0-59.41-41.429-111.231-98.975-124.474L266.612,7.648C265.087,3.074,260.822,0,256,0
	s-9.087,3.074-10.612,7.648l-18.145,54.434c-57.546,13.243-98.974,65.064-98.974,124.474v19.414
	c-8.628,4.115-14.926,12.266-15.887,21.857c-0.778,7.771,1.764,15.529,6.973,21.287c5.213,5.761,12.658,9.065,20.424,9.065h5.603
	c3.37,24.142,14.482,45.834,30.743,62.482h-8.295c-30.654,0-55.592,24.938-55.592,55.593c0,11.333,1.834,22.245,5.21,32.461
	l-21.412,6.297c-23.496,6.91-39.906,28.842-39.906,53.333V504.5c0,4.143,3.358,7.5,7.5,7.5s7.5-3.357,7.5-7.5v-36.154
	c0-17.883,11.982-33.896,29.139-38.942l22.95-6.75c12.426,24.725,34.453,43.824,61.159,52.373V504.5c0,4.143,3.358,7.5,7.5,7.5
	s7.5-3.357,7.5-7.5v-25.887c5.39,0.868,10.915,1.326,16.545,1.326h80.154c5.632,0,11.157-0.458,16.548-1.326V504.5
	c0,4.143,3.358,7.5,7.5,7.5s7.5-3.357,7.5-7.5v-29.475c26.705-8.549,48.731-27.647,61.156-52.372l22.95,6.75
	c17.156,5.046,29.139,21.06,29.139,38.942V504.5c0,4.143,3.358,7.5,7.5,7.5s7.5-3.357,7.5-7.5v-36.154
	C455.87,443.854,439.459,421.923,415.963,415.013z M330.382,389.791c-6.396-2.39-10.774-8.6-10.774-15.499v-14.585h22.429
	c5.544,0,8.646,3.718,9.699,7.197c1.054,3.479,0.536,8.294-4.078,11.369L330.382,389.791z M256,23.248l15.817,47.45l-15.029,24.149
	c-0.067,0.108-0.272,0.437-0.787,0.438c-0.515,0-0.72-0.329-0.787-0.438l0,0l-15.031-24.15L256,23.248z M139.78,243.179
	c-3.536,0-6.927-1.505-9.302-4.13c-2.406-2.659-3.532-6.114-3.17-9.728c0.63-6.292,6.612-11.22,13.617-11.22
	c4.142,0,7.5-3.357,7.5-7.5c0-3.323-2.162-6.135-5.155-7.121v-16.925c0-51.128,34.767-95.867,83.577-108.9l15.634,25.117l0,0
	c2.927,4.703,7.982,7.512,13.522,7.512c5.54-0.001,10.595-2.809,13.521-7.512l15.631-25.117
	c48.81,13.032,83.577,57.771,83.577,108.9v17.412c-2.381,1.257-4.005,3.754-4.005,6.634c0,4.143,3.358,7.5,7.5,7.5
	c3.536,0,6.926,1.505,9.301,4.13c2.406,2.659,3.532,6.113,3.17,9.728c-0.629,6.292-6.61,11.22-13.615,11.22h-3.388
	c0.001-0.172,0.007-0.343,0.007-0.515c0-4.143-3.358-7.5-7.5-7.5s-7.5,3.357-7.5,7.5c0,53.32-43.379,96.7-96.7,96.7
	s-96.7-43.38-96.7-96.7c0-4.143-3.358-7.5-7.5-7.5s-7.5,3.357-7.5,7.5c0,0.172,0.006,0.343,0.007,0.515L139.78,243.179
	L139.78,243.179z M181.618,389.791l-17.276-11.517c-4.613-3.075-5.131-7.89-4.078-11.369c1.053-3.479,4.154-7.197,9.699-7.197
	h22.429v14.585C192.392,381.191,188.015,387.401,181.618,389.791z M327.625,459.135v-2.726c0-4.143-3.358-7.5-7.5-7.5
	s-7.5,3.357-7.5,7.5v6.976c-5.363,1.016-10.893,1.555-16.548,1.555h-80.154c-5.654,0-11.183-0.538-16.545-1.554v-6.976
	c0-4.143-3.358-7.5-7.5-7.5s-7.5,3.357-7.5,7.5v2.727c-33.371-12.744-57.139-45.087-57.139-82.881
	c0-22.383,18.209-40.593,40.592-40.593h24.588c-0.012,0.171-0.026,0.342-0.026,0.516v8.53h-22.429
	c-11.33,0-20.772,7.007-24.055,17.851c-3.283,10.845,0.687,21.912,10.114,28.196l86.926,57.95c3.965,2.644,8.508,3.965,13.052,3.965
	c4.543,0,9.088-1.322,13.052-3.965l23.17-15.446c3.446-2.298,4.378-6.954,2.08-10.4c-2.297-3.446-6.955-4.377-10.4-2.08
	l-23.17,15.446c-2.875,1.916-6.589,1.916-9.464,0l-55.862-37.241c7.369-5.877,11.986-14.918,11.986-24.691v-31.071
	c14.704,7.136,31.196,11.143,48.608,11.143s33.904-4.007,48.608-11.143v31.071c0,9.773,4.617,18.813,11.986,24.691l-4.637,3.091
	c-3.447,2.298-4.378,6.954-2.08,10.4c1.445,2.168,3.823,3.341,6.247,3.341c1.43,0,2.875-0.408,4.153-1.261l35.701-23.801
	c9.427-6.284,13.397-17.352,10.114-28.196c-3.283-10.844-12.726-17.851-24.055-17.851h-22.429v-8.53
	c0-0.174-0.014-0.344-0.026-0.516h24.588c22.383,0,40.592,18.21,40.592,40.593C384.762,414.047,360.995,446.389,327.625,459.135z"/>
<path d="M207.908,211.118c-4.142,0-7.5,3.357-7.5,7.5v8.015c0,4.143,3.358,7.5,7.5,7.5s7.5-3.357,7.5-7.5v-8.015
	C215.408,214.476,212.05,211.118,207.908,211.118z"/>
<path d="M304.092,211.118c-4.142,0-7.5,3.357-7.5,7.5v8.015c0,4.143,3.358,7.5,7.5,7.5s7.5-3.357,7.5-7.5v-8.015
	C311.592,214.476,308.234,211.118,304.092,211.118z"/>
<path d="M226.686,280.064c6.459,6.372,17.417,10.177,29.314,10.177s22.854-3.805,29.314-10.177c2.948-2.909,2.98-7.657,0.071-10.606
	c-2.909-2.948-7.658-2.981-10.606-0.071c-2.737,2.7-9.298,5.854-18.779,5.854s-16.042-3.154-18.779-5.854
	c-2.95-2.912-7.698-2.877-10.606,0.071C223.706,272.407,223.738,277.155,226.686,280.064z"/>
<path d="M197.521,201.687l24.046,8.016c0.787,0.262,1.586,0.387,2.373,0.387c3.14,0,6.066-1.987,7.114-5.13
	c1.31-3.93-0.814-8.178-4.744-9.487l-24.046-8.016c-3.929-1.305-8.177,0.813-9.487,4.743
	C191.467,196.129,193.591,200.377,197.521,201.687z"/>
<path d="M288.061,210.089c0.786,0,1.586-0.125,2.373-0.387l24.046-8.016c3.93-1.31,6.053-5.558,4.744-9.487
	c-1.311-3.93-5.558-6.049-9.487-4.743l-24.046,8.016c-3.93,1.31-6.053,5.558-4.744,9.487
	C281.994,208.102,284.92,210.089,288.061,210.089z"/>
<g>
</g>
<g>
</g>
<g>
</g>
<g>
</g>
<g>
</g>
<g>
</g>
<g>
</g>
<g>
</g>
<g>
</g>
<g>
</g>
<g>
</g>
<g>
</g>
<g>
</g>
<g>
</g>
<g>
</g>
</svg>
