<?xml version="1.0" encoding="iso-8859-1"?>
<!-- Generator: Adobe Illustrator 19.0.0, SVG Export Plug-In . SVG Version: 6.00 Build 0)  -->
<svg version="1.1" id="Capa_1" xmlns="http://www.w3.org/2000/svg" xmlns:xlink="http://www.w3.org/1999/xlink" x="0px" y="0px"
	 viewBox="0 0 512.003 512.003" style="enable-background:new 0 0 512.003 512.003;" xml:space="preserve">
<path style="fill:#A06E50;" d="M256.002,7.504L256.002,7.504c-80.975,0-147.868,63.213-152.444,144.059l-7.265,128.35
	c-4.685,82.762,61.165,152.444,144.059,152.444h31.3c82.894,0,148.744-69.682,144.059-152.444l-7.265-128.35
	C403.869,70.717,336.977,7.504,256.002,7.504z"/>
<path style="fill:#B67F5F;" d="M415.71,279.912l-7.026-124.129C404.878,88.54,359.397,29.469,294.228,12.464
	c-30.651-7.998-59.961-5.822-86.323,2.935v8.137c0,26.563,21.534,48.097,48.096,48.097h16.032c13.281,0,24.048,10.767,24.048,24.048
	v334.431C367.042,417.998,419.923,354.332,415.71,279.912z"/>
<path style="fill:#F7D291;" d="M408.283,388.967l-82.792-29.221c-12.82-4.525-21.393-16.642-21.393-30.237v-41.443h-96.193v41.443
	c0,13.595-8.573,25.712-21.393,30.237l-82.792,29.221c-19.229,6.787-32.089,24.962-32.089,45.354v70.18h368.74v-70.18
	C440.372,413.929,427.512,395.754,408.283,388.967z"/>
<path style="fill:#FF8087;" d="M408.283,388.967l-52.129-18.398c-18.48,36.618-56.334,61.788-100.153,61.788
	s-81.673-25.17-100.153-61.788l-52.129,18.398c-19.229,6.787-32.089,24.962-32.089,45.354v70.18h368.74v-70.18
	C440.372,413.929,427.512,395.754,408.283,388.967z"/>
<path style="fill:#F0C382;" d="M207.905,317.891c14.8,6.545,31.063,10.257,48.096,10.257s33.296-3.712,48.097-10.257v-29.824
	h-96.193L207.905,317.891L207.905,317.891z"/>
<path style="fill:#FFE1A0;" d="M372.235,167.826h-9.16c-6.009,0-10.88-4.871-10.88-10.881v-5.151
	c0-30.99-25.123-56.113-56.113-56.113h-80.161c-30.99,0-56.113,25.123-56.113,56.113v5.151c0,6.01-4.871,10.881-10.88,10.881h-9.16
	c-11.068,0-20.04,8.972-20.04,20.04c0,11.067,8.972,20.04,20.04,20.04h12.429c4.106,53.795,48.958,96.193,103.804,96.193
	s99.698-42.398,103.804-96.193h12.429c11.068,0,20.04-8.973,20.04-20.04C392.275,176.798,383.303,167.826,372.235,167.826z"/>
<path style="fill:#FFFFFF;" d="M219.93,223.936c0,17.709,16.15,32.064,36.072,32.064s36.072-14.356,36.072-32.064H219.93z"/>
<g>
	<path style="fill:#FF8087;" d="M202.877,29.199c16.976,5.285,30.466,14.75,37.902,25.199c1.911,2.685,0.735,6.464-2.363,7.59
		c-12.054,4.381-28.532,4.517-45.508-0.768s-30.466-14.75-37.902-25.199c-1.911-2.685-0.735-6.464,2.363-7.59
		C169.422,24.05,185.9,23.914,202.877,29.199z"/>
	<path style="fill:#FF8087;" d="M309.127,29.199c-16.976,5.285-30.466,14.75-37.902,25.199c-1.911,2.685-0.735,6.464,2.363,7.59
		c12.054,4.381,28.532,4.517,45.508-0.768s30.466-14.75,37.902-25.199c1.911-2.685,0.735-6.464-2.363-7.59
		C342.581,24.05,326.103,23.914,309.127,29.199z"/>
</g>
<path style="fill:#F7D291;" d="M215.921,119.729h56.113c13.282,0,24.048-10.767,24.048-24.048h-80.161
	c-30.99,0-56.113,25.123-56.113,56.113v5.151c0,6.088-4.986,10.821-11.072,10.881h-8.968c-11.068,0-20.04,8.972-20.04,20.04
	c0,11.067,8.972,20.04,20.04,20.04h12.429c4.106,53.795,48.958,96.193,103.804,96.193c5.484,0,10.83-0.534,16.083-1.35
	c-49.946-7.709-88.228-50.754-88.228-102.859v-48.097C183.857,134.084,198.212,119.729,215.921,119.729z"/>
<g>
	<circle style="fill:#E6646E;" cx="256.001" cy="55.6" r="16.03"/>
	<path style="fill:#E6646E;" d="M130.909,379.371c23.136,45.665,70.399,77.033,125.093,77.033s101.957-31.369,125.093-77.033
		l-24.941-8.803c-18.479,36.618-56.334,61.788-100.152,61.788s-81.673-25.17-100.152-61.788L130.909,379.371z"/>
</g>
<path d="M215.405,184.552v-8.017c0-4.143-3.358-7.5-7.5-7.5s-7.5,3.357-7.5,7.5v8.017c0,4.143,3.358,7.5,7.5,7.5
	S215.405,188.695,215.405,184.552z"/>
<path d="M304.098,169.036c-4.143,0-7.5,3.357-7.5,7.5v8.017c0,4.143,3.357,7.5,7.5,7.5s7.5-3.357,7.5-7.5v-8.017
	C311.598,172.393,308.241,169.036,304.098,169.036z"/>
<path d="M410.779,381.892l-12.613-4.452c18.817-29.732,27.639-63.936,25.551-99.425l-7.239-123.067
	c-2.496-42.418-22.414-83.102-54.916-112.673c2.023-2.564,3.754-5.227,5.142-7.967c1.833-3.618,0.457-8.038-3.105-9.977
	c-9.659-5.255-22.333-7.28-35.862-5.99C304.993,6.193,279.842-0.19,254.983,0.004c-25.449,0.159-50.702,6.442-73.159,18.156
	c-12.605-0.836-24.346,1.232-33.42,6.171c-3.563,1.938-4.938,6.358-3.106,9.977c1.101,2.174,2.438,4.293,3.944,6.36
	c-31.587,28.173-50.999,68.083-53.49,110.434l-7.465,126.913c-2.089,35.504,6.733,69.698,25.552,99.425l-12.614,4.452
	c-22.187,7.831-37.093,28.899-37.093,52.427v70.183c0,4.143,3.358,7.5,7.5,7.5s7.5-3.357,7.5-7.5v-70.183
	c0-17.18,10.885-32.564,27.085-38.282l44.646-15.758c4.235,8.209,9.678,15.886,16.266,22.868c1.476,1.563,3.463,2.353,5.456,2.353
	c1.846,0,3.697-0.678,5.146-2.045c3.013-2.843,3.15-7.59,0.307-10.603c-5.127-5.433-9.44-11.339-12.886-17.616l23.856-8.42
	c15.789-5.572,26.396-20.565,26.396-37.309v-25.546c12.587,4.926,26.277,7.635,40.589,7.635c14.318,0,28.013-2.711,40.604-7.641
	v25.552c0,16.743,10.607,31.736,26.396,37.309l23.851,8.418c-7.406,13.522-18.727,25.138-33.068,33.854
	c-16.972,10.314-36.952,15.767-57.782,15.767c-19.19,0-37.844-4.685-53.946-13.547c-3.63-2-8.189-0.676-10.187,2.954
	c-1.998,3.629-0.675,8.189,2.954,10.187c18.312,10.079,39.467,15.406,61.179,15.406c23.578,0,46.253-6.206,65.572-17.948
	c17.358-10.549,30.93-24.87,39.565-41.63l44.655,15.761c16.2,5.718,27.085,21.103,27.085,38.282v70.183c0,4.143,3.357,7.5,7.5,7.5
	s7.5-3.357,7.5-7.5V434.32C447.872,410.791,432.966,389.723,410.779,381.892z M348.553,34.487
	c-6.72,7.716-17.522,14.392-29.993,18.273c-12.469,3.883-25.153,4.521-35.065,1.98c6.72-7.715,17.522-14.391,29.993-18.273
	C325.958,32.585,338.643,31.95,348.553,34.487z M255.077,15.004c16.456-0.121,33.015,2.957,48.786,8.931
	c-11.438,4.287-21.396,10.516-28.794,17.896c-4.279-5.91-11.229-9.765-19.067-9.765c-7.838,0-14.788,3.855-19.067,9.765
	c-7.648-7.629-18.023-14.04-29.948-18.334C222.361,18.014,238.673,15.107,255.077,15.004z M247.469,55.598
	c0-4.705,3.828-8.532,8.532-8.532c4.705,0,8.532,3.827,8.532,8.532s-3.827,8.532-8.532,8.532
	C251.297,64.13,247.469,60.303,247.469,55.598z M198.515,36.467c12.47,3.883,23.273,10.559,29.994,18.274
	c-9.914,2.537-22.597,1.9-35.066-1.981S170.17,42.202,163.45,34.487C173.363,31.951,186.046,32.584,198.515,36.467z
	 M311.598,329.507v-32.759c29.239-16.85,50.166-46.559,55.022-81.345h5.607c15.186,0,27.54-12.354,27.54-27.54
	c0-15.187-12.354-27.541-27.54-27.541h-4c-4.705,0-8.532-3.827-8.532-8.532c0-35.076-28.537-63.612-63.613-63.612
	c-4.143,0-7.5,3.357-7.5,7.5s3.357,7.5,7.5,7.5c26.806,0,48.613,21.808,48.613,48.613c0,12.976,10.557,23.531,23.532,23.531h4
	c6.915,0,12.54,5.626,12.54,12.541s-5.625,12.54-12.54,12.54h-4.531c0.001-0.173,0.007-0.344,0.007-0.517c0-4.143-3.357-7.5-7.5-7.5
	s-7.5,3.357-7.5,7.5c0,53.325-43.384,96.709-96.709,96.709c-53.326,0-96.709-43.384-96.709-96.709c0-4.143-3.358-7.5-7.5-7.5
	s-7.5,3.357-7.5,7.5c0,0.173,0.006,0.344,0.007,0.517h-4.531c-6.915,0-12.54-5.625-12.54-12.54s5.625-12.541,12.54-12.541h4.016
	c12.976,0,23.532-10.557,23.532-23.532c0-26.805,21.808-48.612,48.612-48.612h48.096c4.143,0,7.5-3.357,7.5-7.5s-3.357-7.5-7.5-7.5
	h-48.096c-35.076,0-63.612,28.537-63.612,63.613c0,4.704-3.828,8.531-8.532,8.531h-4.016c-15.186,0-27.54,12.354-27.54,27.541
	c0,15.186,12.354,27.54,27.54,27.54h5.607c4.856,34.792,25.79,64.505,55.037,81.354v32.75c0,10.396-6.586,19.704-16.389,23.164
	l-55.631,19.635c-18.412-27.726-27.094-59.926-25.124-93.41l7.465-126.913c2.268-38.553,20.003-74.878,48.851-100.437
	c7.972,6.598,18.088,12.013,29.407,15.537c8.982,2.797,18.016,4.183,26.515,4.183c7.402,0,14.381-1.075,20.581-3.163
	c4.169,6.618,11.538,11.028,19.921,11.028c8.383,0,15.752-4.41,19.921-11.028c6.2,2.088,13.178,3.163,20.581,3.163
	c8.499,0,17.534-1.387,26.516-4.183c10.588-3.296,20.106-8.259,27.819-14.286c29.993,26.993,48.384,64.241,50.666,103.032
	l7.239,123.067c1.969,33.47-6.712,65.681-25.123,93.411l-55.633-19.635C318.184,349.211,311.598,339.903,311.598,329.507z"/>
<path d="M212.429,223.936c0,21.816,19.546,39.564,43.572,39.564c24.025,0,43.572-17.748,43.572-39.564c0-4.143-3.357-7.5-7.5-7.5
	h-72.145C215.787,216.436,212.429,219.793,212.429,223.936z M283.213,231.436c-3.696,9.889-14.497,17.064-27.211,17.064
	c-12.714,0-23.515-7.176-27.211-17.064H283.213z"/>
<path d="M217.74,155.062c4.019-1.005,6.462-5.077,5.457-9.096c-1.004-4.018-5.079-6.463-9.095-5.457l-16.032,4.008
	c-4.019,1.005-6.462,5.077-5.457,9.096c0.852,3.407,3.91,5.683,7.27,5.683c0.602,0,1.214-0.073,1.825-0.226L217.74,155.062z"/>
<path d="M294.262,155.062l16.032,4.008c0.611,0.152,1.223,0.226,1.825,0.226c3.36,0,6.418-2.275,7.271-5.683
	c1.004-4.019-1.439-8.091-5.457-9.096l-16.032-4.008c-4.018-0.999-8.09,1.439-9.096,5.457
	C287.801,149.985,290.245,154.057,294.262,155.062z"/>
<g>
</g>
<g>
</g>
<g>
</g>
<g>
</g>
<g>
</g>
<g>
</g>
<g>
</g>
<g>
</g>
<g>
</g>
<g>
</g>
<g>
</g>
<g>
</g>
<g>
</g>
<g>
</g>
<g>
</g>
</svg>
