<?xml version="1.0" encoding="iso-8859-1"?>
<!-- Generator: Adobe Illustrator 19.0.0, SVG Export Plug-In . SVG Version: 6.00 Build 0)  -->
<svg version="1.1" id="Capa_1" xmlns="http://www.w3.org/2000/svg" xmlns:xlink="http://www.w3.org/1999/xlink" x="0px" y="0px"
	 viewBox="0 0 512 512" style="enable-background:new 0 0 512 512;" xml:space="preserve">
<path style="fill:#F7D291;" d="M413.861,374.102l-84.486-24.849c-10.235-3.01-17.263-12.403-17.263-23.071v-38.119H199.887v38.119
	c0,10.668-7.028,20.061-17.263,23.071l-84.486,24.849c-20.469,6.02-34.525,24.806-34.525,46.142v84.254h384.773v-84.254
	C448.387,398.909,434.33,380.123,413.861,374.102z"/>
<path style="fill:#F0C382;" d="M199.887,313.968c16.841,8.996,35.939,14.176,56.113,14.176s39.272-5.18,56.113-14.176v-25.905
	H199.887V313.968z"/>
<path style="fill:#FFE1A0;" d="M372.234,167.822H360.21V79.645H151.791v88.177h-12.024c-11.068,0-20.04,8.972-20.04,20.04
	c0,11.068,8.972,20.04,20.04,20.04h12.429c4.106,53.795,48.958,96.193,103.804,96.193s99.698-42.398,103.804-96.193h12.429
	c11.068,0,20.04-8.973,20.04-20.04C392.274,176.794,383.302,167.822,372.234,167.822z"/>
<path style="fill:#F7D291;" d="M151.791,79.645v88.177h-12.024c-11.068,0-20.04,8.972-20.04,20.04c0,11.068,8.972,20.04,20.04,20.04
	h12.429c4.106,53.795,48.958,96.193,103.804,96.193c5.484,0,10.83-0.534,16.083-1.351c-49.946-7.708-88.228-50.754-88.228-102.859
	v-40.081c0-17.709,14.355-32.064,32.064-32.064h96.193c8.854,0,16.032-7.178,16.032-16.032V79.645H151.791z"/>
<path style="fill:#B67F5F;" d="M392.192,44.986C390.842,23.592,371.921,7.5,350.485,7.5H198.604c-37.94,0-67.586,32.758-63.81,70.51
	l8.981,89.812h8.015c8.854,0,16.032-7.178,16.032-16.032l0.001-40.081h176.354l-0.001,40.08c0,8.854,7.178,16.033,16.032,16.033
	h8.017l6.671-86.716l-0.537-0.159C385.814,73.323,393.138,59.985,392.192,44.986z"/>
<path style="fill:#A06E50;" d="M231.952,7.5h-33.348c-37.94,0-67.586,32.758-63.81,70.51l8.981,89.812h8.015
	c8.854,0,16.032-7.178,16.032-16.032l0.001-40.081v-40.08C167.823,36.212,196.534,7.5,231.952,7.5z"/>
<g>
	<path style="fill:#A5CDFF;" d="M175.839,368.225v-16.976l-40.081,11.788v141.461h240.483v-141.46L336.16,351.25v16.976
		c0,44.272-35.89,80.161-80.161,80.161S175.839,412.496,175.839,368.225z"/>
	<path style="fill:#A5CDFF;" d="M372.542,111.709l2.354-30.603l-0.537-0.159c3.781-2.517,7.053-5.703,9.785-9.319H134.499
		c0.003,2.109,0.079,4.234,0.294,6.381l3.37,33.7h29.66h176.354H372.542z"/>
</g>
<path style="fill:#8CB4EB;" d="M296.081,103.693c9.653,0,18.39-3.553,25.309-9.237c8.845,5.825,19.421,9.237,30.804,9.237
	c7.54,0,14.721-1.51,21.289-4.207l1.414-18.38l-0.537-0.159c3.781-2.517,7.053-5.703,9.785-9.319H256.808
	C260.522,89.923,276.69,103.693,296.081,103.693z"/>
<path style="fill:#A06E50;" d="M256.782,71.629L256.782,71.629h24.048V55.597h-8.016C263.96,55.597,256.782,62.775,256.782,71.629z"
	/>
<g>
	<circle style="fill:#B67F5F;" cx="352.19" cy="47.581" r="40.08"/>
	<circle style="fill:#B67F5F;" cx="296.08" cy="63.61" r="24.05"/>
</g>
<path style="fill:#8CB4EB;" d="M134.499,71.629c0.003,2.109,0.079,4.234,0.294,6.381l3.37,33.7h29.66V71.629H134.499z"/>
<g>
	<path style="fill:#F0C382;" d="M135.758,448.386L135.758,448.386v56.113H111.71v-32.064
		C111.71,459.153,122.477,448.386,135.758,448.386z"/>
	<path style="fill:#F0C382;" d="M376.242,448.386L376.242,448.386v56.113h24.048v-32.064
		C400.29,459.153,389.523,448.386,376.242,448.386z"/>
</g>
<path style="fill:#8CB4EB;" d="M336.161,351.249v16.976c0,44.272-35.89,80.161-80.161,80.161s-80.161-35.889-80.161-80.161v-16.976
	l-24.048,7.073v9.903c0,57.553,46.656,104.209,104.209,104.209s104.209-46.656,104.209-104.209v-9.903L336.161,351.249z"/>
<path d="M207.903,168.338c-4.142,0-7.5,3.358-7.5,7.5v8.016c0,4.142,3.358,7.5,7.5,7.5s7.5-3.358,7.5-7.5v-8.016
	C215.403,171.696,212.045,168.338,207.903,168.338z"/>
<path d="M304.097,168.338c-4.142,0-7.5,3.358-7.5,7.5v8.016c0,4.142,3.358,7.5,7.5,7.5s7.5-3.358,7.5-7.5v-8.016
	C311.597,171.696,308.239,168.338,304.097,168.338z"/>
<path d="M274.781,226.612c-2.737,2.701-9.299,5.855-18.781,5.855c-9.482,0-16.043-3.154-18.781-5.855
	c-2.95-2.91-7.698-2.876-10.606,0.071c-2.909,2.949-2.877,7.698,0.071,10.606c6.459,6.373,17.418,10.177,29.316,10.177
	c11.898,0,22.856-3.805,29.316-10.177c2.948-2.909,2.98-7.658,0.071-10.606C282.479,223.735,277.729,223.703,274.781,226.612z"/>
<path d="M415.978,366.907l-84.486-24.849c-6.994-2.057-11.879-8.585-11.879-15.876v-34.527
	c25.013-17.396,42.617-44.741,47.019-76.253h4.459c14.617,0,27.154-10.861,28.542-24.727c0.778-7.771-1.764-15.531-6.975-21.288
	c-4.294-4.746-10.102-7.819-16.357-8.757l5.856-76.125c10.74-8.731,17.617-22.038,17.617-36.926C399.774,21.345,378.429,0,352.193,0
	H198.604c-20.199,0-39.557,8.589-53.11,23.565c-13.553,14.977-20.173,35.093-18.164,55.19l8.206,82.062
	c-12.207,2.271-21.954,12.101-23.169,24.23c-0.778,7.771,1.764,15.53,6.974,21.289c5.214,5.762,12.659,9.066,20.425,9.066h5.598
	c4.399,31.522,22.003,58.87,47.023,76.264v34.516c0,7.291-4.885,13.819-11.879,15.876l-84.486,24.849
	c-23.498,6.912-39.909,28.844-39.909,53.337v84.254c0,4.142,3.358,7.5,7.5,7.5s7.5-3.358,7.5-7.5v-84.254
	c0-17.885,11.983-33.9,29.142-38.947l28.003-8.236v131.437c0,4.142,3.358,7.5,7.5,7.5s7.5-3.358,7.5-7.5V368.65l25.081-7.377v6.952
	c0,48.336,39.325,87.661,87.661,87.661c15.411,0,30.571-4.058,43.84-11.735c3.585-2.074,4.81-6.662,2.736-10.248
	c-2.075-3.586-6.663-4.809-10.248-2.736c-10.989,6.358-23.551,9.718-36.328,9.718c-40.065,0-72.661-32.596-72.661-72.661V356.86
	l1.402-0.412c13.334-3.922,22.646-16.368,22.646-30.267V300.45c14.705,7.137,31.199,11.146,48.613,11.146
	c17.412,0,33.906-4.012,48.613-11.153v25.74c0,13.898,9.313,26.345,22.646,30.267l1.402,0.412v11.364
	c0,15.87-5.022,30.945-14.525,43.595c-2.488,3.312-1.82,8.013,1.492,10.501c1.35,1.014,2.931,1.504,4.499,1.504
	c2.278,0,4.529-1.034,6.002-2.996c11.469-15.268,17.532-33.458,17.532-52.604v-6.952l25.079,7.376V504.5c0,4.142,3.358,7.5,7.5,7.5
	s7.5-3.358,7.5-7.5V373.061l28.005,8.237c17.158,5.046,29.142,21.062,29.142,38.947v84.254c0,4.142,3.358,7.5,7.5,7.5
	s7.5-3.358,7.5-7.5v-84.254C455.887,395.751,439.476,373.819,415.978,366.907z M360.209,160.322c-4.705,0-8.532-3.828-8.532-8.532
	v-32.581h12.766l-3.163,41.113H360.209z M156.616,33.631C167.331,21.791,182.635,15,198.604,15h153.589
	c17.965,0,32.581,14.616,32.581,32.581s-14.616,32.581-32.581,32.581c-12.973,0-24.704-7.687-29.887-19.583
	c-1.654-3.798-6.074-5.534-9.872-3.88c-3.797,1.655-5.535,6.074-3.88,9.872c0.681,1.564,1.443,3.076,2.274,4.537
	c-2.792,5.488-8.472,9.054-14.748,9.054c-9.125,0-16.548-7.423-16.548-16.548c0-4.079,1.496-7.996,4.212-11.031
	c2.763-3.087,2.5-7.828-0.586-10.59c-3.088-2.763-7.829-2.5-10.59,0.586c-5.182,5.79-8.036,13.26-8.036,21.035
	c0,17.396,14.152,31.548,31.548,31.548c9.762,0,18.765-4.534,24.646-11.884c8.526,7.511,19.643,11.884,31.467,11.884
	c4.969,0,9.761-0.769,14.268-2.188l-0.864,11.237H144.951l-2.508-25.081h97.525c4.142,0,7.5-3.358,7.5-7.5s-3.358-7.5-7.5-7.5
	h-97.469C144.011,52.868,148.873,42.187,156.616,33.631z M150.562,160.322l-4.111-41.113h13.872v32.581
	c0,4.705-3.828,8.532-8.532,8.532H150.562z M159.291,199.887c0-4.142-3.358-7.5-7.5-7.5s-7.5,3.358-7.5,7.5v0.516h-4.524
	c-3.537,0-6.927-1.506-9.303-4.131c-2.407-2.66-3.533-6.115-3.171-9.729c0.63-6.292,6.611-11.22,13.617-11.22h10.88
	c12.976,0,23.532-10.557,23.532-23.532V119.21h161.354v32.581c0,12.976,10.557,23.532,23.532,23.532h12.024
	c3.537,0,6.928,1.505,9.303,4.13c2.407,2.66,3.533,6.115,3.171,9.729c-0.629,6.292-6.61,11.221-13.616,11.221h-3.385v-0.439
	c0-4.141-3.356-7.499-7.497-7.5c0,0-0.002,0-0.003,0c-4.14,0-7.497,3.354-7.5,7.495c-0.039,53.286-43.421,96.638-96.706,96.638
	C202.674,296.596,159.291,253.212,159.291,199.887z"/>
<path d="M215.919,144.29h-16.032c-4.142,0-7.5,3.358-7.5,7.5s3.358,7.5,7.5,7.5h16.032c4.142,0,7.5-3.358,7.5-7.5
	S220.062,144.29,215.919,144.29z"/>
<path d="M312.113,144.29h-16.032c-4.142,0-7.5,3.358-7.5,7.5s3.358,7.5,7.5,7.5h16.032c4.142,0,7.5-3.358,7.5-7.5
	S316.255,144.29,312.113,144.29z"/>
<g>
</g>
<g>
</g>
<g>
</g>
<g>
</g>
<g>
</g>
<g>
</g>
<g>
</g>
<g>
</g>
<g>
</g>
<g>
</g>
<g>
</g>
<g>
</g>
<g>
</g>
<g>
</g>
<g>
</g>
</svg>
