<?xml version="1.0" encoding="iso-8859-1"?>
<!-- Generator: Adobe Illustrator 19.0.0, SVG Export Plug-In . SVG Version: 6.00 Build 0)  -->
<svg version="1.1" id="Capa_1" xmlns="http://www.w3.org/2000/svg" xmlns:xlink="http://www.w3.org/1999/xlink" x="0px" y="0px"
	 viewBox="0 0 512 512" style="enable-background:new 0 0 512 512;" xml:space="preserve">
<g>
	<path style="fill:#8C5F4B;" d="M167.941,167.598c-0.271,0-0.533,0.037-0.803,0.041c-4.135-20.472-23.881-35.286-46.287-31.455
		c-15.79,2.7-28.809,15.159-32.067,30.843c-3.577,17.221,3.926,32.995,16.675,41.644c4.486,3.043,6.572,8.403,6.459,13.823
		c-0.115,5.541,0.603,11.289,2.366,17.164c6.173,20.571,23.994,36.307,45.248,39.397c34.679,5.042,64.443-21.714,64.443-55.422
		C223.975,192.685,198.888,167.598,167.941,167.598z"/>
	<path style="fill:#8C5F4B;" d="M344.049,167.598c0.271,0,0.533,0.037,0.803,0.041c4.135-20.472,23.881-35.286,46.287-31.455
		c15.79,2.7,28.809,15.159,32.067,30.843c3.577,17.221-3.926,32.995-16.675,41.644c-4.486,3.043-6.572,8.403-6.459,13.823
		c0.115,5.541-0.603,11.289-2.366,17.164c-6.173,20.571-23.994,36.307-45.248,39.397c-34.679,5.042-64.443-21.714-64.443-55.422
		C288.014,192.685,313.102,167.598,344.049,167.598z"/>
	<path style="fill:#8C5F4B;" d="M255.995,7.5L255.995,7.5c-66.315,0-120.074,53.759-120.074,120.073v48.03h240.147v-48.03
		C376.068,61.259,322.31,7.5,255.995,7.5z"/>
</g>
<path style="fill:#E3AA75;" d="M408.064,364.416l-82.676-29.18c-12.802-4.518-21.363-16.619-21.363-30.194v-49.39h-96.059v49.39
	c0,13.576-8.561,25.676-21.363,30.194l-82.677,29.18c-19.203,6.777-32.044,24.927-32.044,45.291v94.097h368.226v-94.097
	C440.108,389.344,427.266,371.193,408.064,364.416z"/>
<path style="fill:#B4F09B;" d="M408.064,364.416l-82.676-29.18c-5.304-1.872-9.818-5.095-13.358-9.135v11.086
	c0,32.873-25.332,61.54-58.19,62.526c-34,1.02-61.883-26.238-61.883-60.009v-6.996c-1.694,0.98-3.46,1.86-5.353,2.528l-82.677,29.18
	c-19.203,6.777-32.044,24.927-32.044,45.291v94.097h368.226v-94.097C440.108,389.344,427.266,371.194,408.064,364.416z"/>
<path style="fill:#9BDC9B;" d="M156.098,413.94c8.757,20.996,29.073,34.562,51.758,34.562c4.575,0,9.155-0.565,13.614-1.679
	l34.525-8.632l34.524,8.631c4.46,1.115,9.04,1.68,13.615,1.68c22.685,0,43.001-13.566,51.758-34.562
	c8.224-19.715,12.697-41.316,13.308-63.24l-43.813-15.463c-5.303-1.872-9.817-5.095-13.358-9.135v11.086
	c0,32.873-25.332,61.54-58.19,62.526c-34.001,1.02-61.884-26.238-61.884-60.009v-6.996c-1.694,0.98-3.459,1.86-5.353,2.528
	L142.79,350.7C143.4,372.625,147.875,394.225,156.098,413.94z"/>
<path style="fill:#D29B6E;" d="M207.965,309.785c14.732,6.382,30.977,9.906,48.029,9.906s33.297-3.524,48.029-9.906v-38.123h-96.059
	v38.123H207.965z"/>
<path style="fill:#F5B97D;" d="M372.066,159.593h-8.005c0,0-10.719-1.291-13.999-2.199c-18.187-5.036-57.561-20.76-87.388-66.731
	c-3.143-4.844-10.217-4.844-13.36,0c-29.827,45.972-69.201,61.696-87.388,66.731c-3.279,0.908-13.999,2.199-13.999,2.199h-8.005
	c-11.053,0-20.012,8.96-20.012,20.012c0,11.052,8.96,20.012,20.012,20.012h12.412c4.1,53.72,48.889,96.059,103.659,96.059
	s99.559-42.339,103.659-96.059h12.412c11.053,0,20.012-8.96,20.012-20.012C392.078,168.553,383.119,159.593,372.066,159.593z"/>
<path style="fill:#FFE17D;" d="M304.016,311.686l30.273,10.294c6.133,2.138,10.379,7.802,10.761,14.285
	c1.708,28.959-4.61,52.334-11.323,68.429c-6.118,14.67-21.963,22.684-37.383,18.829l-40.349-10.088l-40.349,10.088
	c-15.421,3.855-31.265-4.159-37.383-18.829c-6.713-16.095-13.031-39.47-11.323-68.429c0.382-6.483,4.628-12.147,10.761-14.285
	l30.273-10.294l-0.008-0.258v24.015c0,26.526,21.503,48.029,48.029,48.029c26.526,0,48.029-21.504,48.029-48.029v-24.015"/>
<g>
	<polygon style="fill:#FFD164;" points="304.016,311.686 304.024,311.689 304.024,311.429 	"/>
	<polygon style="fill:#FFD164;" points="207.965,311.429 207.965,311.689 207.973,311.686 	"/>
</g>
<path style="fill:#E3AA75;" d="M255.993,125.609c15.736,17.015,40.1,38.573,70.264,49.995c12.446,4.712,25.796-4.45,25.796-17.758
	v-0.013c-0.783-0.15-1.491-0.299-1.991-0.437c-18.182-5.034-57.54-20.752-87.364-66.696c-3.15-4.852-10.246-4.87-13.396-0.017
	c-21.077,32.476-46.858,49.793-66.607,58.96c-1.333,0.619-12.113,4.982-13.361,5.412c-2.709,0.935-5.247,1.743-7.408,2.341
	c-3.279,0.908-13.999,2.199-13.999,2.199h-6.863c-10.468,0-20.007,7.532-21.05,17.948c-1.2,11.979,8.175,22.077,19.909,22.077
	h12.412c4.1,53.72,48.889,96.059,103.659,96.059c5.458,0,10.778-0.547,16.01-1.357c-45.704-7.077-81.615-43.786-87.276-89.926
	c-0.163-1.328-0.323-3.262-0.47-5.568c-0.798-12.567,5.869-24.509,17.043-30.315C224.302,156.561,243.071,139.58,255.993,125.609z"
	/>
<path style="fill:#A06E50;" d="M282.368,10.498c-1.882-0.395-3.765-0.781-5.675-1.093c-0.696-0.121-1.4-0.212-2.1-0.321
	c-1.623,7.23-2.589,14.706-2.589,22.43c0,57.473,46.591,104.064,104.064,104.064v-8.005
	C376.068,70.331,335.979,22.53,282.368,10.498z"/>
<path d="M207.969,160.794c-4.142,0-7.5,3.358-7.5,7.5v8.005c0,4.142,3.358,7.5,7.5,7.5s7.5-3.358,7.5-7.5v-8.005
	C215.469,164.152,212.112,160.794,207.969,160.794z"/>
<path d="M304.028,160.794c-4.143,0-7.5,3.358-7.5,7.5v8.005c0,4.142,3.357,7.5,7.5,7.5s7.5-3.358,7.5-7.5v-8.005
	C311.528,164.152,308.171,160.794,304.028,160.794z"/>
<path d="M274.746,218.99c-2.732,2.695-9.281,5.843-18.747,5.843s-16.015-3.148-18.747-5.844c-2.95-2.91-7.698-2.877-10.606,0.071
	c-2.909,2.949-2.877,7.697,0.071,10.606c6.452,6.366,17.398,10.166,29.282,10.166c11.885,0,22.831-3.8,29.282-10.167
	c2.948-2.909,2.98-7.658,0.071-10.606C282.44,216.111,277.692,216.082,274.746,218.99z"/>
<path d="M410.563,357.782l-57.967-20.459c-0.025-0.502-0.033-0.992-0.062-1.498c-0.563-9.567-6.757-17.781-15.833-20.945
	l-25.188-8.565v-17.96c3.754-2.163,7.369-4.541,10.832-7.112c8.096,3.935,16.84,5.936,25.832,5.936c3.678,0,7.398-0.335,11.13-1.009
	c20.928-3.78,38.771-19.409,45.458-39.817c2.601-7.937,3.536-16.06,2.782-24.144c-0.275-2.95,1.067-5.813,3.502-7.471
	c16.023-10.91,23.613-29.601,19.809-48.778c-3.755-18.922-19.079-33.851-38.133-37.15c-3.055-0.529-6.118-0.762-9.16-0.717v-0.519
	C383.564,57.229,326.335,0,255.991,0S128.417,57.229,128.417,127.574v0.517c-2.97-0.031-5.958,0.202-8.939,0.719
	c-19.055,3.299-34.379,18.229-38.133,37.15c-3.805,19.178,3.785,37.869,19.809,48.778c2.435,1.658,3.776,4.52,3.501,7.47
	c-0.753,8.087,0.183,16.21,2.783,24.144c6.688,20.408,24.53,36.037,45.458,39.817c3.725,0.673,7.437,1.007,11.112,1.007
	c8.94,0,17.648-1.984,25.711-5.874c3.439,2.548,7.026,4.906,10.751,7.052v17.96l-25.243,8.584
	c-9.021,3.146-15.215,11.359-15.779,20.926c-0.03,0.508-0.037,1-0.063,1.504l-57.951,20.454
	c-22.16,7.821-37.048,28.864-37.048,52.363V504.5c0,4.142,3.358,7.5,7.5,7.5s7.5-3.358,7.5-7.5v-94.354
	c0-4.979,0.921-9.804,2.617-14.289l37.86,32.452c5.441,4.664,8.563,11.45,8.563,18.617V504.5c0,4.142,3.358,7.5,7.5,7.5
	s7.5-3.358,7.5-7.5v-57.575c0-11.552-5.03-22.488-13.801-30.005l-39.69-34.021c4.414-4.864,10.028-8.691,16.493-10.973l52.91-18.674
	c1.06,23.192,6.802,41.868,12,54.33c7.604,18.234,27.003,27.999,46.124,23.217l31.031-7.757v24.73c0,4.142,3.358,7.5,7.5,7.5
	c4.143,0,7.5-3.358,7.5-7.5v-24.73l31.03,7.757c3.259,0.815,6.524,1.207,9.739,1.207c15.65,0,30.076-9.298,36.385-24.424
	c5.198-12.461,10.941-31.139,12-54.336l52.925,18.68c6.465,2.282,12.079,6.109,16.493,10.973l-39.691,34.021
	c-8.771,7.518-13.801,18.454-13.801,30.005V504.5c0,4.142,3.357,7.5,7.5,7.5s7.5-3.358,7.5-7.5v-57.575
	c0-7.167,3.121-13.952,8.563-18.617l37.861-32.452c1.695,4.484,2.617,9.31,2.617,14.289V504.5c0,4.142,3.357,7.5,7.5,7.5
	s7.5-3.358,7.5-7.5v-94.354C447.612,386.646,432.723,365.603,410.563,357.782z M390.166,143.589
	c12.78,2.212,23.463,12.612,25.979,25.289c2.613,13.174-2.573,25.995-13.537,33.46c-6.947,4.73-10.777,12.876-9.996,21.262
	c0.563,6.026-0.145,12.109-2.101,18.081c-4.995,15.244-18.29,26.913-33.87,29.727c-7.393,1.334-14.697,0.908-21.538-1.212
	c16.603-16.713,27.957-38.641,31.37-63.079h5.59c15.17,0,27.512-12.342,27.512-27.512c0-11.065-6.57-20.619-16.01-24.983v-11.51
	C385.75,143.065,387.956,143.207,390.166,143.589z M255.991,15c62.073,0,112.573,50.5,112.573,112.574v24.519
	c-0.185,0-0.47-0.002-0.505-0.002c-7.238,0-14.659-1.027-22.055-3.054c-4.006-1.095-8.121,1.258-9.216,5.251
	c-1.095,3.995,1.257,8.121,5.251,9.215c8.688,2.38,17.441,3.587,26.02,3.587v-0.028c0.943,0.031,2.209,0.031,4.003,0.031
	c6.899,0,12.512,5.613,12.512,12.512s-5.612,12.512-12.512,12.512h-4.514c0.001-0.169,0.006-0.336,0.006-0.505
	c0-4.142-3.357-7.5-7.5-7.5s-7.5,3.358-7.5,7.5c0,53.246-43.318,96.564-96.563,96.564c-53.246,0-96.564-43.318-96.564-96.564
	c0-4.142-3.358-7.5-7.5-7.5s-7.5,3.358-7.5,7.5c0,0.169,0.006,0.336,0.006,0.505h-4.514c-6.899,0-12.512-5.613-12.512-12.512
	s5.613-12.512,12.512-12.512c1.794,0,3.059,0,4.002-0.031v0.028c53.568,0,95.935-46.436,111.664-66.4
	c0.05-0.063,0.166-0.211,0.405-0.211c0.239,0,0.355,0.147,0.404,0.21c9.583,12.164,29.621,34.865,56.151,50.234
	c3.585,2.076,8.175,0.855,10.249-2.73c2.077-3.584,0.854-8.173-2.729-10.249c-24.368-14.116-42.969-35.216-51.888-46.537
	c-2.968-3.767-7.409-5.928-12.187-5.928c0,0,0,0-0.001,0c-4.777,0-9.219,2.161-12.187,5.928
	c-43.15,54.77-84.225,60.683-99.882,60.683c-0.035,0-0.319,0.001-0.505,0.001v-24.518C143.417,65.5,193.918,15,255.991,15z
	 M155.562,271.408c-15.58-2.814-28.874-14.483-33.87-29.728c-1.957-5.969-2.664-12.053-2.102-18.081
	c0.782-8.385-3.048-16.532-9.995-21.262c-10.963-7.464-16.151-20.286-13.537-33.46c2.515-12.677,13.198-23.077,25.979-25.289
	c2.134-0.37,4.266-0.514,6.38-0.481v11.515c-9.44,4.364-16.01,13.918-16.01,24.983c0,15.17,12.342,27.512,27.512,27.512h5.59
	c3.416,24.461,14.788,46.408,31.417,63.127C170.13,272.318,162.883,272.73,155.562,271.408z M255.991,303.177
	c14.288,0,27.955-2.703,40.521-7.619l0.008,39.886c0,22.348-18.182,40.529-40.529,40.529c-22.348,0-40.529-18.181-40.529-40.529
	l0.008-39.886C228.036,300.474,241.703,303.177,255.991,303.177z M326.801,401.809c-4.728,11.334-16.774,17.406-28.642,14.439
	l-40.35-10.087c-1.195-0.299-2.444-0.299-3.638,0l-40.35,10.087c-11.87,2.965-23.915-3.106-28.643-14.439
	c-5.834-13.99-12.437-36.64-10.758-65.101c0.207-3.5,2.461-6.5,5.689-7.626l20.351-6.92v13.283c0,30.619,24.91,55.529,55.529,55.529
	s55.529-24.91,55.529-55.529v-13.283l20.297,6.902c3.282,1.145,5.536,4.145,5.742,7.645
	C339.238,365.172,332.635,387.82,326.801,401.809z"/>
<path d="M255.991,472.289c-4.142,0-7.5,3.358-7.5,7.5v8.005c0,4.142,3.358,7.5,7.5,7.5c4.143,0,7.5-3.358,7.5-7.5v-8.005
	C263.491,475.647,260.134,472.289,255.991,472.289z"/>
<g>
</g>
<g>
</g>
<g>
</g>
<g>
</g>
<g>
</g>
<g>
</g>
<g>
</g>
<g>
</g>
<g>
</g>
<g>
</g>
<g>
</g>
<g>
</g>
<g>
</g>
<g>
</g>
<g>
</g>
</svg>
