<?xml version="1.0"?>
<svg xmlns="http://www.w3.org/2000/svg" xmlns:xlink="http://www.w3.org/1999/xlink" xmlns:svgjs="http://svgjs.com/svgjs" version="1.1" width="512" height="512" x="0" y="0" viewBox="0 0 512 512" style="enable-background:new 0 0 512 512" xml:space="preserve" class=""><g><g xmlns="http://www.w3.org/2000/svg"><path d="m0 512h90v-271h-90zm30-211h30v30h-30zm0 60h30v30h-30zm0 60h30v30h-30z" fill="#efefef" data-original="#000000" class=""/><path d="m422 241v271h90v-271zm60 210h-30v-30h30zm0-60h-30v-30h30zm0-60h-30v-30h30z" fill="#efefef" data-original="#000000" class=""/><path d="m241 451h30v61h-30z" fill="#efefef" data-original="#000000" class=""/><path d="m121 512h90v-91h90v91h90v-391h-270zm60-331h150v30h-150zm0 60h150v30h-150zm0 60h150v30h-150zm0 60h150v30h-150z" fill="#efefef" data-original="#000000" class=""/><path d="m361 61h-90v-61h-30v61h-90v30h210z" fill="#efefef" data-original="#000000" class=""/></g></g></svg>
