<?xml version="1.0"?>
<svg xmlns="http://www.w3.org/2000/svg" xmlns:xlink="http://www.w3.org/1999/xlink" xmlns:svgjs="http://svgjs.com/svgjs" version="1.1" width="512" height="512" x="0" y="0" viewBox="0 0 64 64" style="enable-background:new 0 0 512 512" xml:space="preserve" class=""><g><g xmlns="http://www.w3.org/2000/svg" fill="rgb(0,0,0)"><path d="m12 15.574-11-6.417v8.843l11 6.417z" fill="#efefef" data-original="#000000" class=""/><path d="m24.008 7.421-11.008-6.421-11.008 6.421 11.008 6.421z" fill="#efefef" data-original="#000000" class=""/><path d="m20 37 2.094 1.222-5.214 3.041-3.88-2.263-11.008 6.421 11.008 6.421 11.008-6.421-5.143-3 5.214-3.042 6.921 4.038v-8.843l-11-6.417z" fill="#efefef" data-original="#000000" class=""/><path d="m39.012 24.09 5.217-3.04 5.771 3.367v-8.843l-11-6.417v8.843l3.244 1.892-5.217 3.04-5.027-2.932-5.239 3.056-5.217-3.04 3.456-2.016v-8.843l-11 6.417v8.843l5.558-3.242 5.217 3.04-3.783 2.206 11.008 6.421 11.008-6.421z" fill="#efefef" data-original="#000000" class=""/><path d="m62.008 7.421-11.008-6.421-11.008 6.421 11.008 6.421z" fill="#efefef" data-original="#000000" class=""/><path d="m52 15.574v8.843l11-6.417v-8.843z" fill="#efefef" data-original="#000000" class=""/><path d="m1 56 11 6.417v-8.843l-11-6.417z" fill="#efefef" data-original="#000000" class=""/><path d="m14 62.417 11-6.417v-8.843l-11 6.417z" fill="#efefef" data-original="#000000" class=""/><path d="m39 56 11 6.417v-8.843l-11-6.417z" fill="#efefef" data-original="#000000" class=""/><path d="m51 39-4.217 2.46-5.217-3.04 2.434-1.42v-8.843l-11 6.417v8.843l6.581-3.839 5.217 3.04-4.806 2.803 11.008 6.421 11.008-6.421z" fill="#efefef" data-original="#000000" class=""/><path d="m52 62.417 11-6.417v-8.843l-11 6.417z" fill="#efefef" data-original="#000000" class=""/></g></g></svg>
