<?xml version="1.0" encoding="UTF-8" standalone="no" ?>
<!DOCTYPE svg PUBLIC "-//W3C//DTD SVG 1.1//EN" "http://www.w3.org/Graphics/SVG/1.1/DTD/svg11.dtd">
<svg xmlns="http://www.w3.org/2000/svg" xmlns:xlink="http://www.w3.org/1999/xlink" version="1.1" width="500" height="500" viewBox="0 0 500 500" xml:space="preserve">
<desc>Created with Fabric.js 4.6.0</desc>
<defs>
</defs>
<g transform="matrix(1 0 0 1 31.99 31.99)" id="mwRFRJcBr-F25g0TIod2z"  >
<path style="stroke: none; stroke-width: 1; stroke-dasharray: none; stroke-linecap: butt; stroke-dashoffset: 0; stroke-linejoin: miter; stroke-miterlimit: 4; fill: rgb(239,239,239); fill-rule: nonzero; opacity: 1;" vector-effect="non-scaling-stroke"  transform=" translate(-31.99, -31.99)" d="M 28.8 47.4 C 29.8 47.4 30.7 48.199999999999996 30.7 49.3 C 30.7 50.3 29.9 51.199999999999996 28.8 51.199999999999996 C 27.8 51.199999999999996 26.900000000000002 50.4 26.900000000000002 49.3 C 26.9 48.2 27.8 47.4 28.8 47.4 M 58.2 35.8 C 57.2 35.8 56.300000000000004 35 56.300000000000004 33.9 C 56.300000000000004 32.9 57.1 32 58.2 32 C 59.2 32 60.1 32.8 60.1 33.9 C 60.1 34.9 59.2 35.8 58.2 35.8 M 58.2 28.1 C 55 28.1 52.400000000000006 30.700000000000003 52.400000000000006 33.9 C 52.400000000000006 34.5 52.50000000000001 35.1 52.7 35.699999999999996 L 33.6 45.9 C 32.5 44.3 30.700000000000003 43.4 28.8 43.4 C 26.6 43.4 24.6 44.699999999999996 23.6 46.6 L 6.4 37.6 C 4.6000000000000005 36.6 3.2 33.7 3.4000000000000004 30.900000000000002 C 3.5000000000000004 29.500000000000004 4 28.400000000000002 4.7 28.000000000000004 C 5.2 27.700000000000003 5.7 27.800000000000004 6.4 28.100000000000005 L 6.5 28.200000000000006 C 11.1 30.600000000000005 26 38.400000000000006 26.6 38.7 C 27.6 39.1 28.1 39.300000000000004 29.8 38.5 L 60.6 22.5 C 61.1 22.3 61.6 21.9 61.6 21.2 C 61.6 20.3 60.7 19.9 60.7 19.9 C 58.900000000000006 19.099999999999998 56.2 17.799999999999997 53.6 16.599999999999998 C 48 13.999999999999998 41.6 10.999999999999998 38.8 9.499999999999998 C 36.4 8.199999999999998 34.4 9.299999999999999 34.099999999999994 9.499999999999998 L 33.39999999999999 9.799999999999999 C 20.7 16.2 3.9 24.5 2.9 25.1 C 1.2 26.1 0.10000000000000009 28.200000000000003 0 30.8 C -0.2 34.9 1.9 39.2 4.9 40.7 L 23.1 50.1 C 23.5 52.9 26 55.1 28.8 55.1 C 32 55.1 34.5 52.6 34.6 49.4 L 54.6 38.599999999999994 C 55.6 39.39999999999999 56.9 39.8 58.2 39.8 C 61.400000000000006 39.8 64 37.199999999999996 64 34 C 64 30.7 61.4 28.1 58.2 28.1" stroke-linecap="round" />
</g>
</svg>